<svg xmlns="http://www.w3.org/2000/svg" width="112" height="100" fill="none"><g filter="url(#a)"><path fill="#9BCEF1" fill-rule="evenodd" d="M103.859 34.485c.726.117 1.374-.473 1.26-1.199-.885-5.675-4.49-10.583-10.008-12.57-9.185-3.305-23.653-7.334-39.616-7.334-27.067 0-44.598 7.878-46.738 35.126-1.95 24.836-2.76 44.768 24.684 44.768h65.116a6.776 6.776 0 0 0 6.776-6.775v-3.294c0-.655-.558-1.173-1.212-1.127-25.023 1.729-47.669 1.41-64.564-2.722-2.882-.704-4.803-3.348-4.803-6.315V52.077c0-1.65.584-3.261 1.763-4.415 14.807-14.494 43.276-17.08 67.342-13.177Z" clip-rule="evenodd"/></g><path fill="#1F2024" d="m95.11 20.716.383-1.062-.382 1.063Zm-39.615-7.334v1.13-1.13ZM8.757 48.508l-1.125-.089 1.125.089Zm30.8 30.85.268-1.097-.269 1.097Zm-3.04-31.696-.79-.807.79.807ZM104.12 82.08l.078 1.126-.078-1.126Zm.998-48.794 1.116-.174-1.116.174Zm-1.26 1.199-.181 1.114.181-1.114Zm-9.13-12.706c5.084 1.83 8.445 6.364 9.275 11.681l2.231-.348c-.941-6.033-4.789-11.316-10.742-13.458l-.765 2.125Zm-39.234-7.268c15.785 0 30.117 3.987 39.233 7.268l.765-2.125c-9.253-3.33-23.858-7.401-39.998-7.401v2.258ZM9.883 48.596c1.05-13.37 5.845-21.793 13.524-26.93 7.751-5.188 18.625-7.155 32.088-7.155v-2.258c-13.603 0-25.029 1.971-33.344 7.535C13.76 25.402 8.72 34.542 7.63 48.42l2.252.177Zm23.558 43.551c-6.735 0-11.607-1.224-15.127-3.341-3.498-2.103-5.76-5.148-7.178-8.992-1.429-3.87-1.997-8.544-2.075-13.85-.078-5.302.334-11.155.822-17.368l-2.251-.177c-.488 6.205-.909 12.157-.83 17.578.08 5.416.659 10.382 2.215 14.6 1.566 4.243 4.125 7.735 8.133 10.145 3.985 2.396 9.303 3.664 16.29 3.664v-2.259Zm65.116 0H33.441v2.259h65.116v-2.259Zm5.646-5.646a5.646 5.646 0 0 1-5.646 5.646v2.259a7.905 7.905 0 0 0 7.905-7.905h-2.259Zm0-3.294v3.294h2.259v-3.294h-2.259Zm-.16-2.254c-24.996 1.727-47.499 1.397-64.218-2.692l-.537 2.194c17.072 4.175 39.86 4.482 64.911 2.751l-.156-2.253Zm-64.218-2.692c-2.337-.57-3.941-2.73-3.941-5.218h-2.259c0 3.445 2.236 6.574 5.663 7.412l.537-2.194Zm-3.941-5.218V52.077h-2.259v20.966h2.259Zm0-20.966c0-1.391.491-2.696 1.422-3.608l-1.58-1.614c-1.426 1.396-2.1 3.314-2.1 5.222h2.258Zm1.422-3.608c7.177-7.025 17.743-11.23 29.593-13.18 11.836-1.947 24.845-1.625 36.779.31l.362-2.229c-12.132-1.967-25.39-2.303-37.507-.31-12.103 1.991-23.175 6.325-30.806 13.795l1.58 1.614Zm69.156 34.738a2.262 2.262 0 0 0-2.419-2.254l.156 2.253h.002-.001l.003.002c.002.001.002.002.001 0l-.001-.001c0-.001 0-.001 0 0h2.259Zm-2.458-49.747a.102.102 0 0 1 .006-.047.085.085 0 0 1 .022-.035c.01-.01.016-.007.008-.008l-.362 2.23c1.408.228 2.801-.929 2.557-2.488l-2.231.348Z"/><g filter="url(#b)"><path fill="#fff" fill-rule="evenodd" d="M106.462 30.797c0-5.148-2.111-10.17-6.295-13.169C89.321 9.857 77.54 6.605 58.098 6.605c-23.238 0-54.68 9.6-54.68 39.524v21.88c0 22.161 6.493 29.784 31.436 29.784h64.832a6.776 6.776 0 0 0 6.776-6.776v-8.132c0-.919-1.081-1.497-1.962-1.234a6.669 6.669 0 0 1-1.421.26c-25.952 1.914-49.488 1.707-66.91-2.553-2.882-.705-4.802-3.349-4.802-6.315V52.077c0-1.65.583-3.262 1.762-4.416 15.552-15.222 46.174-17.309 70.936-12.54a6.4 6.4 0 0 1 .453.104c.879.237 1.944-.342 1.944-1.252v-3.176Z" clip-rule="evenodd"/></g><path fill="#1F2024" d="m100.167 17.628.658-.918-.658.918Zm2.912 64.283.083 1.127-.083-1.127Zm-66.91-2.553.268-1.097-.268 1.097Zm-3.04-31.697.79.807-.79-.807Zm70.936-12.54-.213 1.109.213-1.109Zm.435 46.53.323 1.082-.323-1.082Zm-4.99-63.105c3.832 2.747 5.823 7.394 5.823 12.25h2.258c0-5.437-2.232-10.836-6.766-14.086l-1.316 1.836ZM58.097 7.735c19.295 0 30.819 3.22 41.411 10.811l1.316-1.836C89.726 8.757 77.688 5.476 58.098 5.476v2.259ZM4.547 46.129c0-14.475 7.566-24.02 18.056-30.003 10.542-6.013 24-8.391 35.495-8.391V5.476c-11.743 0-25.625 2.42-36.614 8.689C10.444 20.462 2.288 30.68 2.288 46.129h2.259Zm0 21.88v-21.88H2.288v21.88h2.259Zm30.307 28.654c-12.434 0-19.88-1.918-24.279-6.256-4.39-4.33-6.028-11.351-6.028-22.398H2.288c0 11.114 1.609 18.984 6.701 24.006 5.084 5.014 13.356 6.907 25.865 6.907v-2.259Zm64.832 0H34.854v2.259h64.832v-2.259Zm5.647-5.646a5.646 5.646 0 0 1-5.647 5.646v2.259a7.905 7.905 0 0 0 7.905-7.905h-2.258Zm0-8.132v8.132h2.258v-8.132h-2.258Zm-1.155-2.316a5.555 5.555 0 0 1-1.182.216l.166 2.253a7.81 7.81 0 0 0 1.661-.305l-.645-2.164Zm-1.182.216c-25.927 1.912-49.317 1.692-66.559-2.524l-.536 2.194c17.601 4.304 41.284 4.498 67.261 2.583l-.166-2.253Zm-66.559-2.524c-2.336-.571-3.94-2.73-3.94-5.218h-2.26c0 3.445 2.237 6.574 5.664 7.412l.536-2.194Zm-3.94-5.218V52.077h-2.26v20.966h2.26Zm0-20.966c0-1.392.49-2.697 1.422-3.609l-1.58-1.614c-1.426 1.397-2.101 3.315-2.101 5.223h2.258Zm1.422-3.609c7.538-7.378 18.815-11.646 31.385-13.456 12.552-1.808 26.27-1.146 38.548 1.218l.427-2.218c-12.486-2.404-26.46-3.084-39.297-1.235-12.82 1.846-24.63 6.233-32.643 14.078l1.58 1.613Zm69.933-12.238c.126.024.25.053.372.086l.587-2.181a7.347 7.347 0 0 0-.532-.123l-.427 2.218Zm1.481-5.433v3.176h2.258v-3.176h-2.258Zm-1.109 5.519a2.834 2.834 0 0 0 2.183-.322c.628-.383 1.184-1.082 1.184-2.021h-2.258c0 .002-.001.002 0 0l-.004.007a.304.304 0 0 1-.097.085.576.576 0 0 1-.421.07l-.587 2.18Zm3.367 46.569c0-.947-.564-1.65-1.202-2.03a2.804 2.804 0 0 0-2.211-.286l.645 2.164a.551.551 0 0 1 .411.062.285.285 0 0 1 .099.09h2.258Z"/><g filter="url(#c)"><path fill="#E2E2E2" fill-rule="evenodd" d="M28.158 43.246c-.88 1.105-1.308 2.494-1.308 3.906v29.38c0 2.805 1.717 5.345 4.396 6.175 18.05 5.593 42.608 5.866 69.707 3.381 3.149-.288 5.604-2.736 6.013-5.795a6.645 6.645 0 0 1-3.887 1.619c-25.952 1.913-49.488 1.706-66.91-2.554-2.882-.704-4.802-3.348-4.802-6.315V52.077c0-1.65.583-3.261 1.762-4.415 15.552-15.223 46.174-17.31 70.936-12.54a6.3 6.3 0 0 1 2.961 1.443v-3.374c0-3-1.967-5.665-4.883-6.373-25.835-6.272-58.047-3.592-73.985 16.428Z" clip-rule="evenodd"/></g><path fill="#1F2024" d="m28.158 43.246.884.704-.884-.704Zm3.088 39.461.334-1.078-.334 1.078Zm69.707 3.381-.103-1.124.103 1.124Zm6.013-5.795 1.12.15.396-2.965-2.257 1.963.741.852Zm-3.887 1.619.083 1.126-.083-1.126Zm-66.91-2.554-.268 1.097.268-1.097Zm-3.04-31.696-.79-.807.79.807Zm70.936-12.54.214-1.11-.214 1.11Zm2.961 1.443-.742.852 1.872 1.631v-2.483h-1.13Zm-4.883-9.747-.266 1.097.266-1.097ZM27.979 47.152c0-1.188.36-2.32 1.063-3.202l-1.767-1.407c-1.057 1.328-1.555 2.973-1.555 4.61h2.259Zm0 29.38v-29.38H25.72v29.38h2.259Zm3.601 5.097c-2.165-.671-3.601-2.742-3.601-5.096H25.72c0 3.255 1.999 6.264 5.192 7.253l.668-2.157Zm69.27 3.335c-27.07 2.482-51.442 2.188-69.27-3.335l-.668 2.157c18.27 5.661 43.014 5.914 70.144 3.427l-.206-2.25Zm4.997-4.82c-.341 2.55-2.387 4.58-4.997 4.82l.206 2.249c3.688-.338 6.553-3.203 7.03-6.77l-2.239-.3Zm.378-.703a5.518 5.518 0 0 1-3.229 1.345l.166 2.252a7.777 7.777 0 0 0 4.545-1.893l-1.482-1.704Zm-3.229 1.345c-25.927 1.911-49.317 1.692-66.559-2.525l-.536 2.194c17.601 4.304 41.284 4.498 67.261 2.583l-.166-2.252ZM36.437 78.26c-2.336-.57-3.94-2.73-3.94-5.218h-2.26c0 3.445 2.237 6.574 5.664 7.412l.536-2.194Zm-3.94-5.218V52.077h-2.26v20.966h2.26Zm0-20.966c0-1.391.49-2.696 1.422-3.608l-1.58-1.614c-1.426 1.396-2.101 3.314-2.101 5.222h2.258Zm1.422-3.608c7.538-7.379 18.815-11.646 31.385-13.456 12.552-1.808 26.27-1.147 38.548 1.218l.427-2.218c-12.486-2.405-26.46-3.085-39.297-1.236-12.82 1.847-24.63 6.234-32.643 14.078l1.58 1.614Zm69.933-12.239c.932.18 1.758.599 2.432 1.187l1.484-1.703a7.43 7.43 0 0 0-3.489-1.701l-.427 2.218Zm2.045-3.039v3.374h2.259v-3.374h-2.259Zm-4.02-5.276c2.377.577 4.02 2.762 4.02 5.276h2.259c0-3.487-2.292-6.632-5.747-7.47l-.532 2.194ZM29.042 43.95c7.746-9.731 19.498-15.31 32.597-17.666 13.097-2.356 27.448-1.473 40.238 1.631l.532-2.194c-13.045-3.167-27.717-4.08-41.17-1.66-13.45 2.42-25.773 8.193-33.964 18.482l1.767 1.407Z"/><g filter="url(#d)"><circle cx="69.62" cy="92.429" r="2.823" fill="#CAE9FA"/><circle cx="69.62" cy="92.429" r="2.823" stroke="#1F2024" stroke-width="2.259"/></g><g filter="url(#e)"><circle cx="79.783" cy="92.429" r="2.823" fill="#9BCEF1"/><circle cx="79.783" cy="92.429" r="2.823" stroke="#1F2024" stroke-width="2.259"/></g><g filter="url(#f)"><circle cx="89.947" cy="92.429" r="2.823" fill="#FFFA8F"/><circle cx="89.947" cy="92.429" r="2.823" stroke="#1F2024" stroke-width="2.259"/></g><g filter="url(#g)"><path fill="#E2E2E2" d="M1.724 61.94a9.034 9.034 0 0 1 9.034-9.035h4.517a9.034 9.034 0 1 1 0 18.068h-4.517a9.034 9.034 0 0 1-9.034-9.034Z"/></g><path stroke="#1F2024" stroke-width="2.259" d="M1.724 61.94a9.034 9.034 0 0 1 9.034-9.035h4.517a9.034 9.034 0 1 1 0 18.068h-4.517a9.034 9.034 0 0 1-9.034-9.034Z"/><g filter="url(#h)"><path fill="#ACACAE" d="M1.724 61.94a9.034 9.034 0 1 1 18.068 0 9.034 9.034 0 0 1-18.068 0Z"/></g><path stroke="#1F2024" stroke-width="2.259" d="M1.724 61.94a9.034 9.034 0 1 1 18.068 0 9.034 9.034 0 0 1-18.068 0Z"/><g filter="url(#i)"><path fill="#ACACAE" d="M7.935 79.725a6.775 6.775 0 0 1 6.775-6.776h3.388a6.776 6.776 0 0 1 0 13.551H14.71a6.775 6.775 0 0 1-6.775-6.775Z"/></g><path stroke="#1F2024" stroke-width="2.259" d="M7.935 79.725a6.775 6.775 0 0 1 6.775-6.776h3.388a6.776 6.776 0 0 1 0 13.551H14.71a6.775 6.775 0 0 1-6.775-6.775Z"/><g filter="url(#j)"><path fill="#797A7C" d="M7.935 79.725a6.775 6.775 0 1 1 13.55 0 6.775 6.775 0 0 1-13.55 0Z"/></g><path stroke="#1F2024" stroke-width="2.259" d="M7.935 79.725a6.775 6.775 0 1 1 13.55 0 6.775 6.775 0 0 1-13.55 0Z"/><g filter="url(#k)"><path fill="#1F2024" fill-opacity=".2" d="M31.367 52.077c0-1.65.583-3.261 1.762-4.415 15.552-15.223 46.174-17.31 70.936-12.54 3.077.592 5.22 3.336 5.22 6.468v33.605c0 3.52-2.696 6.458-6.206 6.717-25.952 1.913-49.488 1.707-66.91-2.553-2.882-.705-4.802-3.349-4.802-6.316V52.077Z"/></g><path stroke="#1F2024" stroke-width="2.259" d="M31.367 52.077c0-1.65.583-3.261 1.762-4.415 15.552-15.223 46.174-17.31 70.936-12.54 3.077.592 5.22 3.336 5.22 6.468v33.605c0 3.52-2.696 6.458-6.206 6.717-25.952 1.913-49.488 1.707-66.91-2.553-2.882-.705-4.802-3.349-4.802-6.316V52.077Z"/><path fill="#fff" fill-opacity=".8" fill-rule="evenodd" d="m97.888 78.037.65-.044c3.52-.242 6.23-3.186 6.23-6.715V45.842c0-3.156-2.173-5.915-5.28-6.465-.558-.099-1.12-.193-1.684-.284a6.658 6.658 0 0 1 1.882 4.665v29.686a6.74 6.74 0 0 1-1.798 4.593Z" clip-rule="evenodd"/><g filter="url(#l)"><rect width=".282" height="45.735" x="13.017" y="7.17" fill="#ACACAE" rx=".141"/></g><rect width=".282" height="45.735" x="13.017" y="7.17" stroke="#1F2024" stroke-width="2.259" rx=".141"/><path stroke="#1F2024" stroke-width="2.259" d="M13.016 37.378c1.871 0 3.388-1.011 3.388-2.259 0-1.247-1.517-2.258-3.388-2.258M13.016 46.412c1.871 0 3.388-1.011 3.388-2.258 0-1.248-1.517-2.259-3.388-2.259M13.016 41.895c-1.87 0-3.388-1.011-3.388-2.259 0-1.247 1.517-2.258 3.388-2.258M13.016 50.93c-1.87 0-3.388-1.012-3.388-2.26 0-1.247 1.517-2.258 3.388-2.258M13.016 32.861c-1.87 0-3.388-1.01-3.388-2.258s1.517-2.259 3.388-2.259"/><g filter="url(#m)"><path fill="#ACACAE" d="M8.782 6.04a4.517 4.517 0 1 1 9.034.001 4.517 4.517 0 0 1-9.034 0Z"/></g><path stroke="#1F2024" stroke-width="2.259" d="M8.782 6.04a4.517 4.517 0 1 1 9.034.001 4.517 4.517 0 0 1-9.034 0Z"/><defs><filter id="g" width="24.843" height="20.326" x=".595" y="51.776" color-interpolation-filters="sRGB" filterUnits="userSpaceOnUse"><feFlood flood-opacity="0" result="BackgroundImageFix"/><feBlend in="SourceGraphic" in2="BackgroundImageFix" result="shape"/><feColorMatrix in="SourceAlpha" result="hardAlpha" values="0 0 0 0 0 0 0 0 0 0 0 0 0 0 0 0 0 0 127 0"/><feOffset dx="-6.776" dy="2.259"/><feComposite in2="hardAlpha" k2="-1" k3="1" operator="arithmetic"/><feColorMatrix values="0 0 0 0 1 0 0 0 0 1 0 0 0 0 1 0 0 0 0.25 0"/><feBlend in2="shape" result="effect1_innerShadow"/></filter><filter id="a" width="99.669" height="82.153" x="6.793" y="12.252" color-interpolation-filters="sRGB" filterUnits="userSpaceOnUse"><feFlood flood-opacity="0" result="BackgroundImageFix"/><feBlend in="SourceGraphic" in2="BackgroundImageFix" result="shape"/><feColorMatrix in="SourceAlpha" result="hardAlpha" values="0 0 0 0 0 0 0 0 0 0 0 0 0 0 0 0 0 0 127 0"/><feOffset dx="4.517"/><feComposite in2="hardAlpha" k2="-1" k3="1" operator="arithmetic"/><feColorMatrix values="0 0 0 0 0 0 0 0 0 0 0 0 0 0 0 0 0 0 0.25 0"/><feBlend in2="shape" result="effect1_innerShadow"/><feColorMatrix in="SourceAlpha" result="hardAlpha" values="0 0 0 0 0 0 0 0 0 0 0 0 0 0 0 0 0 0 127 0"/><feOffset dx="-4.517" dy="2.259"/><feComposite in2="hardAlpha" k2="-1" k3="1" operator="arithmetic"/><feColorMatrix values="0 0 0 0 1 0 0 0 0 1 0 0 0 0 1 0 0 0 0.25 0"/><feBlend in2="effect1_innerShadow" result="effect2_innerShadow"/></filter><filter id="c" width="82.762" height="66.029" x="25.72" y="22.686" color-interpolation-filters="sRGB" filterUnits="userSpaceOnUse"><feFlood flood-opacity="0" result="BackgroundImageFix"/><feBlend in="SourceGraphic" in2="BackgroundImageFix" result="shape"/><feColorMatrix in="SourceAlpha" result="hardAlpha" values="0 0 0 0 0 0 0 0 0 0 0 0 0 0 0 0 0 0 127 0"/><feOffset dx="-6.776" dy="2.259"/><feComposite in2="hardAlpha" k2="-1" k3="1" operator="arithmetic"/><feColorMatrix values="0 0 0 0 1 0 0 0 0 1 0 0 0 0 1 0 0 0 0.25 0"/><feBlend in2="shape" result="effect1_innerShadow"/></filter><filter id="d" width="9.034" height="7.905" x="64.538" y="88.477" color-interpolation-filters="sRGB" filterUnits="userSpaceOnUse"><feFlood flood-opacity="0" result="BackgroundImageFix"/><feColorMatrix in="SourceAlpha" values="0 0 0 0 0 0 0 0 0 0 0 0 0 0 0 0 0 0 127 0"/><feOffset dx="-1.129"/><feColorMatrix values="0 0 0 0 0.133333 0 0 0 0 0.133333 0 0 0 0 0.133333 0 0 0 1 0"/><feBlend in2="BackgroundImageFix" result="effect1_dropShadow"/><feBlend in="SourceGraphic" in2="effect1_dropShadow" result="shape"/></filter><filter id="e" width="9.034" height="7.905" x="74.702" y="88.477" color-interpolation-filters="sRGB" filterUnits="userSpaceOnUse"><feFlood flood-opacity="0" result="BackgroundImageFix"/><feColorMatrix in="SourceAlpha" values="0 0 0 0 0 0 0 0 0 0 0 0 0 0 0 0 0 0 127 0"/><feOffset dx="-1.129"/><feColorMatrix values="0 0 0 0 0.133333 0 0 0 0 0.133333 0 0 0 0 0.133333 0 0 0 1 0"/><feBlend in2="BackgroundImageFix" result="effect1_dropShadow"/><feBlend in="SourceGraphic" in2="effect1_dropShadow" result="shape"/></filter><filter id="f" width="9.034" height="7.905" x="84.865" y="88.477" color-interpolation-filters="sRGB" filterUnits="userSpaceOnUse"><feFlood flood-opacity="0" result="BackgroundImageFix"/><feColorMatrix in="SourceAlpha" values="0 0 0 0 0 0 0 0 0 0 0 0 0 0 0 0 0 0 127 0"/><feOffset dx="-1.129"/><feColorMatrix values="0 0 0 0 0.133333 0 0 0 0 0.133333 0 0 0 0 0.133333 0 0 0 1 0"/><feBlend in2="BackgroundImageFix" result="effect1_dropShadow"/><feBlend in="SourceGraphic" in2="effect1_dropShadow" result="shape"/></filter><filter id="b" width="105.303" height="93.445" x="2.288" y="5.476" color-interpolation-filters="sRGB" filterUnits="userSpaceOnUse"><feFlood flood-opacity="0" result="BackgroundImageFix"/><feBlend in="SourceGraphic" in2="BackgroundImageFix" result="shape"/><feColorMatrix in="SourceAlpha" result="hardAlpha" values="0 0 0 0 0 0 0 0 0 0 0 0 0 0 0 0 0 0 127 0"/><feOffset dx="18.068" dy="-4.517"/><feComposite in2="hardAlpha" k2="-1" k3="1" operator="arithmetic"/><feColorMatrix values="0 0 0 0 0 0 0 0 0 0 0 0 0 0 0 0 0 0 0.25 0"/><feBlend in2="shape" result="effect1_innerShadow"/><feColorMatrix in="SourceAlpha" result="hardAlpha" values="0 0 0 0 0 0 0 0 0 0 0 0 0 0 0 0 0 0 127 0"/><feOffset dx="-4.517" dy="4.517"/><feComposite in2="hardAlpha" k2="-1" k3="1" operator="arithmetic"/><feColorMatrix values="0 0 0 0 1 0 0 0 0 1 0 0 0 0 1 0 0 0 0.25 0"/><feBlend in2="effect1_innerShadow" result="effect2_innerShadow"/></filter><filter id="h" width="20.326" height="20.326" x=".595" y="51.776" color-interpolation-filters="sRGB" filterUnits="userSpaceOnUse"><feFlood flood-opacity="0" result="BackgroundImageFix"/><feBlend in="SourceGraphic" in2="BackgroundImageFix" result="shape"/><feColorMatrix in="SourceAlpha" result="hardAlpha" values="0 0 0 0 0 0 0 0 0 0 0 0 0 0 0 0 0 0 127 0"/><feOffset dy="-4.517"/><feComposite in2="hardAlpha" k2="-1" k3="1" operator="arithmetic"/><feColorMatrix values="0 0 0 0 0 0 0 0 0 0 0 0 0 0 0 0 0 0 0.25 0"/><feBlend in2="shape" result="effect1_innerShadow"/><feColorMatrix in="SourceAlpha" result="hardAlpha" values="0 0 0 0 0 0 0 0 0 0 0 0 0 0 0 0 0 0 127 0"/><feOffset dy="4.517"/><feComposite in2="hardAlpha" k2="-1" k3="1" operator="arithmetic"/><feColorMatrix values="0 0 0 0 1 0 0 0 0 1 0 0 0 0 1 0 0 0 0.25 0"/><feBlend in2="effect1_innerShadow" result="effect2_innerShadow"/></filter><filter id="i" width="19.197" height="15.809" x="6.806" y="71.82" color-interpolation-filters="sRGB" filterUnits="userSpaceOnUse"><feFlood flood-opacity="0" result="BackgroundImageFix"/><feBlend in="SourceGraphic" in2="BackgroundImageFix" result="shape"/><feColorMatrix in="SourceAlpha" result="hardAlpha" values="0 0 0 0 0 0 0 0 0 0 0 0 0 0 0 0 0 0 127 0"/><feOffset dx="-6.776" dy="2.259"/><feComposite in2="hardAlpha" k2="-1" k3="1" operator="arithmetic"/><feColorMatrix values="0 0 0 0 1 0 0 0 0 1 0 0 0 0 1 0 0 0 0.25 0"/><feBlend in2="shape" result="effect1_innerShadow"/></filter><filter id="j" width="15.809" height="15.809" x="6.806" y="71.82" color-interpolation-filters="sRGB" filterUnits="userSpaceOnUse"><feFlood flood-opacity="0" result="BackgroundImageFix"/><feBlend in="SourceGraphic" in2="BackgroundImageFix" result="shape"/><feColorMatrix in="SourceAlpha" result="hardAlpha" values="0 0 0 0 0 0 0 0 0 0 0 0 0 0 0 0 0 0 127 0"/><feOffset dy="-4.517"/><feComposite in2="hardAlpha" k2="-1" k3="1" operator="arithmetic"/><feColorMatrix values="0 0 0 0 0 0 0 0 0 0 0 0 0 0 0 0 0 0 0.25 0"/><feBlend in2="shape" result="effect1_innerShadow"/><feColorMatrix in="SourceAlpha" result="hardAlpha" values="0 0 0 0 0 0 0 0 0 0 0 0 0 0 0 0 0 0 127 0"/><feOffset dy="4.517"/><feComposite in2="hardAlpha" k2="-1" k3="1" operator="arithmetic"/><feColorMatrix values="0 0 0 0 1 0 0 0 0 1 0 0 0 0 1 0 0 0 0.25 0"/><feBlend in2="effect1_innerShadow" result="effect2_innerShadow"/></filter><filter id="k" width="80.177" height="52.478" x="30.238" y="31.72" color-interpolation-filters="sRGB" filterUnits="userSpaceOnUse"><feFlood flood-opacity="0" result="BackgroundImageFix"/><feBlend in="SourceGraphic" in2="BackgroundImageFix" result="shape"/><feColorMatrix in="SourceAlpha" result="hardAlpha" values="0 0 0 0 0 0 0 0 0 0 0 0 0 0 0 0 0 0 127 0"/><feOffset dx="-6.776" dy="2.259"/><feComposite in2="hardAlpha" k2="-1" k3="1" operator="arithmetic"/><feColorMatrix values="0 0 0 0 1 0 0 0 0 1 0 0 0 0 1 0 0 0 0.25 0"/><feBlend in2="shape" result="effect1_innerShadow"/></filter><filter id="l" width="2.541" height="47.993" x="11.887" y="6.041" color-interpolation-filters="sRGB" filterUnits="userSpaceOnUse"><feFlood flood-opacity="0" result="BackgroundImageFix"/><feBlend in="SourceGraphic" in2="BackgroundImageFix" result="shape"/><feColorMatrix in="SourceAlpha" result="hardAlpha" values="0 0 0 0 0 0 0 0 0 0 0 0 0 0 0 0 0 0 127 0"/><feOffset dy="-4.517"/><feComposite in2="hardAlpha" k2="-1" k3="1" operator="arithmetic"/><feColorMatrix values="0 0 0 0 0 0 0 0 0 0 0 0 0 0 0 0 0 0 0.25 0"/><feBlend in2="shape" result="effect1_innerShadow"/><feColorMatrix in="SourceAlpha" result="hardAlpha" values="0 0 0 0 0 0 0 0 0 0 0 0 0 0 0 0 0 0 127 0"/><feOffset dy="4.517"/><feComposite in2="hardAlpha" k2="-1" k3="1" operator="arithmetic"/><feColorMatrix values="0 0 0 0 1 0 0 0 0 1 0 0 0 0 1 0 0 0 0.25 0"/><feBlend in2="effect1_innerShadow" result="effect2_innerShadow"/></filter><filter id="m" width="11.293" height="11.293" x="7.652" y=".395" color-interpolation-filters="sRGB" filterUnits="userSpaceOnUse"><feFlood flood-opacity="0" result="BackgroundImageFix"/><feBlend in="SourceGraphic" in2="BackgroundImageFix" result="shape"/><feColorMatrix in="SourceAlpha" result="hardAlpha" values="0 0 0 0 0 0 0 0 0 0 0 0 0 0 0 0 0 0 127 0"/><feOffset dx="4.517"/><feComposite in2="hardAlpha" k2="-1" k3="1" operator="arithmetic"/><feColorMatrix values="0 0 0 0 0 0 0 0 0 0 0 0 0 0 0 0 0 0 0.25 0"/><feBlend in2="shape" result="effect1_innerShadow"/><feColorMatrix in="SourceAlpha" result="hardAlpha" values="0 0 0 0 0 0 0 0 0 0 0 0 0 0 0 0 0 0 127 0"/><feOffset dx="-4.517" dy="2.259"/><feComposite in2="hardAlpha" k2="-1" k3="1" operator="arithmetic"/><feColorMatrix values="0 0 0 0 1 0 0 0 0 1 0 0 0 0 1 0 0 0 0.25 0"/><feBlend in2="effect1_innerShadow" result="effect2_innerShadow"/></filter></defs></svg>