<svg xmlns="http://www.w3.org/2000/svg" width="93" height="86" fill="none"><mask id="a" width="93" height="85" x="0" y="0" mask-type="alpha" maskUnits="userSpaceOnUse"><path fill="#4A4A4E" stroke="#1F2024" stroke-width="3.996" d="M2.676 6.658a3.996 3.996 0 0 1 3.997-3.996h79.93a3.996 3.996 0 0 1 3.996 3.996v71.936a3.996 3.996 0 0 1-3.997 3.997H6.672a3.996 3.996 0 0 1-3.996-3.997V6.658Z"/></mask><g mask="url(#a)"><g filter="url(#b)"><path fill="#4A4A4E" d="M2.676 6.658a3.996 3.996 0 0 1 3.997-3.996h79.93a3.996 3.996 0 0 1 3.996 3.996v71.936a3.996 3.996 0 0 1-3.997 3.997H6.672a3.996 3.996 0 0 1-3.996-3.997V6.658Z"/></g><path stroke="#1F2024" stroke-width="3.996" d="M2.676 6.658a3.996 3.996 0 0 1 3.997-3.996h79.93a3.996 3.996 0 0 1 3.996 3.996v71.936a3.996 3.996 0 0 1-3.997 3.997H6.672a3.996 3.996 0 0 1-3.996-3.997V6.658Z"/><g filter="url(#c)"><circle cx="30.652" cy="42.626" r="29.974" fill="#797A7C"/><circle cx="30.652" cy="42.626" r="29.974" stroke="#1F2024" stroke-width="3.996"/></g><rect width="29.474" height="7.993" x="79.109" y="36.132" fill="#ACACAE" stroke="#1F2024" stroke-linejoin="round" stroke-width="3.996" rx="3.996"/><rect width="29.974" height="23.979" x="50.134" y="28.14" fill="#ACACAE" stroke="#1F2024" stroke-width="3.996" rx="11.989"/><g filter="url(#d)"><circle cx="68.118" cy="40.129" r="11.989" fill="#fff"/></g><circle cx="68.118" cy="40.129" r="11.989" stroke="#1F2024" stroke-width="3.996"/><circle cx="72.115" cy="40.129" r="3.996" fill="#FE204F" stroke="#1F2024" stroke-width="3.996"/><g filter="url(#e)"><circle cx="82.605" cy="72.1" r="13.988" fill="#ACACAE"/></g><circle cx="82.605" cy="72.1" r="13.988" stroke="#1F2024" stroke-width="3.996"/><g filter="url(#f)"><circle cx="6.673" cy="76.097" r="13.988" fill="#ACACAE"/></g><circle cx="6.673" cy="76.097" r="13.988" stroke="#1F2024" stroke-width="3.996"/><g filter="url(#g)"><rect width="7.993" height="43.961" x="42.641" y="-5.331" fill="#ACACAE" stroke="#1F2024" stroke-linejoin="round" stroke-width="3.996" rx="3.996"/><g filter="url(#h)"><circle cx="46.637" cy="40.129" r="5.995" fill="#ACACAE"/></g><circle cx="46.637" cy="40.129" r="5.995" stroke="#1F2024" stroke-width="3.996"/><rect width="13.488" height="7.993" x="29.153" y="36.132" fill="#ACACAE" stroke="#1F2024" stroke-linejoin="round" stroke-width="3.996" rx="3.996"/><path fill="#ACACAE" stroke="#1F2024" stroke-linejoin="round" stroke-width="3.996" d="M26.655 52.118H66.12v21.98H26.655v-21.98Z"/><path fill="#797A7C" stroke="#1F2024" stroke-linejoin="round" stroke-width="3.996" d="M34.648 68.103h27.476v5.995H26.655l7.993-5.995Z"/><path fill="#fff" stroke="#1F2024" stroke-linejoin="round" stroke-width="3.996" d="M34.648 52.118h27.476v15.986H34.648z"/><path fill="#fff" stroke="#1F2024" stroke-linejoin="round" stroke-width="3.996" d="M41.642 58.112h.5v3.996h-.5zM48.136 58.112h.5v3.996h-.5zM54.63 58.112h.5v3.996h-.5z"/><rect width="33.47" height="7.993" x="-3.818" y="57.613" fill="#797A7C" stroke="#1F2024" stroke-linejoin="round" stroke-width="3.996" rx="3.996"/></g><rect width="29.974" height="23.979" x="6.673" y="28.14" fill="#ACACAE" stroke="#1F2024" stroke-width="3.996" rx="11.989"/><g filter="url(#i)"><circle cx="24.657" cy="40.129" r="11.989" fill="#fff"/></g><circle cx="24.657" cy="40.129" r="11.989" stroke="#1F2024" stroke-width="3.996"/><circle cx="28.653" cy="40.129" r="3.996" fill="#FE204F" stroke="#1F2024" stroke-width="3.996"/><rect width="29.474" height="7.993" x="-18.305" y="36.132" fill="#ACACAE" stroke="#1F2024" stroke-linejoin="round" stroke-width="3.996" rx="3.996"/><path stroke="#1F2024" stroke-width="4.011" d="M2.676 6.672a4.01 4.01 0 0 1 4.011-4.01H86.9a4.01 4.01 0 0 1 4.01 4.01v72.192a4.01 4.01 0 0 1-4.01 4.01H6.687a4.01 4.01 0 0 1-4.01-4.01V6.672Z"/></g><defs><filter id="b" width="91.919" height="83.926" x=".678" y=".664" color-interpolation-filters="sRGB" filterUnits="userSpaceOnUse"><feFlood flood-opacity="0" result="BackgroundImageFix"/><feBlend in="SourceGraphic" in2="BackgroundImageFix" result="shape"/><feColorMatrix in="SourceAlpha" result="hardAlpha" values="0 0 0 0 0 0 0 0 0 0 0 0 0 0 0 0 0 0 127 0"/><feOffset dx="-11.989" dy="3.996"/><feComposite in2="hardAlpha" k2="-1" k3="1" operator="arithmetic"/><feColorMatrix values="0 0 0 0 1 0 0 0 0 1 0 0 0 0 1 0 0 0 0.25 0"/><feBlend in2="shape" result="effect1_innerShadow"/></filter><filter id="c" width="67.94" height="63.943" x="-5.317" y="10.655" color-interpolation-filters="sRGB" filterUnits="userSpaceOnUse"><feFlood flood-opacity="0" result="BackgroundImageFix"/><feColorMatrix in="SourceAlpha" values="0 0 0 0 0 0 0 0 0 0 0 0 0 0 0 0 0 0 127 0"/><feOffset dx="-3.996"/><feColorMatrix values="0 0 0 0 0 0 0 0 0 0 0 0 0 0 0 0 0 0 0.25 0"/><feBlend in2="BackgroundImageFix" result="effect1_dropShadow"/><feBlend in="SourceGraphic" in2="effect1_dropShadow" result="shape"/><feColorMatrix in="SourceAlpha" result="hardAlpha" values="0 0 0 0 0 0 0 0 0 0 0 0 0 0 0 0 0 0 127 0"/><feOffset dx="7.993"/><feComposite in2="hardAlpha" k2="-1" k3="1" operator="arithmetic"/><feColorMatrix values="0 0 0 0 0 0 0 0 0 0 0 0 0 0 0 0 0 0 0.25 0"/><feBlend in2="shape" result="effect2_innerShadow"/><feColorMatrix in="SourceAlpha" result="hardAlpha" values="0 0 0 0 0 0 0 0 0 0 0 0 0 0 0 0 0 0 127 0"/><feOffset dx="-7.993" dy="3.996"/><feComposite in2="hardAlpha" k2="-1" k3="1" operator="arithmetic"/><feColorMatrix values="0 0 0 0 1 0 0 0 0 1 0 0 0 0 1 0 0 0 0.25 0"/><feBlend in2="effect2_innerShadow" result="effect3_innerShadow"/></filter><filter id="d" width="27.975" height="27.975" x="54.131" y="26.142" color-interpolation-filters="sRGB" filterUnits="userSpaceOnUse"><feFlood flood-opacity="0" result="BackgroundImageFix"/><feBlend in="SourceGraphic" in2="BackgroundImageFix" result="shape"/><feColorMatrix in="SourceAlpha" result="hardAlpha" values="0 0 0 0 0 0 0 0 0 0 0 0 0 0 0 0 0 0 127 0"/><feOffset dx="7.993"/><feComposite in2="hardAlpha" k2="-1" k3="1" operator="arithmetic"/><feColorMatrix values="0 0 0 0 0 0 0 0 0 0 0 0 0 0 0 0 0 0 0.25 0"/><feBlend in2="shape" result="effect1_innerShadow"/><feColorMatrix in="SourceAlpha" result="hardAlpha" values="0 0 0 0 0 0 0 0 0 0 0 0 0 0 0 0 0 0 127 0"/><feOffset dx="-7.993" dy="3.996"/><feComposite in2="hardAlpha" k2="-1" k3="1" operator="arithmetic"/><feColorMatrix values="0 0 0 0 1 0 0 0 0 1 0 0 0 0 1 0 0 0 0.25 0"/><feBlend in2="effect1_innerShadow" result="effect2_innerShadow"/></filter><filter id="e" width="31.972" height="31.972" x="66.62" y="56.115" color-interpolation-filters="sRGB" filterUnits="userSpaceOnUse"><feFlood flood-opacity="0" result="BackgroundImageFix"/><feBlend in="SourceGraphic" in2="BackgroundImageFix" result="shape"/><feColorMatrix in="SourceAlpha" result="hardAlpha" values="0 0 0 0 0 0 0 0 0 0 0 0 0 0 0 0 0 0 127 0"/><feOffset dx="7.993"/><feComposite in2="hardAlpha" k2="-1" k3="1" operator="arithmetic"/><feColorMatrix values="0 0 0 0 0 0 0 0 0 0 0 0 0 0 0 0 0 0 0.25 0"/><feBlend in2="shape" result="effect1_innerShadow"/><feColorMatrix in="SourceAlpha" result="hardAlpha" values="0 0 0 0 0 0 0 0 0 0 0 0 0 0 0 0 0 0 127 0"/><feOffset dx="-7.993" dy="3.996"/><feComposite in2="hardAlpha" k2="-1" k3="1" operator="arithmetic"/><feColorMatrix values="0 0 0 0 1 0 0 0 0 1 0 0 0 0 1 0 0 0 0.25 0"/><feBlend in2="effect1_innerShadow" result="effect2_innerShadow"/></filter><filter id="f" width="31.972" height="31.972" x="-9.313" y="60.111" color-interpolation-filters="sRGB" filterUnits="userSpaceOnUse"><feFlood flood-opacity="0" result="BackgroundImageFix"/><feBlend in="SourceGraphic" in2="BackgroundImageFix" result="shape"/><feColorMatrix in="SourceAlpha" result="hardAlpha" values="0 0 0 0 0 0 0 0 0 0 0 0 0 0 0 0 0 0 127 0"/><feOffset dx="7.993"/><feComposite in2="hardAlpha" k2="-1" k3="1" operator="arithmetic"/><feColorMatrix values="0 0 0 0 0 0 0 0 0 0 0 0 0 0 0 0 0 0 0.25 0"/><feBlend in2="shape" result="effect1_innerShadow"/><feColorMatrix in="SourceAlpha" result="hardAlpha" values="0 0 0 0 0 0 0 0 0 0 0 0 0 0 0 0 0 0 127 0"/><feOffset dx="-7.993" dy="3.996"/><feComposite in2="hardAlpha" k2="-1" k3="1" operator="arithmetic"/><feColorMatrix values="0 0 0 0 1 0 0 0 0 1 0 0 0 0 1 0 0 0 0.25 0"/><feBlend in2="effect1_innerShadow" result="effect2_innerShadow"/></filter><filter id="g" width="77.931" height="83.426" x="-9.813" y="-7.329" color-interpolation-filters="sRGB" filterUnits="userSpaceOnUse"><feFlood flood-opacity="0" result="BackgroundImageFix"/><feColorMatrix in="SourceAlpha" values="0 0 0 0 0 0 0 0 0 0 0 0 0 0 0 0 0 0 127 0"/><feOffset dx="-3.996"/><feColorMatrix values="0 0 0 0 0 0 0 0 0 0 0 0 0 0 0 0 0 0 0.25 0"/><feBlend in2="BackgroundImageFix" result="effect1_dropShadow"/><feBlend in="SourceGraphic" in2="effect1_dropShadow" result="shape"/></filter><filter id="h" width="15.986" height="15.986" x="38.644" y="32.136" color-interpolation-filters="sRGB" filterUnits="userSpaceOnUse"><feFlood flood-opacity="0" result="BackgroundImageFix"/><feBlend in="SourceGraphic" in2="BackgroundImageFix" result="shape"/><feColorMatrix in="SourceAlpha" result="hardAlpha" values="0 0 0 0 0 0 0 0 0 0 0 0 0 0 0 0 0 0 127 0"/><feOffset dx="7.993"/><feComposite in2="hardAlpha" k2="-1" k3="1" operator="arithmetic"/><feColorMatrix values="0 0 0 0 0 0 0 0 0 0 0 0 0 0 0 0 0 0 0.25 0"/><feBlend in2="shape" result="effect1_innerShadow"/><feColorMatrix in="SourceAlpha" result="hardAlpha" values="0 0 0 0 0 0 0 0 0 0 0 0 0 0 0 0 0 0 127 0"/><feOffset dx="-7.993" dy="3.996"/><feComposite in2="hardAlpha" k2="-1" k3="1" operator="arithmetic"/><feColorMatrix values="0 0 0 0 1 0 0 0 0 1 0 0 0 0 1 0 0 0 0.25 0"/><feBlend in2="effect1_innerShadow" result="effect2_innerShadow"/></filter><filter id="i" width="27.975" height="27.975" x="10.669" y="26.142" color-interpolation-filters="sRGB" filterUnits="userSpaceOnUse"><feFlood flood-opacity="0" result="BackgroundImageFix"/><feBlend in="SourceGraphic" in2="BackgroundImageFix" result="shape"/><feColorMatrix in="SourceAlpha" result="hardAlpha" values="0 0 0 0 0 0 0 0 0 0 0 0 0 0 0 0 0 0 127 0"/><feOffset dx="7.993"/><feComposite in2="hardAlpha" k2="-1" k3="1" operator="arithmetic"/><feColorMatrix values="0 0 0 0 0 0 0 0 0 0 0 0 0 0 0 0 0 0 0.25 0"/><feBlend in2="shape" result="effect1_innerShadow"/><feColorMatrix in="SourceAlpha" result="hardAlpha" values="0 0 0 0 0 0 0 0 0 0 0 0 0 0 0 0 0 0 127 0"/><feOffset dx="-7.993" dy="3.996"/><feComposite in2="hardAlpha" k2="-1" k3="1" operator="arithmetic"/><feColorMatrix values="0 0 0 0 1 0 0 0 0 1 0 0 0 0 1 0 0 0 0.25 0"/><feBlend in2="effect1_innerShadow" result="effect2_innerShadow"/></filter></defs></svg>