<svg xmlns="http://www.w3.org/2000/svg" width="79" height="77" fill="none"><g filter="url(#a)"><path fill="#CAE9FA" fill-rule="evenodd" d="M39.247 3.283c-6.125 0-11.09 4.965-11.09 11.09V25.43l-10.83-3.518c-5.824-1.893-12.081 1.295-13.974 7.12-1.893 5.825 1.295 12.082 7.12 13.975l11 3.574-6.76 9.302c-3.6 4.955-2.5 11.89 2.454 15.491 4.956 3.6 11.891 2.502 15.492-2.454l6.257-8.611 6.45 8.878c3.6 4.955 10.536 6.054 15.491 2.454 4.956-3.6 6.054-10.536 2.454-15.492l-6.776-9.326 10.946-3.557c5.825-1.893 9.013-8.15 7.12-13.975-1.892-5.825-8.15-9.013-13.975-7.12l-10.289 3.343v-11.14c0-6.125-4.965-11.09-11.09-11.09Z" clip-rule="evenodd"/></g><path fill="#1F2024" d="m28.156 25.429-.83 2.557a2.688 2.688 0 0 0 3.519-2.557h-2.689ZM17.328 21.91l-.83 2.556.83-2.556ZM3.353 29.03l2.557.83-2.557-.83Zm7.12 13.975.831-2.557-.83 2.557Zm11 3.574 2.174 1.58a2.689 2.689 0 0 0-1.344-4.137l-.83 2.557Zm-6.76 9.302 2.176 1.58-2.175-1.58Zm2.454 15.491-1.58 2.175 1.58-2.175ZM32.66 68.92l-2.175-1.58 2.175 1.58Zm6.257-8.611 2.175-1.58a2.688 2.688 0 0 0-4.35 0l2.175 1.58Zm6.45 8.878-2.175 1.58 2.175-1.58Zm15.491 2.454 1.58 2.175-1.58-2.175Zm2.454-15.492-2.175 1.58 2.175-1.58Zm-6.776-9.326-.831-2.557a2.688 2.688 0 0 0-1.344 4.137l2.175-1.58Zm10.946-3.557.83 2.557-.83-2.557ZM74.6 29.29l-2.557.831 2.557-.83Zm-13.975-7.12-.83-2.557.83 2.557Zm-10.289 3.343H47.65a2.689 2.689 0 0 0 3.52 2.557l-.832-2.557Zm-19.492-11.14a8.402 8.402 0 0 1 8.402-8.402V.594c-7.61 0-13.78 6.17-13.78 13.78h5.378Zm0 11.056V14.373h-5.377V25.43h5.377Zm-1.858-2.557L18.16 19.354l-1.662 5.114 10.829 3.518 1.661-5.114ZM18.16 19.354C10.92 17.002 3.148 20.962.796 28.2l5.114 1.662a8.402 8.402 0 0 1 10.587-5.394l1.662-5.114ZM.796 28.2c-2.352 7.238 1.61 15.011 8.847 17.363l1.661-5.114A8.402 8.402 0 0 1 5.91 29.862L.796 28.2Zm8.847 17.363 10.998 3.574 1.662-5.114-10.999-3.574-1.661 5.114Zm9.654-.564-6.758 9.302 4.35 3.161 6.758-9.302-4.35-3.16Zm-6.758 9.302c-4.473 6.157-3.109 14.774 3.048 19.247l3.16-4.35a8.402 8.402 0 0 1-1.858-11.736l-4.35-3.16Zm3.048 19.247c6.157 4.473 14.774 3.108 19.247-3.048l-4.35-3.16a8.402 8.402 0 0 1-11.736 1.858l-3.16 4.35ZM34.834 70.5l6.257-8.612-4.35-3.16-6.257 8.611 4.35 3.16Zm1.906-8.612 6.451 8.878 4.35-3.16-6.45-8.879-4.35 3.16Zm6.451 8.878c4.473 6.157 13.09 7.522 19.247 3.049l-3.16-4.35a8.402 8.402 0 0 1-11.737-1.86l-4.35 3.161Zm19.247 3.049c6.156-4.473 7.521-13.09 3.048-19.247l-4.35 3.16a8.402 8.402 0 0 1-1.859 11.736l3.16 4.35Zm3.048-19.247-6.776-9.327-4.35 3.16 6.776 9.328 4.35-3.161Zm-8.12-5.19 10.945-3.556-1.661-5.114-10.946 3.557 1.662 5.114Zm10.945-3.556C75.55 43.47 79.51 35.697 77.158 28.46l-5.114 1.662a8.402 8.402 0 0 1-5.394 10.587l1.661 5.114Zm8.847-17.363c-2.351-7.237-10.125-11.198-17.362-8.846l1.661 5.114a8.402 8.402 0 0 1 10.587 5.394l5.114-1.662Zm-17.362-8.846-10.29 3.343 1.662 5.114 10.29-3.343-1.662-5.114Zm-12.147-5.24v11.14h5.377v-11.14h-5.377Zm-8.402-8.402a8.402 8.402 0 0 1 8.402 8.402h5.377c0-7.61-6.17-13.779-13.78-13.779v5.377Z"/><g filter="url(#b)"><circle cx="36.415" cy="40.251" r="8.738" fill="#F9E174"/></g><circle cx="36.415" cy="40.251" r="8.738" stroke="#1F2024" stroke-width="5.377"/><defs><filter id="a" width="77.719" height="75.853" x=".118" y=".594" color-interpolation-filters="sRGB" filterUnits="userSpaceOnUse"><feFlood flood-opacity="0" result="BackgroundImageFix"/><feBlend in="SourceGraphic" in2="BackgroundImageFix" result="shape"/><feColorMatrix in="SourceAlpha" result="hardAlpha" values="0 0 0 0 0 0 0 0 0 0 0 0 0 0 0 0 0 0 127 0"/><feOffset dx="10.755"/><feComposite in2="hardAlpha" k2="-1" k3="1" operator="arithmetic"/><feColorMatrix values="0 0 0 0 0 0 0 0 0 0 0 0 0 0 0 0 0 0 0.25 0"/><feBlend in2="shape" result="effect1_innerShadow"/><feColorMatrix in="SourceAlpha" result="hardAlpha" values="0 0 0 0 0 0 0 0 0 0 0 0 0 0 0 0 0 0 127 0"/><feOffset dx="-10.755" dy="5.377"/><feComposite in2="hardAlpha" k2="-1" k3="1" operator="arithmetic"/><feColorMatrix values="0 0 0 0 1 0 0 0 0 1 0 0 0 0 1 0 0 0 0.25 0"/><feBlend in2="effect1_innerShadow" result="effect2_innerShadow"/></filter><filter id="b" width="22.853" height="22.853" x="24.988" y="28.824" color-interpolation-filters="sRGB" filterUnits="userSpaceOnUse"><feFlood flood-opacity="0" result="BackgroundImageFix"/><feBlend in="SourceGraphic" in2="BackgroundImageFix" result="shape"/><feColorMatrix in="SourceAlpha" result="hardAlpha" values="0 0 0 0 0 0 0 0 0 0 0 0 0 0 0 0 0 0 127 0"/><feOffset dx="10.755"/><feComposite in2="hardAlpha" k2="-1" k3="1" operator="arithmetic"/><feColorMatrix values="0 0 0 0 0 0 0 0 0 0 0 0 0 0 0 0 0 0 0.25 0"/><feBlend in2="shape" result="effect1_innerShadow"/><feColorMatrix in="SourceAlpha" result="hardAlpha" values="0 0 0 0 0 0 0 0 0 0 0 0 0 0 0 0 0 0 127 0"/><feOffset dx="-10.755" dy="5.377"/><feComposite in2="hardAlpha" k2="-1" k3="1" operator="arithmetic"/><feColorMatrix values="0 0 0 0 1 0 0 0 0 1 0 0 0 0 1 0 0 0 0.25 0"/><feBlend in2="effect1_innerShadow" result="effect2_innerShadow"/></filter></defs></svg>