<svg xmlns="http://www.w3.org/2000/svg" width="389" height="349" fill="none"><g filter="url(#a)"><path fill="#E4B45D" d="M29 135c0-13.255 10.745-24 24-24h192c13.255 0 24 10.745 24 24v160c0 13.255-10.745 24-24 24H93c-35.346 0-64-28.654-64-64V135Z"/></g><path stroke="#1F2024" stroke-width="8" d="M29 135c0-13.255 10.745-24 24-24h192c13.255 0 24 10.745 24 24v160c0 13.255-10.745 24-24 24H93c-35.346 0-64-28.654-64-64V135Z"/><g filter="url(#b)"><path fill="#F0D07A" d="M129 135c0-13.255 10.745-24 24-24h176c13.255 0 24 10.745 24 24v120c0 35.346-28.654 64-64 64h-96c-35.346 0-64-28.654-64-64V135Z"/></g><path stroke="#1F2024" stroke-width="8" d="M129 135c0-13.255 10.745-24 24-24h176c13.255 0 24 10.745 24 24v120c0 35.346-28.654 64-64 64h-96c-35.346 0-64-28.654-64-64V135Z"/><g filter="url(#c)"><path fill="#1F2024" d="M157 177c0-8.837 7.163-16 16-16h136c8.837 0 16 7.163 16 16v32c0 8.837-7.163 16-16 16H173c-8.837 0-16-7.163-16-16v-32Z"/><circle cx="193" cy="193" r="16" fill="#FFFA8F"/><circle cx="241" cy="193" r="16" fill="#F9E174"/><circle cx="289" cy="193" r="16" fill="#F2C95C"/></g><g filter="url(#d)"><path fill="#FE204F" d="M202 258.5c0 7.824 4.794 15.327 13.327 20.86 8.533 5.532 20.106 8.64 32.173 8.64s23.64-3.108 32.173-8.64C288.206 273.827 293 266.324 293 258.5h-91Z"/></g><path stroke="#1F2024" stroke-linejoin="round" stroke-width="8" d="M202 258.5c0 7.824 4.794 15.327 13.327 20.86 8.533 5.532 20.106 8.64 32.173 8.64s23.64-3.108 32.173-8.64C288.206 273.827 293 266.324 293 258.5h-91Z"/><g filter="url(#e)"><path fill="#FE204F" fill-rule="evenodd" d="M255 258.5h-53a26.498 26.498 0 0 1 26.5-26.5 26.498 26.498 0 0 1 19 8.027l.262-.265a26.498 26.498 0 0 1 37.476 0A26.498 26.498 0 0 1 293 258.5h-38Z" clip-rule="evenodd"/></g><path fill="#1F2024" d="M228.5 258.5v4-4Zm-26.5 0h-4a4 4 0 0 0 4 4v-4Zm7.762-18.738-2.829-2.829 2.829 2.829Zm37.476 0 2.829-2.829-2.829 2.829Zm.262.265-2.868 2.788a4 4 0 0 0 5.736 0l-2.868-2.788Zm.262-.265-2.829-2.829 2.829 2.829Zm37.476 0-2.828 2.828 2.828-2.828ZM293 258.5v4a4 4 0 0 0 4-4h-4Zm-64.5 4H255v-8h-26.5v8Zm-26.5 0h26.5v-8H202v8Zm4.933-25.567A30.5 30.5 0 0 0 198 258.5h8c0-5.967 2.371-11.69 6.59-15.91l-5.657-5.657ZM228.5 228a30.5 30.5 0 0 0-21.567 8.933l5.657 5.657A22.504 22.504 0 0 1 228.5 236v-8Zm21.567 8.933A30.5 30.5 0 0 0 228.5 228v8c5.967 0 11.69 2.371 15.91 6.59l5.657-5.657Zm.301.306c-.1-.103-.2-.205-.301-.306l-5.657 5.657.222.225 5.736-5.576Zm-5.435-.306c-.101.101-.201.203-.301.306l5.736 5.576.222-.225-5.657-5.657ZM266.5 228a30.5 30.5 0 0 0-21.567 8.933l5.657 5.657A22.504 22.504 0 0 1 266.5 236v-8Zm21.567 8.933A30.5 30.5 0 0 0 266.5 228v8c5.967 0 11.69 2.371 15.91 6.59l5.657-5.657ZM297 258.5a30.5 30.5 0 0 0-8.933-21.567l-5.657 5.657A22.504 22.504 0 0 1 289 258.5h8Zm-30.5 4H293v-8h-26.5v8Zm-11.5 0h11.5v-8H255v8Z"/><path stroke="#fff" stroke-linecap="round" stroke-width="8" d="M277.046 246.954A13.5 13.5 0 0 0 267.5 243M239.546 246.954A13.5 13.5 0 0 0 230 243"/><circle cx="313.5" cy="240.5" r="8.5" fill="#1F2024"/><circle r="2.5" fill="#fff" transform="matrix(-1 0 0 1 316.5 237.5)"/><path stroke="#fff" stroke-linecap="round" stroke-width="8" d="M267 268h6"/><g filter="url(#f)"><path fill="#9BCEF1" fill-rule="evenodd" d="M365.781 120.751c2.57.417 4.866-1.673 4.464-4.245-3.137-20.103-15.905-37.49-35.452-44.525C302.259 60.27 251.01 46 194.468 46 98.592 46 36.492 73.905 28.914 170.421 22.006 258.394 19.136 329 116.347 329H347c13.255 0 24-10.745 24-24v-11.665c0-2.322-1.977-4.155-4.292-3.995-88.637 6.126-168.851 4.996-228.698-9.639-10.208-2.496-17.01-11.86-17.01-22.368v-74.266c0-5.843 2.066-11.552 6.241-15.639 52.452-51.341 153.294-60.499 238.54-46.677Z" clip-rule="evenodd"/></g><path fill="#1F2024" d="m334.793 71.98-1.355 3.764 1.355-3.763ZM194.468 46v-4 4ZM28.914 170.421l-3.988-.313 3.988.313Zm109.096 109.28.95-3.885-.95 3.885Zm-10.769-112.273 2.798 2.858-2.798-2.858Zm243.004-50.922 3.952-.617-3.952.617Zm-4.464 4.245-.64 3.949.64-3.949Zm-32.343-45.007c18.01 6.482 29.916 22.542 32.855 41.379l7.904-1.234c-3.335-21.37-16.965-40.083-38.05-47.672l-2.709 7.527ZM194.468 50c55.912 0 106.679 14.122 138.97 25.744l2.709-7.527C303.371 56.42 251.639 42 194.468 42v8ZM32.902 170.735c3.718-47.36 20.704-77.195 47.902-95.393C108.262 56.969 146.778 50 194.468 50v-8c-48.186 0-88.658 6.984-118.113 26.693-29.716 19.883-47.569 52.259-51.429 101.415l7.976.627ZM116.347 325c-23.854 0-41.113-4.336-53.582-11.835-12.391-7.451-20.403-18.233-25.426-31.849-5.06-13.711-7.073-30.267-7.349-49.062-.275-18.779 1.184-39.511 2.912-61.519l-7.976-.627c-1.726 21.979-3.216 43.062-2.935 62.264.282 19.186 2.33 36.776 7.842 51.713 5.547 15.033 14.613 27.4 28.809 35.936C72.759 328.51 91.595 333 116.347 333v-8ZM347 325H116.347v8H347v-8Zm20-20c0 11.046-8.954 20-20 20v8c15.464 0 28-12.536 28-28h-8Zm0-11.665V305h8v-11.665h-8Zm-.568-7.985c-88.541 6.119-168.248 4.948-227.472-9.534l-1.9 7.771c60.469 14.787 141.192 15.876 229.923 9.744l-.551-7.981Zm-227.472-9.534c-8.276-2.024-13.96-9.669-13.96-18.483h-8c0 12.202 7.921 23.286 20.06 26.254l1.9-7.771ZM125 257.333v-74.266h-8v74.266h8Zm0-74.266c0-4.928 1.74-9.552 5.039-12.781l-5.596-5.717c-5.052 4.945-7.443 11.74-7.443 18.498h8Zm5.039-12.781c25.421-24.882 62.847-39.78 104.824-46.686 41.925-6.897 88.005-5.754 130.278 1.1l1.28-7.897c-42.973-6.968-89.937-8.158-132.857-1.097-42.869 7.053-82.09 22.404-109.121 48.863l5.596 5.717ZM375 293.335c0-4.655-3.955-8.304-8.568-7.985l.551 7.981h.009l-.002-.001.002.002.007.005c.005.005.006.007.004.003a.069.069 0 0 1-.003-.008v.003h8Zm-8.707-176.212a.383.383 0 0 1 .099-.292c.036-.033.057-.024.029-.028l-1.28 7.897c4.987.808 9.918-3.289 9.056-8.811l-7.904 1.234Z"/><g filter="url(#g)"><path fill="#fff" fill-rule="evenodd" d="M375 107.689c0-18.232-7.478-36.024-22.298-46.644C314.286 33.516 272.555 22 203.687 22 121.374 22 10 56 10 162v77.5C10 318 33 345 121.353 345H351c13.255 0 24-10.745 24-24v-28.806c0-3.254-3.83-5.3-6.948-4.37-1.609.48-3.293.795-5.034.923-91.927 6.777-175.296 6.045-237.008-9.046-10.208-2.496-17.01-11.86-17.01-22.368v-74.266c0-5.843 2.066-11.552 6.241-15.639 55.088-53.922 163.556-61.313 251.27-44.42.542.104 1.077.228 1.603.369 3.114.838 6.886-1.211 6.886-4.436v-11.252Z" clip-rule="evenodd"/></g><path fill="#1F2024" d="m352.702 61.045 2.33-3.252-2.33 3.252Zm10.316 227.702.294 3.989-.294-3.989Zm-237.008-9.046-.95 3.886.95-3.886Zm-10.769-112.273-2.798-2.859 2.798 2.859Zm251.27-44.42-.757 3.927.757-3.927Zm1.603.369 1.04-3.862-1.04 3.862Zm-.062 164.447 1.144 3.833-1.144-3.833Zm-17.68-223.528C363.949 74.026 371 90.486 371 107.69h8c0-19.262-7.905-38.385-23.968-49.895l-4.66 6.502ZM203.687 26c68.346 0 109.165 11.41 146.685 38.296l4.66-6.503C315.72 29.623 273.078 18 203.687 18v8ZM14 162c0-51.275 26.8-85.082 63.958-106.275C115.299 34.426 162.97 26 203.687 26v-8c-41.598 0-90.769 8.574-129.693 30.775C34.886 71.082 6 107.275 6 162h8Zm0 77.5V162H6v77.5h8ZM121.353 341c-44.044 0-70.421-6.796-86-22.16C19.803 303.503 14 278.631 14 239.5H6c0 39.369 5.698 67.247 23.735 85.036C47.745 342.297 77.045 349 121.353 349v-8ZM351 341H121.353v8H351v-8Zm20-20c0 11.046-8.954 20-20 20v8c15.464 0 28-12.536 28-28h-8Zm0-28.806V321h8v-28.806h-8Zm-4.091-8.203c-1.335.398-2.734.66-4.185.767l.588 7.978a27.718 27.718 0 0 0 5.884-1.079l-2.287-7.666Zm-4.185.767c-91.84 6.77-174.689 5.993-235.764-8.942l-1.9 7.771c62.348 15.246 146.237 15.932 238.252 9.149l-.588-7.978Zm-235.764-8.942c-8.276-2.024-13.96-9.669-13.96-18.483h-8c0 12.202 7.921 23.286 20.06 26.254l1.9-7.771ZM113 257.333v-74.266h-8v74.266h8Zm0-74.266c0-4.928 1.74-9.552 5.039-12.781l-5.596-5.717c-5.052 4.945-7.443 11.74-7.443 18.498h8Zm5.039-12.781c26.703-26.137 66.648-41.252 111.172-47.665 44.463-6.403 93.056-4.061 136.543 4.314l1.513-7.855c-44.226-8.518-93.724-10.926-139.196-4.377-45.41 6.54-87.242 22.081-115.628 49.866l5.596 5.717Zm247.715-43.351c.448.087.888.188 1.32.305l2.08-7.725a26.65 26.65 0 0 0-1.887-.435l-1.513 7.855ZM371 107.689v11.252h8v-11.252h-8Zm-3.926 19.551c2.693.725 5.535.196 7.73-1.14 2.227-1.356 4.196-3.834 4.196-7.159h-8c0 .009-.001.005.001-.002.002-.005.001.003-.014.027a1.066 1.066 0 0 1-.342.3c-.469.285-1.07.362-1.491.249l-2.08 7.725ZM379 292.194c0-3.353-1.999-5.845-4.259-7.191-2.227-1.326-5.115-1.823-7.832-1.012l2.287 7.666c.399-.119.986-.058 1.453.22.209.125.306.242.338.293.015.022.016.03.014.024-.002-.007-.001-.01-.001 0h8Z"/><g filter="url(#h)"><path fill="#E2E2E2" fill-rule="evenodd" d="M97.636 151.786C94.52 155.699 93 160.62 93 165.622v104.07c0 9.935 6.083 18.932 15.573 21.873 63.933 19.808 150.923 20.777 246.915 11.975 11.154-1.023 19.851-9.694 21.299-20.528a23.552 23.552 0 0 1-13.769 5.735c-91.927 6.776-175.296 6.045-237.008-9.046-10.208-2.496-17.01-11.86-17.01-22.368v-74.266c0-5.843 2.066-11.552 6.242-15.64 55.087-53.921 163.555-61.312 251.269-44.42A22.334 22.334 0 0 1 377 128.122v-11.953c0-10.628-6.969-20.068-17.298-22.575-91.511-22.215-205.613-12.723-262.066 58.192Z" clip-rule="evenodd"/></g><path fill="#1F2024" d="m97.636 151.786-3.13-2.491 3.13 2.491Zm10.937 139.779-1.184 3.821 1.184-3.821Zm246.915 11.975-.365-3.983.365 3.983Zm21.299-20.528 3.965.53 1.404-10.502-7.994 6.954 2.625 3.018Zm-13.769 5.735.294 3.989-.294-3.989Zm-237.008-9.046-.95 3.886.95-3.886Zm-10.768-112.274 2.798 2.859-2.798-2.859Zm251.269-44.42.756-3.927-.756 3.927ZM377 128.122l-2.629 3.015 6.629 5.779v-8.794h-4Zm-17.298-34.528-.944 3.887.944-3.887ZM97 165.622c0-4.207 1.279-8.221 3.765-11.344l-6.259-4.983C90.762 153.998 89 159.826 89 165.622h8Zm0 104.07v-104.07h-8v104.07h8Zm12.757 18.052C102.087 285.368 97 278.032 97 269.692h-8c0 11.531 7.079 22.189 18.389 25.694l2.368-7.642Zm245.366 11.813c-95.885 8.792-182.218 7.752-245.366-11.813l-2.368 7.642c64.719 20.052 152.365 20.949 248.464 12.137l-.73-7.966Zm17.7-17.075c-1.208 9.033-8.454 16.227-17.7 17.075l.73 7.966c13.062-1.197 23.21-11.347 24.899-23.981l-7.929-1.06Zm1.339-2.488a19.55 19.55 0 0 1-11.438 4.764l.588 7.978a27.554 27.554 0 0 0 16.101-6.706l-5.251-6.036Zm-11.438 4.764c-91.84 6.77-174.689 5.992-235.764-8.942l-1.9 7.771c62.348 15.246 146.237 15.932 238.252 9.149l-.588-7.978Zm-235.764-8.942c-8.276-2.024-13.96-9.669-13.96-18.483h-8c0 12.202 7.921 23.286 20.06 26.254l1.9-7.771ZM113 257.333v-74.266h-8v74.266h8Zm0-74.266c0-4.928 1.74-9.552 5.04-12.781l-5.597-5.717c-5.052 4.945-7.443 11.74-7.443 18.498h8Zm5.04-12.781c26.702-26.137 66.647-41.252 111.171-47.665 44.463-6.403 93.056-4.061 136.543 4.314l1.513-7.855c-44.226-8.518-93.724-10.926-139.196-4.377-45.41 6.54-87.242 22.081-115.628 49.866l5.597 5.717Zm247.714-43.351a18.333 18.333 0 0 1 8.617 4.202l5.258-6.03a26.337 26.337 0 0 0-12.362-6.027l-1.513 7.855ZM373 116.169v11.953h8v-11.953h-8Zm-14.242-18.688c8.42 2.044 14.242 9.784 14.242 18.688h8c0-12.353-8.117-23.491-20.355-26.462l-1.887 7.774Zm-257.993 56.797c27.44-34.469 69.066-54.226 115.466-62.575 46.39-8.347 97.225-5.22 142.527 5.778l1.887-7.774c-46.208-11.217-98.179-14.451-145.831-5.877-47.642 8.572-91.294 29.018-120.308 65.465l6.259 4.983Z"/><g filter="url(#i)"><circle cx="244.5" cy="326" r="10" fill="#CAE9FA"/><circle cx="244.5" cy="326" r="10" stroke="#1F2024" stroke-width="8"/></g><g filter="url(#j)"><circle cx="280.5" cy="326" r="10" fill="#9BCEF1"/><circle cx="280.5" cy="326" r="10" stroke="#1F2024" stroke-width="8"/></g><g filter="url(#k)"><circle cx="316.5" cy="326" r="10" fill="#FFFA8F"/><circle cx="316.5" cy="326" r="10" stroke="#1F2024" stroke-width="8"/></g><g filter="url(#l)"><path fill="#E2E2E2" d="M4 218c0-17.673 14.327-32 32-32h16c17.673 0 32 14.327 32 32 0 17.673-14.327 32-32 32H36c-17.673 0-32-14.327-32-32Z"/></g><path stroke="#1F2024" stroke-width="8" d="M4 218c0-17.673 14.327-32 32-32h16c17.673 0 32 14.327 32 32 0 17.673-14.327 32-32 32H36c-17.673 0-32-14.327-32-32Z"/><g filter="url(#m)"><path fill="#ACACAE" d="M4 218c0-17.673 14.327-32 32-32 17.673 0 32 14.327 32 32 0 17.673-14.327 32-32 32-17.673 0-32-14.327-32-32Z"/></g><path stroke="#1F2024" stroke-width="8" d="M4 218c0-17.673 14.327-32 32-32 17.673 0 32 14.327 32 32 0 17.673-14.327 32-32 32-17.673 0-32-14.327-32-32Z"/><g filter="url(#n)"><path fill="#ACACAE" d="M26 281c0-13.255 10.745-24 24-24h12c13.255 0 24 10.745 24 24s-10.745 24-24 24H50c-13.255 0-24-10.745-24-24Z"/></g><path stroke="#1F2024" stroke-width="8" d="M26 281c0-13.255 10.745-24 24-24h12c13.255 0 24 10.745 24 24s-10.745 24-24 24H50c-13.255 0-24-10.745-24-24Z"/><g filter="url(#o)"><path fill="#797A7C" d="M26 281c0-13.255 10.745-24 24-24s24 10.745 24 24-10.745 24-24 24-24-10.745-24-24Z"/></g><path stroke="#1F2024" stroke-width="8" d="M26 281c0-13.255 10.745-24 24-24s24 10.745 24 24-10.745 24-24 24-24-10.745-24-24Z"/><g filter="url(#p)"><path fill="#1F2024" fill-opacity=".2" d="M109 183.067c0-5.843 2.066-11.552 6.242-15.64 55.087-53.921 163.555-61.312 251.269-44.42C377.407 125.106 385 134.823 385 145.92v119.033c0 12.467-9.549 22.877-21.982 23.794-91.927 6.776-175.296 6.045-237.008-9.046-10.208-2.496-17.01-11.86-17.01-22.368v-74.266Z"/></g><path stroke="#1F2024" stroke-width="8" d="M109 183.067c0-5.843 2.066-11.552 6.242-15.64 55.087-53.921 163.555-61.312 251.269-44.42C377.407 125.106 385 134.823 385 145.92v119.033c0 12.467-9.549 22.877-21.982 23.794-91.927 6.776-175.296 6.045-237.008-9.046-10.208-2.496-17.01-11.86-17.01-22.368v-74.266Z"/><path fill="#fff" fill-opacity=".8" fill-rule="evenodd" d="m344.63 275.022 2.303-.157C359.402 274.008 369 263.58 369 251.082v-90.101c0-11.179-7.695-20.951-18.703-22.899a402.785 402.785 0 0 0-5.965-1.007c4.182 4.263 6.668 10.174 6.668 16.526v105.151a23.876 23.876 0 0 1-6.37 16.27Z" clip-rule="evenodd"/><g filter="url(#q)"><rect width="1" height="162" x="44" y="24" fill="#ACACAE" rx=".5"/></g><rect width="1" height="162" x="44" y="24" stroke="#1F2024" stroke-width="8" rx=".5"/><path stroke="#1F2024" stroke-width="8" d="M44 131c6.627 0 12-3.582 12-8s-5.373-8-12-8M44 163c6.627 0 12-3.582 12-8s-5.373-8-12-8M44 147c-6.627 0-12-3.582-12-8s5.373-8 12-8M44 179c-6.627 0-12-3.582-12-8s5.373-8 12-8M44 115c-6.627 0-12-3.582-12-8s5.373-8 12-8"/><g filter="url(#r)"><path fill="#ACACAE" d="M29 20c0-8.837 7.163-16 16-16s16 7.163 16 16-7.163 16-16 16-16-7.163-16-16Z"/></g><path stroke="#1F2024" stroke-width="8" d="M29 20c0-8.837 7.163-16 16-16s16 7.163 16 16-7.163 16-16 16-16-7.163-16-16Z"/><defs><filter id="j" width="32" height="28" x="262.5" y="312" color-interpolation-filters="sRGB" filterUnits="userSpaceOnUse"><feFlood flood-opacity="0" result="BackgroundImageFix"/><feColorMatrix in="SourceAlpha" result="hardAlpha" values="0 0 0 0 0 0 0 0 0 0 0 0 0 0 0 0 0 0 127 0"/><feOffset dx="-4"/><feColorMatrix values="0 0 0 0 0.133333 0 0 0 0 0.133333 0 0 0 0 0.133333 0 0 0 1 0"/><feBlend in2="BackgroundImageFix" result="effect1_dropShadow"/><feBlend in="SourceGraphic" in2="effect1_dropShadow" result="shape"/></filter><filter id="a" width="248" height="216" x="25" y="107" color-interpolation-filters="sRGB" filterUnits="userSpaceOnUse"><feFlood flood-opacity="0" result="BackgroundImageFix"/><feBlend in="SourceGraphic" in2="BackgroundImageFix" result="shape"/><feColorMatrix in="SourceAlpha" result="hardAlpha" values="0 0 0 0 0 0 0 0 0 0 0 0 0 0 0 0 0 0 127 0"/><feOffset dy="-16"/><feComposite in2="hardAlpha" k2="-1" k3="1" operator="arithmetic"/><feColorMatrix values="0 0 0 0 0 0 0 0 0 0 0 0 0 0 0 0 0 0 0.25 0"/><feBlend in2="shape" result="effect1_innerShadow"/><feColorMatrix in="SourceAlpha" result="hardAlpha" values="0 0 0 0 0 0 0 0 0 0 0 0 0 0 0 0 0 0 127 0"/><feOffset dy="16"/><feComposite in2="hardAlpha" k2="-1" k3="1" operator="arithmetic"/><feColorMatrix values="0 0 0 0 1 0 0 0 0 1 0 0 0 0 1 0 0 0 0.25 0"/><feBlend in2="effect1_innerShadow" result="effect2_innerShadow"/></filter><filter id="c" width="176" height="64" x="153" y="161" color-interpolation-filters="sRGB" filterUnits="userSpaceOnUse"><feFlood flood-opacity="0" result="BackgroundImageFix"/><feColorMatrix in="SourceAlpha" result="hardAlpha" values="0 0 0 0 0 0 0 0 0 0 0 0 0 0 0 0 0 0 127 0"/><feOffset dx="-4"/><feColorMatrix values="0 0 0 0 1 0 0 0 0 1 0 0 0 0 1 0 0 0 0.25 0"/><feBlend in2="BackgroundImageFix" result="effect1_dropShadow"/><feColorMatrix in="SourceAlpha" result="hardAlpha" values="0 0 0 0 0 0 0 0 0 0 0 0 0 0 0 0 0 0 127 0"/><feOffset dx="4"/><feColorMatrix values="0 0 0 0 0 0 0 0 0 0 0 0 0 0 0 0 0 0 0.25 0"/><feBlend in2="effect1_dropShadow" result="effect2_dropShadow"/><feBlend in="SourceGraphic" in2="effect2_dropShadow" result="shape"/><feColorMatrix in="SourceAlpha" result="hardAlpha" values="0 0 0 0 0 0 0 0 0 0 0 0 0 0 0 0 0 0 127 0"/><feOffset dx="-4"/><feComposite in2="hardAlpha" k2="-1" k3="1" operator="arithmetic"/><feColorMatrix values="0 0 0 0 0 0 0 0 0 0 0 0 0 0 0 0 0 0 0.25 0"/><feBlend in2="shape" result="effect3_innerShadow"/></filter><filter id="d" width="99" height="37.5" x="198" y="254.5" color-interpolation-filters="sRGB" filterUnits="userSpaceOnUse"><feFlood flood-opacity="0" result="BackgroundImageFix"/><feBlend in="SourceGraphic" in2="BackgroundImageFix" result="shape"/><feColorMatrix in="SourceAlpha" result="hardAlpha" values="0 0 0 0 0 0 0 0 0 0 0 0 0 0 0 0 0 0 127 0"/><feOffset dx="-24" dy="8"/><feComposite in2="hardAlpha" k2="-1" k3="1" operator="arithmetic"/><feColorMatrix values="0 0 0 0 1 0 0 0 0 1 0 0 0 0 1 0 0 0 0.25 0"/><feBlend in2="shape" result="effect1_innerShadow"/></filter><filter id="e" width="99" height="34.5" x="198" y="228" color-interpolation-filters="sRGB" filterUnits="userSpaceOnUse"><feFlood flood-opacity="0" result="BackgroundImageFix"/><feBlend in="SourceGraphic" in2="BackgroundImageFix" result="shape"/><feColorMatrix in="SourceAlpha" result="hardAlpha" values="0 0 0 0 0 0 0 0 0 0 0 0 0 0 0 0 0 0 127 0"/><feOffset dx="-24" dy="8"/><feComposite in2="hardAlpha" k2="-1" k3="1" operator="arithmetic"/><feColorMatrix values="0 0 0 0 1 0 0 0 0 1 0 0 0 0 1 0 0 0 0.25 0"/><feBlend in2="shape" result="effect1_innerShadow"/></filter><filter id="f" width="353.043" height="291" x="21.957" y="42" color-interpolation-filters="sRGB" filterUnits="userSpaceOnUse"><feFlood flood-opacity="0" result="BackgroundImageFix"/><feBlend in="SourceGraphic" in2="BackgroundImageFix" result="shape"/><feColorMatrix in="SourceAlpha" result="hardAlpha" values="0 0 0 0 0 0 0 0 0 0 0 0 0 0 0 0 0 0 127 0"/><feOffset dx="16"/><feComposite in2="hardAlpha" k2="-1" k3="1" operator="arithmetic"/><feColorMatrix values="0 0 0 0 0 0 0 0 0 0 0 0 0 0 0 0 0 0 0.25 0"/><feBlend in2="shape" result="effect1_innerShadow"/><feColorMatrix in="SourceAlpha" result="hardAlpha" values="0 0 0 0 0 0 0 0 0 0 0 0 0 0 0 0 0 0 127 0"/><feOffset dx="-24" dy="8"/><feComposite in2="hardAlpha" k2="-1" k3="1" operator="arithmetic"/><feColorMatrix values="0 0 0 0 1 0 0 0 0 1 0 0 0 0 1 0 0 0 0.25 0"/><feBlend in2="effect1_innerShadow" result="effect2_innerShadow"/></filter><filter id="g" width="373" height="331" x="6" y="18" color-interpolation-filters="sRGB" filterUnits="userSpaceOnUse"><feFlood flood-opacity="0" result="BackgroundImageFix"/><feBlend in="SourceGraphic" in2="BackgroundImageFix" result="shape"/><feColorMatrix in="SourceAlpha" result="hardAlpha" values="0 0 0 0 0 0 0 0 0 0 0 0 0 0 0 0 0 0 127 0"/><feOffset dx="64" dy="-16"/><feComposite in2="hardAlpha" k2="-1" k3="1" operator="arithmetic"/><feColorMatrix values="0 0 0 0 0 0 0 0 0 0 0 0 0 0 0 0 0 0 0.25 0"/><feBlend in2="shape" result="effect1_innerShadow"/><feColorMatrix in="SourceAlpha" result="hardAlpha" values="0 0 0 0 0 0 0 0 0 0 0 0 0 0 0 0 0 0 127 0"/><feOffset dx="-16" dy="16"/><feComposite in2="hardAlpha" k2="-1" k3="1" operator="arithmetic"/><feColorMatrix values="0 0 0 0 1 0 0 0 0 1 0 0 0 0 1 0 0 0 0.25 0"/><feBlend in2="effect1_innerShadow" result="effect2_innerShadow"/></filter><filter id="h" width="293.156" height="233.886" x="89" y="78.959" color-interpolation-filters="sRGB" filterUnits="userSpaceOnUse"><feFlood flood-opacity="0" result="BackgroundImageFix"/><feBlend in="SourceGraphic" in2="BackgroundImageFix" result="shape"/><feColorMatrix in="SourceAlpha" result="hardAlpha" values="0 0 0 0 0 0 0 0 0 0 0 0 0 0 0 0 0 0 127 0"/><feOffset dx="-24" dy="8"/><feComposite in2="hardAlpha" k2="-1" k3="1" operator="arithmetic"/><feColorMatrix values="0 0 0 0 1 0 0 0 0 1 0 0 0 0 1 0 0 0 0.25 0"/><feBlend in2="shape" result="effect1_innerShadow"/></filter><filter id="i" width="32" height="28" x="226.5" y="312" color-interpolation-filters="sRGB" filterUnits="userSpaceOnUse"><feFlood flood-opacity="0" result="BackgroundImageFix"/><feColorMatrix in="SourceAlpha" result="hardAlpha" values="0 0 0 0 0 0 0 0 0 0 0 0 0 0 0 0 0 0 127 0"/><feOffset dx="-4"/><feColorMatrix values="0 0 0 0 0.133333 0 0 0 0 0.133333 0 0 0 0 0.133333 0 0 0 1 0"/><feBlend in2="BackgroundImageFix" result="effect1_dropShadow"/><feBlend in="SourceGraphic" in2="effect1_dropShadow" result="shape"/></filter><filter id="b" width="232" height="216" x="125" y="107" color-interpolation-filters="sRGB" filterUnits="userSpaceOnUse"><feFlood flood-opacity="0" result="BackgroundImageFix"/><feBlend in="SourceGraphic" in2="BackgroundImageFix" result="shape"/><feColorMatrix in="SourceAlpha" result="hardAlpha" values="0 0 0 0 0 0 0 0 0 0 0 0 0 0 0 0 0 0 127 0"/><feOffset dx="-24" dy="8"/><feComposite in2="hardAlpha" k2="-1" k3="1" operator="arithmetic"/><feColorMatrix values="0 0 0 0 1 0 0 0 0 1 0 0 0 0 1 0 0 0 0.25 0"/><feBlend in2="shape" result="effect1_innerShadow"/></filter><filter id="k" width="32" height="28" x="298.5" y="312" color-interpolation-filters="sRGB" filterUnits="userSpaceOnUse"><feFlood flood-opacity="0" result="BackgroundImageFix"/><feColorMatrix in="SourceAlpha" result="hardAlpha" values="0 0 0 0 0 0 0 0 0 0 0 0 0 0 0 0 0 0 127 0"/><feOffset dx="-4"/><feColorMatrix values="0 0 0 0 0.133333 0 0 0 0 0.133333 0 0 0 0 0.133333 0 0 0 1 0"/><feBlend in2="BackgroundImageFix" result="effect1_dropShadow"/><feBlend in="SourceGraphic" in2="effect1_dropShadow" result="shape"/></filter><filter id="l" width="88" height="72" x="0" y="182" color-interpolation-filters="sRGB" filterUnits="userSpaceOnUse"><feFlood flood-opacity="0" result="BackgroundImageFix"/><feBlend in="SourceGraphic" in2="BackgroundImageFix" result="shape"/><feColorMatrix in="SourceAlpha" result="hardAlpha" values="0 0 0 0 0 0 0 0 0 0 0 0 0 0 0 0 0 0 127 0"/><feOffset dx="-24" dy="8"/><feComposite in2="hardAlpha" k2="-1" k3="1" operator="arithmetic"/><feColorMatrix values="0 0 0 0 1 0 0 0 0 1 0 0 0 0 1 0 0 0 0.25 0"/><feBlend in2="shape" result="effect1_innerShadow"/></filter><filter id="m" width="72" height="72" x="0" y="182" color-interpolation-filters="sRGB" filterUnits="userSpaceOnUse"><feFlood flood-opacity="0" result="BackgroundImageFix"/><feBlend in="SourceGraphic" in2="BackgroundImageFix" result="shape"/><feColorMatrix in="SourceAlpha" result="hardAlpha" values="0 0 0 0 0 0 0 0 0 0 0 0 0 0 0 0 0 0 127 0"/><feOffset dy="-16"/><feComposite in2="hardAlpha" k2="-1" k3="1" operator="arithmetic"/><feColorMatrix values="0 0 0 0 0 0 0 0 0 0 0 0 0 0 0 0 0 0 0.25 0"/><feBlend in2="shape" result="effect1_innerShadow"/><feColorMatrix in="SourceAlpha" result="hardAlpha" values="0 0 0 0 0 0 0 0 0 0 0 0 0 0 0 0 0 0 127 0"/><feOffset dy="16"/><feComposite in2="hardAlpha" k2="-1" k3="1" operator="arithmetic"/><feColorMatrix values="0 0 0 0 1 0 0 0 0 1 0 0 0 0 1 0 0 0 0.25 0"/><feBlend in2="effect1_innerShadow" result="effect2_innerShadow"/></filter><filter id="n" width="68" height="56" x="22" y="253" color-interpolation-filters="sRGB" filterUnits="userSpaceOnUse"><feFlood flood-opacity="0" result="BackgroundImageFix"/><feBlend in="SourceGraphic" in2="BackgroundImageFix" result="shape"/><feColorMatrix in="SourceAlpha" result="hardAlpha" values="0 0 0 0 0 0 0 0 0 0 0 0 0 0 0 0 0 0 127 0"/><feOffset dx="-24" dy="8"/><feComposite in2="hardAlpha" k2="-1" k3="1" operator="arithmetic"/><feColorMatrix values="0 0 0 0 1 0 0 0 0 1 0 0 0 0 1 0 0 0 0.25 0"/><feBlend in2="shape" result="effect1_innerShadow"/></filter><filter id="o" width="56" height="56" x="22" y="253" color-interpolation-filters="sRGB" filterUnits="userSpaceOnUse"><feFlood flood-opacity="0" result="BackgroundImageFix"/><feBlend in="SourceGraphic" in2="BackgroundImageFix" result="shape"/><feColorMatrix in="SourceAlpha" result="hardAlpha" values="0 0 0 0 0 0 0 0 0 0 0 0 0 0 0 0 0 0 127 0"/><feOffset dy="-16"/><feComposite in2="hardAlpha" k2="-1" k3="1" operator="arithmetic"/><feColorMatrix values="0 0 0 0 0 0 0 0 0 0 0 0 0 0 0 0 0 0 0.25 0"/><feBlend in2="shape" result="effect1_innerShadow"/><feColorMatrix in="SourceAlpha" result="hardAlpha" values="0 0 0 0 0 0 0 0 0 0 0 0 0 0 0 0 0 0 127 0"/><feOffset dy="16"/><feComposite in2="hardAlpha" k2="-1" k3="1" operator="arithmetic"/><feColorMatrix values="0 0 0 0 1 0 0 0 0 1 0 0 0 0 1 0 0 0 0.25 0"/><feBlend in2="effect1_innerShadow" result="effect2_innerShadow"/></filter><filter id="p" width="284" height="185.885" x="105" y="110.959" color-interpolation-filters="sRGB" filterUnits="userSpaceOnUse"><feFlood flood-opacity="0" result="BackgroundImageFix"/><feBlend in="SourceGraphic" in2="BackgroundImageFix" result="shape"/><feColorMatrix in="SourceAlpha" result="hardAlpha" values="0 0 0 0 0 0 0 0 0 0 0 0 0 0 0 0 0 0 127 0"/><feOffset dx="-24" dy="8"/><feComposite in2="hardAlpha" k2="-1" k3="1" operator="arithmetic"/><feColorMatrix values="0 0 0 0 1 0 0 0 0 1 0 0 0 0 1 0 0 0 0.25 0"/><feBlend in2="shape" result="effect1_innerShadow"/></filter><filter id="q" width="9" height="170" x="40" y="20" color-interpolation-filters="sRGB" filterUnits="userSpaceOnUse"><feFlood flood-opacity="0" result="BackgroundImageFix"/><feBlend in="SourceGraphic" in2="BackgroundImageFix" result="shape"/><feColorMatrix in="SourceAlpha" result="hardAlpha" values="0 0 0 0 0 0 0 0 0 0 0 0 0 0 0 0 0 0 127 0"/><feOffset dy="-16"/><feComposite in2="hardAlpha" k2="-1" k3="1" operator="arithmetic"/><feColorMatrix values="0 0 0 0 0 0 0 0 0 0 0 0 0 0 0 0 0 0 0.25 0"/><feBlend in2="shape" result="effect1_innerShadow"/><feColorMatrix in="SourceAlpha" result="hardAlpha" values="0 0 0 0 0 0 0 0 0 0 0 0 0 0 0 0 0 0 127 0"/><feOffset dy="16"/><feComposite in2="hardAlpha" k2="-1" k3="1" operator="arithmetic"/><feColorMatrix values="0 0 0 0 1 0 0 0 0 1 0 0 0 0 1 0 0 0 0.25 0"/><feBlend in2="effect1_innerShadow" result="effect2_innerShadow"/></filter><filter id="r" width="40" height="40" x="25" y="0" color-interpolation-filters="sRGB" filterUnits="userSpaceOnUse"><feFlood flood-opacity="0" result="BackgroundImageFix"/><feBlend in="SourceGraphic" in2="BackgroundImageFix" result="shape"/><feColorMatrix in="SourceAlpha" result="hardAlpha" values="0 0 0 0 0 0 0 0 0 0 0 0 0 0 0 0 0 0 127 0"/><feOffset dx="16"/><feComposite in2="hardAlpha" k2="-1" k3="1" operator="arithmetic"/><feColorMatrix values="0 0 0 0 0 0 0 0 0 0 0 0 0 0 0 0 0 0 0.25 0"/><feBlend in2="shape" result="effect1_innerShadow"/><feColorMatrix in="SourceAlpha" result="hardAlpha" values="0 0 0 0 0 0 0 0 0 0 0 0 0 0 0 0 0 0 127 0"/><feOffset dx="-24" dy="8"/><feComposite in2="hardAlpha" k2="-1" k3="1" operator="arithmetic"/><feColorMatrix values="0 0 0 0 1 0 0 0 0 1 0 0 0 0 1 0 0 0 0.25 0"/><feBlend in2="effect1_innerShadow" result="effect2_innerShadow"/></filter></defs></svg>