<svg xmlns="http://www.w3.org/2000/svg" width="445" height="421" fill="none"><g filter="url(#a)"><path fill="#FF5252" d="M62 163c0-13.255 10.745-24 24-24h276c13.255 0 24 10.745 24 24v160c0 13.255-10.745 24-24 24H86c-13.255 0-24-10.745-24-24V163Z"/></g><path stroke="#1F2024" stroke-width="8" d="M62 163c0-13.255 10.745-24 24-24h276c13.255 0 24 10.745 24 24v160c0 13.255-10.745 24-24 24H86c-13.255 0-24-10.745-24-24V163Z"/><g filter="url(#b)"><path fill="#0022D3" fill-opacity=".8" fill-rule="evenodd" d="M86 139c-13.255 0-24 10.745-24 24v160c0 13.255 10.745 24 24 24h26c-13.255 0-24-10.745-24-24V163c0-13.255 10.745-24 24-24H86Z" clip-rule="evenodd"/></g><path fill="#1F2024" d="M66 163c0-11.046 8.954-20 20-20v-8c-15.464 0-28 12.536-28 28h8Zm0 160V163h-8v160h8Zm20 20c-11.046 0-20-8.954-20-20h-8c0 15.464 12.536 28 28 28v-8Zm26 0H86v8h26v-8Zm0 0c-11.046 0-20-8.954-20-20h-8c0 15.464 12.536 28 28 28v-8Zm-20-20V163h-8v160h8Zm0-160c0-11.046 8.954-20 20-20v-8c-15.464 0-28 12.536-28 28h8Zm-6-20h26v-8H86v8Z"/><g filter="url(#c)"><path fill="#0022D3" fill-opacity=".7" fill-rule="evenodd" d="M112.667 139c-13.255 0-24 10.745-24 24v160c0 13.255 10.745 24 24 24h26c-13.255 0-24-10.745-24-24V163c0-13.255 10.745-24 24-24h-26Z" clip-rule="evenodd"/></g><path fill="#1F2024" d="M92.667 163c0-11.046 8.954-20 20-20v-8c-15.464 0-28 12.536-28 28h8Zm0 160V163h-8v160h8Zm20 20c-11.046 0-20-8.954-20-20h-8c0 15.464 12.536 28 28 28v-8Zm26 0h-26v8h26v-8Zm0 0c-11.046 0-20-8.954-20-20h-8c0 15.464 12.536 28 28 28v-8Zm-20-20V163h-8v160h8Zm0-160c0-11.046 8.954-20 20-20v-8c-15.464 0-28 12.536-28 28h8Zm-6-20h26v-8h-26v8Z"/><g filter="url(#d)"><path fill="#0022D3" fill-opacity=".5" fill-rule="evenodd" d="M139.333 139c-13.255 0-24 10.745-24 24v160c0 13.255 10.745 24 24 24h26c-13.255 0-24-10.745-24-24V163c0-13.255 10.745-24 24-24h-26Z" clip-rule="evenodd"/></g><path fill="#1F2024" d="M119.333 163c0-11.046 8.955-20 20-20v-8c-15.464 0-28 12.536-28 28h8Zm0 160V163h-8v160h8Zm20 20c-11.045 0-20-8.954-20-20h-8c0 15.464 12.536 28 28 28v-8Zm26 0h-26v8h26v-8Zm0 0c-11.045 0-20-8.954-20-20h-8c0 15.464 12.536 28 28 28v-8Zm-20-20V163h-8v160h8Zm0-160c0-11.046 8.955-20 20-20v-8c-15.464 0-28 12.536-28 28h8Zm-6-20h26v-8h-26v8Z"/><g filter="url(#e)"><path fill="#0022D3" fill-opacity=".3" fill-rule="evenodd" d="M166 139c-13.255 0-24 10.745-24 24v160c0 13.255 10.745 24 24 24h26c-13.255 0-24-10.745-24-24V163c0-13.255 10.745-24 24-24h-26Z" clip-rule="evenodd"/></g><path fill="#1F2024" d="M146 163c0-11.046 8.954-20 20-20v-8c-15.464 0-28 12.536-28 28h8Zm0 160V163h-8v160h8Zm20 20c-11.046 0-20-8.954-20-20h-8c0 15.464 12.536 28 28 28v-8Zm26 0h-26v8h26v-8Zm0 0c-11.046 0-20-8.954-20-20h-8c0 15.464 12.536 28 28 28v-8Zm-20-20V163h-8v160h8Zm0-160c0-11.046 8.954-20 20-20v-8c-15.464 0-28 12.536-28 28h8Zm-6-20h26v-8h-26v8Z"/><g filter="url(#f)"><path fill="#1F2024" d="M47 193h136v12H47z"/></g><g filter="url(#g)"><path fill="#1F2024" fill-rule="evenodd" d="M224.908 264.122c-16.849-11.721-53.516-49.514-80.542-85.421-2.014-2.675-.006-6.414 3.334-6.178 40.49 2.861 107.4 13.904 128.449 26.35.364.197.75.437 1.174.701 2.114 1.315 5.177 3.22 11.177 3.321 6.457-.108 10.278-2.281 12.575-3.588.277-.158.532-.302.766-.43 21.041-12.447 87.962-23.492 128.457-26.354 3.34-.236 5.348 3.503 3.334 6.178-27.025 35.907-63.692 73.7-80.542 85.421-2.891 2.012-6.545 2.486-9.709.94-13.21-6.456-34.118-26.673-43.395-44.114h-.001c-2.217-4.209-8.424-5.861-11.423-6.053-2.407.199-7.083 1.929-9.942 4.881-8.941 17.697-30.496 38.685-44.003 45.286-3.164 1.546-6.818 1.072-9.709-.94Z" clip-rule="evenodd"/></g><path fill="#4A4A4E" fill-rule="evenodd" d="M174.88 192.634c4.113-10.759 89.444 7.065 93.498 17.476 3.294 8.46-23.622 42.525-38.037 42.525-11.532 0-59.574-49.242-55.461-60.001Zm227.894 0c-4.113-10.759-89.443 7.065-93.497 17.476-3.295 8.46 23.622 42.525 38.036 42.525 11.532 0 59.574-49.242 55.461-60.001Z" clip-rule="evenodd"/><mask id="h" width="230" height="64" x="174" y="189" mask-type="alpha" maskUnits="userSpaceOnUse"><path fill="#4A4A4E" fill-rule="evenodd" d="M174.88 192.634c4.113-10.759 89.444 7.065 93.498 17.476 3.294 8.46-23.622 42.525-38.037 42.525-11.532 0-59.574-49.242-55.461-60.001Zm227.894 0c-4.113-10.759-89.443 7.065-93.497 17.476-3.295 8.46 23.622 42.525 38.036 42.525 11.532 0 59.574-49.242 55.461-60.001Z" clip-rule="evenodd"/></mask><g mask="url(#h)"><path fill="#fff" d="M415.872 181H438l-37.872 80H378l37.872-80Z"/></g><g filter="url(#i)"><path fill="#2477D5" fill-rule="evenodd" d="M262 265c-13.255 0-24 10.745-24 24v3.25c0 16.5-13.986 38.75-40.213 32.25-11.227-2.783-16.102-14.743-21.144-27.115-6.735-16.527-13.77-33.789-36.651-30.885-35.454 4.5-7.285 68 5.828 96.25 27.417 59.065 148.149 68.137 201.555 35.481 35.596-21.766 49.431-80.806 46.139-119.731-.254-3-6.8-3.5-7.771 0l-.091.333c-1.169 4.334-10.232 37.925-28.564 45.667-18.941 8-31.088-7-31.088-32.25V289c0-13.255-10.745-24-24-24h-40Z" clip-rule="evenodd"/></g><path fill="#1F2024" d="m197.787 324.5.962-3.883-.962 3.883Zm-21.144-27.115 3.704-1.509-3.704 1.509ZM139.992 266.5l-.504-3.968.504 3.968Zm5.828 96.25 3.628-1.684-3.628 1.684Zm201.555 35.481-2.087-3.412 2.087 3.412ZM393.514 278.5l-3.986.337 3.986-.337Zm-7.771 0 3.854 1.07-3.854-1.07Zm-.091.333 3.862 1.042-3.862-1.042ZM357.088 324.5l1.557 3.685-1.557-3.685ZM242 289c0-11.046 8.954-20 20-20v-8c-15.464 0-28 12.536-28 28h8Zm0 3.25V289h-8v3.25h8Zm-8 0c0 7.257-3.122 15.911-9.108 21.929-5.809 5.842-14.429 9.341-26.143 6.438l-1.924 7.765c14.513 3.597 25.999-.778 33.74-8.561C238.129 312.214 242 301.493 242 292.25h-8Zm-35.251 28.367c-4.31-1.068-7.599-3.903-10.524-8.295-2.986-4.485-5.317-10.164-7.878-16.446l-7.408 3.019c2.482 6.089 5.109 12.576 8.627 17.86 3.58 5.377 8.342 9.913 15.259 11.627l1.924-7.765Zm-18.402-24.741c-3.298-8.093-6.985-17.265-13.013-23.908-6.34-6.988-15.114-11.052-27.846-9.436l1.007 7.936c10.15-1.288 16.334 1.827 20.915 6.876 4.894 5.393 8.091 13.116 11.529 21.551l7.408-3.019Zm-40.859-33.344c-5.064.643-9.273 2.382-12.563 5.198-3.286 2.811-5.404 6.478-6.65 10.57-2.442 8.019-1.659 18.079.506 28.251 4.357 20.474 14.874 43.801 21.411 57.883l7.256-3.368c-6.576-14.168-16.7-36.716-20.843-56.18-2.084-9.796-2.515-18.22-.677-24.256.894-2.936 2.289-5.188 4.198-6.822 1.904-1.629 4.571-2.858 8.369-3.34l-1.007-7.936Zm2.704 101.902c14.595 31.443 53.438 48.791 94.112 54.414 40.834 5.645 85.399-.231 113.157-17.204l-4.173-6.825c-25.648 15.683-68.151 21.598-107.889 16.105-39.898-5.516-75.129-22.236-87.951-49.858l-7.256 3.368Zm207.269 37.21c18.931-11.576 31.715-32.786 39.359-55.572 7.666-22.852 10.373-47.891 8.68-67.909l-7.972.674c1.599 18.906-.966 42.85-8.293 64.691-7.349 21.907-19.281 41.1-35.947 51.291l4.173 6.825ZM397.5 278.163c-.199-2.345-1.644-3.936-3.055-4.816-1.376-.857-2.965-1.232-4.408-1.282-2.554-.089-6.928.967-8.148 5.365l7.708 2.14a1.112 1.112 0 0 1-.224.417.671.671 0 0 1-.173.151c-.001.001.05-.025.162-.048a1.757 1.757 0 0 1 .771.024c.1.027.121.048.081.023a1.25 1.25 0 0 1-.347-.353 1.96 1.96 0 0 1-.339-.947l7.972-.674Zm-15.611-.733c-.027.095-.061.224-.098.361l7.723 2.084.083-.305-7.708-2.14Zm-.098.361c-.571 2.116-3.055 11.312-7.598 20.882-4.662 9.819-10.972 18.895-18.661 22.142l3.113 7.37c10.642-4.495 18.029-16.086 22.775-26.081 4.863-10.245 7.496-20.011 8.094-22.229l-7.723-2.084Zm-26.259 43.024c-4.184 1.767-7.706 2.146-10.592 1.633-2.856-.507-5.381-1.937-7.548-4.305-4.447-4.86-7.392-13.75-7.392-25.893h-8c0 13.107 3.128 24.341 9.49 31.294 3.238 3.539 7.301 5.937 12.05 6.781 4.719.839 9.819.092 15.105-2.14l-3.113-7.37ZM322 289v3.25h8V289h-8Zm-20-20c11.046 0 20 8.954 20 20h8c0-15.464-12.536-28-28-28v8Zm-40 0h40v-8h-40v8Z"/><path stroke="#1F2024" stroke-linecap="round" stroke-width="12" d="M298 293a12 12 0 1 1-24 0"/><g filter="url(#j)"><circle cx="139" cy="291" r="10" fill="#fff"/></g><circle cx="139" cy="291" r="10" stroke="#1F2024" stroke-width="8"/><path fill="#000" fill-opacity=".16" d="M168.974 135.243c-.968-8.866 6.319-16.243 15.238-16.243H329c8.837 0 16.087 7.238 15.322 16.041-11.357 130.627-161.702 125.169-175.348.202Z"/><g filter="url(#k)"><ellipse cx="329" cy="104" fill="#75D1C1" rx="71" ry="68.5"/></g><ellipse cx="329" cy="104" stroke="#1F2024" stroke-linecap="round" stroke-linejoin="round" stroke-width="8" rx="71" ry="68.5"/><path stroke="#1F2024" stroke-linecap="round" stroke-linejoin="round" stroke-width="8" d="M334 61.586c-42-7-22.5 51-60 51"/><path fill="#000" fill-opacity=".16" d="M330.999 123.5c15.2-8.8 22.501-50-2.5-64-7.666 3.333-21.679 8.178-25.5 24.5-5.5 23.5-19 28.5-27.5 29 14.667 6.833 40.3 19.3 55.5 10.5Z"/><g filter="url(#l)"><rect width="32" height="49" x="395" y="154" fill="#fff" rx="8"/></g><rect width="32" height="49" x="395" y="154" stroke="#1F2024" stroke-linecap="round" stroke-linejoin="round" stroke-width="8" rx="8"/><g filter="url(#m)"><rect width="33" height="49" x="372" y="154" fill="#fff" rx="8"/></g><rect width="33" height="49" x="372" y="154" stroke="#1F2024" stroke-linecap="round" stroke-linejoin="round" stroke-width="8" rx="8"/><g filter="url(#n)"><path fill="#91DCCC" fill-rule="evenodd" d="M159.826 36.287C174.587 27.13 187.241 16.965 193.5 4c3.018 6.916 5 12.5 5 19.5 7-2 16.5-7.5 25.5-19.5 4.951 7.591 7.882 15.337 8.047 25.376a140.413 140.413 0 0 1 27.85 7.563c16.136 6.231 30.798 15.365 43.148 26.88 12.35 11.514 22.147 25.184 28.831 40.228a118.294 118.294 0 0 1 5.619 15.453H387c8.837 0 16.216 7.313 14.28 15.935-18.66 83.083-183.661 85.469-224.291 16.065h-50.832c-12.916 12.945-31.062 21-51.157 21-39.212 0-71-30.668-71-68.5s31.788-68.5 71-68.5c19.5 0 37.165 7.585 49.997 19.864 9.998-7.594 21.147-13.807 33.106-18.425.573-.221 1.147-.439 1.723-.652Z" clip-rule="evenodd"/><path fill="#1F2024" d="m193.5 4 3.666-1.6a4 4 0 0 0-7.268-.139L193.5 4Zm-33.674 32.287 1.391 3.75c.25-.093.491-.21.717-.351l-2.108-3.4ZM198.5 23.5h-4a4 4 0 0 0 5.099 3.846L198.5 23.5ZM224 4l3.35-2.185a3.999 3.999 0 0 0-6.55-.215L224 4Zm8.047 25.376-4 .066a4 4 0 0 0 3.352 3.881l.648-3.947Zm27.85 7.563 1.441-3.731-1.441 3.73Zm71.979 67.108-3.656 1.624 3.656-1.624Zm5.619 15.453-3.845 1.102a4 4 0 0 0 3.845 2.898v-4Zm63.785 15.935 3.903.877-3.903-.877ZM176.989 151.5l3.452-2.021a4 4 0 0 0-3.452-1.979v4Zm-50.832 0v-4a4 4 0 0 0-2.831 1.175l2.831 2.825Zm-1.16-96.136-2.766 2.89a4 4 0 0 0 5.185.295l-2.419-3.185Zm33.106-18.425 1.441 3.731-1.441-3.731ZM189.898 2.26c-5.735 11.88-17.536 21.543-32.18 30.627l4.216 6.798c14.878-9.228 28.385-19.897 35.168-33.947l-7.204-3.478ZM202.5 23.5c0-7.852-2.261-14.059-5.334-21.1l-7.332 3.2c2.964 6.791 4.666 11.752 4.666 17.9h8Zm18.3-21.9c-8.537 11.382-17.33 16.32-23.399 18.054l2.198 7.692C207.53 25.08 217.737 19.018 227.2 6.4l-6.4-4.8Zm15.246 27.71c-.179-10.915-3.405-19.383-8.696-27.495l-6.7 4.37c4.611 7.07 7.247 14.093 7.397 23.257l7.999-.132Zm25.292 3.898a144.432 144.432 0 0 0-28.644-7.78l-1.295 7.895a136.41 136.41 0 0 1 27.057 7.347l2.882-7.462Zm44.435 27.685c-12.733-11.871-27.834-21.275-44.435-27.685l-2.882 7.462c15.672 6.053 29.894 14.917 41.862 26.074l5.455-5.85Zm29.758 41.53c-6.908-15.549-17.025-29.658-29.758-41.53l-5.455 5.851c11.966 11.157 21.443 24.388 27.902 38.927l7.311-3.248Zm5.809 15.975a122.26 122.26 0 0 0-5.809-15.975l-7.311 3.248a114.387 114.387 0 0 1 5.43 14.931l7.69-2.204ZM387 115.5h-49.505v8H387v-8Zm18.183 20.812c2.634-11.729-7.444-20.812-18.183-20.812v8c6.934 0 11.616 5.543 10.377 11.058l7.806 1.754Zm-231.646 17.209c10.758 18.376 29.564 31.72 51.582 40.167 22.046 8.457 47.623 12.134 72.444 10.958 24.806-1.176 49.109-7.212 68.514-18.427 19.449-11.239 34.14-27.797 39.106-49.907l-7.806-1.754c-4.364 19.432-17.295 34.328-35.302 44.734-18.05 10.431-41.036 16.232-64.891 17.363-23.841 1.129-48.299-2.418-69.2-10.436-20.931-8.03-37.986-20.414-47.543-36.74l-6.904 4.042Zm-47.38 1.979h50.832v-8h-50.832v8ZM75 176.5c21.18 0 40.337-8.492 53.989-22.175l-5.663-5.65C111.144 160.883 94.012 168.5 75 168.5v8ZM0 104c0 40.175 33.715 72.5 75 72.5v-8c-37.14 0-67-29.012-67-64.5H0Zm75-72.5C33.715 31.5 0 63.825 0 104h8c0-35.488 29.86-64.5 67-64.5v-8Zm52.762 20.974C114.202 39.497 95.552 31.5 75 31.5v8c18.45 0 35.129 7.172 47.231 18.754l5.531-5.78Zm28.9-19.266c-12.303 4.75-23.783 11.146-34.084 18.97l4.838 6.371c9.695-7.364 20.514-13.393 32.128-17.879l-2.882-7.462Zm1.773-.672c-.593.22-1.184.444-1.773.672l2.882 7.462a132.08 132.08 0 0 1 1.673-.633l-2.782-7.5Z"/></g><circle cx="159" cy="116" r="22" fill="#E36776" fill-opacity=".5"/><path stroke="#1F2024" stroke-linecap="round" stroke-linejoin="round" stroke-width="8" d="M65 65.586c42-7 22.5 51 60 51"/><path fill="#000" fill-opacity=".16" d="M68 127.5c-15.2-8.8-22.5-50 2.5-64C78.168 66.833 92.18 71.678 96 88c5.501 23.5 19.001 28.5 27.501 29-14.667 6.833-40.3 19.3-55.5 10.5Z"/><path fill="#1F2024" d="M41 90h60v8H41z"/><g filter="url(#o)"><circle cx="47" cy="94" r="16" fill="#9BCEF1"/></g><circle cx="47" cy="94" r="16" stroke="#1F2024" stroke-width="8"/><path fill="#000" fill-opacity=".16" d="M339 140.667c0-10.31 8.357-18.667 18.667-18.667h60.666c10.31 0 18.667 8.357 18.667 18.667C437 161.285 420.285 178 399.667 178h-23.334C355.715 178 339 161.285 339 140.667Z"/><path fill="#1F2024" d="M347 139.167c0-13.071 10.596-23.667 23.667-23.667h50.666c13.071 0 23.667 10.596 23.667 23.667 0 26.141-21.192 47.333-47.333 47.333h-3.334c-26.141 0-47.333-21.192-47.333-47.333Z"/><path stroke="#fff" stroke-linecap="round" stroke-width="8" d="M428.722 148.881a26.438 26.438 0 0 0 1.034-7.332c0-7.656-6.423-13.862-14.345-13.862h-6.344"/><circle cx="210" cy="98" r="12" fill="#1F2024"/><circle r="12" fill="#1F2024" transform="matrix(-1 0 0 1 282 98)"/><g filter="url(#p)"><circle cx="369" cy="94" r="16" fill="#9BCEF1"/></g><circle cx="369" cy="94" r="16" stroke="#1F2024" stroke-width="8"/><rect width="38" height="8" x="326" y="90" fill="#1F2024" rx="4"/><defs><filter id="i" width="279.217" height="159.929" x="118.767" y="261" color-interpolation-filters="sRGB" filterUnits="userSpaceOnUse"><feFlood flood-opacity="0" result="BackgroundImageFix"/><feBlend in="SourceGraphic" in2="BackgroundImageFix" result="shape"/><feColorMatrix in="SourceAlpha" result="hardAlpha" values="0 0 0 0 0 0 0 0 0 0 0 0 0 0 0 0 0 0 127 0"/><feOffset dx="16"/><feComposite in2="hardAlpha" k2="-1" k3="1" operator="arithmetic"/><feColorMatrix values="0 0 0 0 0 0 0 0 0 0 0 0 0 0 0 0 0 0 0.25 0"/><feBlend in2="shape" result="effect1_innerShadow"/><feColorMatrix in="SourceAlpha" result="hardAlpha" values="0 0 0 0 0 0 0 0 0 0 0 0 0 0 0 0 0 0 127 0"/><feOffset dx="-24" dy="8"/><feComposite in2="hardAlpha" k2="-1" k3="1" operator="arithmetic"/><feColorMatrix values="0 0 0 0 1 0 0 0 0 1 0 0 0 0 1 0 0 0 0.25 0"/><feBlend in2="effect1_innerShadow" result="effect2_innerShadow"/></filter><filter id="a" width="332" height="216" x="58" y="135" color-interpolation-filters="sRGB" filterUnits="userSpaceOnUse"><feFlood flood-opacity="0" result="BackgroundImageFix"/><feBlend in="SourceGraphic" in2="BackgroundImageFix" result="shape"/><feColorMatrix in="SourceAlpha" result="hardAlpha" values="0 0 0 0 0 0 0 0 0 0 0 0 0 0 0 0 0 0 127 0"/><feOffset dx="-24" dy="8"/><feComposite in2="hardAlpha" k2="-1" k3="1" operator="arithmetic"/><feColorMatrix values="0 0 0 0 1 0 0 0 0 1 0 0 0 0 1 0 0 0 0.25 0"/><feBlend in2="shape" result="effect1_innerShadow"/></filter><filter id="c" width="54" height="216" x="84.667" y="135" color-interpolation-filters="sRGB" filterUnits="userSpaceOnUse"><feFlood flood-opacity="0" result="BackgroundImageFix"/><feBlend in="SourceGraphic" in2="BackgroundImageFix" result="shape"/><feColorMatrix in="SourceAlpha" result="hardAlpha" values="0 0 0 0 0 0 0 0 0 0 0 0 0 0 0 0 0 0 127 0"/><feOffset dy="-16"/><feComposite in2="hardAlpha" k2="-1" k3="1" operator="arithmetic"/><feColorMatrix values="0 0 0 0 0 0 0 0 0 0 0 0 0 0 0 0 0 0 0.25 0"/><feBlend in2="shape" result="effect1_innerShadow"/><feColorMatrix in="SourceAlpha" result="hardAlpha" values="0 0 0 0 0 0 0 0 0 0 0 0 0 0 0 0 0 0 127 0"/><feOffset dy="16"/><feComposite in2="hardAlpha" k2="-1" k3="1" operator="arithmetic"/><feColorMatrix values="0 0 0 0 1 0 0 0 0 1 0 0 0 0 1 0 0 0 0.25 0"/><feBlend in2="effect1_innerShadow" result="effect2_innerShadow"/></filter><filter id="d" width="54" height="216" x="111.333" y="135" color-interpolation-filters="sRGB" filterUnits="userSpaceOnUse"><feFlood flood-opacity="0" result="BackgroundImageFix"/><feBlend in="SourceGraphic" in2="BackgroundImageFix" result="shape"/><feColorMatrix in="SourceAlpha" result="hardAlpha" values="0 0 0 0 0 0 0 0 0 0 0 0 0 0 0 0 0 0 127 0"/><feOffset dy="-16"/><feComposite in2="hardAlpha" k2="-1" k3="1" operator="arithmetic"/><feColorMatrix values="0 0 0 0 0 0 0 0 0 0 0 0 0 0 0 0 0 0 0.25 0"/><feBlend in2="shape" result="effect1_innerShadow"/><feColorMatrix in="SourceAlpha" result="hardAlpha" values="0 0 0 0 0 0 0 0 0 0 0 0 0 0 0 0 0 0 127 0"/><feOffset dy="16"/><feComposite in2="hardAlpha" k2="-1" k3="1" operator="arithmetic"/><feColorMatrix values="0 0 0 0 1 0 0 0 0 1 0 0 0 0 1 0 0 0 0.25 0"/><feBlend in2="effect1_innerShadow" result="effect2_innerShadow"/></filter><filter id="e" width="54" height="216" x="138" y="135" color-interpolation-filters="sRGB" filterUnits="userSpaceOnUse"><feFlood flood-opacity="0" result="BackgroundImageFix"/><feBlend in="SourceGraphic" in2="BackgroundImageFix" result="shape"/><feColorMatrix in="SourceAlpha" result="hardAlpha" values="0 0 0 0 0 0 0 0 0 0 0 0 0 0 0 0 0 0 127 0"/><feOffset dy="-16"/><feComposite in2="hardAlpha" k2="-1" k3="1" operator="arithmetic"/><feColorMatrix values="0 0 0 0 0 0 0 0 0 0 0 0 0 0 0 0 0 0 0.25 0"/><feBlend in2="shape" result="effect1_innerShadow"/><feColorMatrix in="SourceAlpha" result="hardAlpha" values="0 0 0 0 0 0 0 0 0 0 0 0 0 0 0 0 0 0 127 0"/><feOffset dy="16"/><feComposite in2="hardAlpha" k2="-1" k3="1" operator="arithmetic"/><feColorMatrix values="0 0 0 0 1 0 0 0 0 1 0 0 0 0 1 0 0 0 0.25 0"/><feBlend in2="effect1_innerShadow" result="effect2_innerShadow"/></filter><filter id="f" width="140" height="16" x="43" y="193" color-interpolation-filters="sRGB" filterUnits="userSpaceOnUse"><feFlood flood-opacity="0" result="BackgroundImageFix"/><feColorMatrix in="SourceAlpha" result="hardAlpha" values="0 0 0 0 0 0 0 0 0 0 0 0 0 0 0 0 0 0 127 0"/><feOffset dx="-4" dy="4"/><feColorMatrix values="0 0 0 0 0 0 0 0 0 0 0 0 0 0 0 0 0 0 0.25 0"/><feBlend in2="BackgroundImageFix" result="effect1_dropShadow"/><feBlend in="SourceGraphic" in2="effect1_dropShadow" result="shape"/></filter><filter id="g" width="294.876" height="97.466" x="139.561" y="172.512" color-interpolation-filters="sRGB" filterUnits="userSpaceOnUse"><feFlood flood-opacity="0" result="BackgroundImageFix"/><feColorMatrix in="SourceAlpha" result="hardAlpha" values="0 0 0 0 0 0 0 0 0 0 0 0 0 0 0 0 0 0 127 0"/><feOffset dx="-4" dy="4"/><feColorMatrix values="0 0 0 0 0 0 0 0 0 0 0 0 0 0 0 0 0 0 0.25 0"/><feBlend in2="BackgroundImageFix" result="effect1_dropShadow"/><feBlend in="SourceGraphic" in2="effect1_dropShadow" result="shape"/></filter><filter id="b" width="54" height="216" x="58" y="135" color-interpolation-filters="sRGB" filterUnits="userSpaceOnUse"><feFlood flood-opacity="0" result="BackgroundImageFix"/><feBlend in="SourceGraphic" in2="BackgroundImageFix" result="shape"/><feColorMatrix in="SourceAlpha" result="hardAlpha" values="0 0 0 0 0 0 0 0 0 0 0 0 0 0 0 0 0 0 127 0"/><feOffset dy="-16"/><feComposite in2="hardAlpha" k2="-1" k3="1" operator="arithmetic"/><feColorMatrix values="0 0 0 0 0 0 0 0 0 0 0 0 0 0 0 0 0 0 0.25 0"/><feBlend in2="shape" result="effect1_innerShadow"/><feColorMatrix in="SourceAlpha" result="hardAlpha" values="0 0 0 0 0 0 0 0 0 0 0 0 0 0 0 0 0 0 127 0"/><feOffset dy="16"/><feComposite in2="hardAlpha" k2="-1" k3="1" operator="arithmetic"/><feColorMatrix values="0 0 0 0 1 0 0 0 0 1 0 0 0 0 1 0 0 0 0.25 0"/><feBlend in2="effect1_innerShadow" result="effect2_innerShadow"/></filter><filter id="j" width="28" height="28" x="125" y="277" color-interpolation-filters="sRGB" filterUnits="userSpaceOnUse"><feFlood flood-opacity="0" result="BackgroundImageFix"/><feBlend in="SourceGraphic" in2="BackgroundImageFix" result="shape"/><feColorMatrix in="SourceAlpha" result="hardAlpha" values="0 0 0 0 0 0 0 0 0 0 0 0 0 0 0 0 0 0 127 0"/><feOffset dx="-24" dy="8"/><feComposite in2="hardAlpha" k2="-1" k3="1" operator="arithmetic"/><feColorMatrix values="0 0 0 0 1 0 0 0 0 1 0 0 0 0 1 0 0 0 0.25 0"/><feBlend in2="shape" result="effect1_innerShadow"/></filter><filter id="k" width="150" height="145" x="254" y="31.5" color-interpolation-filters="sRGB" filterUnits="userSpaceOnUse"><feFlood flood-opacity="0" result="BackgroundImageFix"/><feBlend in="SourceGraphic" in2="BackgroundImageFix" result="shape"/><feColorMatrix in="SourceAlpha" result="hardAlpha" values="0 0 0 0 0 0 0 0 0 0 0 0 0 0 0 0 0 0 127 0"/><feOffset dx="16"/><feComposite in2="hardAlpha" k2="-1" k3="1" operator="arithmetic"/><feColorMatrix values="0 0 0 0 0 0 0 0 0 0 0 0 0 0 0 0 0 0 0.25 0"/><feBlend in2="shape" result="effect1_innerShadow"/><feColorMatrix in="SourceAlpha" result="hardAlpha" values="0 0 0 0 0 0 0 0 0 0 0 0 0 0 0 0 0 0 127 0"/><feOffset dx="-24" dy="8"/><feComposite in2="hardAlpha" k2="-1" k3="1" operator="arithmetic"/><feColorMatrix values="0 0 0 0 1 0 0 0 0 1 0 0 0 0 1 0 0 0 0.25 0"/><feBlend in2="effect1_innerShadow" result="effect2_innerShadow"/></filter><filter id="l" width="40" height="57" x="391" y="150" color-interpolation-filters="sRGB" filterUnits="userSpaceOnUse"><feFlood flood-opacity="0" result="BackgroundImageFix"/><feBlend in="SourceGraphic" in2="BackgroundImageFix" result="shape"/><feColorMatrix in="SourceAlpha" result="hardAlpha" values="0 0 0 0 0 0 0 0 0 0 0 0 0 0 0 0 0 0 127 0"/><feOffset dx="16"/><feComposite in2="hardAlpha" k2="-1" k3="1" operator="arithmetic"/><feColorMatrix values="0 0 0 0 0 0 0 0 0 0 0 0 0 0 0 0 0 0 0.25 0"/><feBlend in2="shape" result="effect1_innerShadow"/><feColorMatrix in="SourceAlpha" result="hardAlpha" values="0 0 0 0 0 0 0 0 0 0 0 0 0 0 0 0 0 0 127 0"/><feOffset dx="-24" dy="8"/><feComposite in2="hardAlpha" k2="-1" k3="1" operator="arithmetic"/><feColorMatrix values="0 0 0 0 1 0 0 0 0 1 0 0 0 0 1 0 0 0 0.25 0"/><feBlend in2="effect1_innerShadow" result="effect2_innerShadow"/></filter><filter id="m" width="41" height="57" x="368" y="150" color-interpolation-filters="sRGB" filterUnits="userSpaceOnUse"><feFlood flood-opacity="0" result="BackgroundImageFix"/><feBlend in="SourceGraphic" in2="BackgroundImageFix" result="shape"/><feColorMatrix in="SourceAlpha" result="hardAlpha" values="0 0 0 0 0 0 0 0 0 0 0 0 0 0 0 0 0 0 127 0"/><feOffset dx="16"/><feComposite in2="hardAlpha" k2="-1" k3="1" operator="arithmetic"/><feColorMatrix values="0 0 0 0 0 0 0 0 0 0 0 0 0 0 0 0 0 0 0.25 0"/><feBlend in2="shape" result="effect1_innerShadow"/><feColorMatrix in="SourceAlpha" result="hardAlpha" values="0 0 0 0 0 0 0 0 0 0 0 0 0 0 0 0 0 0 127 0"/><feOffset dx="-24" dy="8"/><feComposite in2="hardAlpha" k2="-1" k3="1" operator="arithmetic"/><feColorMatrix values="0 0 0 0 1 0 0 0 0 1 0 0 0 0 1 0 0 0 0.25 0"/><feBlend in2="effect1_innerShadow" result="effect2_innerShadow"/></filter><filter id="n" width="405.607" height="208.86" x="0" y="0" color-interpolation-filters="sRGB" filterUnits="userSpaceOnUse"><feFlood flood-opacity="0" result="BackgroundImageFix"/><feColorMatrix in="SourceAlpha" result="hardAlpha" values="0 0 0 0 0 0 0 0 0 0 0 0 0 0 0 0 0 0 127 0"/><feOffset dy="4"/><feColorMatrix values="0 0 0 0 0 0 0 0 0 0 0 0 0 0 0 0 0 0 0.25 0"/><feBlend in2="BackgroundImageFix" result="effect1_dropShadow"/><feBlend in="SourceGraphic" in2="effect1_dropShadow" result="shape"/><feColorMatrix in="SourceAlpha" result="hardAlpha" values="0 0 0 0 0 0 0 0 0 0 0 0 0 0 0 0 0 0 127 0"/><feOffset dx="16"/><feComposite in2="hardAlpha" k2="-1" k3="1" operator="arithmetic"/><feColorMatrix values="0 0 0 0 0 0 0 0 0 0 0 0 0 0 0 0 0 0 0.25 0"/><feBlend in2="shape" result="effect2_innerShadow"/><feColorMatrix in="SourceAlpha" result="hardAlpha" values="0 0 0 0 0 0 0 0 0 0 0 0 0 0 0 0 0 0 127 0"/><feOffset dx="-16" dy="8"/><feComposite in2="hardAlpha" k2="-1" k3="1" operator="arithmetic"/><feColorMatrix values="0 0 0 0 1 0 0 0 0 1 0 0 0 0 1 0 0 0 0.55 0"/><feBlend in2="effect2_innerShadow" result="effect3_innerShadow"/></filter><filter id="o" width="40" height="40" x="27" y="74" color-interpolation-filters="sRGB" filterUnits="userSpaceOnUse"><feFlood flood-opacity="0" result="BackgroundImageFix"/><feBlend in="SourceGraphic" in2="BackgroundImageFix" result="shape"/><feColorMatrix in="SourceAlpha" result="hardAlpha" values="0 0 0 0 0 0 0 0 0 0 0 0 0 0 0 0 0 0 127 0"/><feOffset dx="16"/><feComposite in2="hardAlpha" k2="-1" k3="1" operator="arithmetic"/><feColorMatrix values="0 0 0 0 0 0 0 0 0 0 0 0 0 0 0 0 0 0 0.25 0"/><feBlend in2="shape" result="effect1_innerShadow"/><feColorMatrix in="SourceAlpha" result="hardAlpha" values="0 0 0 0 0 0 0 0 0 0 0 0 0 0 0 0 0 0 127 0"/><feOffset dx="-24" dy="8"/><feComposite in2="hardAlpha" k2="-1" k3="1" operator="arithmetic"/><feColorMatrix values="0 0 0 0 1 0 0 0 0 1 0 0 0 0 1 0 0 0 0.25 0"/><feBlend in2="effect1_innerShadow" result="effect2_innerShadow"/></filter><filter id="p" width="40" height="40" x="349" y="74" color-interpolation-filters="sRGB" filterUnits="userSpaceOnUse"><feFlood flood-opacity="0" result="BackgroundImageFix"/><feBlend in="SourceGraphic" in2="BackgroundImageFix" result="shape"/><feColorMatrix in="SourceAlpha" result="hardAlpha" values="0 0 0 0 0 0 0 0 0 0 0 0 0 0 0 0 0 0 127 0"/><feOffset dx="16"/><feComposite in2="hardAlpha" k2="-1" k3="1" operator="arithmetic"/><feColorMatrix values="0 0 0 0 0 0 0 0 0 0 0 0 0 0 0 0 0 0 0.25 0"/><feBlend in2="shape" result="effect1_innerShadow"/><feColorMatrix in="SourceAlpha" result="hardAlpha" values="0 0 0 0 0 0 0 0 0 0 0 0 0 0 0 0 0 0 127 0"/><feOffset dx="-24" dy="8"/><feComposite in2="hardAlpha" k2="-1" k3="1" operator="arithmetic"/><feColorMatrix values="0 0 0 0 1 0 0 0 0 1 0 0 0 0 1 0 0 0 0.25 0"/><feBlend in2="effect1_innerShadow" result="effect2_innerShadow"/></filter></defs></svg>