<svg xmlns="http://www.w3.org/2000/svg" width="447" height="359" fill="none"><g filter="url(#a)"><path fill="#4A4A57" d="M74 167c0-13.255 10.745-24 24-24h192c13.255 0 24 10.745 24 24v160c0 13.255-10.745 24-24 24H138c-35.346 0-64-28.654-64-64V167Z"/></g><path stroke="#1F2024" stroke-width="8" d="M74 167c0-13.255 10.745-24 24-24h192c13.255 0 24 10.745 24 24v160c0 13.255-10.745 24-24 24H138c-35.346 0-64-28.654-64-64V167Z"/><g filter="url(#b)"><path fill="#676C77" d="M174 167c0-13.255 10.745-24 24-24h176c13.255 0 24 10.745 24 24v120c0 35.346-28.654 64-64 64h-96c-35.346 0-64-28.654-64-64V167Z"/></g><path stroke="#1F2024" stroke-width="8" d="M174 167c0-13.255 10.745-24 24-24h176c13.255 0 24 10.745 24 24v120c0 35.346-28.654 64-64 64h-96c-35.346 0-64-28.654-64-64V167Z"/><g filter="url(#c)"><path fill="#1F2024" d="M59 197h136v12H59z"/></g><g filter="url(#d)"><path fill="#1F2024" fill-rule="evenodd" d="M236.908 268.122c-16.849-11.721-53.516-49.514-80.542-85.421-2.014-2.675-.006-6.414 3.334-6.178 40.49 2.861 107.4 13.904 128.449 26.35.364.197.75.437 1.174.701 2.114 1.315 5.177 3.22 11.177 3.321 6.457-.108 10.278-2.281 12.575-3.588.277-.158.532-.302.766-.43 21.041-12.447 87.962-23.492 128.457-26.354 3.34-.236 5.348 3.503 3.334 6.178-27.025 35.907-63.692 73.7-80.542 85.421-2.891 2.012-6.545 2.486-9.709.94-13.21-6.456-34.118-26.673-43.395-44.114h-.001c-2.217-4.209-8.424-5.861-11.423-6.053-2.407.199-7.083 1.929-9.942 4.881-8.941 17.697-30.496 38.685-44.003 45.286-3.164 1.546-6.818 1.072-9.709-.94Z" clip-rule="evenodd"/></g><path fill="#4A4A4E" fill-rule="evenodd" d="M186.88 196.634c4.113-10.759 89.444 7.065 93.498 17.476 3.294 8.46-23.622 42.525-38.037 42.525-11.532 0-59.574-49.242-55.461-60.001Zm227.894 0c-4.113-10.759-89.443 7.065-93.497 17.476-3.295 8.46 23.622 42.525 38.036 42.525 11.532 0 59.574-49.242 55.461-60.001Z" clip-rule="evenodd"/><mask id="e" width="230" height="64" x="186" y="193" mask-type="alpha" maskUnits="userSpaceOnUse"><path fill="#4A4A4E" fill-rule="evenodd" d="M186.88 196.634c4.113-10.759 89.444 7.065 93.498 17.476 3.294 8.46-23.622 42.525-38.037 42.525-11.532 0-59.574-49.242-55.461-60.001Zm227.894 0c-4.113-10.759-89.443 7.065-93.497 17.476-3.295 8.46 23.622 42.525 38.036 42.525 11.532 0 59.574-49.242 55.461-60.001Z" clip-rule="evenodd"/></mask><g mask="url(#e)"><path fill="#fff" d="M427.872 185H450l-37.872 80H390l37.872-80Z"/></g><rect width="112" height="32" x="230" y="269" fill="#1F2024" rx="16"/><path fill="#CAE9FA" d="M230 269h12v32h-12zM250 269h12v32h-12zM270 269h12v32h-12zM290 269h12v32h-12zM310 269h12v32h-12zM330 269h12v32h-12z"/><rect width="112" height="32" x="230" y="269" stroke="#1F2024" stroke-width="6" rx="16"/><path fill="#E79834" stroke="#1F2024" stroke-linecap="round" stroke-linejoin="round" stroke-width="8" d="M408.963 48c2.506 45.383-5.046 62.913-25.5 88-40.189-19.427-58.132-34.302-79-70.5 52.939 7.42 75.036 2.674 104.5-17.5Z"/><path fill="#F9E174" stroke="#1F2024" stroke-width="8" d="M78.463 143h70l.935 83.691c.477 42.729-45.151 70.227-82.708 49.845l-14.227-7.721 26-22.876V143Z"/><g filter="url(#f)"><path fill="#EDB146" fill-rule="evenodd" d="M212.866 35.793C227.171 30.307 244.617 22.016 255 4l6.5 22.611c6.292-2.538 9.793-5.122 16-11 1.007 9.842-.013 16.381-1.85 22.758 29.544 4.795 56.806 14.583 78.728 28.556 26.144 16.665 42.949 38.171 48.265 61.213 1.987 8.61-5.344 15.862-14.18 15.862H133.474l.929 83.153c.476 42.623-44.948 70.13-82.499 49.957l-15.441-8.295 26-22.876V143h.007a69.8 69.8 0 0 1 .513-7.494l-1.02.494c-20.454-25.087-28.006-42.617-25.5-88 22.953 15.716 41.435 22.07 73.511 20.602a150.57 150.57 0 0 1 2.574-1.677c27.175-17.322 62.555-28.212 100.318-31.132Z" clip-rule="evenodd"/></g><path fill="#1F2024" d="m255 4 3.844-1.105a3.999 3.999 0 0 0-7.31-.892L255 4Zm-42.134 31.793.309 3.988c.384-.03.763-.115 1.123-.253l-1.432-3.735Zm48.634-9.182-3.844 1.105a4 4 0 0 0 5.34 2.605l-1.496-3.71Zm16-11 3.979-.407a4 4 0 0 0-6.729-2.497l2.75 2.904Zm-1.85 22.758-3.844-1.108a4 4 0 0 0 3.203 5.056l.641-3.948Zm78.728 28.556-2.15 3.373 2.15-3.373Zm48.265 61.213 3.898-.9-3.898.9ZM133.474 144v-4a4.001 4.001 0 0 0-4 4.045l4-.045Zm.929 83.153 4-.045-4 .045ZM51.904 277.11l-1.893 3.524 1.893-3.524Zm-15.441-8.295-2.642-3.003a3.998 3.998 0 0 0 .749 6.526l1.893-3.523Zm26-22.876 2.642 3.003a3.999 3.999 0 0 0 1.358-3.003h-4Zm0-102.939v-4a4 4 0 0 0-4 4h4Zm.007 0v4a4 4 0 0 0 4-3.943l-4-.057Zm.513-7.494 3.97.486a3.999 3.999 0 0 0-5.72-4.084l1.75 3.598Zm-1.02.494-3.1 2.528a4 4 0 0 0 4.84 1.073L61.964 136Zm-25.5-88 2.26-3.3a4 4 0 0 0-6.254 3.08l3.994.22Zm73.511 20.602.183 3.995a4.002 4.002 0 0 0 2.033-.665l-2.216-3.33Zm2.574-1.677 2.15 3.373-2.15-3.373ZM251.534 2.003c-9.653 16.75-25.949 24.628-40.1 30.055l2.864 7.47c14.458-5.545 33.055-14.248 44.168-33.53l-6.932-3.995Zm13.81 23.503-6.5-22.611-7.688 2.21 6.5 22.611 7.688-2.21Zm9.406-12.8c-6.007 5.689-9.09 7.914-14.746 10.196l2.992 7.419c6.928-2.795 10.846-5.737 17.254-11.806l-5.5-5.808Zm4.743 26.77c1.966-6.823 3.049-13.877 1.986-24.272l-7.958.814c.95 9.289-.007 15.314-1.715 21.243l7.687 2.215Zm77.035 24.076c-22.456-14.314-50.252-24.265-80.238-29.132l-1.281 7.897c29.103 4.723 55.831 14.348 77.219 27.981l4.3-6.746Zm50.013 63.686c-5.615-24.334-23.25-46.626-50.013-63.686l-4.3 6.746c25.526 16.271 41.499 36.99 46.518 58.739l7.795-1.799ZM388.463 148c10.725 0 20.787-9.019 18.078-20.762l-7.795 1.799c1.264 5.478-3.335 10.963-10.283 10.963v8Zm-155 0h155v-8h-155v8Zm-99.989 0h99.989v-8h-99.989v8Zm4.929 79.108-.929-83.153-8 .09.929 83.152 8-.089Zm-88.392 53.526c40.233 21.614 88.902-7.858 88.392-53.526l-8 .089c.443 39.58-41.737 65.122-76.606 46.39l-3.786 7.047Zm-15.441-8.296 15.441 8.296 3.786-7.047-15.441-8.296-3.786 7.047Zm25.25-29.402-26 22.876 5.285 6.006 26-22.876-5.284-6.006ZM58.464 144v101.939h8V144h-8Zm0-1v1h8v-1h-8Zm4.007-4h-.007v8h.007v-8Zm-3.458-3.981a73.832 73.832 0 0 0-.541 7.924l7.999.114a65.83 65.83 0 0 1 .483-7.065l-7.94-.973Zm4.692 4.582 1.027-.498-3.497-7.195-1.012.491 3.482 7.202ZM32.469 47.779c-1.265 22.903-.02 39.178 4.317 53.028 4.352 13.897 11.717 25.014 22.077 37.721l6.2-5.056C54.97 121.092 48.33 110.901 44.42 98.416 40.495 85.882 39.215 70.7 40.457 48.22l-7.988-.442Zm77.322 16.827c-15.734.72-27.909-.488-38.869-3.7S49.99 52.414 38.722 44.7l-4.519 6.6c11.686 8.002 22.432 13.756 34.47 17.283 12.038 3.528 25.142 4.762 41.484 4.014l-.366-7.991Zm.607-1.054c-.891.568-1.77 1.14-2.64 1.72l4.432 6.66c.825-.55 1.661-1.094 2.508-1.634l-4.3-6.746Zm102.16-31.747c-38.292 2.961-74.333 14.01-102.16 31.747l4.3 6.746c26.523-16.907 61.243-27.638 98.477-30.517l-.617-7.976Z"/><path fill="#fff" fill-rule="evenodd" d="M287.463 144h-154a76.996 76.996 0 0 1 77-77 76.998 76.998 0 0 1 62.627 32.201 76.032 76.032 0 0 1 7.754-9.648C294.534 75.113 313.102 67 332.463 67c19.361 0 37.929 8.112 51.619 22.553 10.081 10.633 16.909 24.057 19.808 38.55 1.734 8.665-5.591 15.897-14.427 15.897h-102Z" clip-rule="evenodd"/><path fill="#1F2024" d="M210.463 144v4-4Zm-77 0h-4v4h4v-4Zm22.553-54.447 2.828 2.828-2.828-2.828Zm108.894 0-2.828 2.828 2.828-2.828Zm8.18 9.648-3.254 2.327 3.341 4.671 3.223-4.753-3.31-2.245Zm7.754-9.648 2.903 2.752-2.903-2.752Zm103.238 0 2.902-2.752-2.902 2.752Zm19.808 38.55-3.922.785 3.922-.785ZM210.463 148h77v-8h-77v8Zm-77 0h77v-8h-77v8Zm19.724-61.276A81.001 81.001 0 0 0 129.463 144h8a73 73 0 0 1 21.381-51.619l-5.657-5.657ZM210.463 63a81.001 81.001 0 0 0-57.276 23.724l5.657 5.657A73 73 0 0 1 210.463 71v-8Zm57.276 23.724A81.003 81.003 0 0 0 210.463 63v8a73 73 0 0 1 51.619 21.381l5.657-5.657Zm8.604 10.15a81.033 81.033 0 0 0-8.604-10.15l-5.657 5.657a72.956 72.956 0 0 1 7.754 9.147l6.507-4.654Zm1.598-10.073a80.166 80.166 0 0 0-8.162 10.155l6.621 4.49a72.19 72.19 0 0 1 7.347-9.141l-5.806-5.504ZM332.463 63c-20.493 0-40.1 8.589-54.522 23.8l5.806 5.505C296.705 78.636 314.234 71 332.463 71v-8Zm54.521 23.8C372.563 71.59 352.956 63 332.463 63v8c18.229 0 35.757 7.636 48.716 21.305l5.805-5.504Zm20.829 40.518c-3.043-15.207-10.212-29.319-20.829-40.517l-5.805 5.504c9.546 10.069 16.033 22.804 18.789 36.583l7.845-1.57ZM389.463 148c10.773 0 20.687-8.997 18.35-20.682l-7.845 1.57c1.129 5.644-3.605 11.112-10.505 11.112v8Zm-57 0h57v-8h-57v8Zm-45 0h45v-8h-45v8Z"/><path fill="#fff" stroke="#1F2024" stroke-width="8" d="M269.463 144a58.997 58.997 0 0 0-100.719-41.719A58.997 58.997 0 0 0 151.463 144h118ZM387.463 144c0-15.648-5.795-30.655-16.109-41.719C361.039 91.216 347.05 85 332.463 85s-28.576 6.216-38.891 17.281c-10.314 11.064-16.109 26.071-16.109 41.719h110Z"/><circle cx="218.463" cy="114" r="20" fill="#1F2024" stroke="#4795E0" stroke-width="8"/><circle cx="333.463" cy="114" r="20" fill="#1F2024" stroke="#4795E0" stroke-width="8"/><path fill="#000" fill-opacity=".16" d="m262.519 184.258-12.056-38.247c8.727-18.745 42-21.245 54 0l-35.133 39.696c-2.062 2.328-5.875 1.517-6.811-1.449Z"/><g filter="url(#g)"><path fill="#F9E174" d="m288.645 183-38.182-38.991c8.727-16.246 42-18.412 54 0L288.645 183Z"/></g><path stroke="#1F2024" stroke-linecap="round" stroke-linejoin="round" stroke-width="8" d="m288.645 183-38.182-38.991c8.727-16.246 42-18.412 54 0L288.645 183Z"/><path fill="#EDB146" fill-rule="evenodd" d="M260.662 113H160.263a59.001 59.001 0 0 1 100.399 0Z" clip-rule="evenodd"/><path fill="#1F2024" d="M260.662 113v4a4.001 4.001 0 0 0 3.404-6.102L260.662 113Zm-100.399 0-3.404-2.102a4.001 4.001 0 0 0 3.404 6.102v-4Zm8.48-10.719 2.829 2.828-2.829-2.828Zm83.439 0-2.829 2.828 2.829-2.828Zm8.48 6.719H160.263v8h100.399v-8Zm-94.747-9.548a63.017 63.017 0 0 0-9.056 11.446l6.807 4.204a54.91 54.91 0 0 1 7.906-9.993l-5.657-5.657ZM210.463 81a63 63 0 0 0-44.548 18.452l5.657 5.657A55 55 0 0 1 210.463 89v-8Zm44.547 18.452A63 63 0 0 0 210.463 81v8a54.999 54.999 0 0 1 38.89 16.109l5.657-5.657Zm9.056 11.446a63.017 63.017 0 0 0-9.056-11.446l-5.657 5.657a54.944 54.944 0 0 1 7.906 9.993l6.807-4.204Z"/><path fill="#E79834" d="M86.463 103c-23-5.5-40-23.5-46.5-49.5 7.12 36.262 10.406 57.769 34 66.5 2-5 5-10.5 12.5-17Z"/><path stroke="#1F2024" stroke-linecap="round" stroke-linejoin="round" stroke-width="8" d="M39.963 53.5c6.5 26 23.5 44 46.5 49.5-7.5 6.5-10.5 12-12.5 17"/><path fill="#EDB146" fill-rule="evenodd" d="M378.662 113h-92.399a58.511 58.511 0 0 1 7.804-10.719C304.25 91.216 318.062 85 332.463 85c14.4 0 28.212 6.216 38.395 17.281A58.511 58.511 0 0 1 378.662 113Z" clip-rule="evenodd"/><path fill="#1F2024" d="M378.662 113v4a4 4 0 0 0 3.478-5.976L378.662 113Zm-92.399 0-3.478-1.976a4 4 0 0 0 3.478 5.976v-4Zm7.804-10.719 2.944 2.708-2.944-2.708Zm76.791 0 2.943-2.709-2.943 2.709Zm7.804 6.719h-92.399v8h92.399v-8Zm-87.538-9.428a62.5 62.5 0 0 0-8.339 11.452l6.955 3.952a54.526 54.526 0 0 1 7.271-9.987l-5.887-5.417ZM332.463 81c-15.574 0-30.436 6.725-41.339 18.572l5.887 5.417C306.474 94.707 319.235 89 332.463 89v-8Zm41.338 18.572C362.898 87.725 348.037 81 332.463 81v8c13.227 0 25.988 5.707 35.451 15.989l5.887-5.417Zm8.339 11.452a62.5 62.5 0 0 0-8.339-11.452l-5.887 5.417a54.526 54.526 0 0 1 7.271 9.987l6.955-3.952Z"/><path stroke="#F9E174" stroke-linecap="round" stroke-linejoin="round" stroke-width="8" d="m98.463 138.5 16.5-8.5M101.463 179l16.5-8.5M96.463 219.5l16.5-8.5M78.463 161.5l16.5-8.5M81.463 202l16.5-8.5M76.463 242.5l16.5-8.5"/><circle cx="89" cy="157" r="36" fill="#000" fill-opacity=".16"/><g filter="url(#h)"><circle cx="90" cy="146" r="36" fill="#676C77"/></g><circle cx="90" cy="146" r="36" stroke="#1F2024" stroke-width="8"/><g filter="url(#i)"><circle cx="70" cy="146" r="24" fill="#CAE9FA"/></g><circle cx="70" cy="146" r="24" stroke="#1F2024" stroke-width="8"/><rect width="1" height="29" x="35" y="147" fill="#4795E0" stroke="#1F2024" stroke-width="8" rx=".5" transform="rotate(-90 35 147)"/><g filter="url(#j)"><circle cx="20" cy="146" r="16" fill="#F2C95C" transform="rotate(-90 20 146)"/></g><circle cx="20" cy="146" r="16" stroke="#1F2024" stroke-width="8" transform="rotate(-90 20 146)"/><path stroke="#1F2024" stroke-linecap="round" stroke-linejoin="round" stroke-width="8" d="M142 70.5c5.392 6.578 9.451 9.477 19.5 12.5M123.774 90.555c6.829 5.072 11.47 6.898 21.952 7.39M407.5 70.5c-5.392 6.578-9.451 9.477-19.5 12.5M425.726 90.555c-6.829 5.072-11.47 6.898-21.952 7.39"/><defs><filter id="a" width="248" height="216" x="70" y="139" color-interpolation-filters="sRGB" filterUnits="userSpaceOnUse"><feFlood flood-opacity="0" result="BackgroundImageFix"/><feBlend in="SourceGraphic" in2="BackgroundImageFix" result="shape"/><feColorMatrix in="SourceAlpha" result="hardAlpha" values="0 0 0 0 0 0 0 0 0 0 0 0 0 0 0 0 0 0 127 0"/><feOffset dy="-16"/><feComposite in2="hardAlpha" k2="-1" k3="1" operator="arithmetic"/><feColorMatrix values="0 0 0 0 0 0 0 0 0 0 0 0 0 0 0 0 0 0 0.25 0"/><feBlend in2="shape" result="effect1_innerShadow"/><feColorMatrix in="SourceAlpha" result="hardAlpha" values="0 0 0 0 0 0 0 0 0 0 0 0 0 0 0 0 0 0 127 0"/><feOffset dy="16"/><feComposite in2="hardAlpha" k2="-1" k3="1" operator="arithmetic"/><feColorMatrix values="0 0 0 0 1 0 0 0 0 1 0 0 0 0 1 0 0 0 0.25 0"/><feBlend in2="effect1_innerShadow" result="effect2_innerShadow"/></filter><filter id="b" width="232" height="216" x="170" y="139" color-interpolation-filters="sRGB" filterUnits="userSpaceOnUse"><feFlood flood-opacity="0" result="BackgroundImageFix"/><feBlend in="SourceGraphic" in2="BackgroundImageFix" result="shape"/><feColorMatrix in="SourceAlpha" result="hardAlpha" values="0 0 0 0 0 0 0 0 0 0 0 0 0 0 0 0 0 0 127 0"/><feOffset dx="-24" dy="8"/><feComposite in2="hardAlpha" k2="-1" k3="1" operator="arithmetic"/><feColorMatrix values="0 0 0 0 1 0 0 0 0 1 0 0 0 0 1 0 0 0 0.25 0"/><feBlend in2="shape" result="effect1_innerShadow"/></filter><filter id="c" width="140" height="16" x="55" y="197" color-interpolation-filters="sRGB" filterUnits="userSpaceOnUse"><feFlood flood-opacity="0" result="BackgroundImageFix"/><feColorMatrix in="SourceAlpha" result="hardAlpha" values="0 0 0 0 0 0 0 0 0 0 0 0 0 0 0 0 0 0 127 0"/><feOffset dx="-4" dy="4"/><feColorMatrix values="0 0 0 0 0 0 0 0 0 0 0 0 0 0 0 0 0 0 0.25 0"/><feBlend in2="BackgroundImageFix" result="effect1_dropShadow"/><feBlend in="SourceGraphic" in2="effect1_dropShadow" result="shape"/></filter><filter id="d" width="294.876" height="97.466" x="151.561" y="176.512" color-interpolation-filters="sRGB" filterUnits="userSpaceOnUse"><feFlood flood-opacity="0" result="BackgroundImageFix"/><feColorMatrix in="SourceAlpha" result="hardAlpha" values="0 0 0 0 0 0 0 0 0 0 0 0 0 0 0 0 0 0 127 0"/><feOffset dx="-4" dy="4"/><feColorMatrix values="0 0 0 0 0 0 0 0 0 0 0 0 0 0 0 0 0 0 0.25 0"/><feBlend in2="BackgroundImageFix" result="effect1_dropShadow"/><feBlend in="SourceGraphic" in2="effect1_dropShadow" result="shape"/></filter><filter id="f" width="374.988" height="287.865" x="32" y="0" color-interpolation-filters="sRGB" filterUnits="userSpaceOnUse"><feFlood flood-opacity="0" result="BackgroundImageFix"/><feBlend in="SourceGraphic" in2="BackgroundImageFix" result="shape"/><feColorMatrix in="SourceAlpha" result="hardAlpha" values="0 0 0 0 0 0 0 0 0 0 0 0 0 0 0 0 0 0 127 0"/><feOffset dx="16"/><feComposite in2="hardAlpha" k2="-1" k3="1" operator="arithmetic"/><feColorMatrix values="0 0 0 0 0 0 0 0 0 0 0 0 0 0 0 0 0 0 0.25 0"/><feBlend in2="shape" result="effect1_innerShadow"/><feColorMatrix in="SourceAlpha" result="hardAlpha" values="0 0 0 0 0 0 0 0 0 0 0 0 0 0 0 0 0 0 127 0"/><feOffset dx="-24" dy="8"/><feComposite in2="hardAlpha" k2="-1" k3="1" operator="arithmetic"/><feColorMatrix values="0 0 0 0 1 0 0 0 0 1 0 0 0 0 1 0 0 0 0.25 0"/><feBlend in2="effect1_innerShadow" result="effect2_innerShadow"/></filter><filter id="g" width="62" height="60" x="246.463" y="127" color-interpolation-filters="sRGB" filterUnits="userSpaceOnUse"><feFlood flood-opacity="0" result="BackgroundImageFix"/><feBlend in="SourceGraphic" in2="BackgroundImageFix" result="shape"/><feColorMatrix in="SourceAlpha" result="hardAlpha" values="0 0 0 0 0 0 0 0 0 0 0 0 0 0 0 0 0 0 127 0"/><feOffset dx="16"/><feComposite in2="hardAlpha" k2="-1" k3="1" operator="arithmetic"/><feColorMatrix values="0 0 0 0 0 0 0 0 0 0 0 0 0 0 0 0 0 0 0.25 0"/><feBlend in2="shape" result="effect1_innerShadow"/><feColorMatrix in="SourceAlpha" result="hardAlpha" values="0 0 0 0 0 0 0 0 0 0 0 0 0 0 0 0 0 0 127 0"/><feOffset dx="-16" dy="8"/><feComposite in2="hardAlpha" k2="-1" k3="1" operator="arithmetic"/><feColorMatrix values="0 0 0 0 1 0 0 0 0 1 0 0 0 0 1 0 0 0 0.25 0"/><feBlend in2="effect1_innerShadow" result="effect2_innerShadow"/></filter><filter id="h" width="80" height="80" x="50" y="106" color-interpolation-filters="sRGB" filterUnits="userSpaceOnUse"><feFlood flood-opacity="0" result="BackgroundImageFix"/><feBlend in="SourceGraphic" in2="BackgroundImageFix" result="shape"/><feColorMatrix in="SourceAlpha" result="hardAlpha" values="0 0 0 0 0 0 0 0 0 0 0 0 0 0 0 0 0 0 127 0"/><feOffset dx="16"/><feComposite in2="hardAlpha" k2="-1" k3="1" operator="arithmetic"/><feColorMatrix values="0 0 0 0 0 0 0 0 0 0 0 0 0 0 0 0 0 0 0.25 0"/><feBlend in2="shape" result="effect1_innerShadow"/><feColorMatrix in="SourceAlpha" result="hardAlpha" values="0 0 0 0 0 0 0 0 0 0 0 0 0 0 0 0 0 0 127 0"/><feOffset dx="-24" dy="8"/><feComposite in2="hardAlpha" k2="-1" k3="1" operator="arithmetic"/><feColorMatrix values="0 0 0 0 1 0 0 0 0 1 0 0 0 0 1 0 0 0 0.25 0"/><feBlend in2="effect1_innerShadow" result="effect2_innerShadow"/></filter><filter id="i" width="56" height="56" x="42" y="118" color-interpolation-filters="sRGB" filterUnits="userSpaceOnUse"><feFlood flood-opacity="0" result="BackgroundImageFix"/><feBlend in="SourceGraphic" in2="BackgroundImageFix" result="shape"/><feColorMatrix in="SourceAlpha" result="hardAlpha" values="0 0 0 0 0 0 0 0 0 0 0 0 0 0 0 0 0 0 127 0"/><feOffset dx="16"/><feComposite in2="hardAlpha" k2="-1" k3="1" operator="arithmetic"/><feColorMatrix values="0 0 0 0 0 0 0 0 0 0 0 0 0 0 0 0 0 0 0.25 0"/><feBlend in2="shape" result="effect1_innerShadow"/><feColorMatrix in="SourceAlpha" result="hardAlpha" values="0 0 0 0 0 0 0 0 0 0 0 0 0 0 0 0 0 0 127 0"/><feOffset dx="-24" dy="8"/><feComposite in2="hardAlpha" k2="-1" k3="1" operator="arithmetic"/><feColorMatrix values="0 0 0 0 1 0 0 0 0 1 0 0 0 0 1 0 0 0 0.25 0"/><feBlend in2="effect1_innerShadow" result="effect2_innerShadow"/></filter><filter id="j" width="40" height="40" x="0" y="126" color-interpolation-filters="sRGB" filterUnits="userSpaceOnUse"><feFlood flood-opacity="0" result="BackgroundImageFix"/><feBlend in="SourceGraphic" in2="BackgroundImageFix" result="shape"/><feColorMatrix in="SourceAlpha" result="hardAlpha" values="0 0 0 0 0 0 0 0 0 0 0 0 0 0 0 0 0 0 127 0"/><feOffset dx="16"/><feComposite in2="hardAlpha" k2="-1" k3="1" operator="arithmetic"/><feColorMatrix values="0 0 0 0 0 0 0 0 0 0 0 0 0 0 0 0 0 0 0.25 0"/><feBlend in2="shape" result="effect1_innerShadow"/><feColorMatrix in="SourceAlpha" result="hardAlpha" values="0 0 0 0 0 0 0 0 0 0 0 0 0 0 0 0 0 0 127 0"/><feOffset dx="-24" dy="8"/><feComposite in2="hardAlpha" k2="-1" k3="1" operator="arithmetic"/><feColorMatrix values="0 0 0 0 1 0 0 0 0 1 0 0 0 0 1 0 0 0 0.25 0"/><feBlend in2="effect1_innerShadow" result="effect2_innerShadow"/></filter></defs></svg>