<svg xmlns="http://www.w3.org/2000/svg" width="342" height="328" fill="none"><g filter="url(#a)"><path fill="#676C77" d="M14 140c0-13.255 10.745-24 24-24h276c13.255 0 24 10.745 24 24v160c0 13.255-10.745 24-24 24H38c-13.255 0-24-10.745-24-24V140Z"/></g><path stroke="#1F2024" stroke-width="8" d="M14 140c0-13.255 10.745-24 24-24h276c13.255 0 24 10.745 24 24v160c0 13.255-10.745 24-24 24H38c-13.255 0-24-10.745-24-24V140Z"/><g filter="url(#b)"><path fill="#0022D3" fill-opacity=".8" fill-rule="evenodd" d="M38 116c-13.255 0-24 10.745-24 24v160c0 13.255 10.745 24 24 24h26c-13.255 0-24-10.745-24-24V140c0-13.255 10.745-24 24-24H38Z" clip-rule="evenodd"/></g><path fill="#1F2024" d="M18 140c0-11.046 8.954-20 20-20v-8c-15.464 0-28 12.536-28 28h8Zm0 160V140h-8v160h8Zm20 20c-11.046 0-20-8.954-20-20h-8c0 15.464 12.536 28 28 28v-8Zm26 0H38v8h26v-8Zm0 0c-11.046 0-20-8.954-20-20h-8c0 15.464 12.536 28 28 28v-8Zm-20-20V140h-8v160h8Zm0-160c0-11.046 8.954-20 20-20v-8c-15.464 0-28 12.536-28 28h8Zm-6-20h26v-8H38v8Z"/><g filter="url(#c)"><path fill="#0022D3" fill-opacity=".7" fill-rule="evenodd" d="M64.667 116c-13.255 0-24 10.745-24 24v160c0 13.255 10.745 24 24 24h26c-13.255 0-24-10.745-24-24V140c0-13.255 10.745-24 24-24h-26Z" clip-rule="evenodd"/></g><path fill="#1F2024" d="M44.667 140c0-11.046 8.954-20 20-20v-8c-15.464 0-28 12.536-28 28h8Zm0 160V140h-8v160h8Zm20 20c-11.046 0-20-8.954-20-20h-8c0 15.464 12.536 28 28 28v-8Zm26 0h-26v8h26v-8Zm0 0c-11.046 0-20-8.954-20-20h-8c0 15.464 12.536 28 28 28v-8Zm-20-20V140h-8v160h8Zm0-160c0-11.046 8.954-20 20-20v-8c-15.464 0-28 12.536-28 28h8Zm-6-20h26v-8h-26v8Z"/><g filter="url(#d)"><path fill="#0022D3" fill-opacity=".5" fill-rule="evenodd" d="M91.333 116c-13.255 0-24 10.745-24 24v160c0 13.255 10.745 24 24 24h26c-13.255 0-24-10.745-24-24V140c0-13.255 10.745-24 24-24h-26Z" clip-rule="evenodd"/></g><path fill="#1F2024" d="M71.333 140c0-11.046 8.955-20 20-20v-8c-15.464 0-28 12.536-28 28h8Zm0 160V140h-8v160h8Zm20 20c-11.045 0-20-8.954-20-20h-8c0 15.464 12.536 28 28 28v-8Zm26 0h-26v8h26v-8Zm0 0c-11.045 0-20-8.954-20-20h-8c0 15.464 12.536 28 28 28v-8Zm-20-20V140h-8v160h8Zm0-160c0-11.046 8.955-20 20-20v-8c-15.464 0-28 12.536-28 28h8Zm-6-20h26v-8h-26v8Z"/><g filter="url(#e)"><path fill="#0022D3" fill-opacity=".3" fill-rule="evenodd" d="M118 116c-13.255 0-24 10.745-24 24v160c0 13.255 10.745 24 24 24h26c-13.255 0-24-10.745-24-24V140c0-13.255 10.745-24 24-24h-26Z" clip-rule="evenodd"/></g><path fill="#1F2024" d="M98 140c0-11.046 8.954-20 20-20v-8c-15.464 0-28 12.536-28 28h8Zm0 160V140h-8v160h8Zm20 20c-11.046 0-20-8.954-20-20h-8c0 15.464 12.536 28 28 28v-8Zm26 0h-26v8h26v-8Zm0 0c-11.046 0-20-8.954-20-20h-8c0 15.464 12.536 28 28 28v-8Zm-20-20V140h-8v160h8Zm0-160c0-11.046 8.954-20 20-20v-8c-15.464 0-28 12.536-28 28h8Zm-6-20h26v-8h-26v8Z"/><g filter="url(#f)"><path fill="#FE204F" d="M194.919 167.276c-9.497 0-14.762 6.787-14.762 6.787s-5.265-6.787-14.762-6.787c-9.966 0-18.042 7.994-18.042 17.86 0 13.544 16.113 26.669 20.604 30.815 5.174 4.774 12.2 10.911 12.2 10.911s7.027-6.137 12.2-10.911c4.491-4.146 20.605-17.271 20.605-30.815 0-9.866-8.076-17.86-18.043-17.86Z"/><path stroke="#1F2024" stroke-width="8" d="M194.919 167.276c-9.497 0-14.762 6.787-14.762 6.787s-5.265-6.787-14.762-6.787c-9.966 0-18.042 7.994-18.042 17.86 0 13.544 16.113 26.669 20.604 30.815 5.174 4.774 12.2 10.911 12.2 10.911s7.027-6.137 12.2-10.911c4.491-4.146 20.605-17.271 20.605-30.815 0-9.866-8.076-17.86-18.043-17.86Z"/></g><g filter="url(#g)"><path fill="#FE204F" d="M295.419 167.276c-9.497 0-14.762 6.787-14.762 6.787s-5.265-6.787-14.762-6.787c-9.966 0-18.042 7.994-18.042 17.86 0 13.544 16.113 26.669 20.604 30.815 5.174 4.774 12.2 10.911 12.2 10.911s7.027-6.137 12.2-10.911c4.491-4.146 20.605-17.271 20.605-30.815 0-9.866-8.076-17.86-18.043-17.86Z"/><path stroke="#1F2024" stroke-width="8" d="M295.419 167.276c-9.497 0-14.762 6.787-14.762 6.787s-5.265-6.787-14.762-6.787c-9.966 0-18.042 7.994-18.042 17.86 0 13.544 16.113 26.669 20.604 30.815 5.174 4.774 12.2 10.911 12.2 10.911s7.027-6.137 12.2-10.911c4.491-4.146 20.605-17.271 20.605-30.815 0-9.866-8.076-17.86-18.043-17.86Z"/></g><g filter="url(#h)"><g filter="url(#i)"><path fill="#4A4A57" d="M10 203a8 8 0 0 1 8-8h65a8 8 0 0 1 8 8v40a8 8 0 0 1-8 8H18a8 8 0 0 1-8-8v-40Z"/></g><path stroke="#1F2024" stroke-width="8" d="M10 203a8 8 0 0 1 8-8h65a8 8 0 0 1 8 8v40a8 8 0 0 1-8 8H18a8 8 0 0 1-8-8v-40Z"/><g filter="url(#j)"><path fill="#676C77" d="M67 203a8 8 0 0 1 8-8h8a8 8 0 0 1 8 8v40a8 8 0 0 1-8 8h-8a8 8 0 0 1-8-8v-40Z"/></g><path stroke="#1F2024" stroke-width="8" d="M67 203a8 8 0 0 1 8-8h8a8 8 0 0 1 8 8v40a8 8 0 0 1-8 8h-8a8 8 0 0 1-8-8v-40Z"/><rect width="8" height="20" x="27" y="214" fill="#1F2024" rx="4"/><rect width="8" height="20" x="39" y="214" fill="#1F2024" rx="4"/></g><rect width="44" height="16" x="204" y="266" fill="#1F2024" rx="8"/><g filter="url(#k)"><path fill="#1CBCAF" d="M286.589 20c2.584 30.684.099 44.934-13 70.5-23.865-13.161-31.797-25.669-41.5-45.684 17.622-17.14 37-21.432 54.5-24.816Z"/></g><path stroke="#1F2024" stroke-linejoin="round" stroke-width="8" d="M286.589 20c2.584 30.684.099 44.934-13 70.5-23.865-13.161-31.797-25.669-41.5-45.684 17.622-17.14 37-21.432 54.5-24.816Z"/><g filter="url(#l)"><path fill="#52C6B8" fill-rule="evenodd" d="M260.02 47.41C285.619 65.603 300 90.275 300 116H27c0-11.795 3.023-23.368 8.764-34.197C26.38 61.308 24.724 47.032 27 20c16.065 3.107 33.712 6.979 50.13 20.852C108.596 22.274 153.143 10.143 187 4.5c-1.124 2.39-2.44 4.607-3.608 6.577-2.987 5.036-5.008 8.444-.392 8.917a185.61 185.61 0 0 1 18.5 2.84c21.916 4.515 42.096 12.905 58.52 24.577Z" clip-rule="evenodd"/></g><path fill="#1F2024" d="M300 116v4a4 4 0 0 0 4-4h-4Zm-39.98-68.59 2.317-3.26-2.317 3.26ZM163.5 116v4-4ZM27 116h-4a3.999 3.999 0 0 0 4 4v-4Zm8.764-34.197 3.534 1.874a4 4 0 0 0 .103-3.538l-3.637 1.665ZM27 20l.76-3.927a4 4 0 0 0-4.746 3.591L27 20Zm50.13 20.852-2.58 3.055a4 4 0 0 0 4.615.39l-2.034-3.445ZM187 4.5l3.619 1.703a3.998 3.998 0 0 0-4.277-5.649L187 4.5Zm-3.608 6.577 3.441 2.04-3.441-2.04ZM183 19.994l.408-3.979-.408 3.98Zm18.5 2.84.807-3.917-.807 3.917ZM304 116c0-27.313-15.272-53.096-41.663-71.85l-4.634 6.521C282.509 68.3 296 91.861 296 116h8Zm-140.5 4H300v-8H163.5v8ZM27 120h136.5v-8H27v8Zm5.23-40.07C26.205 91.295 23 103.507 23 116h8c0-11.097 2.841-22.03 8.298-32.323L32.23 79.93Zm-9.216-60.266c-1.148 13.63-1.328 24.295.033 34.231 1.368 9.988 4.268 19.063 9.08 29.574l7.274-3.33c-4.571-9.985-7.191-18.297-8.428-27.33-1.244-9.083-1.115-19.073.013-32.473l-7.972-.672Zm56.698 18.132C62.44 23.202 43.878 19.19 27.76 16.073l-1.518 7.854c16.01 3.096 32.743 6.828 48.308 19.98l5.163-6.11ZM186.342.554c-34.073 5.68-79.172 17.917-111.245 36.853l4.068 6.89c30.855-18.219 74.85-30.244 108.493-35.851L186.342.554Zm.491 12.563c1.156-1.95 2.568-4.326 3.786-6.914l-7.238-3.406c-1.031 2.19-2.25 4.25-3.429 6.24l6.881 4.08Zm-3.425 2.898c-.812-.083-.312-.223.276.438.75.844.559 1.704.586 1.562.037-.187.203-.683.702-1.644.474-.914 1.097-1.966 1.861-3.254l-6.881-4.08c-.73 1.23-1.48 2.492-2.081 3.648-.576 1.11-1.187 2.44-1.452 3.793-.274 1.4-.292 3.515 1.285 5.289 1.413 1.59 3.392 2.053 4.888 2.207l.816-7.959Zm18.899 2.902a189.611 189.611 0 0 0-18.899-2.902l-.816 7.959a181.61 181.61 0 0 1 18.101 2.778l1.614-7.835Zm60.03 25.233c-16.936-12.035-37.646-20.622-60.03-25.233l-1.614 7.835c21.449 4.418 41.097 12.611 57.01 23.92l4.634-6.522Z"/><path stroke="#1F2024" stroke-linecap="round" stroke-linejoin="round" stroke-width="8" d="m85 74 58 7M88 103l55-10M319 74l-58 7M316 103l-55-10M47.5 44.5c4.5 1.5 10.728 4.02 16 9.5C59 57 55 61.5 53 64"/><path fill="#C5EFE3" d="M157 112c0-17.12 13.879-31 31-31h40c17.121 0 31 13.88 31 31H157Z"/><path fill="#1F2024" d="M185 79.39c0-3.687 2.669-6.851 6.321-7.349 14.071-1.916 24.803-1.81 36.482-.085 3.604.532 6.197 3.684 6.197 7.328C234 91.83 223.83 102 211.284 102h-3.673C195.123 102 185 91.877 185 79.39Z"/><path stroke="#1F2024" stroke-linecap="round" stroke-linejoin="round" stroke-width="8" d="M210.5 97c0 6.333-3.2 19-16 19M213.5 97c0 6.333 3.2 19 16 19"/><path stroke="#fff" stroke-linecap="round" stroke-linejoin="round" stroke-width="8" d="M221 79c1.167.333 3.6 1.8 4 5"/><circle cx="148" cy="62" r="11" fill="#1F2024"/><circle cx="151.5" cy="60.5" r="5.5" fill="#fff"/><circle cx="238" cy="62" r="11" fill="#1F2024"/><circle cx="240.5" cy="60.5" r="5.5" fill="#fff"/><defs><filter id="g" width="77.609" height="68.897" x="239.853" y="163.276" color-interpolation-filters="sRGB" filterUnits="userSpaceOnUse"><feFlood flood-opacity="0" result="BackgroundImageFix"/><feColorMatrix in="SourceAlpha" result="hardAlpha" values="0 0 0 0 0 0 0 0 0 0 0 0 0 0 0 0 0 0 127 0"/><feOffset dx="-4"/><feColorMatrix values="0 0 0 0 0.133333 0 0 0 0 0.133333 0 0 0 0 0.133333 0 0 0 1 0"/><feBlend in2="BackgroundImageFix" result="effect1_dropShadow"/><feBlend in="SourceGraphic" in2="effect1_dropShadow" result="shape"/></filter><filter id="a" width="332" height="216" x="10" y="112" color-interpolation-filters="sRGB" filterUnits="userSpaceOnUse"><feFlood flood-opacity="0" result="BackgroundImageFix"/><feBlend in="SourceGraphic" in2="BackgroundImageFix" result="shape"/><feColorMatrix in="SourceAlpha" result="hardAlpha" values="0 0 0 0 0 0 0 0 0 0 0 0 0 0 0 0 0 0 127 0"/><feOffset dx="-24" dy="8"/><feComposite in2="hardAlpha" k2="-1" k3="1" operator="arithmetic"/><feColorMatrix values="0 0 0 0 1 0 0 0 0 1 0 0 0 0 1 0 0 0 0.25 0"/><feBlend in2="shape" result="effect1_innerShadow"/></filter><filter id="c" width="54" height="216" x="36.667" y="112" color-interpolation-filters="sRGB" filterUnits="userSpaceOnUse"><feFlood flood-opacity="0" result="BackgroundImageFix"/><feBlend in="SourceGraphic" in2="BackgroundImageFix" result="shape"/><feColorMatrix in="SourceAlpha" result="hardAlpha" values="0 0 0 0 0 0 0 0 0 0 0 0 0 0 0 0 0 0 127 0"/><feOffset dy="-16"/><feComposite in2="hardAlpha" k2="-1" k3="1" operator="arithmetic"/><feColorMatrix values="0 0 0 0 0 0 0 0 0 0 0 0 0 0 0 0 0 0 0.25 0"/><feBlend in2="shape" result="effect1_innerShadow"/><feColorMatrix in="SourceAlpha" result="hardAlpha" values="0 0 0 0 0 0 0 0 0 0 0 0 0 0 0 0 0 0 127 0"/><feOffset dy="16"/><feComposite in2="hardAlpha" k2="-1" k3="1" operator="arithmetic"/><feColorMatrix values="0 0 0 0 1 0 0 0 0 1 0 0 0 0 1 0 0 0 0.25 0"/><feBlend in2="effect1_innerShadow" result="effect2_innerShadow"/></filter><filter id="d" width="54" height="216" x="63.333" y="112" color-interpolation-filters="sRGB" filterUnits="userSpaceOnUse"><feFlood flood-opacity="0" result="BackgroundImageFix"/><feBlend in="SourceGraphic" in2="BackgroundImageFix" result="shape"/><feColorMatrix in="SourceAlpha" result="hardAlpha" values="0 0 0 0 0 0 0 0 0 0 0 0 0 0 0 0 0 0 127 0"/><feOffset dy="-16"/><feComposite in2="hardAlpha" k2="-1" k3="1" operator="arithmetic"/><feColorMatrix values="0 0 0 0 0 0 0 0 0 0 0 0 0 0 0 0 0 0 0.25 0"/><feBlend in2="shape" result="effect1_innerShadow"/><feColorMatrix in="SourceAlpha" result="hardAlpha" values="0 0 0 0 0 0 0 0 0 0 0 0 0 0 0 0 0 0 127 0"/><feOffset dy="16"/><feComposite in2="hardAlpha" k2="-1" k3="1" operator="arithmetic"/><feColorMatrix values="0 0 0 0 1 0 0 0 0 1 0 0 0 0 1 0 0 0 0.25 0"/><feBlend in2="effect1_innerShadow" result="effect2_innerShadow"/></filter><filter id="e" width="54" height="216" x="90" y="112" color-interpolation-filters="sRGB" filterUnits="userSpaceOnUse"><feFlood flood-opacity="0" result="BackgroundImageFix"/><feBlend in="SourceGraphic" in2="BackgroundImageFix" result="shape"/><feColorMatrix in="SourceAlpha" result="hardAlpha" values="0 0 0 0 0 0 0 0 0 0 0 0 0 0 0 0 0 0 127 0"/><feOffset dy="-16"/><feComposite in2="hardAlpha" k2="-1" k3="1" operator="arithmetic"/><feColorMatrix values="0 0 0 0 0 0 0 0 0 0 0 0 0 0 0 0 0 0 0.25 0"/><feBlend in2="shape" result="effect1_innerShadow"/><feColorMatrix in="SourceAlpha" result="hardAlpha" values="0 0 0 0 0 0 0 0 0 0 0 0 0 0 0 0 0 0 127 0"/><feOffset dy="16"/><feComposite in2="hardAlpha" k2="-1" k3="1" operator="arithmetic"/><feColorMatrix values="0 0 0 0 1 0 0 0 0 1 0 0 0 0 1 0 0 0 0.25 0"/><feBlend in2="effect1_innerShadow" result="effect2_innerShadow"/></filter><filter id="f" width="77.609" height="68.897" x="139.353" y="163.276" color-interpolation-filters="sRGB" filterUnits="userSpaceOnUse"><feFlood flood-opacity="0" result="BackgroundImageFix"/><feColorMatrix in="SourceAlpha" result="hardAlpha" values="0 0 0 0 0 0 0 0 0 0 0 0 0 0 0 0 0 0 127 0"/><feOffset dx="-4"/><feColorMatrix values="0 0 0 0 0.133333 0 0 0 0 0.133333 0 0 0 0 0.133333 0 0 0 1 0"/><feBlend in2="BackgroundImageFix" result="effect1_dropShadow"/><feBlend in="SourceGraphic" in2="effect1_dropShadow" result="shape"/></filter><filter id="b" width="54" height="216" x="10" y="112" color-interpolation-filters="sRGB" filterUnits="userSpaceOnUse"><feFlood flood-opacity="0" result="BackgroundImageFix"/><feBlend in="SourceGraphic" in2="BackgroundImageFix" result="shape"/><feColorMatrix in="SourceAlpha" result="hardAlpha" values="0 0 0 0 0 0 0 0 0 0 0 0 0 0 0 0 0 0 127 0"/><feOffset dy="-16"/><feComposite in2="hardAlpha" k2="-1" k3="1" operator="arithmetic"/><feColorMatrix values="0 0 0 0 0 0 0 0 0 0 0 0 0 0 0 0 0 0 0.25 0"/><feBlend in2="shape" result="effect1_innerShadow"/><feColorMatrix in="SourceAlpha" result="hardAlpha" values="0 0 0 0 0 0 0 0 0 0 0 0 0 0 0 0 0 0 127 0"/><feOffset dy="16"/><feComposite in2="hardAlpha" k2="-1" k3="1" operator="arithmetic"/><feColorMatrix values="0 0 0 0 1 0 0 0 0 1 0 0 0 0 1 0 0 0 0.25 0"/><feBlend in2="effect1_innerShadow" result="effect2_innerShadow"/></filter><filter id="h" width="114" height="114" x="-4" y="168" color-interpolation-filters="sRGB" filterUnits="userSpaceOnUse"><feFlood flood-opacity="0" result="BackgroundImageFix"/><feColorMatrix in="SourceAlpha" result="hardAlpha" values="0 0 0 0 0 0 0 0 0 0 0 0 0 0 0 0 0 0 127 0"/><feOffset dx="-4" dy="4"/><feColorMatrix values="0 0 0 0 0 0 0 0 0 0 0 0 0 0 0 0 0 0 0.25 0"/><feBlend in2="BackgroundImageFix" result="effect1_dropShadow"/><feBlend in="SourceGraphic" in2="effect1_dropShadow" result="shape"/></filter><filter id="i" width="89" height="64" x="6" y="191" color-interpolation-filters="sRGB" filterUnits="userSpaceOnUse"><feFlood flood-opacity="0" result="BackgroundImageFix"/><feBlend in="SourceGraphic" in2="BackgroundImageFix" result="shape"/><feColorMatrix in="SourceAlpha" result="hardAlpha" values="0 0 0 0 0 0 0 0 0 0 0 0 0 0 0 0 0 0 127 0"/><feOffset dy="-16"/><feComposite in2="hardAlpha" k2="-1" k3="1" operator="arithmetic"/><feColorMatrix values="0 0 0 0 0 0 0 0 0 0 0 0 0 0 0 0 0 0 0.25 0"/><feBlend in2="shape" result="effect1_innerShadow"/><feColorMatrix in="SourceAlpha" result="hardAlpha" values="0 0 0 0 0 0 0 0 0 0 0 0 0 0 0 0 0 0 127 0"/><feOffset dy="16"/><feComposite in2="hardAlpha" k2="-1" k3="1" operator="arithmetic"/><feColorMatrix values="0 0 0 0 1 0 0 0 0 1 0 0 0 0 1 0 0 0 0.25 0"/><feBlend in2="effect1_innerShadow" result="effect2_innerShadow"/></filter><filter id="j" width="32" height="64" x="63" y="191" color-interpolation-filters="sRGB" filterUnits="userSpaceOnUse"><feFlood flood-opacity="0" result="BackgroundImageFix"/><feBlend in="SourceGraphic" in2="BackgroundImageFix" result="shape"/><feColorMatrix in="SourceAlpha" result="hardAlpha" values="0 0 0 0 0 0 0 0 0 0 0 0 0 0 0 0 0 0 127 0"/><feOffset dx="-24" dy="8"/><feComposite in2="hardAlpha" k2="-1" k3="1" operator="arithmetic"/><feColorMatrix values="0 0 0 0 1 0 0 0 0 1 0 0 0 0 1 0 0 0 0.25 0"/><feBlend in2="shape" result="effect1_innerShadow"/></filter><filter id="k" width="63.411" height="78.5" x="228.089" y="16" color-interpolation-filters="sRGB" filterUnits="userSpaceOnUse"><feFlood flood-opacity="0" result="BackgroundImageFix"/><feBlend in="SourceGraphic" in2="BackgroundImageFix" result="shape"/><feColorMatrix in="SourceAlpha" result="hardAlpha" values="0 0 0 0 0 0 0 0 0 0 0 0 0 0 0 0 0 0 127 0"/><feOffset dx="16"/><feComposite in2="hardAlpha" k2="-1" k3="1" operator="arithmetic"/><feColorMatrix values="0 0 0 0 0 0 0 0 0 0 0 0 0 0 0 0 0 0 0.25 0"/><feBlend in2="shape" result="effect1_innerShadow"/><feColorMatrix in="SourceAlpha" result="hardAlpha" values="0 0 0 0 0 0 0 0 0 0 0 0 0 0 0 0 0 0 127 0"/><feOffset dx="-24" dy="8"/><feComposite in2="hardAlpha" k2="-1" k3="1" operator="arithmetic"/><feColorMatrix values="0 0 0 0 1 0 0 0 0 1 0 0 0 0 1 0 0 0 0.25 0"/><feBlend in2="effect1_innerShadow" result="effect2_innerShadow"/></filter><filter id="l" width="281.911" height="119.5" x="22.089" y=".5" color-interpolation-filters="sRGB" filterUnits="userSpaceOnUse"><feFlood flood-opacity="0" result="BackgroundImageFix"/><feBlend in="SourceGraphic" in2="BackgroundImageFix" result="shape"/><feColorMatrix in="SourceAlpha" result="hardAlpha" values="0 0 0 0 0 0 0 0 0 0 0 0 0 0 0 0 0 0 127 0"/><feOffset dx="16"/><feComposite in2="hardAlpha" k2="-1" k3="1" operator="arithmetic"/><feColorMatrix values="0 0 0 0 0 0 0 0 0 0 0 0 0 0 0 0 0 0 0.25 0"/><feBlend in2="shape" result="effect1_innerShadow"/><feColorMatrix in="SourceAlpha" result="hardAlpha" values="0 0 0 0 0 0 0 0 0 0 0 0 0 0 0 0 0 0 127 0"/><feOffset dx="-24" dy="8"/><feComposite in2="hardAlpha" k2="-1" k3="1" operator="arithmetic"/><feColorMatrix values="0 0 0 0 1 0 0 0 0 1 0 0 0 0 1 0 0 0 0.25 0"/><feBlend in2="effect1_innerShadow" result="effect2_innerShadow"/></filter></defs></svg>