<svg xmlns="http://www.w3.org/2000/svg" width="392" height="372" fill="none"><g filter="url(#a)"><path fill="#E5DEB1" d="M19 180c0-13.255 10.745-24 24-24h276c13.255 0 24 10.745 24 24v160c0 13.255-10.745 24-24 24H43c-13.255 0-24-10.745-24-24V180Z"/></g><path stroke="#1F2024" stroke-width="8" d="M19 180c0-13.255 10.745-24 24-24h276c13.255 0 24 10.745 24 24v160c0 13.255-10.745 24-24 24H43c-13.255 0-24-10.745-24-24V180Z"/><g filter="url(#b)"><path fill="#0022D3" fill-opacity=".8" fill-rule="evenodd" d="M43 156c-13.255 0-24 10.745-24 24v160c0 13.255 10.745 24 24 24h26c-13.255 0-24-10.745-24-24V180c0-13.255 10.745-24 24-24H43Z" clip-rule="evenodd"/></g><path fill="#1F2024" d="M23 180c0-11.046 8.954-20 20-20v-8c-15.464 0-28 12.536-28 28h8Zm0 160V180h-8v160h8Zm20 20c-11.046 0-20-8.954-20-20h-8c0 15.464 12.536 28 28 28v-8Zm26 0H43v8h26v-8Zm0 0c-11.046 0-20-8.954-20-20h-8c0 15.464 12.536 28 28 28v-8Zm-20-20V180h-8v160h8Zm0-160c0-11.046 8.954-20 20-20v-8c-15.464 0-28 12.536-28 28h8Zm-6-20h26v-8H43v8Z"/><g filter="url(#c)"><path fill="#0022D3" fill-opacity=".7" fill-rule="evenodd" d="M69.667 156c-13.255 0-24 10.745-24 24v160c0 13.255 10.745 24 24 24h26c-13.255 0-24-10.745-24-24V180c0-13.255 10.745-24 24-24h-26Z" clip-rule="evenodd"/></g><path fill="#1F2024" d="M49.667 180c0-11.046 8.954-20 20-20v-8c-15.464 0-28 12.536-28 28h8Zm0 160V180h-8v160h8Zm20 20c-11.046 0-20-8.954-20-20h-8c0 15.464 12.536 28 28 28v-8Zm26 0h-26v8h26v-8Zm0 0c-11.046 0-20-8.954-20-20h-8c0 15.464 12.536 28 28 28v-8Zm-20-20V180h-8v160h8Zm0-160c0-11.046 8.954-20 20-20v-8c-15.464 0-28 12.536-28 28h8Zm-6-20h26v-8h-26v8Z"/><g filter="url(#d)"><path fill="#0022D3" fill-opacity=".5" fill-rule="evenodd" d="M96.333 156c-13.255 0-24 10.745-24 24v160c0 13.255 10.745 24 24 24h26c-13.255 0-24-10.745-24-24V180c0-13.255 10.745-24 24-24h-26Z" clip-rule="evenodd"/></g><path fill="#1F2024" d="M76.333 180c0-11.046 8.955-20 20-20v-8c-15.464 0-28 12.536-28 28h8Zm0 160V180h-8v160h8Zm20 20c-11.045 0-20-8.954-20-20h-8c0 15.464 12.536 28 28 28v-8Zm26 0h-26v8h26v-8Zm0 0c-11.045 0-20-8.954-20-20h-8c0 15.464 12.536 28 28 28v-8Zm-20-20V180h-8v160h8Zm0-160c0-11.046 8.955-20 20-20v-8c-15.464 0-28 12.536-28 28h8Zm-6-20h26v-8h-26v8Z"/><g filter="url(#e)"><path fill="#0022D3" fill-opacity=".3" fill-rule="evenodd" d="M123 156c-13.255 0-24 10.745-24 24v160c0 13.255 10.745 24 24 24h26c-13.255 0-24-10.745-24-24V180c0-13.255 10.745-24 24-24h-26Z" clip-rule="evenodd"/></g><path fill="#1F2024" d="M103 180c0-11.046 8.954-20 20-20v-8c-15.464 0-28 12.536-28 28h8Zm0 160V180h-8v160h8Zm20 20c-11.046 0-20-8.954-20-20h-8c0 15.464 12.536 28 28 28v-8Zm26 0h-26v8h26v-8Zm0 0c-11.046 0-20-8.954-20-20h-8c0 15.464 12.536 28 28 28v-8Zm-20-20V180h-8v160h8Zm0-160c0-11.046 8.954-20 20-20v-8c-15.464 0-28 12.536-28 28h8Zm-6-20h26v-8h-26v8Z"/><g filter="url(#f)"><path fill="#1F2024" d="M4 210h136v12H4z"/></g><g filter="url(#g)"><path fill="#1F2024" fill-rule="evenodd" d="M181.908 281.122c-16.849-11.721-53.516-49.514-80.542-85.421-2.014-2.675-.006-6.414 3.334-6.178 40.49 2.861 107.4 13.904 128.449 26.35.364.197.75.437 1.174.701 2.114 1.315 5.177 3.22 11.177 3.321 6.457-.108 10.278-2.281 12.575-3.588.277-.158.532-.302.766-.43 21.041-12.447 87.962-23.492 128.457-26.354 3.34-.236 5.348 3.503 3.334 6.178-27.025 35.907-63.692 73.7-80.542 85.421-2.891 2.012-6.545 2.486-9.709.94-13.21-6.456-34.118-26.673-43.395-44.114h-.001c-2.217-4.209-8.424-5.861-11.423-6.053-2.407.199-7.083 1.929-9.942 4.881-8.941 17.697-30.496 38.685-44.003 45.286-3.164 1.546-6.818 1.072-9.709-.94Z" clip-rule="evenodd"/></g><path fill="#4A4A4E" fill-rule="evenodd" d="M131.88 209.634c4.113-10.759 89.444 7.065 93.498 17.476 3.294 8.46-23.622 42.524-38.037 42.524-11.532 0-59.574-49.241-55.461-60Zm227.894 0c-4.113-10.759-89.443 7.065-93.497 17.476-3.295 8.46 23.622 42.524 38.036 42.524 11.532 0 59.574-49.241 55.461-60Z" clip-rule="evenodd"/><mask id="h" width="230" height="64" x="131" y="206" mask-type="alpha" maskUnits="userSpaceOnUse"><path fill="#4A4A4E" fill-rule="evenodd" d="M131.88 209.634c4.113-10.759 89.444 7.065 93.498 17.476 3.294 8.46-23.622 42.524-38.037 42.524-11.532 0-59.574-49.241-55.461-60Zm227.894 0c-4.113-10.759-89.443 7.065-93.497 17.476-3.295 8.46 23.622 42.524 38.036 42.524 11.532 0 59.574-49.241 55.461-60Z" clip-rule="evenodd"/></mask><g mask="url(#h)"><path fill="#fff" d="M372.872 198H395l-37.872 80H335l37.872-80Z"/></g><path stroke="#1F2024" stroke-linecap="round" stroke-linejoin="round" stroke-width="8" d="M202 297h55"/><g filter="url(#i)"><circle cx="53" cy="71" r="44" fill="#4A4A4E"/></g><circle cx="53" cy="71" r="40" stroke="#1F2024" stroke-linejoin="round" stroke-width="8"/><g filter="url(#j)"><circle cx="53" cy="71" r="20" fill="#fff"/><circle cx="53" cy="71" r="16" stroke="#1F2024" stroke-linejoin="round" stroke-width="8"/></g><g filter="url(#k)"><circle cx="289" cy="71" r="44" fill="#4A4A4E"/></g><circle cx="289" cy="71" r="40" stroke="#1F2024" stroke-linejoin="round" stroke-width="8"/><g filter="url(#l)"><circle cx="289" cy="71" r="20" fill="#fff"/><circle cx="289" cy="71" r="16" stroke="#1F2024" stroke-linejoin="round" stroke-width="8"/></g><path fill="#000" fill-opacity=".16" fill-rule="evenodd" d="M228.923 155H174c0 5.516.989 10.977 2.91 16.073 1.921 5.095 4.737 9.725 8.288 13.625 3.55 3.901 7.764 6.994 12.402 9.105 4.639 2.111 9.61 3.197 14.631 3.197 5.02 0 9.992-1.086 14.63-3.197 4.153-1.89 7.967-4.568 11.268-7.908 2.464 3.34 5.311 6.018 8.411 7.908 3.463 2.111 7.174 3.197 10.921 3.197 3.748 0 7.459-1.086 10.922-3.197 3.462-2.111 6.608-5.204 9.258-9.105 2.65-3.9 4.752-8.53 6.186-13.625C285.262 165.977 286 160.516 286 155H228.923ZM112 173c0 18.565-4.53 36.37-12.594 49.497C91.34 235.625 80.404 243 69 243s-22.342-7.375-30.406-20.503C30.53 209.37 26 191.565 26 173h86Z" clip-rule="evenodd"/><path fill="#E2E2E2" stroke="#1F2024" stroke-linejoin="round" stroke-width="8" d="M112 152c0 20.156-4.53 39.487-12.594 53.74C91.34 219.993 80.404 228 69 228s-22.342-8.007-30.406-22.26C30.53 191.487 26 172.156 26 152h86Z"/><g filter="url(#m)"><path fill="#fff" fill-rule="evenodd" d="M180 4.5c-6.921 0-12.458 4.18-19.706 9.653-7.923 5.983-17.89 13.508-33.944 18.802-22.731 6.358-43.623 16.93-60.926 31.121C36.85 87.512 20.314 118.973 19.075 152H19c0 .722.005 1.444.016 2.164-.01.611-.016 1.223-.016 1.836h.054c.505 18.699 4.54 36.433 11.369 49.74C37.737 219.993 47.657 228 58 228s20.263-8.007 27.577-22.26c6.829-13.307 10.864-31.041 11.369-49.74h99.069a33.306 33.306 0 0 0 2.992 12.777c1.985 4.367 4.894 8.336 8.562 11.679 3.668 3.343 8.023 5.994 12.815 7.804A42.859 42.859 0 0 0 235.5 191c5.187 0 10.324-.931 15.116-2.74 4.792-1.81 9.147-4.461 12.815-7.804l.283-.261.119.142.1.119c2.832 3.343 6.195 5.994 9.895 7.804 3.701 1.809 7.667 2.74 11.672 2.74 4.005 0 7.971-.931 11.672-2.74 3.7-1.81 7.063-4.461 9.895-7.804s5.079-7.312 6.611-11.679a41.602 41.602 0 0 0 2.31-12.777H328c4.418 0 8.031-3.587 7.7-7.993-2.369-31.562-18.704-61.442-46.124-83.93-20.918-17.158-47.082-29.024-75.399-34.55 1.121-3.89.507-7.367-2.677-9.527-4.308-2.922-10.618.276-17.27 3.647-1.816.921-3.658 1.855-5.491 2.68a192.919 192.919 0 0 0-4.05-.193C190.248 15.452 188.196 4.5 180 4.5Z" clip-rule="evenodd"/></g><path fill="#1F2024" d="m160.294 14.153 2.411 3.192-2.411-3.192ZM180 4.5v-4 4Zm-53.65 28.455 1.077 3.852c.059-.016.118-.034.176-.053l-1.253-3.799ZM65.424 64.076l2.536 3.093-2.536-3.093ZM19.075 152v4a4 4 0 0 0 3.997-3.85l-3.997-.15ZM19 152v-4a4 4 0 0 0-4 4h4Zm.016 2.164 4 .069v-.128l-4 .059ZM19 156h-4a4 4 0 0 0 4 4v-4Zm.054 0 3.998-.108A4 4 0 0 0 19.054 152v4Zm11.369 49.74-3.559 1.826 3.559-1.826Zm55.154 0-3.559-1.826 3.56 1.826ZM96.946 156v-4a4 4 0 0 0-3.998 3.892l3.998.108Zm80.554 0v4-4Zm18.515 0 3.998-.122a3.999 3.999 0 0 0-3.998-3.878v4Zm2.992 12.777-3.642 1.655 3.642-1.655Zm8.562 11.679-2.694 2.956 2.694-2.956Zm12.815 7.804 1.413-3.743-1.413 3.743Zm30.232 0 1.413 3.742-1.413-3.742Zm12.815-7.804-2.695-2.957 2.695 2.957Zm.283-.261 3.078-2.555a3.998 3.998 0 0 0-5.802-.374l2.724 2.929Zm.119.142 3.064-2.571v-.001l-3.064 2.572Zm.1.119 3.052-2.586-3.052 2.586Zm9.895 7.804 1.757-3.594-1.757 3.594Zm23.344 0 1.757 3.593-1.757-3.593Zm9.895-7.804 3.052 2.585-3.052-2.585Zm6.611-11.679 3.775 1.324-3.775-1.324Zm2.31-12.777v-4a4 4 0 0 0-3.999 3.906l3.999.094Zm19.712-7.993-3.988.299 3.988-.299Zm-46.124-83.93-2.536 3.092 2.536-3.093Zm-75.399-34.55-3.844-1.107a4 4 0 0 0 3.078 5.034l.766-3.926ZM211.5 20l2.246-3.31L211.5 20Zm-17.27 3.647-1.808-3.567 1.808 3.567Zm-5.491 2.68-.233 3.993a4.001 4.001 0 0 0 1.875-.346l-1.642-3.647Zm-4.05-.193-3.548-1.847a4 4 0 0 0 3.4 5.844l.148-3.997Zm-21.984-8.789C170.264 11.638 174.68 8.5 180 8.5v-8c-8.522 0-15.18 5.224-22.116 10.46l4.821 6.385Zm-35.102 19.41c16.714-5.513 27.119-13.383 35.102-19.41l-4.821-6.384c-7.864 5.938-17.393 13.12-32.787 18.196l2.506 7.597ZM67.96 67.168c16.84-13.812 37.224-24.14 59.467-30.361l-2.154-7.705c-23.22 6.494-44.62 17.308-62.386 31.88l5.073 6.186ZM23.072 152.15c1.19-31.745 17.089-62.18 44.888-84.981l-5.073-6.186c-29.347 24.07-46.523 56.558-47.81 90.867l7.995.3ZM19 156h.075v-8H19v8Zm4.015-1.895c-.01-.7-.015-1.402-.015-2.105h-8c0 .742.005 1.483.016 2.222l8-.117ZM23 156c0-.59.005-1.179.015-1.767l-7.999-.138c-.01.635-.016 1.27-.016 1.905h8Zm-3.946-4H19v8h.054v-8Zm14.928 51.914c-6.494-12.655-10.436-29.77-10.93-48.022l-7.996.216c.517 19.147 4.645 37.499 11.808 51.458l7.118-3.652ZM58 224c-8.116 0-16.977-6.365-24.018-20.086l-7.118 3.652C34.451 222.351 45.43 232 58 232v-8Zm24.018-20.086C74.978 217.635 66.116 224 58 224v8c12.571 0 23.55-9.649 31.136-24.434l-7.118-3.652Zm10.93-48.022c-.494 18.252-4.436 35.367-10.93 48.022l7.118 3.652c7.163-13.959 11.291-32.311 11.809-51.458l-7.997-.216ZM177.5 152H96.946v8H177.5v-8Zm18.515 0H177.5v8h18.515v-8Zm-3.998 4.122a37.298 37.298 0 0 0 3.348 14.31l7.283-3.31a29.313 29.313 0 0 1-2.635-11.244l-7.996.244Zm3.348 14.31c2.217 4.878 5.455 9.285 9.51 12.98l5.389-5.913c-3.282-2.99-5.863-6.52-7.616-10.377l-7.283 3.31Zm9.51 12.98c4.054 3.695 8.846 6.608 14.096 8.59l2.826-7.485c-4.335-1.636-8.251-4.026-11.533-7.018l-5.389 5.913Zm14.096 8.59A46.853 46.853 0 0 0 235.5 195v-8c-4.711 0-9.368-.846-13.703-2.483l-2.826 7.485ZM235.5 195a46.853 46.853 0 0 0 16.529-2.998l-2.826-7.485A38.844 38.844 0 0 1 235.5 187v8Zm16.529-2.998c5.25-1.982 10.042-4.895 14.096-8.59l-5.389-5.913c-3.282 2.992-7.198 5.382-11.533 7.018l2.826 7.485Zm14.096-8.59.313-.288-5.448-5.858-.254.233 5.389 5.913Zm-5.489-.663.134.16 6.127-5.144-.105-.125-6.156 5.109Zm.133.159.112.134 6.104-5.172-.088-.104-6.128 5.142Zm.112.133c3.167 3.738 6.962 6.745 11.19 8.812l3.514-7.187c-3.173-1.551-6.102-3.848-8.6-6.796l-6.104 5.171Zm11.19 8.812c4.232 2.069 8.797 3.147 13.429 3.147v-8c-3.379 0-6.746-.784-9.915-2.334l-3.514 7.187ZM285.5 195c4.632 0 9.197-1.078 13.429-3.147l-3.514-7.187c-3.169 1.55-6.536 2.334-9.915 2.334v8Zm13.429-3.147c4.228-2.067 8.023-5.074 11.19-8.812l-6.104-5.171c-2.498 2.948-5.428 5.245-8.6 6.796l3.514 7.187Zm11.19-8.812c3.165-3.736 5.648-8.138 7.334-12.94l-7.549-2.649c-1.38 3.933-3.39 7.469-5.889 10.418l6.104 5.171Zm7.334-12.94a45.635 45.635 0 0 0 2.534-14.007l-7.998-.188a37.592 37.592 0 0 1-2.085 11.546l7.549 2.649ZM328 152h-12.012v8H328v-8Zm3.712-3.694c.141 1.886-1.416 3.694-3.712 3.694v8c6.541 0 12.209-5.367 11.689-12.293l-7.977.599ZM287.04 67.169c26.677 21.88 42.394 50.793 44.672 81.137l7.977-.599c-2.46-32.779-19.415-63.626-47.576-86.724l-5.073 6.186Zm-73.629-33.715c27.729 5.41 53.269 17.016 73.629 33.715l5.073-6.186c-21.477-17.615-48.264-29.741-77.17-35.381l-1.532 7.852Zm-4.157-10.144c.799.542 1.155 1.131 1.321 1.786.188.744.187 1.837-.242 3.324l7.687 2.216c.693-2.404.945-4.996.31-7.503-.657-2.596-2.199-4.825-4.584-6.443l-4.492 6.62Zm-13.215 3.905c3.426-1.736 6.306-3.18 8.82-3.91 2.511-.73 3.706-.462 4.395.005l4.492-6.62c-3.619-2.455-7.734-2.05-11.117-1.068-3.382.982-6.982 2.823-10.207 4.457l3.617 7.136Zm-5.658 2.76c1.932-.87 3.856-1.847 5.658-2.76l-3.617-7.136c-1.832.929-3.59 1.82-5.325 2.6l3.284 7.296Zm-5.84.156c1.324.05 2.646.112 3.965.19l.465-7.987a196.08 196.08 0 0 0-4.133-.197l-.297 7.994ZM180 8.5c1.089 0 1.75.335 2.219.78.526.5 1.067 1.393 1.367 2.841.61 2.95.027 7.416-2.445 12.166l7.097 3.693c3.086-5.931 4.257-12.283 3.182-17.48-.543-2.624-1.705-5.136-3.695-7.024C185.678 1.534 183.009.5 180 .5v8ZM146.214 140.93c-31.5 0-42.214-37.471-14.5-60 35.448-28.815 99.786-13.43 54 30-11.977 12.907-10 30-39.5 30Z"/><ellipse cx="158.5" cy="100.5" fill="#fff" rx="6.5" ry="8.5"/><path fill="#1F2024" d="M268 71.271C249 67.867 233.838 79.41 247.464 87c15.266 8.505 32.036 15 46.036 37.127 6.471 10.228 24.436 10.203 21.244-7.127-4.638-25.177-21.18-41.148-46.744-45.729Z"/><ellipse cx="286.5" cy="100.5" fill="#fff" rx="6.5" ry="8.5"/><path stroke="#1F2024" stroke-linecap="round" stroke-linejoin="round" stroke-width="8" d="M123 34c33.5-9.861 42-29.5 57-29.5 8.756 0 10.5 12.5 3.442 23.817C193.5 25.5 204.871 15.503 211.5 20c8.247 5.595-.746 20.03-12.5 27.6"/><circle cx="67" cy="128" r="24" fill="#E36776" fill-opacity=".5"/><g stroke="#1F2024" stroke-linejoin="round" stroke-width="8" filter="url(#n)"><path fill="#E2E2E2" d="M46 167h12c6.627 0 12 5.373 12 12s-5.373 12-12 12H46v-24Z"/><circle cx="48" cy="179" r="12" fill="#ACACAE"/></g><g filter="url(#o)"><path fill="#1F2024" d="M236 141.049c0-3.18 1.885-6.065 4.974-6.82 13.312-3.254 40.141-4.498 52.999-.229 2.615.869 4.027 3.486 4.027 6.242v2.025c0 17.12-13.879 31-31 31-17.121 0-31-13.88-31-31v-1.218Z"/></g><path stroke="#1F2024" stroke-linecap="round" stroke-linejoin="round" stroke-width="8" d="M236 141.049c0-3.18 1.885-6.065 4.974-6.82 13.312-3.254 40.141-4.498 52.999-.229 2.615.869 4.027 3.486 4.027 6.242v2.025c0 17.12-13.879 31-31 31v0c-17.121 0-31-13.88-31-31v-1.218Z"/><defs><filter id="i" width="88" height="88" x="9" y="27" color-interpolation-filters="sRGB" filterUnits="userSpaceOnUse"><feFlood flood-opacity="0" result="BackgroundImageFix"/><feBlend in="SourceGraphic" in2="BackgroundImageFix" result="shape"/><feColorMatrix in="SourceAlpha" result="hardAlpha" values="0 0 0 0 0 0 0 0 0 0 0 0 0 0 0 0 0 0 127 0"/><feOffset dx="16"/><feComposite in2="hardAlpha" k2="-1" k3="1" operator="arithmetic"/><feColorMatrix values="0 0 0 0 0 0 0 0 0 0 0 0 0 0 0 0 0 0 0.25 0"/><feBlend in2="shape" result="effect1_innerShadow"/><feColorMatrix in="SourceAlpha" result="hardAlpha" values="0 0 0 0 0 0 0 0 0 0 0 0 0 0 0 0 0 0 127 0"/><feOffset dx="-16" dy="8"/><feComposite in2="hardAlpha" k2="-1" k3="1" operator="arithmetic"/><feColorMatrix values="0 0 0 0 1 0 0 0 0 1 0 0 0 0 1 0 0 0 0.25 0"/><feBlend in2="effect1_innerShadow" result="effect2_innerShadow"/></filter><filter id="a" width="332" height="216" x="15" y="152" color-interpolation-filters="sRGB" filterUnits="userSpaceOnUse"><feFlood flood-opacity="0" result="BackgroundImageFix"/><feBlend in="SourceGraphic" in2="BackgroundImageFix" result="shape"/><feColorMatrix in="SourceAlpha" result="hardAlpha" values="0 0 0 0 0 0 0 0 0 0 0 0 0 0 0 0 0 0 127 0"/><feOffset dx="-24" dy="8"/><feComposite in2="hardAlpha" k2="-1" k3="1" operator="arithmetic"/><feColorMatrix values="0 0 0 0 1 0 0 0 0 1 0 0 0 0 1 0 0 0 0.25 0"/><feBlend in2="shape" result="effect1_innerShadow"/></filter><filter id="c" width="54" height="216" x="41.667" y="152" color-interpolation-filters="sRGB" filterUnits="userSpaceOnUse"><feFlood flood-opacity="0" result="BackgroundImageFix"/><feBlend in="SourceGraphic" in2="BackgroundImageFix" result="shape"/><feColorMatrix in="SourceAlpha" result="hardAlpha" values="0 0 0 0 0 0 0 0 0 0 0 0 0 0 0 0 0 0 127 0"/><feOffset dy="-16"/><feComposite in2="hardAlpha" k2="-1" k3="1" operator="arithmetic"/><feColorMatrix values="0 0 0 0 0 0 0 0 0 0 0 0 0 0 0 0 0 0 0.25 0"/><feBlend in2="shape" result="effect1_innerShadow"/><feColorMatrix in="SourceAlpha" result="hardAlpha" values="0 0 0 0 0 0 0 0 0 0 0 0 0 0 0 0 0 0 127 0"/><feOffset dy="16"/><feComposite in2="hardAlpha" k2="-1" k3="1" operator="arithmetic"/><feColorMatrix values="0 0 0 0 1 0 0 0 0 1 0 0 0 0 1 0 0 0 0.25 0"/><feBlend in2="effect1_innerShadow" result="effect2_innerShadow"/></filter><filter id="d" width="54" height="216" x="68.333" y="152" color-interpolation-filters="sRGB" filterUnits="userSpaceOnUse"><feFlood flood-opacity="0" result="BackgroundImageFix"/><feBlend in="SourceGraphic" in2="BackgroundImageFix" result="shape"/><feColorMatrix in="SourceAlpha" result="hardAlpha" values="0 0 0 0 0 0 0 0 0 0 0 0 0 0 0 0 0 0 127 0"/><feOffset dy="-16"/><feComposite in2="hardAlpha" k2="-1" k3="1" operator="arithmetic"/><feColorMatrix values="0 0 0 0 0 0 0 0 0 0 0 0 0 0 0 0 0 0 0.25 0"/><feBlend in2="shape" result="effect1_innerShadow"/><feColorMatrix in="SourceAlpha" result="hardAlpha" values="0 0 0 0 0 0 0 0 0 0 0 0 0 0 0 0 0 0 127 0"/><feOffset dy="16"/><feComposite in2="hardAlpha" k2="-1" k3="1" operator="arithmetic"/><feColorMatrix values="0 0 0 0 1 0 0 0 0 1 0 0 0 0 1 0 0 0 0.25 0"/><feBlend in2="effect1_innerShadow" result="effect2_innerShadow"/></filter><filter id="e" width="54" height="216" x="95" y="152" color-interpolation-filters="sRGB" filterUnits="userSpaceOnUse"><feFlood flood-opacity="0" result="BackgroundImageFix"/><feBlend in="SourceGraphic" in2="BackgroundImageFix" result="shape"/><feColorMatrix in="SourceAlpha" result="hardAlpha" values="0 0 0 0 0 0 0 0 0 0 0 0 0 0 0 0 0 0 127 0"/><feOffset dy="-16"/><feComposite in2="hardAlpha" k2="-1" k3="1" operator="arithmetic"/><feColorMatrix values="0 0 0 0 0 0 0 0 0 0 0 0 0 0 0 0 0 0 0.25 0"/><feBlend in2="shape" result="effect1_innerShadow"/><feColorMatrix in="SourceAlpha" result="hardAlpha" values="0 0 0 0 0 0 0 0 0 0 0 0 0 0 0 0 0 0 127 0"/><feOffset dy="16"/><feComposite in2="hardAlpha" k2="-1" k3="1" operator="arithmetic"/><feColorMatrix values="0 0 0 0 1 0 0 0 0 1 0 0 0 0 1 0 0 0 0.25 0"/><feBlend in2="effect1_innerShadow" result="effect2_innerShadow"/></filter><filter id="f" width="140" height="16" x="0" y="210" color-interpolation-filters="sRGB" filterUnits="userSpaceOnUse"><feFlood flood-opacity="0" result="BackgroundImageFix"/><feColorMatrix in="SourceAlpha" result="hardAlpha" values="0 0 0 0 0 0 0 0 0 0 0 0 0 0 0 0 0 0 127 0"/><feOffset dx="-4" dy="4"/><feColorMatrix values="0 0 0 0 0 0 0 0 0 0 0 0 0 0 0 0 0 0 0.25 0"/><feBlend in2="BackgroundImageFix" result="effect1_dropShadow"/><feBlend in="SourceGraphic" in2="effect1_dropShadow" result="shape"/></filter><filter id="g" width="294.876" height="97.466" x="96.561" y="189.512" color-interpolation-filters="sRGB" filterUnits="userSpaceOnUse"><feFlood flood-opacity="0" result="BackgroundImageFix"/><feColorMatrix in="SourceAlpha" result="hardAlpha" values="0 0 0 0 0 0 0 0 0 0 0 0 0 0 0 0 0 0 127 0"/><feOffset dx="-4" dy="4"/><feColorMatrix values="0 0 0 0 0 0 0 0 0 0 0 0 0 0 0 0 0 0 0.25 0"/><feBlend in2="BackgroundImageFix" result="effect1_dropShadow"/><feBlend in="SourceGraphic" in2="effect1_dropShadow" result="shape"/></filter><filter id="b" width="54" height="216" x="15" y="152" color-interpolation-filters="sRGB" filterUnits="userSpaceOnUse"><feFlood flood-opacity="0" result="BackgroundImageFix"/><feBlend in="SourceGraphic" in2="BackgroundImageFix" result="shape"/><feColorMatrix in="SourceAlpha" result="hardAlpha" values="0 0 0 0 0 0 0 0 0 0 0 0 0 0 0 0 0 0 127 0"/><feOffset dy="-16"/><feComposite in2="hardAlpha" k2="-1" k3="1" operator="arithmetic"/><feColorMatrix values="0 0 0 0 0 0 0 0 0 0 0 0 0 0 0 0 0 0 0.25 0"/><feBlend in2="shape" result="effect1_innerShadow"/><feColorMatrix in="SourceAlpha" result="hardAlpha" values="0 0 0 0 0 0 0 0 0 0 0 0 0 0 0 0 0 0 127 0"/><feOffset dy="16"/><feComposite in2="hardAlpha" k2="-1" k3="1" operator="arithmetic"/><feColorMatrix values="0 0 0 0 1 0 0 0 0 1 0 0 0 0 1 0 0 0 0.25 0"/><feBlend in2="effect1_innerShadow" result="effect2_innerShadow"/></filter><filter id="j" width="48" height="40" x="29" y="51" color-interpolation-filters="sRGB" filterUnits="userSpaceOnUse"><feFlood flood-opacity="0" result="BackgroundImageFix"/><feColorMatrix in="SourceAlpha" result="hardAlpha" values="0 0 0 0 0 0 0 0 0 0 0 0 0 0 0 0 0 0 127 0"/><feOffset dx="-4"/><feColorMatrix values="0 0 0 0 1 0 0 0 0 1 0 0 0 0 1 0 0 0 0.25 0"/><feBlend in2="BackgroundImageFix" result="effect1_dropShadow"/><feColorMatrix in="SourceAlpha" result="hardAlpha" values="0 0 0 0 0 0 0 0 0 0 0 0 0 0 0 0 0 0 127 0"/><feOffset dx="4"/><feColorMatrix values="0 0 0 0 0 0 0 0 0 0 0 0 0 0 0 0 0 0 0.25 0"/><feBlend in2="effect1_dropShadow" result="effect2_dropShadow"/><feBlend in="SourceGraphic" in2="effect2_dropShadow" result="shape"/><feColorMatrix in="SourceAlpha" result="hardAlpha" values="0 0 0 0 0 0 0 0 0 0 0 0 0 0 0 0 0 0 127 0"/><feOffset dx="-4"/><feComposite in2="hardAlpha" k2="-1" k3="1" operator="arithmetic"/><feColorMatrix values="0 0 0 0 0 0 0 0 0 0 0 0 0 0 0 0 0 0 0.25 0"/><feBlend in2="shape" result="effect3_innerShadow"/></filter><filter id="k" width="88" height="88" x="245" y="27" color-interpolation-filters="sRGB" filterUnits="userSpaceOnUse"><feFlood flood-opacity="0" result="BackgroundImageFix"/><feBlend in="SourceGraphic" in2="BackgroundImageFix" result="shape"/><feColorMatrix in="SourceAlpha" result="hardAlpha" values="0 0 0 0 0 0 0 0 0 0 0 0 0 0 0 0 0 0 127 0"/><feOffset dx="16"/><feComposite in2="hardAlpha" k2="-1" k3="1" operator="arithmetic"/><feColorMatrix values="0 0 0 0 0 0 0 0 0 0 0 0 0 0 0 0 0 0 0.25 0"/><feBlend in2="shape" result="effect1_innerShadow"/><feColorMatrix in="SourceAlpha" result="hardAlpha" values="0 0 0 0 0 0 0 0 0 0 0 0 0 0 0 0 0 0 127 0"/><feOffset dx="-16" dy="8"/><feComposite in2="hardAlpha" k2="-1" k3="1" operator="arithmetic"/><feColorMatrix values="0 0 0 0 1 0 0 0 0 1 0 0 0 0 1 0 0 0 0.25 0"/><feBlend in2="effect1_innerShadow" result="effect2_innerShadow"/></filter><filter id="l" width="48" height="40" x="265" y="51" color-interpolation-filters="sRGB" filterUnits="userSpaceOnUse"><feFlood flood-opacity="0" result="BackgroundImageFix"/><feColorMatrix in="SourceAlpha" result="hardAlpha" values="0 0 0 0 0 0 0 0 0 0 0 0 0 0 0 0 0 0 127 0"/><feOffset dx="-4"/><feColorMatrix values="0 0 0 0 1 0 0 0 0 1 0 0 0 0 1 0 0 0 0.25 0"/><feBlend in2="BackgroundImageFix" result="effect1_dropShadow"/><feColorMatrix in="SourceAlpha" result="hardAlpha" values="0 0 0 0 0 0 0 0 0 0 0 0 0 0 0 0 0 0 127 0"/><feOffset dx="4"/><feColorMatrix values="0 0 0 0 0 0 0 0 0 0 0 0 0 0 0 0 0 0 0.25 0"/><feBlend in2="effect1_dropShadow" result="effect2_dropShadow"/><feBlend in="SourceGraphic" in2="effect2_dropShadow" result="shape"/><feColorMatrix in="SourceAlpha" result="hardAlpha" values="0 0 0 0 0 0 0 0 0 0 0 0 0 0 0 0 0 0 127 0"/><feOffset dx="-4"/><feComposite in2="hardAlpha" k2="-1" k3="1" operator="arithmetic"/><feColorMatrix values="0 0 0 0 0 0 0 0 0 0 0 0 0 0 0 0 0 0 0.25 0"/><feBlend in2="shape" result="effect3_innerShadow"/></filter><filter id="m" width="324.722" height="231.5" x="15" y=".5" color-interpolation-filters="sRGB" filterUnits="userSpaceOnUse"><feFlood flood-opacity="0" result="BackgroundImageFix"/><feBlend in="SourceGraphic" in2="BackgroundImageFix" result="shape"/><feColorMatrix in="SourceAlpha" result="hardAlpha" values="0 0 0 0 0 0 0 0 0 0 0 0 0 0 0 0 0 0 127 0"/><feOffset dx="16"/><feComposite in2="hardAlpha" k2="-1" k3="1" operator="arithmetic"/><feColorMatrix values="0 0 0 0 0 0 0 0 0 0 0 0 0 0 0 0 0 0 0.25 0"/><feBlend in2="shape" result="effect1_innerShadow"/><feColorMatrix in="SourceAlpha" result="hardAlpha" values="0 0 0 0 0 0 0 0 0 0 0 0 0 0 0 0 0 0 127 0"/><feOffset dx="-16" dy="8"/><feComposite in2="hardAlpha" k2="-1" k3="1" operator="arithmetic"/><feColorMatrix values="0 0 0 0 1 0 0 0 0 1 0 0 0 0 1 0 0 0 0.75 0"/><feBlend in2="effect1_innerShadow" result="effect2_innerShadow"/></filter><filter id="n" width="46" height="36" x="28" y="163" color-interpolation-filters="sRGB" filterUnits="userSpaceOnUse"><feFlood flood-opacity="0" result="BackgroundImageFix"/><feColorMatrix in="SourceAlpha" result="hardAlpha" values="0 0 0 0 0 0 0 0 0 0 0 0 0 0 0 0 0 0 127 0"/><feOffset dx="-4" dy="4"/><feColorMatrix values="0 0 0 0 0 0 0 0 0 0 0 0 0 0 0 0 0 0 0.25 0"/><feBlend in2="BackgroundImageFix" result="effect1_dropShadow"/><feBlend in="SourceGraphic" in2="effect1_dropShadow" result="shape"/></filter><filter id="o" width="70" height="50" x="232" y="127.267" color-interpolation-filters="sRGB" filterUnits="userSpaceOnUse"><feFlood flood-opacity="0" result="BackgroundImageFix"/><feBlend in="SourceGraphic" in2="BackgroundImageFix" result="shape"/><feColorMatrix in="SourceAlpha" result="hardAlpha" values="0 0 0 0 0 0 0 0 0 0 0 0 0 0 0 0 0 0 127 0"/><feOffset dx="16"/><feComposite in2="hardAlpha" k2="-1" k3="1" operator="arithmetic"/><feColorMatrix values="0 0 0 0 0 0 0 0 0 0 0 0 0 0 0 0 0 0 0.25 0"/><feBlend in2="shape" result="effect1_innerShadow"/><feColorMatrix in="SourceAlpha" result="hardAlpha" values="0 0 0 0 0 0 0 0 0 0 0 0 0 0 0 0 0 0 127 0"/><feOffset dx="-16" dy="8"/><feComposite in2="hardAlpha" k2="-1" k3="1" operator="arithmetic"/><feColorMatrix values="0 0 0 0 1 0 0 0 0 1 0 0 0 0 1 0 0 0 1 0"/><feBlend in2="effect1_innerShadow" result="effect2_innerShadow"/></filter></defs></svg>