<svg xmlns="http://www.w3.org/2000/svg" width="139" height="88" fill="none"><g filter="url(#a)"><path fill="#8A7ED9" d="M2.128 12.022c0-5.587 4.529-10.116 10.116-10.116h80.923c5.586 0 10.115 4.53 10.115 10.116v64.064c0 5.586-4.529 10.115-10.115 10.115H12.244c-5.587 0-10.116-4.529-10.116-10.115V12.022Z"/></g><path stroke="#1F2024" stroke-width="3.372" d="M2.128 12.022c0-5.587 4.529-10.116 10.116-10.116h80.923c5.586 0 10.115 4.53 10.115 10.116v64.064c0 5.586-4.529 10.115-10.115 10.115H12.244c-5.587 0-10.116-4.529-10.116-10.115V12.022Z"/><g filter="url(#b)"><path fill="#ADA3EE" d="M42.59 12.022c0-5.587 4.528-10.116 10.115-10.116h74.18c5.586 0 10.115 4.53 10.115 10.116v64.064c0 5.586-4.529 10.115-10.115 10.115h-74.18c-5.587 0-10.115-4.529-10.115-10.115V12.022Z"/></g><path stroke="#1F2024" stroke-width="3.372" d="M42.59 12.022c0-5.587 4.528-10.116 10.115-10.116h74.18c5.586 0 10.115 4.53 10.115 10.116v64.064c0 5.586-4.529 10.115-10.115 10.115h-74.18c-5.587 0-10.115-4.529-10.115-10.115V12.022Z"/><g filter="url(#c)"><circle cx="69.564" cy="27.195" r="6.744" fill="#4795E0"/><circle cx="69.564" cy="27.195" r="6.744" stroke="#1F2024" stroke-width="3.372"/></g><g filter="url(#d)"><circle cx="89.795" cy="27.195" r="6.744" fill="#EB0D18"/><circle cx="89.795" cy="27.195" r="6.744" stroke="#1F2024" stroke-width="3.372"/></g><g filter="url(#e)"><circle cx="110.026" cy="27.195" r="6.744" fill="#fff"/><circle cx="110.026" cy="27.195" r="6.744" stroke="#1F2024" stroke-width="3.372"/></g><defs><filter id="a" width="104.526" height="87.667" x=".442" y=".22" color-interpolation-filters="sRGB" filterUnits="userSpaceOnUse"><feFlood flood-opacity="0" result="BackgroundImageFix"/><feBlend in="SourceGraphic" in2="BackgroundImageFix" result="shape"/><feColorMatrix in="SourceAlpha" result="hardAlpha" values="0 0 0 0 0 0 0 0 0 0 0 0 0 0 0 0 0 0 127 0"/><feOffset dy="-6.744"/><feComposite in2="hardAlpha" k2="-1" k3="1" operator="arithmetic"/><feColorMatrix values="0 0 0 0 0 0 0 0 0 0 0 0 0 0 0 0 0 0 0.25 0"/><feBlend in2="shape" result="effect1_innerShadow"/><feColorMatrix in="SourceAlpha" result="hardAlpha" values="0 0 0 0 0 0 0 0 0 0 0 0 0 0 0 0 0 0 127 0"/><feOffset dy="6.744"/><feComposite in2="hardAlpha" k2="-1" k3="1" operator="arithmetic"/><feColorMatrix values="0 0 0 0 1 0 0 0 0 1 0 0 0 0 1 0 0 0 0.25 0"/><feBlend in2="effect1_innerShadow" result="effect2_innerShadow"/></filter><filter id="b" width="97.782" height="87.667" x="40.904" y=".22" color-interpolation-filters="sRGB" filterUnits="userSpaceOnUse"><feFlood flood-opacity="0" result="BackgroundImageFix"/><feBlend in="SourceGraphic" in2="BackgroundImageFix" result="shape"/><feColorMatrix in="SourceAlpha" result="hardAlpha" values="0 0 0 0 0 0 0 0 0 0 0 0 0 0 0 0 0 0 127 0"/><feOffset dx="-6.744" dy="3.372"/><feComposite in2="hardAlpha" k2="-1" k3="1" operator="arithmetic"/><feColorMatrix values="0 0 0 0 1 0 0 0 0 1 0 0 0 0 1 0 0 0 0.25 0"/><feBlend in2="shape" result="effect1_innerShadow"/></filter><filter id="c" width="18.545" height="16.859" x="59.449" y="18.765" color-interpolation-filters="sRGB" filterUnits="userSpaceOnUse"><feFlood flood-opacity="0" result="BackgroundImageFix"/><feColorMatrix in="SourceAlpha" result="hardAlpha" values="0 0 0 0 0 0 0 0 0 0 0 0 0 0 0 0 0 0 127 0"/><feOffset dx="-1.686"/><feColorMatrix values="0 0 0 0 0.133333 0 0 0 0 0.133333 0 0 0 0 0.133333 0 0 0 1 0"/><feBlend in2="BackgroundImageFix" result="effect1_dropShadow"/><feBlend in="SourceGraphic" in2="effect1_dropShadow" result="shape"/></filter><filter id="d" width="18.545" height="16.859" x="79.68" y="18.765" color-interpolation-filters="sRGB" filterUnits="userSpaceOnUse"><feFlood flood-opacity="0" result="BackgroundImageFix"/><feColorMatrix in="SourceAlpha" result="hardAlpha" values="0 0 0 0 0 0 0 0 0 0 0 0 0 0 0 0 0 0 127 0"/><feOffset dx="-1.686"/><feColorMatrix values="0 0 0 0 0.133333 0 0 0 0 0.133333 0 0 0 0 0.133333 0 0 0 1 0"/><feBlend in2="BackgroundImageFix" result="effect1_dropShadow"/><feBlend in="SourceGraphic" in2="effect1_dropShadow" result="shape"/></filter><filter id="e" width="18.545" height="16.859" x="99.91" y="18.765" color-interpolation-filters="sRGB" filterUnits="userSpaceOnUse"><feFlood flood-opacity="0" result="BackgroundImageFix"/><feColorMatrix in="SourceAlpha" result="hardAlpha" values="0 0 0 0 0 0 0 0 0 0 0 0 0 0 0 0 0 0 127 0"/><feOffset dx="-1.686"/><feColorMatrix values="0 0 0 0 0.133333 0 0 0 0 0.133333 0 0 0 0 0.133333 0 0 0 1 0"/><feBlend in2="BackgroundImageFix" result="effect1_dropShadow"/><feBlend in="SourceGraphic" in2="effect1_dropShadow" result="shape"/></filter></defs></svg>