<svg xmlns="http://www.w3.org/2000/svg" width="122" height="45" fill="none"><g filter="url(#a)"><g filter="url(#b)"><path fill="#FF71C6" d="m74.61 38.007-9.17-10.753a2.215 2.215 0 0 0-1.8-.775c-1.861.098-3.004-2.005-1.91-3.513l3.957-5.449a5.426 5.426 0 0 1 3.497-2.164l50.056-8.366c.5-.084.954.307.945.815l-.129 7.066a.804.804 0 0 1-.148.451c-8.417 11.896-20.087 21.158-39.42 24.826-2.197.416-4.428-.437-5.878-2.138Z"/></g><path stroke="#1F2024" stroke-width="3.245" d="m74.61 38.007-9.17-10.753a2.215 2.215 0 0 0-1.8-.775c-1.861.098-3.004-2.005-1.91-3.513l3.957-5.449a5.426 5.426 0 0 1 3.497-2.164l50.056-8.366c.5-.084.954.307.945.815l-.129 7.066a.804.804 0 0 1-.148.451c-8.417 11.896-20.087 21.158-39.42 24.826-2.197.416-4.428-.437-5.878-2.138Z"/><g filter="url(#c)"><path fill="#FFFA8F" d="M51.265 39.816C62.706 28.418 69.387 19.304 75.728 6.231c1.166-2.404-.998-5.034-3.608-4.457C48.052 7.096 28.633 9.912 4.814 9.547a.816.816 0 0 0-.83.812v3.368c0 .144.035.28.11.404 4.596 7.617 20.63 21.768 41.32 27.303 2.094.56 4.316-.088 5.851-1.618Z"/></g><path stroke="#1F2024" stroke-width="3.245" d="M51.265 39.816C62.706 28.418 69.387 19.304 75.728 6.231c1.166-2.404-.998-5.034-3.608-4.457C48.052 7.096 28.633 9.912 4.814 9.547a.816.816 0 0 0-.83.812v3.368c0 .144.035.28.11.404 4.596 7.617 20.63 21.768 41.32 27.303 2.094.56 4.316-.088 5.851-1.618Z"/><path fill="#1F2024" d="M58.702 23.708c-.452-4.672-44.166-12.36-45.673-10.4-1.508 1.96 7.356 14.169 18.088 17.786 13.416 4.523 28.037-2.713 27.585-7.386Z"/><mask id="d" width="47" height="21" x="12" y="12" mask-type="alpha" maskUnits="userSpaceOnUse"><path fill="#1F2024" d="M58.702 23.708c-.452-4.672-44.166-12.36-45.673-10.4-1.508 1.96 7.355 14.169 18.088 17.786 13.415 4.523 28.037-2.713 27.585-7.386Z"/></mask><g fill="#fff" mask="url(#d)"><path d="M38.21 5.273h3.297L26.144 37.725h-3.297L38.21 5.273ZM26.446 5.273h9.788L20.87 37.725h-9.787L26.446 5.273Z"/></g><path fill="#1F2024" d="M69.716 23.708c.452-4.672 44.166-12.36 45.673-10.4 1.508 1.96-7.356 14.169-18.088 17.786-13.416 4.523-28.037-2.713-27.585-7.386Z"/><mask id="e" width="47" height="21" x="69" y="12" mask-type="alpha" maskUnits="userSpaceOnUse"><path fill="#1F2024" d="M69.716 23.708c.452-4.672 44.166-12.36 45.673-10.4 1.508 1.96-7.356 14.169-18.088 17.786-13.416 4.523-28.037-2.713-27.585-7.386Z"/></mask><g fill="#fff" mask="url(#e)"><path d="M103.925 5.273h8.976L97.538 37.725h-8.976l15.363-32.452ZM97.434 5.273h3.297L85.369 37.725h-3.297L97.434 5.273Z"/></g></g><defs><filter id="a" width="121.068" height="44.807" x=".739" y=".072" color-interpolation-filters="sRGB" filterUnits="userSpaceOnUse"><feFlood flood-opacity="0" result="BackgroundImageFix"/><feColorMatrix in="SourceAlpha" values="0 0 0 0 0 0 0 0 0 0 0 0 0 0 0 0 0 0 127 0"/><feOffset dx="-1.623" dy="1.623"/><feColorMatrix values="0 0 0 0 0 0 0 0 0 0 0 0 0 0 0 0 0 0 0.25 0"/><feBlend in2="BackgroundImageFix" result="effect1_dropShadow"/><feBlend in="SourceGraphic" in2="effect1_dropShadow" result="shape"/></filter><filter id="b" width="62.13" height="36.52" x="59.678" y="5.352" color-interpolation-filters="sRGB" filterUnits="userSpaceOnUse"><feFlood flood-opacity="0" result="BackgroundImageFix"/><feBlend in="SourceGraphic" in2="BackgroundImageFix" result="shape"/><feColorMatrix in="SourceAlpha" result="hardAlpha" values="0 0 0 0 0 0 0 0 0 0 0 0 0 0 0 0 0 0 127 0"/><feOffset dx="-9.736" dy="3.245"/><feComposite in2="hardAlpha" k2="-1" k3="1" operator="arithmetic"/><feColorMatrix values="0 0 0 0 1 0 0 0 0 1 0 0 0 0 1 0 0 0 0.25 0"/><feBlend in2="shape" result="effect1_innerShadow"/></filter><filter id="c" width="75.322" height="43.184" x="2.362" y=".072" color-interpolation-filters="sRGB" filterUnits="userSpaceOnUse"><feFlood flood-opacity="0" result="BackgroundImageFix"/><feBlend in="SourceGraphic" in2="BackgroundImageFix" result="shape"/><feColorMatrix in="SourceAlpha" result="hardAlpha" values="0 0 0 0 0 0 0 0 0 0 0 0 0 0 0 0 0 0 127 0"/><feOffset dx="-9.736" dy="3.245"/><feComposite in2="hardAlpha" k2="-1" k3="1" operator="arithmetic"/><feColorMatrix values="0 0 0 0 1 0 0 0 0 1 0 0 0 0 1 0 0 0 0.25 0"/><feBlend in2="shape" result="effect1_innerShadow"/></filter></defs></svg>