<svg xmlns="http://www.w3.org/2000/svg" width="468" height="373" fill="none"><g filter="url(#a)"><path fill="#EFA686" d="M88 181c0-13.255 10.745-24 24-24h276c13.255 0 24 10.745 24 24v160c0 13.255-10.745 24-24 24H112c-13.255 0-24-10.745-24-24V181Z"/></g><path stroke="#1F2024" stroke-width="8" d="M88 181c0-13.255 10.745-24 24-24h276c13.255 0 24 10.745 24 24v160c0 13.255-10.745 24-24 24H112c-13.255 0-24-10.745-24-24V181Z"/><g filter="url(#b)"><path fill="#0022D3" fill-opacity=".8" fill-rule="evenodd" d="M112 157c-13.255 0-24 10.745-24 24v160c0 13.255 10.745 24 24 24h26c-13.255 0-24-10.745-24-24V181c0-13.255 10.745-24 24-24h-26Z" clip-rule="evenodd"/></g><path fill="#1F2024" d="M92 181c0-11.046 8.954-20 20-20v-8c-15.464 0-28 12.536-28 28h8Zm0 160V181h-8v160h8Zm20 20c-11.046 0-20-8.954-20-20h-8c0 15.464 12.536 28 28 28v-8Zm26 0h-26v8h26v-8Zm0 0c-11.046 0-20-8.954-20-20h-8c0 15.464 12.536 28 28 28v-8Zm-20-20V181h-8v160h8Zm0-160c0-11.046 8.954-20 20-20v-8c-15.464 0-28 12.536-28 28h8Zm-6-20h26v-8h-26v8Z"/><g filter="url(#c)"><path fill="#0022D3" fill-opacity=".7" fill-rule="evenodd" d="M138.667 157c-13.255 0-24 10.745-24 24v160c0 13.255 10.745 24 24 24h26c-13.255 0-24-10.745-24-24V181c0-13.255 10.745-24 24-24h-26Z" clip-rule="evenodd"/></g><path fill="#1F2024" d="M118.667 181c0-11.046 8.954-20 20-20v-8c-15.464 0-28 12.536-28 28h8Zm0 160V181h-8v160h8Zm20 20c-11.046 0-20-8.954-20-20h-8c0 15.464 12.536 28 28 28v-8Zm26 0h-26v8h26v-8Zm0 0c-11.046 0-20-8.954-20-20h-8c0 15.464 12.536 28 28 28v-8Zm-20-20V181h-8v160h8Zm0-160c0-11.046 8.954-20 20-20v-8c-15.464 0-28 12.536-28 28h8Zm-6-20h26v-8h-26v8Z"/><g filter="url(#d)"><path fill="#0022D3" fill-opacity=".5" fill-rule="evenodd" d="M165.333 157c-13.255 0-24 10.745-24 24v160c0 13.255 10.745 24 24 24h26c-13.255 0-24-10.745-24-24V181c0-13.255 10.745-24 24-24h-26Z" clip-rule="evenodd"/></g><path fill="#1F2024" d="M145.333 181c0-11.046 8.955-20 20-20v-8c-15.464 0-28 12.536-28 28h8Zm0 160V181h-8v160h8Zm20 20c-11.045 0-20-8.954-20-20h-8c0 15.464 12.536 28 28 28v-8Zm26 0h-26v8h26v-8Zm0 0c-11.045 0-20-8.954-20-20h-8c0 15.464 12.536 28 28 28v-8Zm-20-20V181h-8v160h8Zm0-160c0-11.046 8.955-20 20-20v-8c-15.464 0-28 12.536-28 28h8Zm-6-20h26v-8h-26v8Z"/><g filter="url(#e)"><path fill="#0022D3" fill-opacity=".3" fill-rule="evenodd" d="M192 157c-13.255 0-24 10.745-24 24v160c0 13.255 10.745 24 24 24h26c-13.255 0-24-10.745-24-24V181c0-13.255 10.745-24 24-24h-26Z" clip-rule="evenodd"/></g><path fill="#1F2024" d="M172 181c0-11.046 8.954-20 20-20v-8c-15.464 0-28 12.536-28 28h8Zm0 160V181h-8v160h8Zm20 20c-11.046 0-20-8.954-20-20h-8c0 15.464 12.536 28 28 28v-8Zm26 0h-26v8h26v-8Zm0 0c-11.046 0-20-8.954-20-20h-8c0 15.464 12.536 28 28 28v-8Zm-20-20V181h-8v160h8Zm0-160c0-11.046 8.954-20 20-20v-8c-15.464 0-28 12.536-28 28h8Zm-6-20h26v-8h-26v8Z"/><g filter="url(#f)"><path fill="#FE204F" d="M268.919 208.276c-9.497 0-14.762 6.787-14.762 6.787s-5.265-6.787-14.762-6.787c-9.966 0-18.042 7.994-18.042 17.86 0 13.544 16.113 26.669 20.604 30.815 5.174 4.774 12.2 10.911 12.2 10.911s7.027-6.137 12.2-10.911c4.491-4.146 20.605-17.271 20.605-30.815 0-9.866-8.076-17.86-18.043-17.86Z"/><path stroke="#1F2024" stroke-width="8" d="M268.919 208.276c-9.497 0-14.762 6.787-14.762 6.787s-5.265-6.787-14.762-6.787c-9.966 0-18.042 7.994-18.042 17.86 0 13.544 16.113 26.669 20.604 30.815 5.174 4.774 12.2 10.911 12.2 10.911s7.027-6.137 12.2-10.911c4.491-4.146 20.605-17.271 20.605-30.815 0-9.866-8.076-17.86-18.043-17.86Z"/></g><g filter="url(#g)"><path fill="#FE204F" d="M369.419 208.276c-9.497 0-14.762 6.787-14.762 6.787s-5.265-6.787-14.762-6.787c-9.966 0-18.042 7.994-18.042 17.86 0 13.544 16.113 26.669 20.604 30.815 5.174 4.774 12.2 10.911 12.2 10.911s7.027-6.137 12.2-10.911c4.491-4.146 20.605-17.271 20.605-30.815 0-9.866-8.076-17.86-18.043-17.86Z"/><path stroke="#1F2024" stroke-width="8" d="M369.419 208.276c-9.497 0-14.762 6.787-14.762 6.787s-5.265-6.787-14.762-6.787c-9.966 0-18.042 7.994-18.042 17.86 0 13.544 16.113 26.669 20.604 30.815 5.174 4.774 12.2 10.911 12.2 10.911s7.027-6.137 12.2-10.911c4.491-4.146 20.605-17.271 20.605-30.815 0-9.866-8.076-17.86-18.043-17.86Z"/></g><rect width="112" height="32" x="244" y="283" fill="#1F2024" rx="16"/><path fill="#CAE9FA" d="M244 283h12v32h-12zM264 283h12v32h-12zM284 283h12v32h-12zM304 283h12v32h-12zM324 283h12v32h-12zM344 283h12v32h-12z"/><rect width="112" height="32" x="244" y="283" stroke="#1F2024" stroke-width="6" rx="16"/><path fill="#000" fill-opacity=".16" d="M198 183h216l-104.904 28.421a116 116 0 0 1-105.966-24.009L198 183Z"/><g filter="url(#h)"><circle cx="143" cy="167.755" r="54" fill="#E2E2E2" stroke="#1F2024" stroke-linejoin="round" stroke-width="8"/><g filter="url(#i)"><rect width="19" height="48" x="126" y="214" fill="#E2E2E2" rx="8"/></g><rect width="19" height="48" x="126" y="214" stroke="#1F2024" stroke-width="8" rx="8"/><g filter="url(#j)"><path fill="#E2E2E2" d="M101 258a8 8 0 0 1 8-8h49a8 8 0 0 1 8 8v32a8 8 0 0 1-8 8h-49a8 8 0 0 1-8-8v-32Z"/></g><path stroke="#1F2024" stroke-width="8" d="M101 258a8 8 0 0 1 8-8h49a8 8 0 0 1 8 8v32a8 8 0 0 1-8 8h-49a8 8 0 0 1-8-8v-32Z"/><g filter="url(#k)"><path fill="#fff" d="M142 258a8 8 0 0 1 8-8h8a8 8 0 0 1 8 8v32a8 8 0 0 1-8 8h-8a8 8 0 0 1-8-8v-32Z"/></g><path stroke="#1F2024" stroke-width="8" d="M142 258a8 8 0 0 1 8-8h8a8 8 0 0 1 8 8v32a8 8 0 0 1-8 8h-8a8 8 0 0 1-8-8v-32Z"/><rect width="8" height="20" x="118" y="264" fill="#1F2024" rx="4"/><g filter="url(#l)"><path fill="#fff" d="M334.959 112 310 51.755c61.75 0 124.832 41.153 113.718 79.337-11.115 38.184-60.428-22.486-88.759-19.092Z"/></g><path stroke="#1F2024" stroke-linejoin="round" stroke-width="8" d="M391.931 80.41c-20.003-13.632-47.828-23.29-75.889-24.522l21.533 51.976c7.579.072 15.756 3.446 23.502 7.516 5.497 2.888 11.312 6.44 16.916 9.864 3.383 2.067 6.689 4.086 9.802 5.885 8.717 5.035 16 8.394 21.509 8.615 2.557.102 4.49-.488 6.05-1.755 1.629-1.321 3.273-3.722 4.523-8.015 4.787-16.446-6.195-34.74-27.946-49.564Z"/><mask id="m" fill="#fff"><path fill-rule="evenodd" d="M309.663 68.75a5.306 5.306 0 0 0 4.917.971c20.969-6.414 36.22-25.921 36.22-48.99a51.12 51.12 0 0 0-3.093-17.57c-1.909-5.229-9.11-3.492-11.073 1.716-6.205 16.464-20.646 28.89-38.3 32.255-3.523.671-6.167 3.94-5.092 7.362 3.023 9.617 8.806 18.012 16.421 24.256Z" clip-rule="evenodd"/></mask><path fill="#EDB146" fill-rule="evenodd" d="M309.663 68.75a5.306 5.306 0 0 0 4.917.971c20.969-6.414 36.22-25.921 36.22-48.99a51.12 51.12 0 0 0-3.093-17.57c-1.909-5.229-9.11-3.492-11.073 1.716-6.205 16.464-20.646 28.89-38.3 32.255-3.523.671-6.167 3.94-5.092 7.362 3.023 9.617 8.806 18.012 16.421 24.256Z" clip-rule="evenodd"/><path fill="#1F2024" d="m293.242 44.494 7.632-2.399-7.632 2.399ZM314.58 69.72l2.34 7.65-2.34-7.65Zm-4.917-.971-5.073 6.186 5.073-6.186ZM358.8 20.73c0 26.685-17.642 49.228-41.88 56.641l-4.68-15.3c17.701-5.414 30.56-21.886 30.56-41.34h16ZM355.222.417A59.128 59.128 0 0 1 358.8 20.73h-16c0-5.223-.923-10.212-2.607-14.825L355.222.417Zm-58.386 28.856c14.876-2.835 27.075-13.32 32.312-27.217l14.972 5.642c-7.172 19.031-23.855 33.398-44.288 37.292l-2.996-15.717Zm4.038 12.822c2.547 8.102 7.424 15.19 13.861 20.468L304.59 74.936c-8.793-7.21-15.481-16.91-18.98-28.044l15.264-4.797Zm-1.042 2.895c.166-.031.43-.13.7-.501.152-.209.329-.542.416-1a2.9 2.9 0 0 0-.074-1.394l-15.264 4.797c-2.925-9.31 4.478-16.332 11.226-17.619l2.996 15.717Zm40.361-39.085c.167.459.678 1.238 1.654 1.73.864.435 1.563.381 1.829.331.383-.072.414-.19.444-.268l-14.972-5.642c1.992-5.287 6.606-8.876 11.558-9.812 2.55-.482 5.53-.315 8.343 1.103 2.924 1.474 5.051 3.997 6.173 7.07l-15.029 5.488ZM316.92 77.37a13.308 13.308 0 0 1-12.33-2.435l10.145-12.373a2.694 2.694 0 0 0-2.495-.492l4.68 15.3Z" mask="url(#m)"/><mask id="n" fill="#fff"><path fill-rule="evenodd" d="M331.262 60.98C343.161 51.6 350.8 37.057 350.8 20.73a51.12 51.12 0 0 0-3.093-17.57c-1.909-5.228-9.11-3.491-11.073 1.717-4.886 12.965-14.88 23.426-27.528 28.93 3.981 11.449 11.91 21.05 22.156 27.173Z" clip-rule="evenodd"/></mask><path fill="#FDEFEE" fill-rule="evenodd" d="M331.262 60.98C343.161 51.6 350.8 37.057 350.8 20.73a51.12 51.12 0 0 0-3.093-17.57c-1.909-5.228-9.11-3.491-11.073 1.717-4.886 12.965-14.88 23.426-27.528 28.93 3.981 11.449 11.91 21.05 22.156 27.173Z" clip-rule="evenodd"/><path fill="#1F2024" d="m331.262 60.98 4.953 6.283a8 8 0 0 1-9.056.584l4.103-6.867Zm16.445-57.82 7.515-2.743-7.515 2.744Zm-11.073 1.717-7.486-2.821 7.486 2.821Zm-27.528 28.93-7.556 2.627a8 8 0 0 1 4.364-9.962l3.192 7.335Zm17.204 20.89c10.057-7.928 16.49-20.194 16.49-33.967h16c0 18.881-8.845 35.701-22.585 46.532l-9.905-12.565ZM342.8 20.73c0-5.223-.923-10.212-2.607-14.825L355.222.417A59.128 59.128 0 0 1 358.8 20.73h-16Zm-2.607-14.825c.167.459.678 1.238 1.654 1.73.864.435 1.563.381 1.829.331.383-.072.414-.19.444-.268l-14.972-5.642c1.992-5.287 6.606-8.876 11.558-9.812 2.55-.482 5.53-.315 8.343 1.103 2.924 1.474 5.051 3.997 6.173 7.07l-15.029 5.488Zm3.927 1.793c-5.652 14.996-17.199 27.081-31.822 33.444l-6.384-14.67c10.673-4.645 19.113-13.482 23.234-24.416l14.972 5.642ZM316.662 31.18c3.355 9.649 10.048 17.76 18.704 22.933l-8.207 13.734c-11.838-7.074-21.003-18.164-25.609-31.413l15.112-5.254Z" mask="url(#n)"/><path stroke="#000" stroke-linecap="round" stroke-linejoin="round" stroke-width="8" d="M373.172 97.388c-9.418-8.528-28.753-14.787-39.573-11.442 3.823 1.52 7.698 6.888 4.823 15.306"/><mask id="p" fill="#fff"><path fill-rule="evenodd" d="M92.56 121.78c-13.767 10.605-22.636 27.254-22.636 45.975 0 32.032 25.967 58 58 58 26.756 0 49.281-18.118 55.975-42.755h180.025v-68c0-48.601-39.399-88-88-88h-85c-22.671 0-43.506 7.858-59.93 21C61.527 51.75-6.002 97.922 6.505 140.89c7.773 26.703 31.46 12.223 56.373-3.007 10.014-6.122 20.225-12.365 29.681-16.103Z" clip-rule="evenodd"/></mask><g filter="url(#o)"><path fill="#fff" fill-rule="evenodd" d="M92.56 121.78c-13.767 10.605-22.636 27.254-22.636 45.975 0 32.032 25.967 58 58 58 26.756 0 49.281-18.118 55.975-42.755h180.025v-68c0-48.601-39.399-88-88-88h-85c-22.671 0-43.506 7.858-59.93 21C61.527 51.75-6.002 97.922 6.505 140.89c7.773 26.703 31.46 12.223 56.373-3.007 10.014-6.122 20.225-12.365 29.681-16.103Z" clip-rule="evenodd"/></g><path fill="#1F2024" d="m92.56 121.78 4.882 6.338a8 8 0 0 0-7.824-13.778l2.941 7.44ZM183.898 183v-8a8 8 0 0 0-7.72 5.902l7.72 2.098Zm180.025 0v8a8 8 0 0 0 8-8h-8ZM130.994 48l.431 7.988a8.004 8.004 0 0 0 4.567-1.742L130.994 48ZM6.505 140.89l7.682-2.236-7.682 2.236Zm56.373-3.007-4.173-6.826 4.173 6.826Zm15.046 29.872c0-16.134 7.633-30.482 19.517-39.637l-9.764-12.675c-15.647 12.054-25.753 31.004-25.753 52.312h16Zm50 50c-27.614 0-50-22.386-50-50h-16c0 36.451 29.549 66 66 66v-16Zm48.255-36.853c-5.771 21.242-25.2 36.853-48.255 36.853v16c30.458 0 56.079-20.625 63.696-48.657l-15.441-4.196Zm7.72 10.098h180.025v-16H183.899v16Zm188.025-8v-65h-16v65h16Zm0-65v-3h-16v3h16Zm0-3c0-53.02-42.981-96-96-96v16c44.183 0 80 35.817 80 80h16Zm-96-96h-85v16h85V19Zm-85 0c-24.552 0-47.137 8.518-64.928 22.753l9.996 12.493C151.049 42.2 170.135 35 190.924 35V19Zm-60.362 21.011C94.359 41.966 58.617 54.936 33.317 73.26 8.538 91.204-8.907 116.565-1.176 143.126l15.363-4.472c-4.776-16.408 5.29-35.616 28.515-52.437 22.704-16.442 55.46-28.433 88.723-30.229l-.863-15.977ZM-1.176 143.126c2.278 7.825 6.14 14.057 12.235 17.612 6.077 3.544 12.824 3.519 18.912 2.189 6.057-1.323 12.35-4.121 18.413-7.318 6.112-3.222 12.49-7.124 18.667-10.901l-8.346-13.651c-6.279 3.839-12.205 7.458-17.783 10.399-5.628 2.967-10.415 4.977-14.365 5.839-3.919.856-6.108.397-7.437-.378-1.312-.765-3.325-2.737-4.933-8.263l-15.363 4.472Zm68.227 1.582c10.181-6.224 19.766-12.055 28.45-15.488l-5.883-14.88c-10.228 4.044-21.067 10.698-30.913 16.717l8.346 13.651Z" mask="url(#p)"/><path fill="#EEC2BD" d="M280 35a44.004 44.004 0 0 1-27.162 40.65A44 44 0 0 1 192 35h88Z"/><path stroke="#E6ACA5" stroke-linecap="round" stroke-linejoin="round" stroke-width="8" d="M304.5 116c8 3.5 22 6 36.5 5"/><mask id="q" fill="#fff"><path fill-rule="evenodd" d="M137.061 68.75a5.306 5.306 0 0 1-4.917.971c-20.97-6.414-36.22-25.921-36.22-48.99 0-6.173 1.091-12.09 3.092-17.57 1.909-5.229 9.111-3.492 11.074 1.716 6.204 16.464 20.645 28.89 38.299 32.255 3.523.671 6.168 3.94 5.092 7.362-3.022 9.617-8.805 18.012-16.42 24.256Z" clip-rule="evenodd"/></mask><path fill="#EDB146" fill-rule="evenodd" d="M137.061 68.75a5.306 5.306 0 0 1-4.917.971c-20.97-6.414-36.22-25.921-36.22-48.99 0-6.173 1.091-12.09 3.092-17.57 1.909-5.229 9.111-3.492 11.074 1.716 6.204 16.464 20.645 28.89 38.299 32.255 3.523.671 6.168 3.94 5.092 7.362-3.022 9.617-8.805 18.012-16.42 24.256Z" clip-rule="evenodd"/><path fill="#1F2024" d="m153.481 44.494-7.632-2.399 7.632 2.399ZM132.144 69.72l-2.34 7.65 2.34-7.65Zm4.917-.971 5.072 6.186-5.072-6.186ZM87.924 20.73c0 26.685 17.642 49.228 41.88 56.641l4.68-15.3c-17.701-5.414-30.56-21.886-30.56-41.34h-16ZM91.502.417a59.123 59.123 0 0 0-3.578 20.313h16c0-5.223.923-10.212 2.607-14.825L91.501.417Zm58.385 28.856c-14.875-2.835-27.074-13.32-32.311-27.217l-14.972 5.642c7.172 19.031 23.855 33.398 44.287 37.292l2.996-15.717Zm-4.038 12.822c-2.546 8.102-7.424 15.19-13.86 20.468l10.144 12.373c8.793-7.21 15.481-16.91 18.98-28.044l-15.264-4.797Zm1.042 2.895c-.165-.031-.429-.13-.7-.501a2.5 2.5 0 0 1-.415-1 2.9 2.9 0 0 1 .073-1.394l15.264 4.797c2.926-9.31-4.477-16.332-11.226-17.619l-2.996 15.717Zm-40.36-39.085c-.168.459-.679 1.238-1.654 1.73-.864.435-1.563.381-1.829.331-.383-.072-.415-.19-.444-.268l14.972-5.642c-1.992-5.287-6.606-8.876-11.558-9.812-2.551-.482-5.531-.315-8.343 1.103-2.924 1.474-5.051 3.997-6.173 7.07l15.029 5.488Zm23.273 71.466a13.306 13.306 0 0 0 12.329-2.435l-10.144-12.373a2.693 2.693 0 0 1 2.495-.492l-4.68 15.3Z" mask="url(#q)"/><mask id="r" fill="#fff"><path fill-rule="evenodd" d="M115.461 60.98c-11.898-9.38-19.537-23.923-19.537-40.25 0-6.172 1.091-12.09 3.092-17.57 1.909-5.228 9.111-3.491 11.074 1.717 4.886 12.965 14.879 23.426 27.528 28.93-3.981 11.449-11.91 21.05-22.157 27.173Z" clip-rule="evenodd"/></mask><path fill="#FDEFEE" fill-rule="evenodd" d="M115.461 60.98c-11.898-9.38-19.537-23.923-19.537-40.25 0-6.172 1.091-12.09 3.092-17.57 1.909-5.228 9.111-3.491 11.074 1.717 4.886 12.965 14.879 23.426 27.528 28.93-3.981 11.449-11.91 21.05-22.157 27.173Z" clip-rule="evenodd"/><path fill="#1F2024" d="m115.461 60.98-4.952 6.283a8 8 0 0 0 9.056.584l-4.104-6.867ZM99.016 3.16 91.502.418l7.514 2.744Zm11.074 1.717 7.486-2.821-7.486 2.821Zm27.528 28.93 7.556 2.627a8 8 0 0 0-4.364-9.962l-3.192 7.335Zm-17.204 20.89c-10.057-7.928-16.49-20.194-16.49-33.967h-16c0 18.881 8.844 35.701 22.585 46.532l9.905-12.565Zm-16.49-33.967c0-5.223.923-10.212 2.607-14.825L91.501.417a59.123 59.123 0 0 0-3.577 20.313h16Zm2.607-14.825c-.168.459-.679 1.238-1.654 1.73-.864.435-1.563.381-1.829.331-.383-.072-.415-.19-.444-.268l14.972-5.642c-1.992-5.287-6.606-8.876-11.558-9.812-2.551-.482-5.531-.315-8.343 1.103-2.924 1.474-5.051 3.997-6.173 7.07l15.029 5.488Zm-3.927 1.793c5.651 14.996 17.198 27.081 31.821 33.444l6.385-14.67c-10.674-4.645-19.113-13.482-23.234-24.416l-14.972 5.642Zm27.457 23.482c-3.355 9.649-10.047 17.76-18.703 22.933l8.207 13.734c11.838-7.074 21.002-18.164 25.609-31.413l-15.113-5.254Z" mask="url(#r)"/><path stroke="#000" stroke-linecap="round" stroke-linejoin="round" stroke-width="8" d="M62.888 98.388C72.306 89.86 91.64 83.6 102.46 86.946c-3.823 1.52-7.698 6.888-4.823 15.306"/><path fill="#000" fill-opacity=".16" d="M319.083 166.665C307.108 145.334 322.524 119 346.987 119h74.619c24.463 0 39.879 26.334 27.904 47.665l-.656 1.168A16 16 0 0 1 434.902 176H329.007a8 8 0 0 1-6.976-4.084l-2.948-5.251Z"/><mask id="t" fill="#fff"><path d="M320.322 155.996C310.917 134.835 326.407 111 349.564 111h85.465c23.157 0 38.646 23.835 29.242 44.996l-7.779 17.502A16 16 0 0 1 441.871 183h-93.95a24 24 0 0 1-21.932-14.253l-5.667-12.751Z"/></mask><g filter="url(#s)"><path fill="#CCBF92" d="M320.322 155.996C310.917 134.835 326.407 111 349.564 111h85.465c23.157 0 38.646 23.835 29.242 44.996l-7.779 17.502A16 16 0 0 1 441.871 183h-93.95a24 24 0 0 1-21.932-14.253l-5.667-12.751Z"/></g><path fill="#1F2024" d="m325.989 168.747-7.31 3.249 7.31-3.249Zm130.503 4.751 7.31 3.249-7.31-3.249Zm7.779-17.502-7.311-3.249 7.311 3.249Zm-143.949 0 7.311-3.249-7.311 3.249ZM349.564 119h85.465v-16h-85.465v16Zm107.396 33.747-7.779 17.502 14.621 6.498 7.779-17.501-14.621-6.499ZM441.871 175h-93.95v16h93.95v-16ZM333.3 165.498l-5.667-12.751-14.621 6.499 5.667 12.75 14.621-6.498ZM347.921 175a16 16 0 0 1-14.621-9.502l-14.621 6.498A31.999 31.999 0 0 0 347.921 191v-16Zm101.26-4.751a8 8 0 0 1-7.31 4.751v16a24 24 0 0 0 21.931-14.253l-14.621-6.498ZM435.029 119c17.367 0 28.985 17.876 21.931 33.747l14.621 6.499C483.337 132.794 463.975 103 435.029 103v16Zm-85.465-16c-28.946 0-48.308 29.794-36.552 56.246l14.621-6.499C320.579 136.876 332.197 119 349.564 119v-16Z" mask="url(#t)"/><circle cx="365.5" cy="150.5" r="12.5" fill="#1F2024"/><circle cx="429.5" cy="150.5" r="12.5" fill="#1F2024"/></g><path fill="#E36776" fill-opacity=".5" d="M215.789 107c3.43 0 6.284-2.819 5.473-6.152a26.011 26.011 0 0 0-15.312-17.869 26.005 26.005 0 0 0-28.335 5.636 26.011 26.011 0 0 0-6.877 12.233c-.811 3.333 2.043 6.152 5.473 6.152h.879c2.945 0 5.239-2.475 6.366-5.196A13.573 13.573 0 0 1 196 93.422a13.576 13.576 0 0 1 12.544 8.382c1.127 2.721 3.421 5.196 6.366 5.196h.879Z"/><path stroke="#1F2024" stroke-linecap="round" stroke-linejoin="round" stroke-width="10" d="M212 107.013c-4-16.017-28-16.017-32 0"/><path stroke="#1F2024" stroke-linecap="round" stroke-linejoin="round" stroke-width="8" d="M179 106.255c-8.386-4.491-11.952-7.959-15.5-16.5M187.5 97.755c-6.121-3.766-9.193-8.168-12-15"/><path fill="#E36776" fill-opacity=".5" d="M293.211 107c-3.43 0-6.284-2.819-5.473-6.152a26.011 26.011 0 0 1 15.312-17.869 26.005 26.005 0 0 1 28.335 5.636 26.011 26.011 0 0 1 6.877 12.233c.811 3.333-2.043 6.152-5.473 6.152h-.879c-2.945 0-5.239-2.475-6.366-5.196A13.573 13.573 0 0 0 313 93.422a13.576 13.576 0 0 0-12.544 8.382c-1.127 2.721-3.421 5.196-6.366 5.196h-.879Z"/><path stroke="#1F2024" stroke-linecap="round" stroke-linejoin="round" stroke-width="10" d="M297 107.013c4-16.017 28-16.017 32 0"/><path stroke="#1F2024" stroke-linecap="round" stroke-linejoin="round" stroke-width="8" d="M330 106.255c8.386-4.491 11.952-7.959 15.5-16.5M321.5 97.755c6.121-3.766 9.193-8.168 12-15"/><circle cx="140" cy="143" r="31" fill="#E36776" fill-opacity=".5"/><path fill="#EDB146" d="M47.63 127.865c1.122-3.397 4.829-5.292 7.952-3.548a34.007 34.007 0 0 1 17.39 28.328A33.999 33.999 0 0 1 5.39 159.13c-4.492-12.986 10.724-13.996 11.792-6.207-.305 2.062.697 2.169 1.015 4.253a21.05 21.05 0 0 0 16.472 17.418 21.043 21.043 0 0 0 25.36-21.433 21.047 21.047 0 0 0-8.685-16.206c-2.898-2.099-4.835-5.693-3.713-9.09Z"/><path fill="#1F2024" fill-rule="evenodd" d="M43.832 126.611c1.732-5.247 7.917-9.016 13.7-5.785a37.995 37.995 0 0 1 19.438 31.66A37.997 37.997 0 0 1 53.75 189.02a37.993 37.993 0 0 1-42.361-8.911 37.997 37.997 0 0 1-9.955-20.375c-.8-5.247-1.371-6.395 0-11.468 6.764-25.025 20.33 12.316 25.18 17.445a17.043 17.043 0 0 0 25.997-21.97 17.029 17.029 0 0 0-3.615-3.546c-3.698-2.678-7.038-7.914-5.165-13.584Zm8.716 1.177c-.44.205-.898.66-1.12 1.332-.371 1.124.164 3.077 2.261 4.595a25.037 25.037 0 0 1 10.336 19.287 25.042 25.042 0 0 1-15.303 24.079 25.049 25.049 0 0 1-27.919-5.873 25.044 25.044 0 0 1-6.561-13.429c-.2-1.31.11-3.389.053-5.279C13 152 11 151 9.421 149.239c-.76 2.564-.29 7.897-.077 9.288A30 30 0 1 0 53.63 127.81c-.345-.193-.69-.206-1.083-.022Z" clip-rule="evenodd"/><defs><filter id="h" width="462.065" height="306" x="5" y="0" color-interpolation-filters="sRGB" filterUnits="userSpaceOnUse"><feFlood flood-opacity="0" result="BackgroundImageFix"/><feColorMatrix in="SourceAlpha" result="hardAlpha" values="0 0 0 0 0 0 0 0 0 0 0 0 0 0 0 0 0 0 127 0"/><feOffset dy="4"/><feColorMatrix values="0 0 0 0 0 0 0 0 0 0 0 0 0 0 0 0 0 0 0.25 0"/><feBlend in2="BackgroundImageFix" result="effect1_dropShadow"/><feBlend in="SourceGraphic" in2="effect1_dropShadow" result="shape"/></filter><filter id="a" width="332" height="216" x="84" y="153" color-interpolation-filters="sRGB" filterUnits="userSpaceOnUse"><feFlood flood-opacity="0" result="BackgroundImageFix"/><feBlend in="SourceGraphic" in2="BackgroundImageFix" result="shape"/><feColorMatrix in="SourceAlpha" result="hardAlpha" values="0 0 0 0 0 0 0 0 0 0 0 0 0 0 0 0 0 0 127 0"/><feOffset dx="-24" dy="8"/><feComposite in2="hardAlpha" k2="-1" k3="1" operator="arithmetic"/><feColorMatrix values="0 0 0 0 1 0 0 0 0 1 0 0 0 0 1 0 0 0 0.25 0"/><feBlend in2="shape" result="effect1_innerShadow"/></filter><filter id="c" width="54" height="216" x="110.667" y="153" color-interpolation-filters="sRGB" filterUnits="userSpaceOnUse"><feFlood flood-opacity="0" result="BackgroundImageFix"/><feBlend in="SourceGraphic" in2="BackgroundImageFix" result="shape"/><feColorMatrix in="SourceAlpha" result="hardAlpha" values="0 0 0 0 0 0 0 0 0 0 0 0 0 0 0 0 0 0 127 0"/><feOffset dy="-16"/><feComposite in2="hardAlpha" k2="-1" k3="1" operator="arithmetic"/><feColorMatrix values="0 0 0 0 0 0 0 0 0 0 0 0 0 0 0 0 0 0 0.25 0"/><feBlend in2="shape" result="effect1_innerShadow"/><feColorMatrix in="SourceAlpha" result="hardAlpha" values="0 0 0 0 0 0 0 0 0 0 0 0 0 0 0 0 0 0 127 0"/><feOffset dy="16"/><feComposite in2="hardAlpha" k2="-1" k3="1" operator="arithmetic"/><feColorMatrix values="0 0 0 0 1 0 0 0 0 1 0 0 0 0 1 0 0 0 0.25 0"/><feBlend in2="effect1_innerShadow" result="effect2_innerShadow"/></filter><filter id="d" width="54" height="216" x="137.333" y="153" color-interpolation-filters="sRGB" filterUnits="userSpaceOnUse"><feFlood flood-opacity="0" result="BackgroundImageFix"/><feBlend in="SourceGraphic" in2="BackgroundImageFix" result="shape"/><feColorMatrix in="SourceAlpha" result="hardAlpha" values="0 0 0 0 0 0 0 0 0 0 0 0 0 0 0 0 0 0 127 0"/><feOffset dy="-16"/><feComposite in2="hardAlpha" k2="-1" k3="1" operator="arithmetic"/><feColorMatrix values="0 0 0 0 0 0 0 0 0 0 0 0 0 0 0 0 0 0 0.25 0"/><feBlend in2="shape" result="effect1_innerShadow"/><feColorMatrix in="SourceAlpha" result="hardAlpha" values="0 0 0 0 0 0 0 0 0 0 0 0 0 0 0 0 0 0 127 0"/><feOffset dy="16"/><feComposite in2="hardAlpha" k2="-1" k3="1" operator="arithmetic"/><feColorMatrix values="0 0 0 0 1 0 0 0 0 1 0 0 0 0 1 0 0 0 0.25 0"/><feBlend in2="effect1_innerShadow" result="effect2_innerShadow"/></filter><filter id="e" width="54" height="216" x="164" y="153" color-interpolation-filters="sRGB" filterUnits="userSpaceOnUse"><feFlood flood-opacity="0" result="BackgroundImageFix"/><feBlend in="SourceGraphic" in2="BackgroundImageFix" result="shape"/><feColorMatrix in="SourceAlpha" result="hardAlpha" values="0 0 0 0 0 0 0 0 0 0 0 0 0 0 0 0 0 0 127 0"/><feOffset dy="-16"/><feComposite in2="hardAlpha" k2="-1" k3="1" operator="arithmetic"/><feColorMatrix values="0 0 0 0 0 0 0 0 0 0 0 0 0 0 0 0 0 0 0.25 0"/><feBlend in2="shape" result="effect1_innerShadow"/><feColorMatrix in="SourceAlpha" result="hardAlpha" values="0 0 0 0 0 0 0 0 0 0 0 0 0 0 0 0 0 0 127 0"/><feOffset dy="16"/><feComposite in2="hardAlpha" k2="-1" k3="1" operator="arithmetic"/><feColorMatrix values="0 0 0 0 1 0 0 0 0 1 0 0 0 0 1 0 0 0 0.25 0"/><feBlend in2="effect1_innerShadow" result="effect2_innerShadow"/></filter><filter id="f" width="77.609" height="68.897" x="213.353" y="204.276" color-interpolation-filters="sRGB" filterUnits="userSpaceOnUse"><feFlood flood-opacity="0" result="BackgroundImageFix"/><feColorMatrix in="SourceAlpha" result="hardAlpha" values="0 0 0 0 0 0 0 0 0 0 0 0 0 0 0 0 0 0 127 0"/><feOffset dx="-4"/><feColorMatrix values="0 0 0 0 0.133333 0 0 0 0 0.133333 0 0 0 0 0.133333 0 0 0 1 0"/><feBlend in2="BackgroundImageFix" result="effect1_dropShadow"/><feBlend in="SourceGraphic" in2="effect1_dropShadow" result="shape"/></filter><filter id="g" width="77.609" height="68.897" x="313.853" y="204.276" color-interpolation-filters="sRGB" filterUnits="userSpaceOnUse"><feFlood flood-opacity="0" result="BackgroundImageFix"/><feColorMatrix in="SourceAlpha" result="hardAlpha" values="0 0 0 0 0 0 0 0 0 0 0 0 0 0 0 0 0 0 127 0"/><feOffset dx="-4"/><feColorMatrix values="0 0 0 0 0.133333 0 0 0 0 0.133333 0 0 0 0 0.133333 0 0 0 1 0"/><feBlend in2="BackgroundImageFix" result="effect1_dropShadow"/><feBlend in="SourceGraphic" in2="effect1_dropShadow" result="shape"/></filter><filter id="b" width="54" height="216" x="84" y="153" color-interpolation-filters="sRGB" filterUnits="userSpaceOnUse"><feFlood flood-opacity="0" result="BackgroundImageFix"/><feBlend in="SourceGraphic" in2="BackgroundImageFix" result="shape"/><feColorMatrix in="SourceAlpha" result="hardAlpha" values="0 0 0 0 0 0 0 0 0 0 0 0 0 0 0 0 0 0 127 0"/><feOffset dy="-16"/><feComposite in2="hardAlpha" k2="-1" k3="1" operator="arithmetic"/><feColorMatrix values="0 0 0 0 0 0 0 0 0 0 0 0 0 0 0 0 0 0 0.25 0"/><feBlend in2="shape" result="effect1_innerShadow"/><feColorMatrix in="SourceAlpha" result="hardAlpha" values="0 0 0 0 0 0 0 0 0 0 0 0 0 0 0 0 0 0 127 0"/><feOffset dy="16"/><feComposite in2="hardAlpha" k2="-1" k3="1" operator="arithmetic"/><feColorMatrix values="0 0 0 0 1 0 0 0 0 1 0 0 0 0 1 0 0 0 0.25 0"/><feBlend in2="effect1_innerShadow" result="effect2_innerShadow"/></filter><filter id="i" width="27" height="56" x="122" y="210" color-interpolation-filters="sRGB" filterUnits="userSpaceOnUse"><feFlood flood-opacity="0" result="BackgroundImageFix"/><feBlend in="SourceGraphic" in2="BackgroundImageFix" result="shape"/><feColorMatrix in="SourceAlpha" result="hardAlpha" values="0 0 0 0 0 0 0 0 0 0 0 0 0 0 0 0 0 0 127 0"/><feOffset dx="16"/><feComposite in2="hardAlpha" k2="-1" k3="1" operator="arithmetic"/><feColorMatrix values="0 0 0 0 0 0 0 0 0 0 0 0 0 0 0 0 0 0 0.25 0"/><feBlend in2="shape" result="effect1_innerShadow"/><feColorMatrix in="SourceAlpha" result="hardAlpha" values="0 0 0 0 0 0 0 0 0 0 0 0 0 0 0 0 0 0 127 0"/><feOffset dx="-24" dy="8"/><feComposite in2="hardAlpha" k2="-1" k3="1" operator="arithmetic"/><feColorMatrix values="0 0 0 0 1 0 0 0 0 1 0 0 0 0 1 0 0 0 0.25 0"/><feBlend in2="effect1_innerShadow" result="effect2_innerShadow"/></filter><filter id="j" width="73" height="56" x="97" y="246" color-interpolation-filters="sRGB" filterUnits="userSpaceOnUse"><feFlood flood-opacity="0" result="BackgroundImageFix"/><feBlend in="SourceGraphic" in2="BackgroundImageFix" result="shape"/><feColorMatrix in="SourceAlpha" result="hardAlpha" values="0 0 0 0 0 0 0 0 0 0 0 0 0 0 0 0 0 0 127 0"/><feOffset dy="-16"/><feComposite in2="hardAlpha" k2="-1" k3="1" operator="arithmetic"/><feColorMatrix values="0 0 0 0 0 0 0 0 0 0 0 0 0 0 0 0 0 0 0.25 0"/><feBlend in2="shape" result="effect1_innerShadow"/><feColorMatrix in="SourceAlpha" result="hardAlpha" values="0 0 0 0 0 0 0 0 0 0 0 0 0 0 0 0 0 0 127 0"/><feOffset dy="16"/><feComposite in2="hardAlpha" k2="-1" k3="1" operator="arithmetic"/><feColorMatrix values="0 0 0 0 1 0 0 0 0 1 0 0 0 0 1 0 0 0 0.25 0"/><feBlend in2="effect1_innerShadow" result="effect2_innerShadow"/></filter><filter id="k" width="32" height="56" x="138" y="246" color-interpolation-filters="sRGB" filterUnits="userSpaceOnUse"><feFlood flood-opacity="0" result="BackgroundImageFix"/><feBlend in="SourceGraphic" in2="BackgroundImageFix" result="shape"/><feColorMatrix in="SourceAlpha" result="hardAlpha" values="0 0 0 0 0 0 0 0 0 0 0 0 0 0 0 0 0 0 127 0"/><feOffset dx="-24" dy="8"/><feComposite in2="hardAlpha" k2="-1" k3="1" operator="arithmetic"/><feColorMatrix values="0 0 0 0 1 0 0 0 0 1 0 0 0 0 1 0 0 0 0.25 0"/><feBlend in2="shape" result="effect1_innerShadow"/></filter><filter id="l" width="115" height="92" x="310" y="51.755" color-interpolation-filters="sRGB" filterUnits="userSpaceOnUse"><feFlood flood-opacity="0" result="BackgroundImageFix"/><feBlend in="SourceGraphic" in2="BackgroundImageFix" result="shape"/><feColorMatrix in="SourceAlpha" result="hardAlpha" values="0 0 0 0 0 0 0 0 0 0 0 0 0 0 0 0 0 0 127 0"/><feOffset dx="16"/><feComposite in2="hardAlpha" k2="-1" k3="1" operator="arithmetic"/><feColorMatrix values="0 0 0 0 0 0 0 0 0 0 0 0 0 0 0 0 0 0 0.25 0"/><feBlend in2="shape" result="effect1_innerShadow"/><feColorMatrix in="SourceAlpha" result="hardAlpha" values="0 0 0 0 0 0 0 0 0 0 0 0 0 0 0 0 0 0 127 0"/><feOffset dx="-24" dy="8"/><feComposite in2="hardAlpha" k2="-1" k3="1" operator="arithmetic"/><feColorMatrix values="0 0 0 0 1 0 0 0 0 1 0 0 0 0 1 0 0 0 0.25 0"/><feBlend in2="effect1_innerShadow" result="effect2_innerShadow"/></filter><filter id="o" width="358.924" height="198.755" x="5" y="27" color-interpolation-filters="sRGB" filterUnits="userSpaceOnUse"><feFlood flood-opacity="0" result="BackgroundImageFix"/><feBlend in="SourceGraphic" in2="BackgroundImageFix" result="shape"/><feColorMatrix in="SourceAlpha" result="hardAlpha" values="0 0 0 0 0 0 0 0 0 0 0 0 0 0 0 0 0 0 127 0"/><feOffset dx="16"/><feComposite in2="hardAlpha" k2="-1" k3="1" operator="arithmetic"/><feColorMatrix values="0 0 0 0 0 0 0 0 0 0 0 0 0 0 0 0 0 0 0.25 0"/><feBlend in2="shape" result="effect1_innerShadow"/><feColorMatrix in="SourceAlpha" result="hardAlpha" values="0 0 0 0 0 0 0 0 0 0 0 0 0 0 0 0 0 0 127 0"/><feOffset dx="-24" dy="8"/><feComposite in2="hardAlpha" k2="-1" k3="1" operator="arithmetic"/><feColorMatrix values="0 0 0 0 1 0 0 0 0 1 0 0 0 0 1 0 0 0 0.25 0"/><feBlend in2="effect1_innerShadow" result="effect2_innerShadow"/></filter><filter id="s" width="149.536" height="72" x="317.528" y="111" color-interpolation-filters="sRGB" filterUnits="userSpaceOnUse"><feFlood flood-opacity="0" result="BackgroundImageFix"/><feBlend in="SourceGraphic" in2="BackgroundImageFix" result="shape"/><feColorMatrix in="SourceAlpha" result="hardAlpha" values="0 0 0 0 0 0 0 0 0 0 0 0 0 0 0 0 0 0 127 0"/><feOffset dx="16"/><feComposite in2="hardAlpha" k2="-1" k3="1" operator="arithmetic"/><feColorMatrix values="0 0 0 0 0 0 0 0 0 0 0 0 0 0 0 0 0 0 0.25 0"/><feBlend in2="shape" result="effect1_innerShadow"/><feColorMatrix in="SourceAlpha" result="hardAlpha" values="0 0 0 0 0 0 0 0 0 0 0 0 0 0 0 0 0 0 127 0"/><feOffset dx="-24" dy="8"/><feComposite in2="hardAlpha" k2="-1" k3="1" operator="arithmetic"/><feColorMatrix values="0 0 0 0 1 0 0 0 0 1 0 0 0 0 1 0 0 0 0.25 0"/><feBlend in2="effect1_innerShadow" result="effect2_innerShadow"/></filter></defs></svg>