<svg xmlns="http://www.w3.org/2000/svg" width="373" height="341" fill="none"><g filter="url(#a)"><path fill="#ACE5D7" d="M31 149c0-13.255 10.745-24 24-24h276c13.255 0 24 10.745 24 24v160c0 13.255-10.745 24-24 24H55c-13.255 0-24-10.745-24-24V149Z"/></g><path stroke="#1F2024" stroke-width="8" d="M31 149c0-13.255 10.745-24 24-24h276c13.255 0 24 10.745 24 24v160c0 13.255-10.745 24-24 24H55c-13.255 0-24-10.745-24-24V149Z"/><g filter="url(#b)"><path fill="#D30000" fill-opacity=".8" fill-rule="evenodd" d="M55 125c-13.255 0-24 10.745-24 24v160c0 13.255 10.745 24 24 24h26c-13.255 0-24-10.745-24-24V149c0-13.255 10.745-24 24-24H55Z" clip-rule="evenodd"/></g><path fill="#1F2024" d="M35 149c0-11.046 8.954-20 20-20v-8c-15.464 0-28 12.536-28 28h8Zm0 160V149h-8v160h8Zm20 20c-11.046 0-20-8.954-20-20h-8c0 15.464 12.536 28 28 28v-8Zm26 0H55v8h26v-8Zm0 0c-11.046 0-20-8.954-20-20h-8c0 15.464 12.536 28 28 28v-8Zm-20-20V149h-8v160h8Zm0-160c0-11.046 8.954-20 20-20v-8c-15.464 0-28 12.536-28 28h8Zm-6-20h26v-8H55v8Z"/><g filter="url(#c)"><path fill="#D30000" fill-opacity=".7" fill-rule="evenodd" d="M81.667 125c-13.255 0-24 10.745-24 24v160c0 13.255 10.745 24 24 24h26c-13.255 0-24-10.745-24-24V149c0-13.255 10.745-24 24-24h-26Z" clip-rule="evenodd"/></g><path fill="#1F2024" d="M61.667 149c0-11.046 8.954-20 20-20v-8c-15.464 0-28 12.536-28 28h8Zm0 160V149h-8v160h8Zm20 20c-11.046 0-20-8.954-20-20h-8c0 15.464 12.536 28 28 28v-8Zm26 0h-26v8h26v-8Zm0 0c-11.046 0-20-8.954-20-20h-8c0 15.464 12.536 28 28 28v-8Zm-20-20V149h-8v160h8Zm0-160c0-11.046 8.954-20 20-20v-8c-15.464 0-28 12.536-28 28h8Zm-6-20h26v-8h-26v8Z"/><g filter="url(#d)"><path fill="#D30000" fill-opacity=".5" fill-rule="evenodd" d="M108.333 125c-13.255 0-24 10.745-24 24v160c0 13.255 10.745 24 24 24h26c-13.255 0-24-10.745-24-24V149c0-13.255 10.745-24 24-24h-26Z" clip-rule="evenodd"/></g><path fill="#1F2024" d="M88.333 149c0-11.046 8.955-20 20-20v-8c-15.464 0-28 12.536-28 28h8Zm0 160V149h-8v160h8Zm20 20c-11.045 0-20-8.954-20-20h-8c0 15.464 12.536 28 28 28v-8Zm26 0h-26v8h26v-8Zm0 0c-11.045 0-20-8.954-20-20h-8c0 15.464 12.536 28 28 28v-8Zm-20-20V149h-8v160h8Zm0-160c0-11.046 8.955-20 20-20v-8c-15.464 0-28 12.536-28 28h8Zm-6-20h26v-8h-26v8Z"/><g filter="url(#e)"><path fill="#D30000" fill-opacity=".3" fill-rule="evenodd" d="M135 125c-13.255 0-24 10.745-24 24v160c0 13.255 10.745 24 24 24h26c-13.255 0-24-10.745-24-24V149c0-13.255 10.745-24 24-24h-26Z" clip-rule="evenodd"/></g><path fill="#1F2024" d="M115 149c0-11.046 8.954-20 20-20v-8c-15.464 0-28 12.536-28 28h8Zm0 160V149h-8v160h8Zm20 20c-11.046 0-20-8.954-20-20h-8c0 15.464 12.536 28 28 28v-8Zm26 0h-26v8h26v-8Zm0 0c-11.046 0-20-8.954-20-20h-8c0 15.464 12.536 28 28 28v-8Zm-20-20V149h-8v160h8Zm0-160c0-11.046 8.954-20 20-20v-8c-15.464 0-28 12.536-28 28h8Zm-6-20h26v-8h-26v8Z"/><g filter="url(#f)"><rect width="144.895" height="16" x="8" y="184" fill="#E2E2E2" stroke="#1F2024" stroke-width="8" rx="8"/><g filter="url(#g)"><path fill="#E2E2E2" d="M255.747 186.509c-18.126 0-20.74-13.451-58.019-15.354-37.254-1.517-46.318 6.845-49.093 15.354-2.774 8.51-3.339 19.961 21.199 42.226s48.538 14.589 59.135 7.677c10.597-6.912 19.126-34.58 26.778-34.548 7.652.032 15.065 26.871 26.778 34.548 11.713 7.677 35.155 14.588 59.135-7.677 23.98-22.265 23.973-34.716 21.199-42.226-2.775-7.509-11.839-16.871-49.093-15.354-37.279 1.903-39.893 15.354-58.019 15.354Z"/></g><path stroke="#1F2024" stroke-width="8" d="M255.747 186.509c-18.126 0-20.74-13.451-58.019-15.354-37.254-1.517-46.318 6.845-49.093 15.354-2.774 8.51-3.339 19.961 21.199 42.226s48.538 14.589 59.135 7.677c10.597-6.912 19.126-34.58 26.778-34.548 7.652.032 15.065 26.871 26.778 34.548 11.713 7.677 35.155 14.588 59.135-7.677 23.98-22.265 23.973-34.716 21.199-42.226-2.775-7.509-11.839-16.871-49.093-15.354-37.279 1.903-39.893 15.354-58.019 15.354Z"/><path fill="#1F2024" d="M237.892 201.8c.626-11.225-21.21-23.216-44.636-22.8-23.414.438-26.462 13.855-26.781 19-.573 11.921 13.743 38.717 40.172 38 26.43-.746 30.884-26.794 31.245-34.2ZM273.602 201.8c-.626-11.225 21.21-23.216 44.636-22.8 23.414.438 26.462 13.855 26.782 19 .572 11.921-13.744 38.717-40.173 38-26.429-.746-30.884-26.794-31.245-34.2Z"/></g><g filter="url(#h)"><path fill="#FE204F" d="M204 272.5c0 7.824 4.794 15.327 13.327 20.86 8.533 5.532 20.106 8.64 32.173 8.64s23.64-3.108 32.173-8.64C290.206 287.827 295 280.324 295 272.5h-91Z"/></g><path stroke="#1F2024" stroke-linejoin="round" stroke-width="8" d="M204 272.5c0 7.824 4.794 15.327 13.327 20.86 8.533 5.532 20.106 8.64 32.173 8.64s23.64-3.108 32.173-8.64C290.206 287.827 295 280.324 295 272.5h-91Z"/><g filter="url(#i)"><path fill="#FE204F" fill-rule="evenodd" d="M257 272.5h-53a26.498 26.498 0 0 1 26.5-26.5 26.498 26.498 0 0 1 19 8.027l.262-.265a26.498 26.498 0 0 1 37.476 0A26.498 26.498 0 0 1 295 272.5h-38Z" clip-rule="evenodd"/></g><path fill="#1F2024" d="M230.5 272.5v4-4Zm-26.5 0h-4a4 4 0 0 0 4 4v-4Zm7.762-18.738-2.829-2.829 2.829 2.829Zm37.476 0 2.829-2.829-2.829 2.829Zm.262.265-2.868 2.788a4 4 0 0 0 5.736 0l-2.868-2.788Zm.262-.265-2.829-2.829 2.829 2.829Zm37.476 0-2.828 2.828 2.828-2.828ZM295 272.5v4a4 4 0 0 0 4-4h-4Zm-64.5 4H257v-8h-26.5v8Zm-26.5 0h26.5v-8H204v8Zm4.933-25.567A30.5 30.5 0 0 0 200 272.5h8c0-5.967 2.371-11.69 6.59-15.91l-5.657-5.657ZM230.5 242a30.5 30.5 0 0 0-21.567 8.933l5.657 5.657A22.504 22.504 0 0 1 230.5 250v-8Zm21.567 8.933A30.5 30.5 0 0 0 230.5 242v8c5.967 0 11.69 2.371 15.91 6.59l5.657-5.657Zm.301.306c-.1-.103-.2-.205-.301-.306l-5.657 5.657.222.225 5.736-5.576Zm-5.435-.306c-.101.101-.201.203-.301.306l5.736 5.576.222-.225-5.657-5.657ZM268.5 242a30.5 30.5 0 0 0-21.567 8.933l5.657 5.657A22.504 22.504 0 0 1 268.5 250v-8Zm21.567 8.933A30.5 30.5 0 0 0 268.5 242v8c5.967 0 11.69 2.371 15.91 6.59l5.657-5.657ZM299 272.5a30.5 30.5 0 0 0-8.933-21.567l-5.657 5.657A22.504 22.504 0 0 1 291 272.5h8Zm-30.5 4H295v-8h-26.5v8Zm-11.5 0h11.5v-8H257v8Z"/><path stroke="#fff" stroke-linecap="round" stroke-width="8" d="M279.046 260.954A13.5 13.5 0 0 0 269.5 257M241.546 260.954A13.5 13.5 0 0 0 232 257"/><circle cx="315.5" cy="254.5" r="8.5" fill="#1F2024"/><circle r="2.5" fill="#fff" transform="matrix(-1 0 0 1 318.5 251.5)"/><path stroke="#fff" stroke-linecap="round" stroke-width="8" d="M269 282h6"/><path fill="#000" fill-opacity=".16" fill-rule="evenodd" d="M33.1 116C35.545 59.255 82.323 14 139.67 14h86C294.888 14 351 70.112 351 139.33V194h-30.248c-1.968 15.785-15.434 28-31.752 28h-59c-16.318 0-29.784-12.215-31.752-28h-88.217l5.953 29.654C118.097 234.177 110.05 244 99.317 244h-56.65C36.776 244 32 239.224 32 233.333V116h1.1Z" clip-rule="evenodd"/><g filter="url(#j)"><path fill="#ACACAE" fill-rule="evenodd" d="M124.67 6C65.758 6 18 53.758 18 112.67V186h192.037c2.996 9.84 12.143 17 22.963 17 7.952 0 15.001-3.867 19.368-9.824 3.793 5.909 10.422 9.824 17.965 9.824h21.334c2.982 0 5.822-.612 8.4-1.718A23.933 23.933 0 0 0 309 203c10.82 0 19.967-7.16 22.963-17H366v-54.67C366 62.112 309.888 6 240.67 6h-116Z" clip-rule="evenodd"/></g><path fill="#1F2024" d="M18 186h-4a4 4 0 0 0 4 4v-4Zm192.037 0 3.826-1.165a4 4 0 0 0-3.826-2.835v4Zm42.331 7.176 3.366-2.161a4 4 0 0 0-6.592-.204l3.226 2.365Zm47.699 8.106 1.49-3.712a3.998 3.998 0 0 0-3.066.036l1.576 3.676ZM331.963 186v-4a4 4 0 0 0-3.826 2.835l3.826 1.165ZM366 186v4a4 4 0 0 0 4-4h-4ZM22 112.67C22 55.967 67.967 10 124.67 10V2C63.549 2 14 51.549 14 112.67h8ZM22 186v-73.33h-8V186h8Zm188.037-4H18v8h192.037v-8Zm-3.827 5.165C209.704 198.642 220.371 207 233 207v-8c-9.011 0-16.639-5.962-19.137-14.165l-7.653 2.33ZM233 207c9.28 0 17.506-4.519 22.594-11.459l-6.452-4.73C245.496 195.784 239.624 199 233 199v8Zm16.002-11.663C253.5 202.344 261.372 207 270.333 207v-8c-6.124 0-11.51-3.174-14.599-7.985l-6.732 4.322ZM270.333 207h21.334v-8h-21.334v8Zm21.334 0c3.534 0 6.909-.726 9.976-2.041l-3.152-7.353a17.264 17.264 0 0 1-6.824 1.394v8Zm6.91-2.005A27.933 27.933 0 0 0 309 207v-8c-2.638 0-5.148-.509-7.443-1.43l-2.98 7.425ZM309 207c12.629 0 23.296-8.358 26.79-19.835l-7.653-2.33C325.639 193.038 318.011 199 309 199v8Zm57-25h-34.037v8H366v-8Zm-4-50.67V186h8v-54.67h-8ZM240.67 10C307.679 10 362 64.321 362 131.33h8C370 59.903 312.097 2 240.67 2v8Zm-116 0h116V2h-116v8Z"/><path fill="#000" fill-opacity=".16" d="M18 112.67C18 53.758 65.758 6 124.67 6h11.83c-73 22-68.5 79.5-76 180H18v-73.33ZM135.5 160.5c20 4.5 41.779 4.196 61.5 2-17 17.5-51 18-61.5-2ZM229.5 141v-8l24.5-2.5-1.5 10.5c-8.484-3.633-13.565-3.66-23 0ZM209 183.5h-19c4.476-13.432 11.821-19.993 27-25.5-6.351 9.425-9.546 16.18-8 25.5ZM250 193c-8.373 9.702-14.78 11.04-30 4.5 10.772-1.143 15.666-3.236 20-12.5l10 8Z"/><g filter="url(#k)"><path fill="#ACACAE" d="M132 4h61c49.719 0 79.43 16.743 106.572 44.802h-79.905C209.488 22.374 182.339 12.797 132 4Z"/><path stroke="#1F2024" stroke-linecap="round" stroke-linejoin="round" stroke-width="8" d="M132 4h61c49.719 0 79.43 16.743 106.572 44.802h-79.905C209.488 22.374 182.339 12.797 132 4Z"/></g><g filter="url(#l)"><path fill="#ACACAE" d="M13 69.333C13 57.551 22.551 48 34.333 48h313.334C359.449 48 369 57.551 369 69.333v33.334a5.333 5.333 0 0 1-5.333 5.333H18.333A5.333 5.333 0 0 1 13 102.667V69.333Z"/></g><path stroke="#1F2024" stroke-linecap="round" stroke-linejoin="round" stroke-width="8" d="M13 69.333C13 57.551 22.551 48 34.333 48h313.334C359.449 48 369 57.551 369 69.333v33.334a5.333 5.333 0 0 1-5.333 5.333H18.333A5.333 5.333 0 0 1 13 102.667V69.333Z"/><g filter="url(#m)"><path fill="#ACACAE" d="M208 45h103v37.333C311 97.061 299.061 109 284.333 109h-49.666C219.939 109 208 97.06 208 82.333V45Z"/><path stroke="#1F2024" stroke-linecap="round" stroke-linejoin="round" stroke-width="8" d="M208 45h103v37.333C311 97.061 299.061 109 284.333 109h-49.666C219.939 109 208 97.06 208 82.333V45Z"/></g><path stroke="#fff" stroke-linecap="round" stroke-linejoin="round" stroke-width="8" d="M351.5 62v28.5M299 57v11.875m0 15.625v-2.75"/><path fill="#E2E2E2" stroke="#1F2024" stroke-linecap="round" stroke-linejoin="round" stroke-width="8" d="M34 108h49.097l24.2 115.139C108.69 229.768 103.632 236 96.858 236H44.667C38.776 236 34 231.224 34 225.333V108Z"/><g filter="url(#n)"><path fill="#797A7C" d="M18 108h49.097l24.2 115.139C92.69 229.768 87.632 236 80.858 236H28.667C22.776 236 18 231.224 18 225.333V108Z"/></g><path stroke="#1F2024" stroke-linecap="round" stroke-linejoin="round" stroke-width="8" d="M18 108h49.097l24.2 115.139C92.69 229.768 87.632 236 80.858 236H28.667C22.776 236 18 231.224 18 225.333V108Z"/><path fill="#4795E0" stroke="#1F2024" stroke-width="8" d="M44 94h1v61h-1z"/><g filter="url(#o)"><path fill="#ADA3EE" d="M11 180c0-13.255 10.745-24 24-24h12c13.255 0 24 10.745 24 24s-10.745 24-24 24H35c-13.255 0-24-10.745-24-24Z"/></g><path stroke="#1F2024" stroke-width="8" d="M11 180c0-13.255 10.745-24 24-24h12c13.255 0 24 10.745 24 24s-10.745 24-24 24H35c-13.255 0-24-10.745-24-24Z"/><g filter="url(#p)"><path fill="#8A7ED9" d="M11 180c0-13.255 10.745-24 24-24s24 10.745 24 24-10.745 24-24 24-24-10.745-24-24Z"/></g><path stroke="#1F2024" stroke-width="8" d="M11 180c0-13.255 10.745-24 24-24s24 10.745 24 24-10.745 24-24 24-24-10.745-24-24Z"/><g filter="url(#q)"><circle cx="45" cy="78" r="16" fill="#9BCEF1"/></g><circle cx="45" cy="78" r="16" stroke="#1F2024" stroke-width="8"/><g filter="url(#r)"><path fill="#E2E2E2" d="M128 144.062c22.667-17.432 59.333-23.443 67.667-3.907-7.154 17.948-41.859 21.869-67.667 3.907Z"/><path stroke="#1F2024" stroke-linecap="round" stroke-linejoin="round" stroke-width="8" d="M128 144.062c22.667-17.432 59.333-23.443 67.667-3.907-7.154 17.948-41.859 21.869-67.667 3.907Z"/></g><path stroke="#1F2024" stroke-linecap="round" stroke-linejoin="round" stroke-width="8" d="M116 138.711c18.667-25.247 59.333-33.362 83.333-9.317M164 168.312c14.934.13 22.636-.949 34.333-6.312"/><circle cx="180" cy="140" r="4" fill="#fff"/><g filter="url(#s)"><path fill="#E2E2E2" d="M307.245 137.45c9.14-16.211 35.964-9.961 54.755 6.612-17.639 14.079-37.044 14.714-48.911 5.688-.667-5.988-5.844-12.3-5.844-12.3Z"/><path stroke="#1F2024" stroke-linecap="round" stroke-linejoin="round" stroke-width="8" d="M307.245 137.45c9.14-16.211 35.964-9.961 54.755 6.612-17.639 14.079-37.044 14.714-48.911 5.688-.667-5.988-5.844-12.3-5.844-12.3Z"/></g><path stroke="#1F2024" stroke-linecap="round" stroke-linejoin="round" stroke-width="8" d="M365 138.711c-14.635-25.247-46.517-33.362-65.333-9.317M342 169.144c-3.029.03-5.716-.005-8.186-.144"/><circle cx="338" cy="140" r="4" fill="#fff"/><path stroke="#1F2024" stroke-linecap="round" stroke-linejoin="round" stroke-width="8" d="M237.333 131c-3.333.205-9.333.382-9.333 8m9.333-8h28m-28 0c-5 0-9.333-.874-9.333-8m37.333 8h20c5.667 0 7.667-1.365 7.667-8m-27.667 8v-8M233 155c-13.255 0-24 10.745-24 24s10.745 24 24 24c7.952 0 15.001-3.867 19.368-9.824m0 0c3.793 5.909 10.422 9.824 17.965 9.824h21.334c2.982 0 5.822-.612 8.4-1.718m-47.699-8.106c-.623-2.225-4.268-6.676-9.868-6.676m57.567 14.782A23.933 23.933 0 0 0 309 203c13.255 0 24-10.745 24-24 0-11.892-8.649-21.764-20-23.668C313 142.741 301.575 131 287.667 131h-21.334c-4.611.222-13.833 2.733-13.833 11m47.567 59.282C305.211 198.022 314.5 192 314 182"/><path stroke="#fff" stroke-linecap="round" stroke-linejoin="round" stroke-width="8" d="M237 166.5c-6 0-11 5.5-11 10.5m95.5-1c-.5-3.5-2.5-7-4.5-7m-16.516-12c0-8.837-5.932-15-14.484-15m16.5 38c.185 3.815-1.5 7-3.921 8.5"/><defs><filter id="j" width="356" height="205" x="14" y="2" color-interpolation-filters="sRGB" filterUnits="userSpaceOnUse"><feFlood flood-opacity="0" result="BackgroundImageFix"/><feBlend in="SourceGraphic" in2="BackgroundImageFix" result="shape"/><feColorMatrix in="SourceAlpha" result="hardAlpha" values="0 0 0 0 0 0 0 0 0 0 0 0 0 0 0 0 0 0 127 0"/><feOffset dx="-16" dy="8"/><feComposite in2="hardAlpha" k2="-1" k3="1" operator="arithmetic"/><feColorMatrix values="0 0 0 0 1 0 0 0 0 1 0 0 0 0 1 0 0 0 0.25 0"/><feBlend in2="shape" result="effect1_innerShadow"/></filter><filter id="a" width="332" height="216" x="27" y="121" color-interpolation-filters="sRGB" filterUnits="userSpaceOnUse"><feFlood flood-opacity="0" result="BackgroundImageFix"/><feBlend in="SourceGraphic" in2="BackgroundImageFix" result="shape"/><feColorMatrix in="SourceAlpha" result="hardAlpha" values="0 0 0 0 0 0 0 0 0 0 0 0 0 0 0 0 0 0 127 0"/><feOffset dx="-24" dy="8"/><feComposite in2="hardAlpha" k2="-1" k3="1" operator="arithmetic"/><feColorMatrix values="0 0 0 0 1 0 0 0 0 1 0 0 0 0 1 0 0 0 0.25 0"/><feBlend in2="shape" result="effect1_innerShadow"/></filter><filter id="c" width="54" height="216" x="53.667" y="121" color-interpolation-filters="sRGB" filterUnits="userSpaceOnUse"><feFlood flood-opacity="0" result="BackgroundImageFix"/><feBlend in="SourceGraphic" in2="BackgroundImageFix" result="shape"/><feColorMatrix in="SourceAlpha" result="hardAlpha" values="0 0 0 0 0 0 0 0 0 0 0 0 0 0 0 0 0 0 127 0"/><feOffset dy="-16"/><feComposite in2="hardAlpha" k2="-1" k3="1" operator="arithmetic"/><feColorMatrix values="0 0 0 0 0 0 0 0 0 0 0 0 0 0 0 0 0 0 0.25 0"/><feBlend in2="shape" result="effect1_innerShadow"/><feColorMatrix in="SourceAlpha" result="hardAlpha" values="0 0 0 0 0 0 0 0 0 0 0 0 0 0 0 0 0 0 127 0"/><feOffset dy="16"/><feComposite in2="hardAlpha" k2="-1" k3="1" operator="arithmetic"/><feColorMatrix values="0 0 0 0 1 0 0 0 0 1 0 0 0 0 1 0 0 0 0.25 0"/><feBlend in2="effect1_innerShadow" result="effect2_innerShadow"/></filter><filter id="d" width="54" height="216" x="80.333" y="121" color-interpolation-filters="sRGB" filterUnits="userSpaceOnUse"><feFlood flood-opacity="0" result="BackgroundImageFix"/><feBlend in="SourceGraphic" in2="BackgroundImageFix" result="shape"/><feColorMatrix in="SourceAlpha" result="hardAlpha" values="0 0 0 0 0 0 0 0 0 0 0 0 0 0 0 0 0 0 127 0"/><feOffset dy="-16"/><feComposite in2="hardAlpha" k2="-1" k3="1" operator="arithmetic"/><feColorMatrix values="0 0 0 0 0 0 0 0 0 0 0 0 0 0 0 0 0 0 0.25 0"/><feBlend in2="shape" result="effect1_innerShadow"/><feColorMatrix in="SourceAlpha" result="hardAlpha" values="0 0 0 0 0 0 0 0 0 0 0 0 0 0 0 0 0 0 127 0"/><feOffset dy="16"/><feComposite in2="hardAlpha" k2="-1" k3="1" operator="arithmetic"/><feColorMatrix values="0 0 0 0 1 0 0 0 0 1 0 0 0 0 1 0 0 0 0.25 0"/><feBlend in2="effect1_innerShadow" result="effect2_innerShadow"/></filter><filter id="e" width="54" height="216" x="107" y="121" color-interpolation-filters="sRGB" filterUnits="userSpaceOnUse"><feFlood flood-opacity="0" result="BackgroundImageFix"/><feBlend in="SourceGraphic" in2="BackgroundImageFix" result="shape"/><feColorMatrix in="SourceAlpha" result="hardAlpha" values="0 0 0 0 0 0 0 0 0 0 0 0 0 0 0 0 0 0 127 0"/><feOffset dy="-16"/><feComposite in2="hardAlpha" k2="-1" k3="1" operator="arithmetic"/><feColorMatrix values="0 0 0 0 0 0 0 0 0 0 0 0 0 0 0 0 0 0 0.25 0"/><feBlend in2="shape" result="effect1_innerShadow"/><feColorMatrix in="SourceAlpha" result="hardAlpha" values="0 0 0 0 0 0 0 0 0 0 0 0 0 0 0 0 0 0 127 0"/><feOffset dy="16"/><feComposite in2="hardAlpha" k2="-1" k3="1" operator="arithmetic"/><feColorMatrix values="0 0 0 0 1 0 0 0 0 1 0 0 0 0 1 0 0 0 0.25 0"/><feBlend in2="effect1_innerShadow" result="effect2_innerShadow"/></filter><filter id="f" width="368.089" height="84.829" x="0" y="166.975" color-interpolation-filters="sRGB" filterUnits="userSpaceOnUse"><feFlood flood-opacity="0" result="BackgroundImageFix"/><feColorMatrix in="SourceAlpha" result="hardAlpha" values="0 0 0 0 0 0 0 0 0 0 0 0 0 0 0 0 0 0 127 0"/><feOffset dx="-4" dy="4"/><feColorMatrix values="0 0 0 0 0 0 0 0 0 0 0 0 0 0 0 0 0 0 0.25 0"/><feBlend in2="BackgroundImageFix" result="effect1_dropShadow"/><feBlend in="SourceGraphic" in2="effect1_dropShadow" result="shape"/></filter><filter id="g" width="224.768" height="80.829" x="143.321" y="166.975" color-interpolation-filters="sRGB" filterUnits="userSpaceOnUse"><feFlood flood-opacity="0" result="BackgroundImageFix"/><feBlend in="SourceGraphic" in2="BackgroundImageFix" result="shape"/><feColorMatrix in="SourceAlpha" result="hardAlpha" values="0 0 0 0 0 0 0 0 0 0 0 0 0 0 0 0 0 0 127 0"/><feOffset dy="-16"/><feComposite in2="hardAlpha" k2="-1" k3="1" operator="arithmetic"/><feColorMatrix values="0 0 0 0 0 0 0 0 0 0 0 0 0 0 0 0 0 0 0.25 0"/><feBlend in2="shape" result="effect1_innerShadow"/><feColorMatrix in="SourceAlpha" result="hardAlpha" values="0 0 0 0 0 0 0 0 0 0 0 0 0 0 0 0 0 0 127 0"/><feOffset dy="16"/><feComposite in2="hardAlpha" k2="-1" k3="1" operator="arithmetic"/><feColorMatrix values="0 0 0 0 1 0 0 0 0 1 0 0 0 0 1 0 0 0 0.25 0"/><feBlend in2="effect1_innerShadow" result="effect2_innerShadow"/></filter><filter id="h" width="99" height="37.5" x="200" y="268.5" color-interpolation-filters="sRGB" filterUnits="userSpaceOnUse"><feFlood flood-opacity="0" result="BackgroundImageFix"/><feBlend in="SourceGraphic" in2="BackgroundImageFix" result="shape"/><feColorMatrix in="SourceAlpha" result="hardAlpha" values="0 0 0 0 0 0 0 0 0 0 0 0 0 0 0 0 0 0 127 0"/><feOffset dx="-24" dy="8"/><feComposite in2="hardAlpha" k2="-1" k3="1" operator="arithmetic"/><feColorMatrix values="0 0 0 0 1 0 0 0 0 1 0 0 0 0 1 0 0 0 0.25 0"/><feBlend in2="shape" result="effect1_innerShadow"/></filter><filter id="i" width="99" height="34.5" x="200" y="242" color-interpolation-filters="sRGB" filterUnits="userSpaceOnUse"><feFlood flood-opacity="0" result="BackgroundImageFix"/><feBlend in="SourceGraphic" in2="BackgroundImageFix" result="shape"/><feColorMatrix in="SourceAlpha" result="hardAlpha" values="0 0 0 0 0 0 0 0 0 0 0 0 0 0 0 0 0 0 127 0"/><feOffset dx="-24" dy="8"/><feComposite in2="hardAlpha" k2="-1" k3="1" operator="arithmetic"/><feColorMatrix values="0 0 0 0 1 0 0 0 0 1 0 0 0 0 1 0 0 0 0.25 0"/><feBlend in2="shape" result="effect1_innerShadow"/></filter><filter id="b" width="54" height="216" x="27" y="121" color-interpolation-filters="sRGB" filterUnits="userSpaceOnUse"><feFlood flood-opacity="0" result="BackgroundImageFix"/><feBlend in="SourceGraphic" in2="BackgroundImageFix" result="shape"/><feColorMatrix in="SourceAlpha" result="hardAlpha" values="0 0 0 0 0 0 0 0 0 0 0 0 0 0 0 0 0 0 127 0"/><feOffset dy="-16"/><feComposite in2="hardAlpha" k2="-1" k3="1" operator="arithmetic"/><feColorMatrix values="0 0 0 0 0 0 0 0 0 0 0 0 0 0 0 0 0 0 0.25 0"/><feBlend in2="shape" result="effect1_innerShadow"/><feColorMatrix in="SourceAlpha" result="hardAlpha" values="0 0 0 0 0 0 0 0 0 0 0 0 0 0 0 0 0 0 127 0"/><feOffset dy="16"/><feComposite in2="hardAlpha" k2="-1" k3="1" operator="arithmetic"/><feColorMatrix values="0 0 0 0 1 0 0 0 0 1 0 0 0 0 1 0 0 0 0.25 0"/><feBlend in2="effect1_innerShadow" result="effect2_innerShadow"/></filter><filter id="k" width="179.573" height="56.802" x="124" y="0" color-interpolation-filters="sRGB" filterUnits="userSpaceOnUse"><feFlood flood-opacity="0" result="BackgroundImageFix"/><feColorMatrix in="SourceAlpha" result="hardAlpha" values="0 0 0 0 0 0 0 0 0 0 0 0 0 0 0 0 0 0 127 0"/><feOffset dx="-4" dy="4"/><feColorMatrix values="0 0 0 0 0 0 0 0 0 0 0 0 0 0 0 0 0 0 0.25 0"/><feBlend in2="BackgroundImageFix" result="effect1_dropShadow"/><feBlend in="SourceGraphic" in2="effect1_dropShadow" result="shape"/><feColorMatrix in="SourceAlpha" result="hardAlpha" values="0 0 0 0 0 0 0 0 0 0 0 0 0 0 0 0 0 0 127 0"/><feOffset dx="16"/><feComposite in2="hardAlpha" k2="-1" k3="1" operator="arithmetic"/><feColorMatrix values="0 0 0 0 0 0 0 0 0 0 0 0 0 0 0 0 0 0 0.25 0"/><feBlend in2="shape" result="effect2_innerShadow"/><feColorMatrix in="SourceAlpha" result="hardAlpha" values="0 0 0 0 0 0 0 0 0 0 0 0 0 0 0 0 0 0 127 0"/><feOffset dx="-16" dy="8"/><feComposite in2="hardAlpha" k2="-1" k3="1" operator="arithmetic"/><feColorMatrix values="0 0 0 0 1 0 0 0 0 1 0 0 0 0 1 0 0 0 0.25 0"/><feBlend in2="effect2_innerShadow" result="effect3_innerShadow"/></filter><filter id="l" width="364" height="68" x="9" y="44" color-interpolation-filters="sRGB" filterUnits="userSpaceOnUse"><feFlood flood-opacity="0" result="BackgroundImageFix"/><feBlend in="SourceGraphic" in2="BackgroundImageFix" result="shape"/><feColorMatrix in="SourceAlpha" result="hardAlpha" values="0 0 0 0 0 0 0 0 0 0 0 0 0 0 0 0 0 0 127 0"/><feOffset dx="13" dy="-12"/><feComposite in2="hardAlpha" k2="-1" k3="1" operator="arithmetic"/><feColorMatrix values="0 0 0 0 0 0 0 0 0 0 0 0 0 0 0 0 0 0 0.25 0"/><feBlend in2="shape" result="effect1_innerShadow"/><feColorMatrix in="SourceAlpha" result="hardAlpha" values="0 0 0 0 0 0 0 0 0 0 0 0 0 0 0 0 0 0 127 0"/><feOffset dx="-16" dy="8"/><feComposite in2="hardAlpha" k2="-1" k3="1" operator="arithmetic"/><feColorMatrix values="0 0 0 0 1 0 0 0 0 1 0 0 0 0 1 0 0 0 0.25 0"/><feBlend in2="effect1_innerShadow" result="effect2_innerShadow"/></filter><filter id="m" width="115" height="76" x="200" y="41" color-interpolation-filters="sRGB" filterUnits="userSpaceOnUse"><feFlood flood-opacity="0" result="BackgroundImageFix"/><feColorMatrix in="SourceAlpha" result="hardAlpha" values="0 0 0 0 0 0 0 0 0 0 0 0 0 0 0 0 0 0 127 0"/><feOffset dx="-4" dy="4"/><feColorMatrix values="0 0 0 0 0 0 0 0 0 0 0 0 0 0 0 0 0 0 0.25 0"/><feBlend in2="BackgroundImageFix" result="effect1_dropShadow"/><feBlend in="SourceGraphic" in2="effect1_dropShadow" result="shape"/><feColorMatrix in="SourceAlpha" result="hardAlpha" values="0 0 0 0 0 0 0 0 0 0 0 0 0 0 0 0 0 0 127 0"/><feOffset dx="16"/><feComposite in2="hardAlpha" k2="-1" k3="1" operator="arithmetic"/><feColorMatrix values="0 0 0 0 0 0 0 0 0 0 0 0 0 0 0 0 0 0 0.25 0"/><feBlend in2="shape" result="effect2_innerShadow"/><feColorMatrix in="SourceAlpha" result="hardAlpha" values="0 0 0 0 0 0 0 0 0 0 0 0 0 0 0 0 0 0 127 0"/><feOffset dx="-16" dy="8"/><feComposite in2="hardAlpha" k2="-1" k3="1" operator="arithmetic"/><feColorMatrix values="0 0 0 0 1 0 0 0 0 1 0 0 0 0 1 0 0 0 0.25 0"/><feBlend in2="effect2_innerShadow" result="effect3_innerShadow"/></filter><filter id="n" width="81.531" height="136" x="14" y="104" color-interpolation-filters="sRGB" filterUnits="userSpaceOnUse"><feFlood flood-opacity="0" result="BackgroundImageFix"/><feBlend in="SourceGraphic" in2="BackgroundImageFix" result="shape"/><feColorMatrix in="SourceAlpha" result="hardAlpha" values="0 0 0 0 0 0 0 0 0 0 0 0 0 0 0 0 0 0 127 0"/><feOffset dx="16"/><feComposite in2="hardAlpha" k2="-1" k3="1" operator="arithmetic"/><feColorMatrix values="0 0 0 0 0 0 0 0 0 0 0 0 0 0 0 0 0 0 0.25 0"/><feBlend in2="shape" result="effect1_innerShadow"/></filter><filter id="o" width="68" height="56" x="7" y="152" color-interpolation-filters="sRGB" filterUnits="userSpaceOnUse"><feFlood flood-opacity="0" result="BackgroundImageFix"/><feBlend in="SourceGraphic" in2="BackgroundImageFix" result="shape"/><feColorMatrix in="SourceAlpha" result="hardAlpha" values="0 0 0 0 0 0 0 0 0 0 0 0 0 0 0 0 0 0 127 0"/><feOffset dx="-24" dy="8"/><feComposite in2="hardAlpha" k2="-1" k3="1" operator="arithmetic"/><feColorMatrix values="0 0 0 0 1 0 0 0 0 1 0 0 0 0 1 0 0 0 0.25 0"/><feBlend in2="shape" result="effect1_innerShadow"/></filter><filter id="p" width="56" height="56" x="7" y="152" color-interpolation-filters="sRGB" filterUnits="userSpaceOnUse"><feFlood flood-opacity="0" result="BackgroundImageFix"/><feBlend in="SourceGraphic" in2="BackgroundImageFix" result="shape"/><feColorMatrix in="SourceAlpha" result="hardAlpha" values="0 0 0 0 0 0 0 0 0 0 0 0 0 0 0 0 0 0 127 0"/><feOffset dx="16"/><feComposite in2="hardAlpha" k2="-1" k3="1" operator="arithmetic"/><feColorMatrix values="0 0 0 0 0 0 0 0 0 0 0 0 0 0 0 0 0 0 0.25 0"/><feBlend in2="shape" result="effect1_innerShadow"/></filter><filter id="q" width="40" height="40" x="25" y="58" color-interpolation-filters="sRGB" filterUnits="userSpaceOnUse"><feFlood flood-opacity="0" result="BackgroundImageFix"/><feBlend in="SourceGraphic" in2="BackgroundImageFix" result="shape"/><feColorMatrix in="SourceAlpha" result="hardAlpha" values="0 0 0 0 0 0 0 0 0 0 0 0 0 0 0 0 0 0 127 0"/><feOffset dx="16"/><feComposite in2="hardAlpha" k2="-1" k3="1" operator="arithmetic"/><feColorMatrix values="0 0 0 0 0 0 0 0 0 0 0 0 0 0 0 0 0 0 0.25 0"/><feBlend in2="shape" result="effect1_innerShadow"/><feColorMatrix in="SourceAlpha" result="hardAlpha" values="0 0 0 0 0 0 0 0 0 0 0 0 0 0 0 0 0 0 127 0"/><feOffset dx="-24" dy="8"/><feComposite in2="hardAlpha" k2="-1" k3="1" operator="arithmetic"/><feColorMatrix values="0 0 0 0 1 0 0 0 0 1 0 0 0 0 1 0 0 0 0.25 0"/><feBlend in2="effect1_innerShadow" result="effect2_innerShadow"/></filter><filter id="r" width="83.667" height="35.728" x="120" y="124.005" color-interpolation-filters="sRGB" filterUnits="userSpaceOnUse"><feFlood flood-opacity="0" result="BackgroundImageFix"/><feColorMatrix in="SourceAlpha" result="hardAlpha" values="0 0 0 0 0 0 0 0 0 0 0 0 0 0 0 0 0 0 127 0"/><feOffset dx="-4"/><feColorMatrix values="0 0 0 0 1 0 0 0 0 1 0 0 0 0 1 0 0 0 0.25 0"/><feBlend in2="BackgroundImageFix" result="effect1_dropShadow"/><feColorMatrix in="SourceAlpha" result="hardAlpha" values="0 0 0 0 0 0 0 0 0 0 0 0 0 0 0 0 0 0 127 0"/><feOffset dx="4"/><feColorMatrix values="0 0 0 0 0 0 0 0 0 0 0 0 0 0 0 0 0 0 0.25 0"/><feBlend in2="effect1_dropShadow" result="effect2_dropShadow"/><feBlend in="SourceGraphic" in2="effect2_dropShadow" result="shape"/><feColorMatrix in="SourceAlpha" result="hardAlpha" values="0 0 0 0 0 0 0 0 0 0 0 0 0 0 0 0 0 0 127 0"/><feOffset dx="-4"/><feComposite in2="hardAlpha" k2="-1" k3="1" operator="arithmetic"/><feColorMatrix values="0 0 0 0 0 0 0 0 0 0 0 0 0 0 0 0 0 0 0.25 0"/><feBlend in2="shape" result="effect3_innerShadow"/></filter><filter id="s" width="70.755" height="35.733" x="299.245" y="124.007" color-interpolation-filters="sRGB" filterUnits="userSpaceOnUse"><feFlood flood-opacity="0" result="BackgroundImageFix"/><feColorMatrix in="SourceAlpha" result="hardAlpha" values="0 0 0 0 0 0 0 0 0 0 0 0 0 0 0 0 0 0 127 0"/><feOffset dx="-4"/><feColorMatrix values="0 0 0 0 1 0 0 0 0 1 0 0 0 0 1 0 0 0 0.25 0"/><feBlend in2="BackgroundImageFix" result="effect1_dropShadow"/><feColorMatrix in="SourceAlpha" result="hardAlpha" values="0 0 0 0 0 0 0 0 0 0 0 0 0 0 0 0 0 0 127 0"/><feOffset dx="4"/><feColorMatrix values="0 0 0 0 0 0 0 0 0 0 0 0 0 0 0 0 0 0 0.25 0"/><feBlend in2="effect1_dropShadow" result="effect2_dropShadow"/><feBlend in="SourceGraphic" in2="effect2_dropShadow" result="shape"/><feColorMatrix in="SourceAlpha" result="hardAlpha" values="0 0 0 0 0 0 0 0 0 0 0 0 0 0 0 0 0 0 127 0"/><feOffset dx="-4"/><feComposite in2="hardAlpha" k2="-1" k3="1" operator="arithmetic"/><feColorMatrix values="0 0 0 0 0 0 0 0 0 0 0 0 0 0 0 0 0 0 0.25 0"/><feBlend in2="shape" result="effect3_innerShadow"/></filter></defs></svg>