<svg xmlns="http://www.w3.org/2000/svg" width="374" height="400" fill="none"><g filter="url(#a)"><path fill="#FF5252" d="M36 169c0-13.255 10.745-24 24-24h276c13.255 0 24 10.745 24 24v160c0 13.255-10.745 24-24 24H60c-13.255 0-24-10.745-24-24V169Z"/></g><path stroke="#1F2024" stroke-width="8" d="M36 169c0-13.255 10.745-24 24-24h276c13.255 0 24 10.745 24 24v160c0 13.255-10.745 24-24 24H60c-13.255 0-24-10.745-24-24V169Z"/><g filter="url(#b)"><path fill="#0022D3" fill-opacity=".8" fill-rule="evenodd" d="M60 145c-13.255 0-24 10.745-24 24v160c0 13.255 10.745 24 24 24h26c-13.255 0-24-10.745-24-24V169c0-13.255 10.745-24 24-24H60Z" clip-rule="evenodd"/></g><path fill="#1F2024" d="M40 169c0-11.046 8.954-20 20-20v-8c-15.464 0-28 12.536-28 28h8Zm0 160V169h-8v160h8Zm20 20c-11.046 0-20-8.954-20-20h-8c0 15.464 12.536 28 28 28v-8Zm26 0H60v8h26v-8Zm0 0c-11.046 0-20-8.954-20-20h-8c0 15.464 12.536 28 28 28v-8Zm-20-20V169h-8v160h8Zm0-160c0-11.046 8.954-20 20-20v-8c-15.464 0-28 12.536-28 28h8Zm-6-20h26v-8H60v8Z"/><g filter="url(#c)"><path fill="#0022D3" fill-opacity=".7" fill-rule="evenodd" d="M86.667 145c-13.255 0-24 10.745-24 24v160c0 13.255 10.745 24 24 24h26c-13.255 0-24-10.745-24-24V169c0-13.255 10.745-24 24-24h-26Z" clip-rule="evenodd"/></g><path fill="#1F2024" d="M66.667 169c0-11.046 8.954-20 20-20v-8c-15.464 0-28 12.536-28 28h8Zm0 160V169h-8v160h8Zm20 20c-11.046 0-20-8.954-20-20h-8c0 15.464 12.536 28 28 28v-8Zm26 0h-26v8h26v-8Zm0 0c-11.046 0-20-8.954-20-20h-8c0 15.464 12.536 28 28 28v-8Zm-20-20V169h-8v160h8Zm0-160c0-11.046 8.954-20 20-20v-8c-15.464 0-28 12.536-28 28h8Zm-6-20h26v-8h-26v8Z"/><g filter="url(#d)"><path fill="#0022D3" fill-opacity=".5" fill-rule="evenodd" d="M113.333 145c-13.255 0-24 10.745-24 24v160c0 13.255 10.745 24 24 24h26c-13.255 0-24-10.745-24-24V169c0-13.255 10.745-24 24-24h-26Z" clip-rule="evenodd"/></g><path fill="#1F2024" d="M93.333 169c0-11.046 8.955-20 20-20v-8c-15.464 0-28 12.536-28 28h8Zm0 160V169h-8v160h8Zm20 20c-11.045 0-20-8.954-20-20h-8c0 15.464 12.536 28 28 28v-8Zm26 0h-26v8h26v-8Zm0 0c-11.045 0-20-8.954-20-20h-8c0 15.464 12.536 28 28 28v-8Zm-20-20V169h-8v160h8Zm0-160c0-11.046 8.955-20 20-20v-8c-15.464 0-28 12.536-28 28h8Zm-6-20h26v-8h-26v8Z"/><g filter="url(#e)"><path fill="#0022D3" fill-opacity=".3" fill-rule="evenodd" d="M140 145c-13.255 0-24 10.745-24 24v160c0 13.255 10.745 24 24 24h26c-13.255 0-24-10.745-24-24V169c0-13.255 10.745-24 24-24h-26Z" clip-rule="evenodd"/></g><path fill="#1F2024" d="M120 169c0-11.046 8.954-20 20-20v-8c-15.464 0-28 12.536-28 28h8Zm0 160V169h-8v160h8Zm20 20c-11.046 0-20-8.954-20-20h-8c0 15.464 12.536 28 28 28v-8Zm26 0h-26v8h26v-8Zm0 0c-11.046 0-20-8.954-20-20h-8c0 15.464 12.536 28 28 28v-8Zm-20-20V169h-8v160h8Zm0-160c0-11.046 8.954-20 20-20v-8c-15.464 0-28 12.536-28 28h8Zm-6-20h26v-8h-26v8Z"/><g filter="url(#f)"><path fill="#F42E3A" d="M164 195h28v64h-28z"/><path fill="#F93B84" d="M192 195h28v64h-28z"/><path fill="#86BC5A" d="M220 195h28v64h-28z"/><path fill="#45BBE8" d="M248 195h28v64h-28z"/><path fill="#FCF155" d="M276 195h28v64h-28z"/><path fill="#fff" d="M304 195h28v64h-28z"/><path fill="#1F2024" d="M180 199h136v-8H180v8Zm148 12v32h8v-32h-8Zm-12 44H180v8h136v-8Zm-148-12v-32h-8v32h8Zm12 12c-6.627 0-12-5.373-12-12h-8c0 11.046 8.954 20 20 20v-8Zm148-12c0 6.627-5.373 12-12 12v8c11.046 0 20-8.954 20-20h-8Zm-12-44c6.627 0 12 5.373 12 12h8c0-11.046-8.954-20-20-20v8Zm-136-8c-11.046 0-20 8.954-20 20h8c0-6.627 5.373-12 12-12v-8Z"/></g><g filter="url(#g)"><g filter="url(#h)"><path fill="#FF5252" d="M37 237c0-17.673 14.327-32 32-32h16c17.673 0 32 14.327 32 32 0 17.673-14.327 32-32 32H69c-17.673 0-32-14.327-32-32Z"/></g><path stroke="#1F2024" stroke-width="8" d="M37 237c0-17.673 14.327-32 32-32h16c17.673 0 32 14.327 32 32 0 17.673-14.327 32-32 32H69c-17.673 0-32-14.327-32-32Z"/><g filter="url(#i)"><path fill="#E22C2C" d="M37 237c0-17.673 14.327-32 32-32 17.673 0 32 14.327 32 32 0 17.673-14.327 32-32 32-17.673 0-32-14.327-32-32Z"/></g><path stroke="#1F2024" stroke-width="8" d="M37 237c0-17.673 14.327-32 32-32 17.673 0 32 14.327 32 32 0 17.673-14.327 32-32 32-17.673 0-32-14.327-32-32ZM78 267v40"/><g filter="url(#j)"><path fill="#EB0D18" d="m74 293 36 48-36 48-36-48 36-48Z"/></g><path stroke="#1F2024" stroke-width="8" d="m74 293 36 48-36 48-36-48 36-48Z"/></g><path stroke="#1F2024" stroke-linecap="round" stroke-linejoin="round" stroke-width="8" d="M219.307 286.706c16.295 5.906 24.713 6.703 38.726 4.608"/><path fill="#1F2024" d="M207 294a4 4 0 0 0 0 8v-8Zm4.592 3.087-1.531-3.696 1.531 3.696Zm3.893-2.602 2.829 2.829-2.829-2.829Zm2.602-3.893-3.696-1.531 3.696 1.531Zm0-9.184-3.696 1.531 3.696-1.531Zm-2.602-3.893 2.829-2.829-2.829 2.829Zm-3.893-2.602 1.531-3.695-1.531 3.695ZM207 302c2.101 0 4.182-.414 6.123-1.218l-3.062-7.391c-.97.402-2.01.609-3.061.609v8Zm6.123-1.218a16.016 16.016 0 0 0 5.191-3.468l-5.657-5.657a7.997 7.997 0 0 1-2.596 1.734l3.062 7.391Zm5.191-3.468a16.016 16.016 0 0 0 3.468-5.191l-7.391-3.062a7.997 7.997 0 0 1-1.734 2.596l5.657 5.657Zm3.468-5.191A16.002 16.002 0 0 0 223 286h-8a7.995 7.995 0 0 1-.609 3.061l7.391 3.062ZM223 286c0-2.101-.414-4.182-1.218-6.123l-7.391 3.062c.402.97.609 2.01.609 3.061h8Zm-1.218-6.123a16.016 16.016 0 0 0-3.468-5.191l-5.657 5.657a7.997 7.997 0 0 1 1.734 2.596l7.391-3.062Zm-3.468-5.191a16.016 16.016 0 0 0-5.191-3.468l-3.062 7.391a7.997 7.997 0 0 1 2.596 1.734l5.657-5.657Zm-5.191-3.468A16.002 16.002 0 0 0 207 270v8c1.051 0 2.091.207 3.061.609l3.062-7.391Z"/><path fill="#F9E174" stroke="#1F2024" stroke-width="8" d="M240.451 4c-52.261 0-59.624 38.895-98.336 67.186-11.6 8.478-24.465 14.27-39.622 14.763-23.11.752-60.527-8.427-68.512-10.464-1.037-.265-2.062-.487-3.132-.528C16.39 74.402 4 91.098 4 106.686 4 139.498 59.403 145 81.3 145h245.547c50.364 0 56.828-68.09 13.411-59.897-16.497 3.114-33.741-7.568-37.618-24.697C295.137 27.265 275.788 4 240.451 4Z"/><path fill="#4A4A4E" stroke="#1F2024" stroke-width="8" d="M367.301 117.571c1.028-10.258-11.661-13.983-25.347-11.404-15.403 2.903-45.277-10.704-48.897-26.676-5.551-24.486-15.1-54.238-43.749-57.277-19.269-2.044-38.612 3.703-53.425 18.784-4.815 4.901-9.712 10.345-14.749 15.944-20.865 23.195-44.123 49.049-73.804 50.013-21.37.695-55.842-7.693-63.746-9.7-14.606-3.709-28.217 11.543-28.217 26.606C15.367 140.053 70.634 145 81.3 145h245.548c22.13 0 35.784-13.262 40.454-27.429Z"/><mask id="k" width="88" height="88" x="203.937" y="46.244" fill="#000" maskUnits="userSpaceOnUse"><path fill="#fff" d="M203.937 46.244h88v88h-88z"/><path fill-rule="evenodd" d="M215.94 61.955a1.001 1.001 0 0 0-1.415 0l-2.295 2.296a1 1 0 0 0 0 1.414l6.932 6.932a1 1 0 0 0 1.414 0l1.831-1.831a1.001 1.001 0 0 1 1.415 0l4.149 4.15a1 1 0 0 0 1.414 0l3.373-3.373a1 1 0 0 0 0-1.414l-4.15-4.15a1 1 0 0 1 0-1.414l1.682-1.682a1 1 0 0 0 0-1.414l-6.932-6.932a1 1 0 0 0-1.414 0l-2.295 2.295a1 1 0 0 0 0 1.414l3.223 3.223a1 1 0 0 1 0 1.414l-2.295 2.295a1 1 0 0 1-1.414 0l-3.223-3.223Zm63.089 0a1 1 0 0 1 1.414 0l2.296 2.296c.39.39.39 1.024 0 1.414l-6.932 6.932a1 1 0 0 1-1.415 0l-1.831-1.831a1 1 0 0 0-1.414 0l-4.15 4.15a1 1 0 0 1-1.414 0l-3.372-3.373a1 1 0 0 1 0-1.414l4.15-4.15c.39-.39.39-1.023 0-1.414l-1.682-1.682a1 1 0 0 1 0-1.414l6.931-6.932a1.001 1.001 0 0 1 1.415 0l2.295 2.295a1 1 0 0 1 0 1.414l-3.223 3.223a1 1 0 0 0 0 1.414l2.295 2.295a1 1 0 0 0 1.414 0l3.223-3.222Zm-66.799 51.963a.999.999 0 0 0 0 1.414l2.295 2.295a1 1 0 0 0 1.415 0l3.223-3.222a.999.999 0 0 1 1.414 0l2.295 2.295a1 1 0 0 1 0 1.414l-3.223 3.223a.999.999 0 0 0 0 1.414l2.295 2.295a1 1 0 0 0 1.414 0l6.932-6.932a1 1 0 0 0 0-1.414l-1.682-1.682a1 1 0 0 1 0-1.415l4.15-4.149a1 1 0 0 0 0-1.414l-3.373-3.373a1 1 0 0 0-1.414 0l-4.149 4.15a1 1 0 0 1-1.415 0l-1.831-1.831a.999.999 0 0 0-1.414 0l-6.932 6.932Zm66.799 3.709a.999.999 0 0 0 1.414 0l2.296-2.295a1 1 0 0 0 0-1.414l-6.932-6.932a1 1 0 0 0-1.415 0l-1.831 1.831a.999.999 0 0 1-1.414 0l-4.15-4.15a1 1 0 0 0-1.414 0l-3.372 3.373a.999.999 0 0 0 0 1.414l4.15 4.149c.39.391.39 1.024 0 1.415l-1.682 1.682a.999.999 0 0 0 0 1.414l6.931 6.932c.391.39 1.024.39 1.415 0l2.294-2.295a.999.999 0 0 0 0-1.414l-3.222-3.223a.999.999 0 0 1 0-1.414l2.295-2.295a.999.999 0 0 1 1.414 0l3.223 3.222ZM261.852 75a1 1 0 0 0-1-1H234a1 1 0 0 0-1 1v15.825a1 1 0 0 0 1 1h.785a1 1 0 0 1 1 1V95.5a1 1 0 0 0 1 1h2.053a1 1 0 0 0 1-1v-2.674a1 1 0 0 1 1-1h.505a1 1 0 0 1 1 1V95.5a1 1 0 0 0 1 1h2.054a1 1 0 0 0 1-1v-2.674a1 1 0 0 1 1-1h.503a1 1 0 0 1 1 1V95.5a1 1 0 0 0 1 1h2.053a1 1 0 0 0 1-1v-2.674a1 1 0 0 1 1-1h.505a1 1 0 0 1 1 1V95.5a1 1 0 0 0 1 1h2.053a1 1 0 0 0 1-1v-2.674a1 1 0 0 1 1-1h.341a1 1 0 0 0 1-1V75Zm-2.75 26.61a1 1 0 0 0-1-1h-21.606a1 1 0 0 0-1 1v3.246a1 1 0 0 0 1 1h21.606a1 1 0 0 0 1-1v-3.246ZM257.143 80a1 1 0 0 0-1-1H239a1 1 0 0 0-1 1v5.716a1 1 0 0 0 1 1h17.143a1 1 0 0 0 1-1V80Z" clip-rule="evenodd"/></mask><path fill="#fff" fill-rule="evenodd" d="M215.94 61.955a1.001 1.001 0 0 0-1.415 0l-2.295 2.296a1 1 0 0 0 0 1.414l6.932 6.932a1 1 0 0 0 1.414 0l1.831-1.831a1.001 1.001 0 0 1 1.415 0l4.149 4.15a1 1 0 0 0 1.414 0l3.373-3.373a1 1 0 0 0 0-1.414l-4.15-4.15a1 1 0 0 1 0-1.414l1.682-1.682a1 1 0 0 0 0-1.414l-6.932-6.932a1 1 0 0 0-1.414 0l-2.295 2.295a1 1 0 0 0 0 1.414l3.223 3.223a1 1 0 0 1 0 1.414l-2.295 2.295a1 1 0 0 1-1.414 0l-3.223-3.223Zm63.089 0a1 1 0 0 1 1.414 0l2.296 2.296c.39.39.39 1.024 0 1.414l-6.932 6.932a1 1 0 0 1-1.415 0l-1.831-1.831a1 1 0 0 0-1.414 0l-4.15 4.15a1 1 0 0 1-1.414 0l-3.372-3.373a1 1 0 0 1 0-1.414l4.15-4.15c.39-.39.39-1.023 0-1.414l-1.682-1.682a1 1 0 0 1 0-1.414l6.931-6.932a1.001 1.001 0 0 1 1.415 0l2.295 2.295a1 1 0 0 1 0 1.414l-3.223 3.223a1 1 0 0 0 0 1.414l2.295 2.295a1 1 0 0 0 1.414 0l3.223-3.222Zm-66.799 51.963a.999.999 0 0 0 0 1.414l2.295 2.295a1 1 0 0 0 1.415 0l3.223-3.222a.999.999 0 0 1 1.414 0l2.295 2.295a1 1 0 0 1 0 1.414l-3.223 3.223a.999.999 0 0 0 0 1.414l2.295 2.295a1 1 0 0 0 1.414 0l6.932-6.932a1 1 0 0 0 0-1.414l-1.682-1.682a1 1 0 0 1 0-1.415l4.15-4.149a1 1 0 0 0 0-1.414l-3.373-3.373a1 1 0 0 0-1.414 0l-4.149 4.15a1 1 0 0 1-1.415 0l-1.831-1.831a.999.999 0 0 0-1.414 0l-6.932 6.932Zm66.799 3.709a.999.999 0 0 0 1.414 0l2.296-2.295a1 1 0 0 0 0-1.414l-6.932-6.932a1 1 0 0 0-1.415 0l-1.831 1.831a.999.999 0 0 1-1.414 0l-4.15-4.15a1 1 0 0 0-1.414 0l-3.372 3.373a.999.999 0 0 0 0 1.414l4.15 4.149c.39.391.39 1.024 0 1.415l-1.682 1.682a.999.999 0 0 0 0 1.414l6.931 6.932c.391.39 1.024.39 1.415 0l2.294-2.295a.999.999 0 0 0 0-1.414l-3.222-3.223a.999.999 0 0 1 0-1.414l2.295-2.295a.999.999 0 0 1 1.414 0l3.223 3.222ZM261.852 75a1 1 0 0 0-1-1H234a1 1 0 0 0-1 1v15.825a1 1 0 0 0 1 1h.785a1 1 0 0 1 1 1V95.5a1 1 0 0 0 1 1h2.053a1 1 0 0 0 1-1v-2.674a1 1 0 0 1 1-1h.505a1 1 0 0 1 1 1V95.5a1 1 0 0 0 1 1h2.054a1 1 0 0 0 1-1v-2.674a1 1 0 0 1 1-1h.503a1 1 0 0 1 1 1V95.5a1 1 0 0 0 1 1h2.053a1 1 0 0 0 1-1v-2.674a1 1 0 0 1 1-1h.505a1 1 0 0 1 1 1V95.5a1 1 0 0 0 1 1h2.053a1 1 0 0 0 1-1v-2.674a1 1 0 0 1 1-1h.341a1 1 0 0 0 1-1V75Zm-2.75 26.61a1 1 0 0 0-1-1h-21.606a1 1 0 0 0-1 1v3.246a1 1 0 0 0 1 1h21.606a1 1 0 0 0 1-1v-3.246ZM257.143 80a1 1 0 0 0-1-1H239a1 1 0 0 0-1 1v5.716a1 1 0 0 0 1 1h17.143a1 1 0 0 0 1-1V80Z" clip-rule="evenodd"/><path fill="#1F2024" d="m275.806 114.405-5.657 5.656 5.657-5.656Zm-3.709 3.709 5.657-5.657-5.657 5.657Zm3.222 4.637 5.657 5.657-5.657-5.657Zm0-1.414 5.657-5.657-5.657 5.657Zm-2.294 3.709 5.656 5.657-5.656-5.657Zm-8.346-6.932 5.656-5.657-5.656 5.657Zm11.128-11.128-5.657 5.657 5.657-5.657Zm4.636 10.641 5.657 5.657-5.657-5.657Zm-1.414 0 5.657-5.656-5.657 5.656Zm3.71-2.295-5.657-5.657 5.657 5.657Zm0-1.414-5.657 5.657 5.657-5.657Zm-63.577-6.932 5.657 5.657-5.657-5.657Zm4.66 1.831-5.657-5.657 5.657 5.657Zm-1.415 0-5.657 5.657 5.657-5.657Zm6.978-4.15-5.656 5.657 5.656-5.657Zm3.373 3.373 5.656-5.657-5.656 5.657Zm-4.15 6.978 5.657-5.657-5.657 5.657Zm0-1.415-5.657-5.656 5.657 5.656Zm1.682 4.511-5.657-5.657 5.657 5.657Zm-6.932 6.932 5.657 5.657-5.657-5.657Zm-3.709-3.709 5.657 5.657-5.657-5.657Zm0 1.414 5.657-5.657-5.657 5.657Zm3.223-6.051 5.657-5.657-5.657 5.657Zm0 1.414-5.657-5.657 5.657 5.657Zm-3.709-3.709 5.656 5.656-5.656-5.656Zm1.414 0 5.657-5.657-5.657 5.657Zm-8.347.927-5.657 5.657 5.657-5.657Zm0-1.414 5.657 5.657-5.657-5.657Zm2.295 3.709-5.656 5.657 5.656-5.657Zm1.415 0-5.657-5.656 5.657 5.656Zm58.452-52.449-5.657 5.657 5.657-5.657Zm1.414 0 5.657 5.657-5.657-5.657Zm-3.709-3.71-5.657-5.656 5.657 5.657Zm0 1.415 5.657-5.657-5.657 5.657Zm3.223-6.051 5.656-5.657-5.656 5.657Zm0 1.414 5.656 5.657-5.656-5.657Zm-3.71-3.709 5.657 5.657-5.657-5.657Zm1.415 0 5.657-5.657-5.657 5.657Zm-8.346 8.346-5.657 5.657 5.657-5.657Zm0-1.414-5.657-5.657 5.657 5.657Zm1.682 4.51-5.657-5.656 5.657 5.657Zm0-1.414-5.657 5.657 5.657-5.657Zm-4.15 6.978 5.657-5.657-5.657 5.657Zm0-1.414-5.657-5.657 5.657 5.657Zm4.786 4.786-5.657-5.657 5.657 5.657Zm-1.414 0 5.657-5.657-5.657 5.657Zm10.224-2.318 5.657 5.657-5.657-5.657Zm-1.415 0 5.657-5.657-5.657 5.657Zm6.051-10.641-5.657 5.656 5.657-5.656Zm-1.414 0-5.657-5.657 5.657 5.657Zm3.71 2.295-5.657 5.657 5.657-5.657Zm0 1.414-5.657-5.657 5.657 5.657Zm-62.162-.487-5.657-5.657 5.657 5.657Zm-1.414 0-5.657 5.657 5.657-5.657Zm3.709-3.71 5.657-5.656-5.657 5.657Zm0 1.415-5.657-5.657 5.657 5.657Zm7.418 0-5.657-5.657 5.657 5.657Zm0-1.414 5.657-5.657-5.657 5.657Zm-1.682 4.51-5.657 5.657 5.657-5.657Zm0-1.414-5.657-5.657 5.657 5.657Zm4.15 5.564-5.657 5.657 5.657-5.657Zm-4.787 4.786 5.657-5.657-5.657 5.657Zm1.414 0-5.656-5.657 5.656 5.657Zm-6.978-4.15-5.657-5.656 5.657 5.657Zm1.415 0-5.657 5.658 5.657-5.657Zm-4.66 1.832-5.657 5.657 5.657-5.657Zm1.414 0 5.657 5.657-5.657-5.657Zm-6.051-10.642 5.657 5.657-5.657-5.657Zm-2.295 2.296 5.657 5.657-5.657-5.657Zm0 1.414 5.657-5.657-5.657 5.657Zm5.657 4.243 2.295-2.296L208.869 56.3l-2.296 2.295 11.314 11.314Zm6.932-2.968-6.932-6.932-11.314 11.314 6.932 6.932 11.314-11.314Zm-8.069-1.831-1.831 1.831 11.314 11.314 1.831-1.831-11.314-11.314Zm16.878 4.15-4.15-4.15-11.313 11.314 4.149 4.15 11.314-11.314Zm-6.527-3.373-3.372 3.373 11.313 11.313 3.372-3.372-11.313-11.314Zm-4.15 5.75 4.15 4.15 11.313-11.314-4.149-4.15-11.314 11.314Zm1.682-14.41-1.682 1.682 11.314 11.314 1.682-1.682-11.314-11.314Zm-6.932 2.968 6.932 6.932 11.314-11.314-6.932-6.932-11.314 11.314Zm7.605 2.295 2.295-2.295-11.314-11.314-2.295 2.295 11.314 11.314Zm3.223-6.677-3.223-3.223-11.314 11.314 3.223 3.223 11.314-11.314Zm-2.295 15.023 2.295-2.295-11.314-11.314-2.295 2.295 11.314 11.314Zm-15.951-3.223 3.223 3.223 11.313-11.314-3.223-3.222-11.313 11.313Zm78.112-9.018L286.1 56.3l-11.314 11.313 2.296 2.296 11.313-11.314Zm-6.931 19.66 6.931-6.932-11.313-11.314-6.932 6.932 11.314 11.314Zm-14.56-1.831 1.832 1.83 11.313-11.313-1.831-1.831-11.314 11.314Zm5.75 4.15 4.15-4.15-11.314-11.314-4.15 4.15 11.314 11.313Zm-16.1-3.373 3.372 3.372 11.314-11.314-3.372-3.371L256.554 77.2Zm4.15-16.877-4.15 4.15 11.314 11.313 4.15-4.15-11.314-11.313Zm-1.682 8.217 1.682 1.682 11.314-11.314-1.683-1.682-11.313 11.314Zm6.932-19.66-6.932 6.932 11.313 11.314 6.932-6.932-11.313-11.314Zm15.022 2.295-2.294-2.295-11.314 11.314 2.295 2.295 11.313-11.314Zm-3.222 15.95 3.222-3.222-11.313-11.314-3.223 3.223 11.314 11.314Zm2.295-7.604-2.295-2.295L266.44 68.54l2.295 2.295 11.314-11.314Zm-6.677-3.222-3.223 3.222 11.314 11.314 3.223-3.223L273.372 56.3Zm-53.19 55.672-2.295-2.296-11.314 11.314 2.296 2.295 11.313-11.313Zm-6.676-3.223-3.223 3.223 11.313 11.313 3.223-3.223-11.313-11.313Zm15.023 2.295-2.295-2.295-11.314 11.313 2.295 2.296 11.314-11.314Zm-3.223 15.951 3.223-3.223-11.314-11.314-3.223 3.223 11.314 11.314Zm2.295-7.605-2.295-2.295-11.314 11.314 2.295 2.295 11.314-11.314Zm-2.968-6.932-6.932 6.932 11.314 11.314 6.932-6.932-11.314-11.314Zm-1.682 8.218 1.682 1.682 11.314-11.314-1.682-1.682-11.314 11.314Zm4.15-16.878-4.15 4.15 11.314 11.313 4.149-4.149-11.313-11.314Zm-3.372 6.527 3.372 3.372 11.313-11.313-3.372-3.372-11.313 11.313Zm5.749 4.15 4.15-4.15-11.314-11.313-4.149 4.149 11.313 11.314Zm-14.559-1.831 1.831 1.831 11.314-11.314-1.831-1.831-11.314 11.314Zm2.968 6.932 6.932-6.932-11.314-11.314-6.932 6.932 11.314 11.314Zm59.195-9.9-2.296 2.296 11.314 11.313 2.295-2.295-11.313-11.314Zm-6.932 2.968 6.932 6.932 11.313-11.314-6.931-6.932-11.314 11.314Zm8.068 1.831 1.831-1.831-11.313-11.314-1.832 1.831 11.314 11.314Zm-16.878-4.15 4.15 4.15 11.314-11.314-4.15-4.15-11.314 11.314Zm6.528 3.372 3.372-3.372-11.314-11.313-3.372 3.372 11.314 11.313Zm4.15-5.749-4.15-4.15-11.314 11.314 4.15 4.149 11.314-11.313Zm-1.683 14.41 1.683-1.683-11.314-11.313-1.682 1.682 11.313 11.314Zm6.932-2.968-6.932-6.932-11.313 11.314 6.932 6.932 11.313-11.314Zm-7.604-2.295-2.295 2.295 11.313 11.314 2.295-2.295-11.313-11.314Zm-3.223 6.677 3.223 3.223 11.313-11.314-3.222-3.223-11.314 11.314Zm2.295-15.023-2.295 2.295 11.314 11.314 2.295-2.296-11.314-11.313Zm15.951 3.223-3.223-3.223-11.314 11.313 3.223 3.223 11.314-11.313ZM234 82.001h26.852V66H234v16Zm7 8.824V75h-16v15.825h16Zm-6.215-7H234v16h.785v-16Zm9 11.674v-2.674h-16V95.5h16Zm-4.947-7h-2.053V104.5h2.053v-16Zm-7 4.326V95.5h16v-2.674h-16Zm9.505-9h-.505v16h.505v-16Zm9 11.674v-2.674h-16V95.5h16Zm-4.946-7h-2.054V104.5h2.054v-16Zm-7 4.326V95.5h16v-2.674h-16Zm9.503-9h-.503v16h.503v-16Zm9 11.674v-2.674h-16V95.5h16Zm-4.947-7H249.9V104.5h2.053v-16Zm-7 4.326V95.5h16v-2.674h-16Zm9.505-9h-.505v16h.505v-16Zm9 11.674v-2.674h-16V95.5h16Zm-4.947-7h-2.053V104.5h2.053v-16Zm-7 4.326V95.5h16v-2.674h-16Zm9.341-9h-.341v16h.341v-16Zm-7-8.825v15.825h16V75h-16Zm-17.356 33.61h21.606v-16h-21.606v16Zm7-3.754v-3.246h-16v3.246h16Zm14.606-7h-21.606v16h21.606v-16Zm-7 3.754v3.246h16v-3.246h-16ZM239 87h17.143V71H239v16Zm7-1.284V80h-16v5.716h16Zm10.143-7H239v16h17.143v-16Zm-7 1.284v5.716h16V80h-16Zm7 14.716a9 9 0 0 0 9-9h-16a7 7 0 0 1 7-7v16Zm-26.143-9a9 9 0 0 0 9 9v-16a7 7 0 0 1 7 7h-16ZM256.143 87a7 7 0 0 1-7-7h16a9 9 0 0 0-9-9v16ZM239 71a9 9 0 0 0-9 9h16a7 7 0 0 1-7 7V71Zm19.102 42.856a9 9 0 0 0 9-9h-16a7 7 0 0 1 7-7v16Zm-30.606-9a9 9 0 0 0 9 9v-16a7 7 0 0 1 7 7h-16Zm30.606 3.754a7 7 0 0 1-7-7h16a9 9 0 0 0-9-9v16Zm-21.606-16a9 9 0 0 0-9 9h16a7 7 0 0 1-7 7v-16Zm24.356 7.215a9 9 0 0 0 9-9h-16a7 7 0 0 1 7-7v16Zm6.659-7a7 7 0 0 1-7 7v-16a9 9 0 0 0-9 9h16Zm-9 11.675a9 9 0 0 0 9-9h-16a7 7 0 0 1 7-7v16Zm-11.053-9a9 9 0 0 0 9 9v-16a7 7 0 0 1 7 7h-16Zm7 4.325a7 7 0 0 1-7-7h16a9 9 0 0 0-9-9v16Zm6.495-7a7 7 0 0 1-7 7v-16a9 9 0 0 0-9 9h16Zm-9 11.675a9 9 0 0 0 9-9h-16a7 7 0 0 1 7-7v16Zm-11.053-9a9 9 0 0 0 9 9v-16a7 7 0 0 1 7 7h-16Zm7 4.325a7 7 0 0 1-7-7h16a9 9 0 0 0-9-9v16Zm6.497-7a7 7 0 0 1-7 7v-16a9 9 0 0 0-9 9h16Zm-9 11.675a9 9 0 0 0 9-9h-16a7 7 0 0 1 7-7v16Zm-11.054-9a9 9 0 0 0 9 9v-16a7 7 0 0 1 7 7h-16Zm7 4.325a7 7 0 0 1-7-7h16a9 9 0 0 0-9-9v16Zm6.495-7a7 7 0 0 1-7 7v-16a9 9 0 0 0-9 9h16Zm-9 11.675a9 9 0 0 0 9-9h-16a7 7 0 0 1 7-7v16Zm-11.053-9a9 9 0 0 0 9 9v-16a7 7 0 0 1 7 7h-16Zm7 4.325a7 7 0 0 1-7-7h16a9 9 0 0 0-9-9v16Zm-9.785-9a9 9 0 0 0 9 9v-16a7 7 0 0 1 7 7h-16ZM260.852 82a7 7 0 0 1-7-7h16a9 9 0 0 0-9-9v16ZM234 66a9 9 0 0 0-9 9h16a7 7 0 0 1-7 7V66Zm46.049 54.061a7 7 0 0 1-9.9 0l11.314-11.313a9 9 0 0 0-12.728 0l11.314 11.313Zm-2.295-7.604a7.002 7.002 0 0 1 0 9.9l-11.314-11.314a9 9 0 0 0 0 12.728l11.314-11.314Zm3.222 15.951a9 9 0 0 0 0-12.728l-11.313 11.314a7 7 0 0 1 0-9.9l11.313 11.314Zm-15.022 2.295a9 9 0 0 0 12.727 0l-11.313-11.314a6.999 6.999 0 0 1 9.899 0l-11.313 11.314Zm-6.932-19.66a9 9 0 0 0 0 12.728l11.313-11.314a7 7 0 0 1 0 9.9l-11.313-11.314Zm1.682 8.217a6.999 6.999 0 0 1 0-9.899l11.314 11.313a9 9 0 0 0 0-12.727l-11.314 11.313Zm-4.15-16.877a9 9 0 0 0 0 12.728l11.314-11.314a6.999 6.999 0 0 1 0 9.899l-11.314-11.313Zm16.1-3.372a9 9 0 0 0-12.728 0l11.314 11.313a7 7 0 0 1-9.9 0l11.314-11.313Zm-5.75 4.149a7.002 7.002 0 0 1 9.9 0l-11.314 11.314a9 9 0 0 0 12.728 0l-11.314-11.314Zm14.56-1.831a9 9 0 0 0-12.728 0l11.313 11.314a7 7 0 0 1-9.899 0l11.314-11.314Zm-6.678 10.642a7 7 0 0 1 9.9 0l-11.314 11.313a9 9 0 0 0 12.728 0l-11.314-11.313Zm13.609 9.018a9 9 0 0 0 0-12.728l-11.313 11.314a7 7 0 0 1 0-9.9l11.313 11.314Zm-62.162-19.66a9 9 0 0 0-12.728 0l11.314 11.314a7.002 7.002 0 0 1-9.9 0l11.314-11.314Zm-8.068 1.831a7 7 0 0 1 9.899 0l-11.314 11.314a9 9 0 0 0 12.728 0l-11.313-11.314Zm16.877-4.15a9 9 0 0 0-12.728 0l11.314 11.314a6.999 6.999 0 0 1-9.899 0l11.313-11.313Zm3.372 16.101a9 9 0 0 0 0-12.728l-11.313 11.313a6.999 6.999 0 0 1 0-9.899l11.313 11.314Zm-4.149-5.75a7 7 0 0 1 0 9.899l-11.314-11.313a9 9 0 0 0 0 12.728l11.314-11.314Zm1.682 14.41a9.001 9.001 0 0 0 0-12.728l-11.314 11.314a7 7 0 0 1 0-9.9l11.314 11.314Zm-19.66 6.932a9.001 9.001 0 0 0 12.728 0l-11.314-11.314a7 7 0 0 1 9.9 0l-11.314 11.314Zm-2.295-15.023a9 9 0 0 0 0 12.728l11.314-11.314a7 7 0 0 1 0 9.9l-11.314-11.314Zm3.223 6.677a7 7 0 0 1 0-9.9l11.314 11.314a9.001 9.001 0 0 0 0-12.728l-11.314 11.314Zm7.604-2.296a6.999 6.999 0 0 1-9.899 0l11.314-11.313a9 9 0 0 0-12.728 0l11.313 11.313Zm-6.932-10.386a7.002 7.002 0 0 1 0 9.9l-11.314-11.314a9 9 0 0 0 0 12.728l11.314-11.314Zm-9.018 13.609a8.998 8.998 0 0 0 12.727 0l-11.313-11.313a6.999 6.999 0 0 1 9.899 0l-11.313 11.313Zm59.866-52.449a9 9 0 0 0 12.728 0l-11.314-11.314a7 7 0 0 1 9.9 0l-11.314 11.314Zm-2.295-15.023a9 9 0 0 0 0 12.728l11.314-11.314a7.001 7.001 0 0 1 0 9.9L266.44 55.812Zm3.223 6.677a7 7 0 0 1 0-9.9l11.313 11.314a9 9 0 0 0 0-12.728l-11.313 11.314Zm7.604-2.295a7 7 0 0 1-9.899 0l11.314-11.314a9 9 0 0 0-12.728 0l11.313 11.314Zm-6.932-2.968a7 7 0 0 1 0 9.9l-11.313-11.314a9 9 0 0 0 0 12.728l11.313-11.314Zm1.683 14.41a9.001 9.001 0 0 0 0-12.728l-11.314 11.314a7 7 0 0 1 0-9.9l11.314 11.314Zm-4.15-5.75a7 7 0 0 1 0 9.9l-11.314-11.314a9 9 0 0 0 0 12.728l11.314-11.314Zm-6.528 3.373a7 7 0 0 1 9.9 0l-11.314 11.313a9 9 0 0 0 12.728 0L261.34 69.258Zm16.878-4.15a9 9 0 0 0-12.728 0l11.314 11.314a7 7 0 0 1-9.9 0l11.314-11.314Zm-8.068 1.831a7 7 0 0 1 9.899 0l-11.313 11.314a9 9 0 0 0 12.728 0L270.15 66.94ZM286.1 56.3a9 9 0 0 0-12.728 0l11.314 11.313a7 7 0 0 1-9.9 0L286.1 56.3Zm-9.018 13.609a7 7 0 0 1 0-9.9l11.313 11.314a9 9 0 0 0 0-12.728l-11.313 11.314ZM214.92 59.52a7 7 0 0 1 9.899 0l-11.313 11.314a9 9 0 0 0 12.728 0L214.92 59.521Zm2.295 7.605a7 7 0 0 1 0-9.9l11.314 11.314a9.001 9.001 0 0 0 0-12.728l-11.314 11.314Zm-3.223-15.951a9 9 0 0 0 0 12.728l11.314-11.314a7 7 0 0 1 0 9.9l-11.314-11.314Zm15.023-2.295a9 9 0 0 0-12.728 0l11.314 11.314a7 7 0 0 1-9.9 0l11.314-11.314Zm6.932 19.66a9.001 9.001 0 0 0 0-12.728l-11.314 11.314a7 7 0 0 1 0-9.9l11.314 11.314Zm-1.682-8.217a7.001 7.001 0 0 1 0 9.899l-11.314-11.314a9 9 0 0 0 0 12.728l11.314-11.313Zm4.149 16.877a9 9 0 0 0 0-12.728l-11.313 11.314a7 7 0 0 1 0-9.9L238.414 77.2Zm-16.1 3.372a9 9 0 0 0 12.728 0l-11.313-11.314a7 7 0 0 1 9.899 0l-11.314 11.314Zm5.75-4.15a7 7 0 0 1-9.899 0l11.313-11.313a9 9 0 0 0-12.728 0l11.314 11.314Zm-14.559 1.832a9 9 0 0 0 12.728 0L214.919 66.94a7 7 0 0 1 9.9 0l-11.314 11.314Zm6.677-10.642a7 7 0 0 1-9.899 0L221.596 56.3a8.999 8.999 0 0 0-12.727 0l11.313 11.313Zm-13.609-9.018a9 9 0 0 0 0 12.728l11.314-11.314a7.001 7.001 0 0 1 0 9.9l-11.314-11.314Z" mask="url(#k)"/><defs><filter id="a" width="332" height="216" x="32" y="141" color-interpolation-filters="sRGB" filterUnits="userSpaceOnUse"><feFlood flood-opacity="0" result="BackgroundImageFix"/><feBlend in="SourceGraphic" in2="BackgroundImageFix" result="shape"/><feColorMatrix in="SourceAlpha" result="hardAlpha" values="0 0 0 0 0 0 0 0 0 0 0 0 0 0 0 0 0 0 127 0"/><feOffset dx="-24" dy="8"/><feComposite in2="hardAlpha" k2="-1" k3="1" operator="arithmetic"/><feColorMatrix values="0 0 0 0 1 0 0 0 0 1 0 0 0 0 1 0 0 0 0.25 0"/><feBlend in2="shape" result="effect1_innerShadow"/></filter><filter id="b" width="54" height="216" x="32" y="141" color-interpolation-filters="sRGB" filterUnits="userSpaceOnUse"><feFlood flood-opacity="0" result="BackgroundImageFix"/><feBlend in="SourceGraphic" in2="BackgroundImageFix" result="shape"/><feColorMatrix in="SourceAlpha" result="hardAlpha" values="0 0 0 0 0 0 0 0 0 0 0 0 0 0 0 0 0 0 127 0"/><feOffset dy="-16"/><feComposite in2="hardAlpha" k2="-1" k3="1" operator="arithmetic"/><feColorMatrix values="0 0 0 0 0 0 0 0 0 0 0 0 0 0 0 0 0 0 0.25 0"/><feBlend in2="shape" result="effect1_innerShadow"/><feColorMatrix in="SourceAlpha" result="hardAlpha" values="0 0 0 0 0 0 0 0 0 0 0 0 0 0 0 0 0 0 127 0"/><feOffset dy="16"/><feComposite in2="hardAlpha" k2="-1" k3="1" operator="arithmetic"/><feColorMatrix values="0 0 0 0 1 0 0 0 0 1 0 0 0 0 1 0 0 0 0.25 0"/><feBlend in2="effect1_innerShadow" result="effect2_innerShadow"/></filter><filter id="c" width="54" height="216" x="58.667" y="141" color-interpolation-filters="sRGB" filterUnits="userSpaceOnUse"><feFlood flood-opacity="0" result="BackgroundImageFix"/><feBlend in="SourceGraphic" in2="BackgroundImageFix" result="shape"/><feColorMatrix in="SourceAlpha" result="hardAlpha" values="0 0 0 0 0 0 0 0 0 0 0 0 0 0 0 0 0 0 127 0"/><feOffset dy="-16"/><feComposite in2="hardAlpha" k2="-1" k3="1" operator="arithmetic"/><feColorMatrix values="0 0 0 0 0 0 0 0 0 0 0 0 0 0 0 0 0 0 0.25 0"/><feBlend in2="shape" result="effect1_innerShadow"/><feColorMatrix in="SourceAlpha" result="hardAlpha" values="0 0 0 0 0 0 0 0 0 0 0 0 0 0 0 0 0 0 127 0"/><feOffset dy="16"/><feComposite in2="hardAlpha" k2="-1" k3="1" operator="arithmetic"/><feColorMatrix values="0 0 0 0 1 0 0 0 0 1 0 0 0 0 1 0 0 0 0.25 0"/><feBlend in2="effect1_innerShadow" result="effect2_innerShadow"/></filter><filter id="d" width="54" height="216" x="85.333" y="141" color-interpolation-filters="sRGB" filterUnits="userSpaceOnUse"><feFlood flood-opacity="0" result="BackgroundImageFix"/><feBlend in="SourceGraphic" in2="BackgroundImageFix" result="shape"/><feColorMatrix in="SourceAlpha" result="hardAlpha" values="0 0 0 0 0 0 0 0 0 0 0 0 0 0 0 0 0 0 127 0"/><feOffset dy="-16"/><feComposite in2="hardAlpha" k2="-1" k3="1" operator="arithmetic"/><feColorMatrix values="0 0 0 0 0 0 0 0 0 0 0 0 0 0 0 0 0 0 0.25 0"/><feBlend in2="shape" result="effect1_innerShadow"/><feColorMatrix in="SourceAlpha" result="hardAlpha" values="0 0 0 0 0 0 0 0 0 0 0 0 0 0 0 0 0 0 127 0"/><feOffset dy="16"/><feComposite in2="hardAlpha" k2="-1" k3="1" operator="arithmetic"/><feColorMatrix values="0 0 0 0 1 0 0 0 0 1 0 0 0 0 1 0 0 0 0.25 0"/><feBlend in2="effect1_innerShadow" result="effect2_innerShadow"/></filter><filter id="e" width="54" height="216" x="112" y="141" color-interpolation-filters="sRGB" filterUnits="userSpaceOnUse"><feFlood flood-opacity="0" result="BackgroundImageFix"/><feBlend in="SourceGraphic" in2="BackgroundImageFix" result="shape"/><feColorMatrix in="SourceAlpha" result="hardAlpha" values="0 0 0 0 0 0 0 0 0 0 0 0 0 0 0 0 0 0 127 0"/><feOffset dy="-16"/><feComposite in2="hardAlpha" k2="-1" k3="1" operator="arithmetic"/><feColorMatrix values="0 0 0 0 0 0 0 0 0 0 0 0 0 0 0 0 0 0 0.25 0"/><feBlend in2="shape" result="effect1_innerShadow"/><feColorMatrix in="SourceAlpha" result="hardAlpha" values="0 0 0 0 0 0 0 0 0 0 0 0 0 0 0 0 0 0 127 0"/><feOffset dy="16"/><feComposite in2="hardAlpha" k2="-1" k3="1" operator="arithmetic"/><feColorMatrix values="0 0 0 0 1 0 0 0 0 1 0 0 0 0 1 0 0 0 0.25 0"/><feBlend in2="effect1_innerShadow" result="effect2_innerShadow"/></filter><filter id="f" width="184" height="72" x="156" y="191" color-interpolation-filters="sRGB" filterUnits="userSpaceOnUse"><feFlood flood-opacity="0" result="BackgroundImageFix"/><feColorMatrix in="SourceAlpha" result="hardAlpha" values="0 0 0 0 0 0 0 0 0 0 0 0 0 0 0 0 0 0 127 0"/><feOffset dx="-4"/><feColorMatrix values="0 0 0 0 1 0 0 0 0 1 0 0 0 0 1 0 0 0 0.25 0"/><feBlend in2="BackgroundImageFix" result="effect1_dropShadow"/><feColorMatrix in="SourceAlpha" result="hardAlpha" values="0 0 0 0 0 0 0 0 0 0 0 0 0 0 0 0 0 0 127 0"/><feOffset dx="4"/><feColorMatrix values="0 0 0 0 0 0 0 0 0 0 0 0 0 0 0 0 0 0 0.25 0"/><feBlend in2="effect1_dropShadow" result="effect2_dropShadow"/><feBlend in="SourceGraphic" in2="effect2_dropShadow" result="shape"/><feColorMatrix in="SourceAlpha" result="hardAlpha" values="0 0 0 0 0 0 0 0 0 0 0 0 0 0 0 0 0 0 127 0"/><feOffset dx="-4"/><feComposite in2="hardAlpha" k2="-1" k3="1" operator="arithmetic"/><feColorMatrix values="0 0 0 0 0 0 0 0 0 0 0 0 0 0 0 0 0 0 0.25 0"/><feBlend in2="shape" result="effect3_innerShadow"/></filter><filter id="g" width="114" height="202.667" x="18" y="197" color-interpolation-filters="sRGB" filterUnits="userSpaceOnUse"><feFlood flood-opacity="0" result="BackgroundImageFix"/><feColorMatrix in="SourceAlpha" result="hardAlpha" values="0 0 0 0 0 0 0 0 0 0 0 0 0 0 0 0 0 0 127 0"/><feOffset dx="-4" dy="4"/><feColorMatrix values="0 0 0 0 0 0 0 0 0 0 0 0 0 0 0 0 0 0 0.25 0"/><feBlend in2="BackgroundImageFix" result="effect1_dropShadow"/><feBlend in="SourceGraphic" in2="effect1_dropShadow" result="shape"/></filter><filter id="h" width="88" height="72" x="33" y="201" color-interpolation-filters="sRGB" filterUnits="userSpaceOnUse"><feFlood flood-opacity="0" result="BackgroundImageFix"/><feBlend in="SourceGraphic" in2="BackgroundImageFix" result="shape"/><feColorMatrix in="SourceAlpha" result="hardAlpha" values="0 0 0 0 0 0 0 0 0 0 0 0 0 0 0 0 0 0 127 0"/><feOffset dx="-24" dy="8"/><feComposite in2="hardAlpha" k2="-1" k3="1" operator="arithmetic"/><feColorMatrix values="0 0 0 0 1 0 0 0 0 1 0 0 0 0 1 0 0 0 0.25 0"/><feBlend in2="shape" result="effect1_innerShadow"/></filter><filter id="i" width="72" height="72" x="33" y="201" color-interpolation-filters="sRGB" filterUnits="userSpaceOnUse"><feFlood flood-opacity="0" result="BackgroundImageFix"/><feBlend in="SourceGraphic" in2="BackgroundImageFix" result="shape"/><feColorMatrix in="SourceAlpha" result="hardAlpha" values="0 0 0 0 0 0 0 0 0 0 0 0 0 0 0 0 0 0 127 0"/><feOffset dy="-16"/><feComposite in2="hardAlpha" k2="-1" k3="1" operator="arithmetic"/><feColorMatrix values="0 0 0 0 0 0 0 0 0 0 0 0 0 0 0 0 0 0 0.25 0"/><feBlend in2="shape" result="effect1_innerShadow"/><feColorMatrix in="SourceAlpha" result="hardAlpha" values="0 0 0 0 0 0 0 0 0 0 0 0 0 0 0 0 0 0 127 0"/><feOffset dy="16"/><feComposite in2="hardAlpha" k2="-1" k3="1" operator="arithmetic"/><feColorMatrix values="0 0 0 0 1 0 0 0 0 1 0 0 0 0 1 0 0 0 0.25 0"/><feBlend in2="effect1_innerShadow" result="effect2_innerShadow"/></filter><filter id="j" width="82" height="109.333" x="33" y="286.333" color-interpolation-filters="sRGB" filterUnits="userSpaceOnUse"><feFlood flood-opacity="0" result="BackgroundImageFix"/><feBlend in="SourceGraphic" in2="BackgroundImageFix" result="shape"/><feColorMatrix in="SourceAlpha" result="hardAlpha" values="0 0 0 0 0 0 0 0 0 0 0 0 0 0 0 0 0 0 127 0"/><feOffset dy="-16"/><feComposite in2="hardAlpha" k2="-1" k3="1" operator="arithmetic"/><feColorMatrix values="0 0 0 0 0 0 0 0 0 0 0 0 0 0 0 0 0 0 0.25 0"/><feBlend in2="shape" result="effect1_innerShadow"/><feColorMatrix in="SourceAlpha" result="hardAlpha" values="0 0 0 0 0 0 0 0 0 0 0 0 0 0 0 0 0 0 127 0"/><feOffset dy="16"/><feComposite in2="hardAlpha" k2="-1" k3="1" operator="arithmetic"/><feColorMatrix values="0 0 0 0 1 0 0 0 0 1 0 0 0 0 1 0 0 0 0.25 0"/><feBlend in2="effect1_innerShadow" result="effect2_innerShadow"/></filter></defs></svg>