<svg xmlns="http://www.w3.org/2000/svg" width="378" height="333" fill="none"><g filter="url(#a)"><path fill="#FF3979" d="M14 145c0-13.255 10.745-24 24-24h192c13.255 0 24 10.745 24 24v160c0 13.255-10.745 24-24 24H78c-35.346 0-64-28.654-64-64V145Z"/></g><path stroke="#1F2024" stroke-width="8" d="M14 145c0-13.255 10.745-24 24-24h192c13.255 0 24 10.745 24 24v160c0 13.255-10.745 24-24 24H78c-35.346 0-64-28.654-64-64V145Z"/><g filter="url(#b)"><path fill="#FF71C6" d="M114 145c0-13.255 10.745-24 24-24h176c13.255 0 24 10.745 24 24v120c0 35.346-28.654 64-64 64h-96c-35.346 0-64-28.654-64-64V145Z"/></g><path stroke="#1F2024" stroke-width="8" d="M114 145c0-13.255 10.745-24 24-24h176c13.255 0 24 10.745 24 24v120c0 35.346-28.654 64-64 64h-96c-35.346 0-64-28.654-64-64V145Z"/><g filter="url(#c)"><path fill="#1F2024" d="M142 187c0-8.837 7.163-16 16-16h136c8.837 0 16 7.163 16 16v32c0 8.837-7.163 16-16 16H158c-8.837 0-16-7.163-16-16v-32Z"/><circle cx="178" cy="203" r="16" fill="#FFFA8F"/><circle cx="226" cy="203" r="16" fill="#F9E174"/><circle cx="274" cy="203" r="16" fill="#F2C95C"/></g><path fill="#4795E0" stroke="#1F2024" stroke-width="8" d="M54 207h1v45h-1z"/><g filter="url(#d)"><circle cx="55" cy="192" r="16" fill="#9BCEF1"/></g><circle cx="55" cy="192" r="16" stroke="#1F2024" stroke-width="8"/><g filter="url(#e)"><path fill="#FF3979" d="M18 241a8 8 0 0 1 8-8h57a8 8 0 0 1 8 8v25a8 8 0 0 1-8 8H26a8 8 0 0 1-8-8v-25Z"/></g><path stroke="#1F2024" stroke-width="8" d="M18 241a8 8 0 0 1 8-8h57a8 8 0 0 1 8 8v25a8 8 0 0 1-8 8H26a8 8 0 0 1-8-8v-25Z"/><g filter="url(#f)"><path fill="#FF71C6" d="M66 241a8 8 0 0 1 8-8h8.589a8 8 0 0 1 8 8v25a8 8 0 0 1-8 8H74a8 8 0 0 1-8-8v-25Z"/></g><path stroke="#1F2024" stroke-width="8" d="M66 241a8 8 0 0 1 8-8h8.589a8 8 0 0 1 8 8v25a8 8 0 0 1-8 8H74a8 8 0 0 1-8-8v-25Z"/><g filter="url(#g)"><path fill="#FE204F" d="M187 268.5c0 7.824 4.794 15.327 13.327 20.86 8.533 5.532 20.106 8.64 32.173 8.64s23.64-3.108 32.173-8.64C273.206 283.827 278 276.324 278 268.5h-91Z"/></g><path stroke="#1F2024" stroke-linejoin="round" stroke-width="8" d="M187 268.5c0 7.824 4.794 15.327 13.327 20.86 8.533 5.532 20.106 8.64 32.173 8.64s23.64-3.108 32.173-8.64C273.206 283.827 278 276.324 278 268.5h-91Z"/><g filter="url(#h)"><path fill="#FE204F" fill-rule="evenodd" d="M240 268.5h-53a26.498 26.498 0 0 1 26.5-26.5 26.498 26.498 0 0 1 19 8.027l.262-.265a26.498 26.498 0 0 1 37.476 0A26.498 26.498 0 0 1 278 268.5h-38Z" clip-rule="evenodd"/></g><path fill="#1F2024" d="M213.5 268.5v4-4Zm-26.5 0h-4a4 4 0 0 0 4 4v-4Zm7.762-18.738-2.829-2.829 2.829 2.829Zm37.476 0 2.829-2.829-2.829 2.829Zm.262.265-2.868 2.788a4 4 0 0 0 5.736 0l-2.868-2.788Zm.262-.265-2.829-2.829 2.829 2.829Zm37.476 0-2.828 2.828 2.828-2.828ZM278 268.5v4a4 4 0 0 0 4-4h-4Zm-64.5 4H240v-8h-26.5v8Zm-26.5 0h26.5v-8H187v8Zm4.933-25.567A30.5 30.5 0 0 0 183 268.5h8c0-5.967 2.371-11.69 6.59-15.91l-5.657-5.657ZM213.5 238a30.5 30.5 0 0 0-21.567 8.933l5.657 5.657A22.504 22.504 0 0 1 213.5 246v-8Zm21.567 8.933A30.5 30.5 0 0 0 213.5 238v8c5.967 0 11.69 2.371 15.91 6.59l5.657-5.657Zm.301.306c-.1-.103-.2-.205-.301-.306l-5.657 5.657.222.225 5.736-5.576Zm-5.435-.306c-.101.101-.201.203-.301.306l5.736 5.576.222-.225-5.657-5.657ZM251.5 238a30.5 30.5 0 0 0-21.567 8.933l5.657 5.657A22.504 22.504 0 0 1 251.5 246v-8Zm21.567 8.933A30.5 30.5 0 0 0 251.5 238v8c5.967 0 11.69 2.371 15.91 6.59l5.657-5.657ZM282 268.5a30.5 30.5 0 0 0-8.933-21.567l-5.657 5.657A22.504 22.504 0 0 1 274 268.5h8Zm-30.5 4H278v-8h-26.5v8Zm-11.5 0h11.5v-8H240v8Z"/><path stroke="#fff" stroke-linecap="round" stroke-width="8" d="M262.046 256.954A13.5 13.5 0 0 0 252.5 253M224.546 256.954A13.5 13.5 0 0 0 215 253"/><circle cx="298.5" cy="250.5" r="8.5" fill="#1F2024"/><circle r="2.5" fill="#fff" transform="matrix(-1 0 0 1 301.5 247.5)"/><path stroke="#fff" stroke-linecap="round" stroke-width="8" d="M252 278h6"/><g filter="url(#i)"><path fill="#fff" fill-rule="evenodd" d="m287.552 119.015-.049.022c-.002 0-.003.003-.002.005s0 .004-.002.005C280.603 123.263 276 130.863 276 139.538c0 13.255 10.745 24 24 24 .329 0 .657-.007.984-.02.006 0 .011.004.013.01s.007.01.014.009c.221-.017.442-.035.664-.056a24.085 24.085 0 0 0 3.292-.458c36.848-6.725 79.875-67.857 66.116-156.576-.496-3.201-4.942-3.278-5.722-.134-14.032 56.602-37.81 92.647-73.475 110.632a23.804 23.804 0 0 0-4.334 2.07Z" clip-rule="evenodd"/></g><path fill="#1F2024" d="m287.552 119.015 1.647 3.645.222-.101.208-.126-2.077-3.418Zm14.123 44.466-.275-3.991-.051.004-.05.004.376 3.983Zm3.292-.458-.718-3.935-.053.01-.052.011.823 3.914ZM371.083 6.447l3.953-.613-3.953.613Zm-5.722-.134-3.882-.962 3.882.962Zm-73.475 110.632 1.352 3.764.23-.083.219-.11-1.801-3.571Zm9.125 46.592-.304-3.988.304 3.988Zm-13.512-44.49 2.087 3.412-2.087-3.412Zm13.485 44.471.161 3.997-.161-3.997Zm-13.481-44.481-1.645-3.646 1.645 3.646Zm1.646 3.645.05-.022-3.295-7.29-.046.021 3.291 7.291ZM280 139.538c0-7.225 3.828-13.559 9.586-17.079l-4.173-6.825C277.377 120.547 272 129.413 272 139.538h8Zm20 20c-11.046 0-20-8.954-20-20h-8c0 15.464 12.536 28 28 28v-8Zm.822-.016c-.272.011-.546.016-.822.016v8c.383 0 .765-.008 1.145-.023l-.323-7.993Zm.477-.024a30.86 30.86 0 0 1-.592.051l.608 7.977c.245-.019.491-.04.736-.063l-.752-7.965Zm2.845-.389c-.893.188-1.809.317-2.744.381l.55 7.981c1.306-.09 2.588-.27 3.841-.533l-1.647-7.829ZM367.13 7.059c6.761 43.598-.458 80.212-13.703 106.631-13.333 26.595-32.456 42.346-49.178 45.398l1.437 7.87c20.126-3.673 40.94-21.85 54.893-49.682 14.041-28.008 21.455-66.32 14.457-111.442L367.13 7.06Zm2.114.217a1.021 1.021 0 0 1-.391.527 1 1 0 0 1-.607.197 1.133 1.133 0 0 1-.69-.271c-.289-.236-.404-.527-.426-.67l7.906-1.225c-.58-3.741-3.647-5.77-6.625-5.832-2.937-.061-6.046 1.773-6.932 5.349l7.765 1.925Zm-75.557 113.24c37.121-18.719 61.38-56.055 75.557-113.24l-7.765-1.925c-13.887 56.017-37.186 90.772-71.394 108.022l3.602 7.143Zm-4.058 1.917a19.909 19.909 0 0 1 3.609-1.724l-2.705-7.529a27.864 27.864 0 0 0-5.059 2.417l4.155 6.836Zm7.54 42.256a4.014 4.014 0 0 0 4.146 2.837l-.608-7.977a3.988 3.988 0 0 1 4.118 2.817l-7.656 2.323Zm-13.496-44.486a3.996 3.996 0 0 1 1.74-4.569l4.173 6.825a4.004 4.004 0 0 0 1.743-4.578l-7.656 2.322Zm17.472 47.312a3.987 3.987 0 0 1-3.976-2.826l7.656-2.323a4.014 4.014 0 0 0-4.003-2.844l.323 7.993Zm-15.287-52.124a4.004 4.004 0 0 0-2.185 4.812l7.656-2.322a3.994 3.994 0 0 1-2.18 4.801l-3.291-7.291Z"/><g filter="url(#j)"><path fill="#fff" fill-rule="evenodd" d="m167.552 119.015-.049.022c-.002 0-.003.003-.002.005s0 .004-.002.005C160.603 123.263 156 130.863 156 139.538c0 13.255 10.745 24 24 24 .329 0 .657-.007.984-.02.006 0 .011.004.013.01s.007.01.014.009c.221-.017.442-.035.664-.056a24.085 24.085 0 0 0 3.292-.458c36.848-6.725 79.875-67.857 66.116-156.576-.496-3.201-4.942-3.278-5.722-.134-14.032 56.602-37.81 92.647-73.475 110.632a23.804 23.804 0 0 0-4.334 2.07Z" clip-rule="evenodd"/></g><path fill="#1F2024" d="m167.552 119.015 1.647 3.645.222-.101.208-.126-2.077-3.418Zm14.123 44.466-.275-3.991-.051.004-.05.004.376 3.983Zm3.292-.458-.718-3.935-.053.01-.052.011.823 3.914ZM251.083 6.447l3.953-.613-3.953.613Zm-5.722-.134-3.882-.962 3.882.962Zm-73.475 110.632 1.352 3.764.23-.083.219-.11-1.801-3.571Zm9.125 46.592-.304-3.988.304 3.988Zm-13.512-44.49 2.087 3.412-2.087-3.412Zm13.485 44.471.161 3.997-.161-3.997Zm-13.481-44.481-1.645-3.646 1.645 3.646Zm1.646 3.645.05-.022-3.295-7.29-.046.021 3.291 7.291ZM160 139.538c0-7.225 3.828-13.559 9.586-17.079l-4.173-6.825C157.377 120.547 152 129.413 152 139.538h8Zm20 20c-11.046 0-20-8.954-20-20h-8c0 15.464 12.536 28 28 28v-8Zm.822-.016c-.272.011-.546.016-.822.016v8c.383 0 .765-.008 1.145-.023l-.323-7.993Zm.477-.024a30.86 30.86 0 0 1-.592.051l.608 7.977c.245-.019.491-.04.736-.063l-.752-7.965Zm2.845-.389c-.893.188-1.809.317-2.744.381l.55 7.981c1.306-.09 2.588-.27 3.841-.533l-1.647-7.829ZM247.13 7.059c6.761 43.598-.458 80.212-13.703 106.631-13.333 26.595-32.456 42.346-49.178 45.398l1.437 7.87c20.126-3.673 40.94-21.85 54.893-49.682 14.041-28.008 21.455-66.32 14.457-111.442L247.13 7.06Zm2.114.217a1.021 1.021 0 0 1-.391.527 1 1 0 0 1-.607.197 1.133 1.133 0 0 1-.69-.271c-.289-.236-.404-.527-.426-.67l7.906-1.225c-.58-3.741-3.647-5.77-6.625-5.832-2.937-.061-6.046 1.773-6.932 5.349l7.765 1.925Zm-75.557 113.24c37.121-18.719 61.38-56.055 75.557-113.24l-7.765-1.925c-13.887 56.017-37.186 90.772-71.394 108.022l3.602 7.143Zm-4.058 1.917a19.909 19.909 0 0 1 3.609-1.724l-2.705-7.529a27.864 27.864 0 0 0-5.059 2.417l4.155 6.836Zm7.54 42.256a4.014 4.014 0 0 0 4.146 2.837l-.608-7.977a3.988 3.988 0 0 1 4.118 2.817l-7.656 2.323Zm-13.496-44.486a3.996 3.996 0 0 1 1.74-4.569l4.173 6.825a4.004 4.004 0 0 0 1.743-4.578l-7.656 2.322Zm17.472 47.312a3.987 3.987 0 0 1-3.976-2.826l7.656-2.323a4.014 4.014 0 0 0-4.003-2.844l.323 7.993Zm-15.287-52.124a4.004 4.004 0 0 0-2.185 4.812l7.656-2.322a3.994 3.994 0 0 1-2.18 4.801l-3.291-7.291Z"/><defs><filter id="a" width="248" height="216" x="10" y="117" color-interpolation-filters="sRGB" filterUnits="userSpaceOnUse"><feFlood flood-opacity="0" result="BackgroundImageFix"/><feBlend in="SourceGraphic" in2="BackgroundImageFix" result="shape"/><feColorMatrix in="SourceAlpha" result="hardAlpha" values="0 0 0 0 0 0 0 0 0 0 0 0 0 0 0 0 0 0 127 0"/><feOffset dy="-16"/><feComposite in2="hardAlpha" k2="-1" k3="1" operator="arithmetic"/><feColorMatrix values="0 0 0 0 0 0 0 0 0 0 0 0 0 0 0 0 0 0 0.25 0"/><feBlend in2="shape" result="effect1_innerShadow"/><feColorMatrix in="SourceAlpha" result="hardAlpha" values="0 0 0 0 0 0 0 0 0 0 0 0 0 0 0 0 0 0 127 0"/><feOffset dy="16"/><feComposite in2="hardAlpha" k2="-1" k3="1" operator="arithmetic"/><feColorMatrix values="0 0 0 0 1 0 0 0 0 1 0 0 0 0 1 0 0 0 0.25 0"/><feBlend in2="effect1_innerShadow" result="effect2_innerShadow"/></filter><filter id="b" width="232" height="216" x="110" y="117" color-interpolation-filters="sRGB" filterUnits="userSpaceOnUse"><feFlood flood-opacity="0" result="BackgroundImageFix"/><feBlend in="SourceGraphic" in2="BackgroundImageFix" result="shape"/><feColorMatrix in="SourceAlpha" result="hardAlpha" values="0 0 0 0 0 0 0 0 0 0 0 0 0 0 0 0 0 0 127 0"/><feOffset dx="-24" dy="8"/><feComposite in2="hardAlpha" k2="-1" k3="1" operator="arithmetic"/><feColorMatrix values="0 0 0 0 1 0 0 0 0 1 0 0 0 0 1 0 0 0 0.25 0"/><feBlend in2="shape" result="effect1_innerShadow"/></filter><filter id="c" width="176" height="64" x="138" y="171" color-interpolation-filters="sRGB" filterUnits="userSpaceOnUse"><feFlood flood-opacity="0" result="BackgroundImageFix"/><feColorMatrix in="SourceAlpha" result="hardAlpha" values="0 0 0 0 0 0 0 0 0 0 0 0 0 0 0 0 0 0 127 0"/><feOffset dx="-4"/><feColorMatrix values="0 0 0 0 1 0 0 0 0 1 0 0 0 0 1 0 0 0 0.25 0"/><feBlend in2="BackgroundImageFix" result="effect1_dropShadow"/><feColorMatrix in="SourceAlpha" result="hardAlpha" values="0 0 0 0 0 0 0 0 0 0 0 0 0 0 0 0 0 0 127 0"/><feOffset dx="4"/><feColorMatrix values="0 0 0 0 0 0 0 0 0 0 0 0 0 0 0 0 0 0 0.25 0"/><feBlend in2="effect1_dropShadow" result="effect2_dropShadow"/><feBlend in="SourceGraphic" in2="effect2_dropShadow" result="shape"/><feColorMatrix in="SourceAlpha" result="hardAlpha" values="0 0 0 0 0 0 0 0 0 0 0 0 0 0 0 0 0 0 127 0"/><feOffset dx="-4"/><feComposite in2="hardAlpha" k2="-1" k3="1" operator="arithmetic"/><feColorMatrix values="0 0 0 0 0 0 0 0 0 0 0 0 0 0 0 0 0 0 0.25 0"/><feBlend in2="shape" result="effect3_innerShadow"/></filter><filter id="d" width="40" height="40" x="35" y="172" color-interpolation-filters="sRGB" filterUnits="userSpaceOnUse"><feFlood flood-opacity="0" result="BackgroundImageFix"/><feBlend in="SourceGraphic" in2="BackgroundImageFix" result="shape"/><feColorMatrix in="SourceAlpha" result="hardAlpha" values="0 0 0 0 0 0 0 0 0 0 0 0 0 0 0 0 0 0 127 0"/><feOffset dx="16"/><feComposite in2="hardAlpha" k2="-1" k3="1" operator="arithmetic"/><feColorMatrix values="0 0 0 0 0 0 0 0 0 0 0 0 0 0 0 0 0 0 0.25 0"/><feBlend in2="shape" result="effect1_innerShadow"/><feColorMatrix in="SourceAlpha" result="hardAlpha" values="0 0 0 0 0 0 0 0 0 0 0 0 0 0 0 0 0 0 127 0"/><feOffset dx="-24" dy="8"/><feComposite in2="hardAlpha" k2="-1" k3="1" operator="arithmetic"/><feColorMatrix values="0 0 0 0 1 0 0 0 0 1 0 0 0 0 1 0 0 0 0.25 0"/><feBlend in2="effect1_innerShadow" result="effect2_innerShadow"/></filter><filter id="e" width="81" height="49" x="14" y="229" color-interpolation-filters="sRGB" filterUnits="userSpaceOnUse"><feFlood flood-opacity="0" result="BackgroundImageFix"/><feBlend in="SourceGraphic" in2="BackgroundImageFix" result="shape"/><feColorMatrix in="SourceAlpha" result="hardAlpha" values="0 0 0 0 0 0 0 0 0 0 0 0 0 0 0 0 0 0 127 0"/><feOffset dy="-16"/><feComposite in2="hardAlpha" k2="-1" k3="1" operator="arithmetic"/><feColorMatrix values="0 0 0 0 0 0 0 0 0 0 0 0 0 0 0 0 0 0 0.25 0"/><feBlend in2="shape" result="effect1_innerShadow"/><feColorMatrix in="SourceAlpha" result="hardAlpha" values="0 0 0 0 0 0 0 0 0 0 0 0 0 0 0 0 0 0 127 0"/><feOffset dy="16"/><feComposite in2="hardAlpha" k2="-1" k3="1" operator="arithmetic"/><feColorMatrix values="0 0 0 0 1 0 0 0 0 1 0 0 0 0 1 0 0 0 0.25 0"/><feBlend in2="effect1_innerShadow" result="effect2_innerShadow"/></filter><filter id="f" width="32.589" height="49" x="62" y="229" color-interpolation-filters="sRGB" filterUnits="userSpaceOnUse"><feFlood flood-opacity="0" result="BackgroundImageFix"/><feBlend in="SourceGraphic" in2="BackgroundImageFix" result="shape"/><feColorMatrix in="SourceAlpha" result="hardAlpha" values="0 0 0 0 0 0 0 0 0 0 0 0 0 0 0 0 0 0 127 0"/><feOffset dx="-24" dy="8"/><feComposite in2="hardAlpha" k2="-1" k3="1" operator="arithmetic"/><feColorMatrix values="0 0 0 0 1 0 0 0 0 1 0 0 0 0 1 0 0 0 0.25 0"/><feBlend in2="shape" result="effect1_innerShadow"/></filter><filter id="g" width="99" height="37.5" x="183" y="264.5" color-interpolation-filters="sRGB" filterUnits="userSpaceOnUse"><feFlood flood-opacity="0" result="BackgroundImageFix"/><feBlend in="SourceGraphic" in2="BackgroundImageFix" result="shape"/><feColorMatrix in="SourceAlpha" result="hardAlpha" values="0 0 0 0 0 0 0 0 0 0 0 0 0 0 0 0 0 0 127 0"/><feOffset dx="-24" dy="8"/><feComposite in2="hardAlpha" k2="-1" k3="1" operator="arithmetic"/><feColorMatrix values="0 0 0 0 1 0 0 0 0 1 0 0 0 0 1 0 0 0 0.25 0"/><feBlend in2="shape" result="effect1_innerShadow"/></filter><filter id="h" width="99" height="34.5" x="183" y="238" color-interpolation-filters="sRGB" filterUnits="userSpaceOnUse"><feFlood flood-opacity="0" result="BackgroundImageFix"/><feBlend in="SourceGraphic" in2="BackgroundImageFix" result="shape"/><feColorMatrix in="SourceAlpha" result="hardAlpha" values="0 0 0 0 0 0 0 0 0 0 0 0 0 0 0 0 0 0 127 0"/><feOffset dx="-24" dy="8"/><feComposite in2="hardAlpha" k2="-1" k3="1" operator="arithmetic"/><feColorMatrix values="0 0 0 0 1 0 0 0 0 1 0 0 0 0 1 0 0 0 0.25 0"/><feBlend in2="shape" result="effect1_innerShadow"/></filter><filter id="i" width="105.708" height="167.538" x="272" y="0" color-interpolation-filters="sRGB" filterUnits="userSpaceOnUse"><feFlood flood-opacity="0" result="BackgroundImageFix"/><feBlend in="SourceGraphic" in2="BackgroundImageFix" result="shape"/><feColorMatrix in="SourceAlpha" result="hardAlpha" values="0 0 0 0 0 0 0 0 0 0 0 0 0 0 0 0 0 0 127 0"/><feOffset dx="16"/><feComposite in2="hardAlpha" k2="-1" k3="1" operator="arithmetic"/><feColorMatrix values="0 0 0 0 0 0 0 0 0 0 0 0 0 0 0 0 0 0 0.25 0"/><feBlend in2="shape" result="effect1_innerShadow"/><feColorMatrix in="SourceAlpha" result="hardAlpha" values="0 0 0 0 0 0 0 0 0 0 0 0 0 0 0 0 0 0 127 0"/><feOffset dx="-24" dy="8"/><feComposite in2="hardAlpha" k2="-1" k3="1" operator="arithmetic"/><feColorMatrix values="0 0 0 0 1 0 0 0 0 1 0 0 0 0 1 0 0 0 0.25 0"/><feBlend in2="effect1_innerShadow" result="effect2_innerShadow"/></filter><filter id="j" width="105.708" height="167.538" x="152" y="0" color-interpolation-filters="sRGB" filterUnits="userSpaceOnUse"><feFlood flood-opacity="0" result="BackgroundImageFix"/><feBlend in="SourceGraphic" in2="BackgroundImageFix" result="shape"/><feColorMatrix in="SourceAlpha" result="hardAlpha" values="0 0 0 0 0 0 0 0 0 0 0 0 0 0 0 0 0 0 127 0"/><feOffset dx="16"/><feComposite in2="hardAlpha" k2="-1" k3="1" operator="arithmetic"/><feColorMatrix values="0 0 0 0 0 0 0 0 0 0 0 0 0 0 0 0 0 0 0.25 0"/><feBlend in2="shape" result="effect1_innerShadow"/><feColorMatrix in="SourceAlpha" result="hardAlpha" values="0 0 0 0 0 0 0 0 0 0 0 0 0 0 0 0 0 0 127 0"/><feOffset dx="-24" dy="8"/><feComposite in2="hardAlpha" k2="-1" k3="1" operator="arithmetic"/><feColorMatrix values="0 0 0 0 1 0 0 0 0 1 0 0 0 0 1 0 0 0 0.25 0"/><feBlend in2="effect1_innerShadow" result="effect2_innerShadow"/></filter></defs></svg>