<svg xmlns="http://www.w3.org/2000/svg" width="420" height="312" fill="none"><g filter="url(#a)"><path fill="#E4B45D" d="M16 124c0-13.255 10.745-24 24-24h192c13.255 0 24 10.745 24 24v160c0 13.255-10.745 24-24 24H80c-35.346 0-64-28.654-64-64V124Z"/></g><path stroke="#1F2024" stroke-width="8" d="M16 124c0-13.255 10.745-24 24-24h192c13.255 0 24 10.745 24 24v160c0 13.255-10.745 24-24 24H80c-35.346 0-64-28.654-64-64V124Z"/><g filter="url(#b)"><path fill="#F0D07A" d="M116 124c0-13.255 10.745-24 24-24h176c13.255 0 24 10.745 24 24v120c0 35.346-28.654 64-64 64h-96c-35.346 0-64-28.654-64-64V124Z"/></g><path stroke="#1F2024" stroke-width="8" d="M116 124c0-13.255 10.745-24 24-24h176c13.255 0 24 10.745 24 24v120c0 35.346-28.654 64-64 64h-96c-35.346 0-64-28.654-64-64V124Z"/><g filter="url(#c)"><path fill="#2477D5" fill-rule="evenodd" d="M16.717 191.436c-3.945-6.364-3.156-14.829 2.367-20.352s13.988-6.312 20.352-2.367C41.146 161.428 47.689 156 55.5 156s14.355 5.428 16.064 12.717c6.364-3.945 14.829-3.156 20.352 2.367s6.312 13.988 2.367 20.352c7.289 1.71 12.717 8.253 12.717 16.064s-5.428 14.354-12.717 16.064c3.945 6.364 3.156 14.829-2.367 20.352s-13.988 6.312-20.352 2.367C69.854 253.572 63.311 259 55.5 259s-14.354-5.428-16.064-12.717c-6.364 3.945-14.829 3.156-20.352-2.367s-6.312-13.988-2.367-20.352C9.427 221.854 4 215.311 4 207.5s5.428-14.354 12.717-16.064Z" clip-rule="evenodd"/></g><path fill="#1F2024" d="m16.717 191.436.914 3.894a4 4 0 0 0 2.486-6.002l-3.4 2.108Zm22.719-22.719-2.108 3.4a4.001 4.001 0 0 0 6.002-2.486l-3.894-.914Zm32.128 0-3.894.914a4.002 4.002 0 0 0 6.002 2.486l-2.108-3.4Zm20.352 2.367-2.828 2.828 2.828-2.828Zm2.367 20.352-3.4-2.108a3.999 3.999 0 0 0 2.486 6.002l.914-3.894Zm0 32.128-.914-3.894a4 4 0 0 0-2.486 6.002l3.4-2.108Zm-22.719 22.719 2.108-3.4a4.001 4.001 0 0 0-6.002 2.486l3.894.914Zm-32.128 0 3.894-.914a4.002 4.002 0 0 0-6.002-2.486l2.108 3.4Zm-20.352-2.367 2.828-2.828-2.828 2.828Zm-2.367-20.352 3.4 2.108a4 4 0 0 0-2.486-6.002l-.914 3.894Zm3.4-34.236c-2.989-4.821-2.385-11.235 1.795-15.416l-5.656-5.656c-6.866 6.865-7.84 17.381-2.938 25.287l6.799-4.215Zm1.795-15.416c4.181-4.18 10.595-4.784 15.416-1.795l4.215-6.799c-7.906-4.902-18.421-3.928-25.287 2.938l5.656 5.656Zm21.418-4.281C44.625 164.109 49.588 160 55.5 160v-8c-9.71 0-17.834 6.747-19.959 15.804l7.789 1.827ZM55.5 160c5.912 0 10.875 4.109 12.17 9.631l7.789-1.827C73.334 158.747 65.209 152 55.5 152v8Zm18.172 12.117c4.82-2.989 11.235-2.385 15.416 1.795l5.656-5.656c-6.865-6.866-17.38-7.84-25.287-2.938l4.215 6.799Zm15.416 1.795c4.18 4.181 4.784 10.595 1.795 15.416l6.8 4.215c4.901-7.906 3.927-18.422-2.939-25.287l-5.656 5.656Zm4.281 21.418c5.522 1.295 9.631 6.258 9.631 12.17h8c0-9.71-6.747-17.834-15.804-19.959l-1.827 7.789ZM103 207.5c0 5.912-4.109 10.875-9.63 12.17l1.826 7.789C104.253 225.334 111 217.21 111 207.5h-8Zm-12.117 18.172c2.989 4.821 2.385 11.235-1.795 15.416l5.656 5.656c6.866-6.865 7.84-17.381 2.938-25.287l-6.799 4.215Zm-1.795 15.416c-4.181 4.18-10.595 4.784-15.416 1.795l-4.215 6.799c7.906 4.902 18.422 3.928 25.287-2.938l-5.656-5.656Zm-21.418 4.281C66.375 250.891 61.412 255 55.5 255v8c9.71 0 17.834-6.747 19.959-15.804l-7.789-1.827ZM55.5 255c-5.912 0-10.875-4.109-12.17-9.631l-7.789 1.827C37.666 256.253 45.791 263 55.5 263v-8Zm-18.172-12.117c-4.82 2.989-11.235 2.385-15.416-1.795l-5.656 5.656c6.866 6.866 17.38 7.84 25.287 2.938l-4.215-6.799Zm-15.416-1.795c-4.18-4.181-4.784-10.595-1.795-15.416l-6.8-4.215c-4.901 7.906-3.927 18.422 2.939 25.287l5.656-5.656Zm-4.281-21.418C12.109 218.375 8 213.412 8 207.5H0c0 9.71 6.747 17.834 15.804 19.959l1.827-7.789ZM8 207.5c0-5.912 4.108-10.875 9.63-12.17l-1.826-7.789C6.747 189.666 0 197.79 0 207.5h8Z"/><g filter="url(#d)"><circle cx="55" cy="207" r="20" fill="#F9E174"/></g><circle cx="55" cy="207" r="20" stroke="#1F2024" stroke-width="8"/><mask id="e" width="184" height="168" x="136" y="120" mask-type="alpha" maskUnits="userSpaceOnUse"><path fill="#4A4A4E" stroke="#1F2024" stroke-width="8" d="M140 132a8 8 0 0 1 8-8h160a8 8 0 0 1 8 8v144a8 8 0 0 1-8 8H148a8 8 0 0 1-8-8V132Z"/></mask><g mask="url(#e)"><g filter="url(#f)"><path fill="#4A4A4E" d="M140 132a8 8 0 0 1 8-8h160a8 8 0 0 1 8 8v144a8 8 0 0 1-8 8H148a8 8 0 0 1-8-8V132Z"/></g><path stroke="#1F2024" stroke-width="8" d="M140 132a8 8 0 0 1 8-8h160a8 8 0 0 1 8 8v144a8 8 0 0 1-8 8H148a8 8 0 0 1-8-8V132Z"/><g filter="url(#g)"><circle cx="196" cy="204" r="60" fill="#797A7C"/><circle cx="196" cy="204" r="60" stroke="#1F2024" stroke-width="8"/></g><rect width="59" height="16" x="293" y="191" fill="#ACACAE" stroke="#1F2024" stroke-linejoin="round" stroke-width="8" rx="8"/><rect width="60" height="48" x="235" y="175" fill="#ACACAE" stroke="#1F2024" stroke-width="8" rx="24"/><g filter="url(#h)"><circle cx="271" cy="199" r="24" fill="#fff"/></g><circle cx="271" cy="199" r="24" stroke="#1F2024" stroke-width="8"/><circle cx="279" cy="199" r="8" fill="#FE204F" stroke="#1F2024" stroke-width="8"/><g filter="url(#i)"><circle cx="300" cy="263" r="28" fill="#ACACAE"/></g><circle cx="300" cy="263" r="28" stroke="#1F2024" stroke-width="8"/><g filter="url(#j)"><circle cx="148" cy="271" r="28" fill="#ACACAE"/></g><circle cx="148" cy="271" r="28" stroke="#1F2024" stroke-width="8"/><g filter="url(#k)"><rect width="16" height="88" x="220" y="108" fill="#ACACAE" stroke="#1F2024" stroke-linejoin="round" stroke-width="8" rx="8"/><g filter="url(#l)"><circle cx="228" cy="199" r="12" fill="#ACACAE"/></g><circle cx="228" cy="199" r="12" stroke="#1F2024" stroke-width="8"/><rect width="27" height="16" x="193" y="191" fill="#ACACAE" stroke="#1F2024" stroke-linejoin="round" stroke-width="8" rx="8"/><path fill="#ACACAE" stroke="#1F2024" stroke-linejoin="round" stroke-width="8" d="M188 223h79v44h-79v-44Z"/><path fill="#797A7C" stroke="#1F2024" stroke-linejoin="round" stroke-width="8" d="M204 255h55v12h-71l16-12Z"/><path fill="#fff" stroke="#1F2024" stroke-linejoin="round" stroke-width="8" d="M204 223h55v32h-55z"/><path fill="#fff" stroke="#1F2024" stroke-linejoin="round" stroke-width="8" d="M218 235h1v8h-1zM231 235h1v8h-1zM244 235h1v8h-1z"/><rect width="67" height="16" x="127" y="234" fill="#797A7C" stroke="#1F2024" stroke-linejoin="round" stroke-width="8" rx="8"/></g><rect width="60" height="48" x="148" y="175" fill="#ACACAE" stroke="#1F2024" stroke-width="8" rx="24"/><g filter="url(#m)"><circle cx="184" cy="199" r="24" fill="#fff"/></g><circle cx="184" cy="199" r="24" stroke="#1F2024" stroke-width="8"/><circle cx="192" cy="199" r="8" fill="#FE204F" stroke="#1F2024" stroke-width="8"/><rect width="59" height="16" x="98" y="191" fill="#ACACAE" stroke="#1F2024" stroke-linejoin="round" stroke-width="8" rx="8"/><path stroke="#1F2024" stroke-width="8" d="M140 132a8 8 0 0 1 8-8h160a8 8 0 0 1 8 8v144a8 8 0 0 1-8 8H148a8 8 0 0 1-8-8V132Z"/></g><g filter="url(#n)"><circle cx="148" cy="18" r="14" fill="#fff"/></g><circle cx="148" cy="18" r="14" stroke="#1F2024" stroke-width="8"/><g filter="url(#o)"><path fill="#4795E0" d="M63 67c0-26.51 21.49-48 48-48h51c26.51 0 48 21.49 48 48v33H63V67Z"/></g><path stroke="#1F2024" stroke-width="8" d="M63 67c0-26.51 21.49-48 48-48h51c26.51 0 48 21.49 48 48v33H63V67Z"/><g filter="url(#p)"><path fill="#9BCEF1" d="M110 67c0-26.51 21.49-48 48-48h28c26.51 0 48 21.49 48 48v33H110V67Z"/></g><path stroke="#1F2024" stroke-width="8" d="M110 67c0-26.51 21.49-48 48-48h28c26.51 0 48 21.49 48 48v33H110V67Z"/><path fill="#1F2024" d="M109 98a6 6 0 0 1 6-6h166c6.627 0 12 5.373 12 12H109v-6Z"/><g filter="url(#q)"><circle cx="182" cy="56" r="28" fill="#fff"/></g><circle cx="182" cy="56" r="28" stroke="#1F2024" stroke-width="5"/><path fill="#1058C5" d="M182.641 63.828h-9.027l-1.145 3.755A2 2 0 0 1 170.556 69h-2.705a2 2 0 0 1-1.881-2.68l8.574-23.688a2 2 0 0 1 1.881-1.32h3.39a2 2 0 0 1 1.879 1.315l8.638 23.688A2 2 0 0 1 188.453 69h-2.741a2 2 0 0 1-1.911-1.41l-1.16-3.763Zm-7.451-5.154h5.874l-2.946-9.603-2.928 9.603ZM197.7 67a2 2 0 0 1-2 2h-2.343a2 2 0 0 1-2-2V50.424a2 2 0 0 1 2-2h2.343a2 2 0 0 1 2 2V67Zm-6.719-23.881c0-.913.326-1.661.976-2.244.651-.583 1.495-.875 2.534-.875 1.038 0 1.883.292 2.533.875.651.583.976 1.33.976 2.244 0 .913-.325 1.66-.976 2.244-.65.583-1.495.874-2.533.874-1.039 0-1.883-.291-2.534-.874-.65-.584-.976-1.331-.976-2.244Z"/><g filter="url(#r)"><g filter="url(#s)"><path fill="#F0D07A" d="M240 132a8 8 0 0 1 8-8h160a8 8 0 0 1 8 8v144a8 8 0 0 1-8 8H248a8 8 0 0 1-8-8V132Z"/></g><path stroke="#1F2024" stroke-width="8" d="M240 132a8 8 0 0 1 8-8h160a8 8 0 0 1 8 8v144a8 8 0 0 1-8 8H248a8 8 0 0 1-8-8V132Z"/><path stroke="#1F2024" stroke-linecap="round" stroke-width="8" d="M384 195c0 3.183-1.264 6.235-3.515 8.485a11.996 11.996 0 0 1-16.97 0A11.996 11.996 0 0 1 360 195M296 195c0 3.183-1.264 6.235-3.515 8.485a11.996 11.996 0 0 1-16.97 0A11.996 11.996 0 0 1 272 195M316 224h23"/></g><defs><filter id="k" width="156" height="167" x="115" y="104" color-interpolation-filters="sRGB" filterUnits="userSpaceOnUse"><feFlood flood-opacity="0" result="BackgroundImageFix"/><feColorMatrix in="SourceAlpha" result="hardAlpha" values="0 0 0 0 0 0 0 0 0 0 0 0 0 0 0 0 0 0 127 0"/><feOffset dx="-8"/><feColorMatrix values="0 0 0 0 0 0 0 0 0 0 0 0 0 0 0 0 0 0 0.25 0"/><feBlend in2="BackgroundImageFix" result="effect1_dropShadow"/><feBlend in="SourceGraphic" in2="effect1_dropShadow" result="shape"/></filter><filter id="a" width="248" height="216" x="12" y="96" color-interpolation-filters="sRGB" filterUnits="userSpaceOnUse"><feFlood flood-opacity="0" result="BackgroundImageFix"/><feBlend in="SourceGraphic" in2="BackgroundImageFix" result="shape"/><feColorMatrix in="SourceAlpha" result="hardAlpha" values="0 0 0 0 0 0 0 0 0 0 0 0 0 0 0 0 0 0 127 0"/><feOffset dy="-16"/><feComposite in2="hardAlpha" k2="-1" k3="1" operator="arithmetic"/><feColorMatrix values="0 0 0 0 0 0 0 0 0 0 0 0 0 0 0 0 0 0 0.25 0"/><feBlend in2="shape" result="effect1_innerShadow"/><feColorMatrix in="SourceAlpha" result="hardAlpha" values="0 0 0 0 0 0 0 0 0 0 0 0 0 0 0 0 0 0 127 0"/><feOffset dy="16"/><feComposite in2="hardAlpha" k2="-1" k3="1" operator="arithmetic"/><feColorMatrix values="0 0 0 0 1 0 0 0 0 1 0 0 0 0 1 0 0 0 0.25 0"/><feBlend in2="effect1_innerShadow" result="effect2_innerShadow"/></filter><filter id="c" width="111" height="111" x="0" y="152" color-interpolation-filters="sRGB" filterUnits="userSpaceOnUse"><feFlood flood-opacity="0" result="BackgroundImageFix"/><feBlend in="SourceGraphic" in2="BackgroundImageFix" result="shape"/><feColorMatrix in="SourceAlpha" result="hardAlpha" values="0 0 0 0 0 0 0 0 0 0 0 0 0 0 0 0 0 0 127 0"/><feOffset dx="16"/><feComposite in2="hardAlpha" k2="-1" k3="1" operator="arithmetic"/><feColorMatrix values="0 0 0 0 0 0 0 0 0 0 0 0 0 0 0 0 0 0 0.25 0"/><feBlend in2="shape" result="effect1_innerShadow"/><feColorMatrix in="SourceAlpha" result="hardAlpha" values="0 0 0 0 0 0 0 0 0 0 0 0 0 0 0 0 0 0 127 0"/><feOffset dx="-24" dy="8"/><feComposite in2="hardAlpha" k2="-1" k3="1" operator="arithmetic"/><feColorMatrix values="0 0 0 0 1 0 0 0 0 1 0 0 0 0 1 0 0 0 0.25 0"/><feBlend in2="effect1_innerShadow" result="effect2_innerShadow"/></filter><filter id="d" width="48" height="48" x="31" y="183" color-interpolation-filters="sRGB" filterUnits="userSpaceOnUse"><feFlood flood-opacity="0" result="BackgroundImageFix"/><feBlend in="SourceGraphic" in2="BackgroundImageFix" result="shape"/><feColorMatrix in="SourceAlpha" result="hardAlpha" values="0 0 0 0 0 0 0 0 0 0 0 0 0 0 0 0 0 0 127 0"/><feOffset dx="16"/><feComposite in2="hardAlpha" k2="-1" k3="1" operator="arithmetic"/><feColorMatrix values="0 0 0 0 0 0 0 0 0 0 0 0 0 0 0 0 0 0 0.25 0"/><feBlend in2="shape" result="effect1_innerShadow"/><feColorMatrix in="SourceAlpha" result="hardAlpha" values="0 0 0 0 0 0 0 0 0 0 0 0 0 0 0 0 0 0 127 0"/><feOffset dx="-24" dy="8"/><feComposite in2="hardAlpha" k2="-1" k3="1" operator="arithmetic"/><feColorMatrix values="0 0 0 0 1 0 0 0 0 1 0 0 0 0 1 0 0 0 0.25 0"/><feBlend in2="effect1_innerShadow" result="effect2_innerShadow"/></filter><filter id="f" width="184" height="168" x="136" y="120" color-interpolation-filters="sRGB" filterUnits="userSpaceOnUse"><feFlood flood-opacity="0" result="BackgroundImageFix"/><feBlend in="SourceGraphic" in2="BackgroundImageFix" result="shape"/><feColorMatrix in="SourceAlpha" result="hardAlpha" values="0 0 0 0 0 0 0 0 0 0 0 0 0 0 0 0 0 0 127 0"/><feOffset dx="-24" dy="8"/><feComposite in2="hardAlpha" k2="-1" k3="1" operator="arithmetic"/><feColorMatrix values="0 0 0 0 1 0 0 0 0 1 0 0 0 0 1 0 0 0 0.25 0"/><feBlend in2="shape" result="effect1_innerShadow"/></filter><filter id="g" width="136" height="128" x="124" y="140" color-interpolation-filters="sRGB" filterUnits="userSpaceOnUse"><feFlood flood-opacity="0" result="BackgroundImageFix"/><feColorMatrix in="SourceAlpha" result="hardAlpha" values="0 0 0 0 0 0 0 0 0 0 0 0 0 0 0 0 0 0 127 0"/><feOffset dx="-8"/><feColorMatrix values="0 0 0 0 0 0 0 0 0 0 0 0 0 0 0 0 0 0 0.25 0"/><feBlend in2="BackgroundImageFix" result="effect1_dropShadow"/><feBlend in="SourceGraphic" in2="effect1_dropShadow" result="shape"/><feColorMatrix in="SourceAlpha" result="hardAlpha" values="0 0 0 0 0 0 0 0 0 0 0 0 0 0 0 0 0 0 127 0"/><feOffset dx="16"/><feComposite in2="hardAlpha" k2="-1" k3="1" operator="arithmetic"/><feColorMatrix values="0 0 0 0 0 0 0 0 0 0 0 0 0 0 0 0 0 0 0.25 0"/><feBlend in2="shape" result="effect2_innerShadow"/><feColorMatrix in="SourceAlpha" result="hardAlpha" values="0 0 0 0 0 0 0 0 0 0 0 0 0 0 0 0 0 0 127 0"/><feOffset dx="-16" dy="8"/><feComposite in2="hardAlpha" k2="-1" k3="1" operator="arithmetic"/><feColorMatrix values="0 0 0 0 1 0 0 0 0 1 0 0 0 0 1 0 0 0 0.25 0"/><feBlend in2="effect2_innerShadow" result="effect3_innerShadow"/></filter><filter id="h" width="56" height="56" x="243" y="171" color-interpolation-filters="sRGB" filterUnits="userSpaceOnUse"><feFlood flood-opacity="0" result="BackgroundImageFix"/><feBlend in="SourceGraphic" in2="BackgroundImageFix" result="shape"/><feColorMatrix in="SourceAlpha" result="hardAlpha" values="0 0 0 0 0 0 0 0 0 0 0 0 0 0 0 0 0 0 127 0"/><feOffset dx="16"/><feComposite in2="hardAlpha" k2="-1" k3="1" operator="arithmetic"/><feColorMatrix values="0 0 0 0 0 0 0 0 0 0 0 0 0 0 0 0 0 0 0.25 0"/><feBlend in2="shape" result="effect1_innerShadow"/><feColorMatrix in="SourceAlpha" result="hardAlpha" values="0 0 0 0 0 0 0 0 0 0 0 0 0 0 0 0 0 0 127 0"/><feOffset dx="-24" dy="8"/><feComposite in2="hardAlpha" k2="-1" k3="1" operator="arithmetic"/><feColorMatrix values="0 0 0 0 1 0 0 0 0 1 0 0 0 0 1 0 0 0 0.25 0"/><feBlend in2="effect1_innerShadow" result="effect2_innerShadow"/></filter><filter id="i" width="64" height="64" x="268" y="231" color-interpolation-filters="sRGB" filterUnits="userSpaceOnUse"><feFlood flood-opacity="0" result="BackgroundImageFix"/><feBlend in="SourceGraphic" in2="BackgroundImageFix" result="shape"/><feColorMatrix in="SourceAlpha" result="hardAlpha" values="0 0 0 0 0 0 0 0 0 0 0 0 0 0 0 0 0 0 127 0"/><feOffset dx="16"/><feComposite in2="hardAlpha" k2="-1" k3="1" operator="arithmetic"/><feColorMatrix values="0 0 0 0 0 0 0 0 0 0 0 0 0 0 0 0 0 0 0.25 0"/><feBlend in2="shape" result="effect1_innerShadow"/><feColorMatrix in="SourceAlpha" result="hardAlpha" values="0 0 0 0 0 0 0 0 0 0 0 0 0 0 0 0 0 0 127 0"/><feOffset dx="-24" dy="8"/><feComposite in2="hardAlpha" k2="-1" k3="1" operator="arithmetic"/><feColorMatrix values="0 0 0 0 1 0 0 0 0 1 0 0 0 0 1 0 0 0 0.25 0"/><feBlend in2="effect1_innerShadow" result="effect2_innerShadow"/></filter><filter id="j" width="64" height="64" x="116" y="239" color-interpolation-filters="sRGB" filterUnits="userSpaceOnUse"><feFlood flood-opacity="0" result="BackgroundImageFix"/><feBlend in="SourceGraphic" in2="BackgroundImageFix" result="shape"/><feColorMatrix in="SourceAlpha" result="hardAlpha" values="0 0 0 0 0 0 0 0 0 0 0 0 0 0 0 0 0 0 127 0"/><feOffset dx="16"/><feComposite in2="hardAlpha" k2="-1" k3="1" operator="arithmetic"/><feColorMatrix values="0 0 0 0 0 0 0 0 0 0 0 0 0 0 0 0 0 0 0.25 0"/><feBlend in2="shape" result="effect1_innerShadow"/><feColorMatrix in="SourceAlpha" result="hardAlpha" values="0 0 0 0 0 0 0 0 0 0 0 0 0 0 0 0 0 0 127 0"/><feOffset dx="-24" dy="8"/><feComposite in2="hardAlpha" k2="-1" k3="1" operator="arithmetic"/><feColorMatrix values="0 0 0 0 1 0 0 0 0 1 0 0 0 0 1 0 0 0 0.25 0"/><feBlend in2="effect1_innerShadow" result="effect2_innerShadow"/></filter><filter id="b" width="232" height="216" x="112" y="96" color-interpolation-filters="sRGB" filterUnits="userSpaceOnUse"><feFlood flood-opacity="0" result="BackgroundImageFix"/><feBlend in="SourceGraphic" in2="BackgroundImageFix" result="shape"/><feColorMatrix in="SourceAlpha" result="hardAlpha" values="0 0 0 0 0 0 0 0 0 0 0 0 0 0 0 0 0 0 127 0"/><feOffset dx="-24" dy="8"/><feComposite in2="hardAlpha" k2="-1" k3="1" operator="arithmetic"/><feColorMatrix values="0 0 0 0 1 0 0 0 0 1 0 0 0 0 1 0 0 0 0.25 0"/><feBlend in2="shape" result="effect1_innerShadow"/></filter><filter id="l" width="32" height="32" x="212" y="183" color-interpolation-filters="sRGB" filterUnits="userSpaceOnUse"><feFlood flood-opacity="0" result="BackgroundImageFix"/><feBlend in="SourceGraphic" in2="BackgroundImageFix" result="shape"/><feColorMatrix in="SourceAlpha" result="hardAlpha" values="0 0 0 0 0 0 0 0 0 0 0 0 0 0 0 0 0 0 127 0"/><feOffset dx="16"/><feComposite in2="hardAlpha" k2="-1" k3="1" operator="arithmetic"/><feColorMatrix values="0 0 0 0 0 0 0 0 0 0 0 0 0 0 0 0 0 0 0.25 0"/><feBlend in2="shape" result="effect1_innerShadow"/><feColorMatrix in="SourceAlpha" result="hardAlpha" values="0 0 0 0 0 0 0 0 0 0 0 0 0 0 0 0 0 0 127 0"/><feOffset dx="-16" dy="8"/><feComposite in2="hardAlpha" k2="-1" k3="1" operator="arithmetic"/><feColorMatrix values="0 0 0 0 1 0 0 0 0 1 0 0 0 0 1 0 0 0 0.25 0"/><feBlend in2="effect1_innerShadow" result="effect2_innerShadow"/></filter><filter id="m" width="56" height="56" x="156" y="171" color-interpolation-filters="sRGB" filterUnits="userSpaceOnUse"><feFlood flood-opacity="0" result="BackgroundImageFix"/><feBlend in="SourceGraphic" in2="BackgroundImageFix" result="shape"/><feColorMatrix in="SourceAlpha" result="hardAlpha" values="0 0 0 0 0 0 0 0 0 0 0 0 0 0 0 0 0 0 127 0"/><feOffset dx="16"/><feComposite in2="hardAlpha" k2="-1" k3="1" operator="arithmetic"/><feColorMatrix values="0 0 0 0 0 0 0 0 0 0 0 0 0 0 0 0 0 0 0.25 0"/><feBlend in2="shape" result="effect1_innerShadow"/><feColorMatrix in="SourceAlpha" result="hardAlpha" values="0 0 0 0 0 0 0 0 0 0 0 0 0 0 0 0 0 0 127 0"/><feOffset dx="-24" dy="8"/><feComposite in2="hardAlpha" k2="-1" k3="1" operator="arithmetic"/><feColorMatrix values="0 0 0 0 1 0 0 0 0 1 0 0 0 0 1 0 0 0 0.25 0"/><feBlend in2="effect1_innerShadow" result="effect2_innerShadow"/></filter><filter id="n" width="36" height="36" x="130" y="0" color-interpolation-filters="sRGB" filterUnits="userSpaceOnUse"><feFlood flood-opacity="0" result="BackgroundImageFix"/><feBlend in="SourceGraphic" in2="BackgroundImageFix" result="shape"/><feColorMatrix in="SourceAlpha" result="hardAlpha" values="0 0 0 0 0 0 0 0 0 0 0 0 0 0 0 0 0 0 127 0"/><feOffset dx="-24" dy="8"/><feComposite in2="hardAlpha" k2="-1" k3="1" operator="arithmetic"/><feColorMatrix values="0 0 0 0 1 0 0 0 0 1 0 0 0 0 1 0 0 0 0.25 0"/><feBlend in2="shape" result="effect1_innerShadow"/></filter><filter id="o" width="155" height="89" x="59" y="15" color-interpolation-filters="sRGB" filterUnits="userSpaceOnUse"><feFlood flood-opacity="0" result="BackgroundImageFix"/><feBlend in="SourceGraphic" in2="BackgroundImageFix" result="shape"/><feColorMatrix in="SourceAlpha" result="hardAlpha" values="0 0 0 0 0 0 0 0 0 0 0 0 0 0 0 0 0 0 127 0"/><feOffset dx="-24" dy="8"/><feComposite in2="hardAlpha" k2="-1" k3="1" operator="arithmetic"/><feColorMatrix values="0 0 0 0 1 0 0 0 0 1 0 0 0 0 1 0 0 0 0.25 0"/><feBlend in2="shape" result="effect1_innerShadow"/></filter><filter id="p" width="132" height="89" x="106" y="15" color-interpolation-filters="sRGB" filterUnits="userSpaceOnUse"><feFlood flood-opacity="0" result="BackgroundImageFix"/><feBlend in="SourceGraphic" in2="BackgroundImageFix" result="shape"/><feColorMatrix in="SourceAlpha" result="hardAlpha" values="0 0 0 0 0 0 0 0 0 0 0 0 0 0 0 0 0 0 127 0"/><feOffset dx="-24" dy="8"/><feComposite in2="hardAlpha" k2="-1" k3="1" operator="arithmetic"/><feColorMatrix values="0 0 0 0 1 0 0 0 0 1 0 0 0 0 1 0 0 0 0.25 0"/><feBlend in2="shape" result="effect1_innerShadow"/></filter><filter id="q" width="61" height="61" x="151.5" y="25.5" color-interpolation-filters="sRGB" filterUnits="userSpaceOnUse"><feFlood flood-opacity="0" result="BackgroundImageFix"/><feBlend in="SourceGraphic" in2="BackgroundImageFix" result="shape"/><feColorMatrix in="SourceAlpha" result="hardAlpha" values="0 0 0 0 0 0 0 0 0 0 0 0 0 0 0 0 0 0 127 0"/><feOffset dx="-24" dy="8"/><feComposite in2="hardAlpha" k2="-1" k3="1" operator="arithmetic"/><feColorMatrix values="0 0 0 0 1 0 0 0 0 1 0 0 0 0 1 0 0 0 0.25 0"/><feBlend in2="shape" result="effect1_innerShadow"/></filter><filter id="r" width="192" height="168" x="228" y="120" color-interpolation-filters="sRGB" filterUnits="userSpaceOnUse"><feFlood flood-opacity="0" result="BackgroundImageFix"/><feColorMatrix in="SourceAlpha" result="hardAlpha" values="0 0 0 0 0 0 0 0 0 0 0 0 0 0 0 0 0 0 127 0"/><feOffset dx="-8"/><feColorMatrix values="0 0 0 0 0 0 0 0 0 0 0 0 0 0 0 0 0 0 0.25 0"/><feBlend in2="BackgroundImageFix" result="effect1_dropShadow"/><feBlend in="SourceGraphic" in2="effect1_dropShadow" result="shape"/></filter><filter id="s" width="184" height="168" x="236" y="120" color-interpolation-filters="sRGB" filterUnits="userSpaceOnUse"><feFlood flood-opacity="0" result="BackgroundImageFix"/><feBlend in="SourceGraphic" in2="BackgroundImageFix" result="shape"/><feColorMatrix in="SourceAlpha" result="hardAlpha" values="0 0 0 0 0 0 0 0 0 0 0 0 0 0 0 0 0 0 127 0"/><feOffset dx="-24" dy="8"/><feComposite in2="hardAlpha" k2="-1" k3="1" operator="arithmetic"/><feColorMatrix values="0 0 0 0 1 0 0 0 0 1 0 0 0 0 1 0 0 0 0.25 0"/><feBlend in2="shape" result="effect1_innerShadow"/></filter></defs></svg>