<svg xmlns="http://www.w3.org/2000/svg" width="342" height="320" fill="none"><g filter="url(#a)"><path fill="#ADA3EE" d="M14 132c0-13.255 10.745-24 24-24h276c13.255 0 24 10.745 24 24v160c0 13.255-10.745 24-24 24H38c-13.255 0-24-10.745-24-24V132Z"/></g><path stroke="#1F2024" stroke-width="8" d="M14 132c0-13.255 10.745-24 24-24h276c13.255 0 24 10.745 24 24v160c0 13.255-10.745 24-24 24H38c-13.255 0-24-10.745-24-24V132Z"/><g filter="url(#b)"><path fill="#D30000" fill-opacity=".8" fill-rule="evenodd" d="M38 108c-13.255 0-24 10.745-24 24v160c0 13.255 10.745 24 24 24h26c-13.255 0-24-10.745-24-24V132c0-13.255 10.745-24 24-24H38Z" clip-rule="evenodd"/></g><path fill="#1F2024" d="M18 132c0-11.046 8.954-20 20-20v-8c-15.464 0-28 12.536-28 28h8Zm0 160V132h-8v160h8Zm20 20c-11.046 0-20-8.954-20-20h-8c0 15.464 12.536 28 28 28v-8Zm26 0H38v8h26v-8Zm0 0c-11.046 0-20-8.954-20-20h-8c0 15.464 12.536 28 28 28v-8Zm-20-20V132h-8v160h8Zm0-160c0-11.046 8.954-20 20-20v-8c-15.464 0-28 12.536-28 28h8Zm-6-20h26v-8H38v8Z"/><g filter="url(#c)"><path fill="#D30000" fill-opacity=".7" fill-rule="evenodd" d="M64.667 108c-13.255 0-24 10.745-24 24v160c0 13.255 10.745 24 24 24h26c-13.255 0-24-10.745-24-24V132c0-13.255 10.745-24 24-24h-26Z" clip-rule="evenodd"/></g><path fill="#1F2024" d="M44.667 132c0-11.046 8.954-20 20-20v-8c-15.464 0-28 12.536-28 28h8Zm0 160V132h-8v160h8Zm20 20c-11.046 0-20-8.954-20-20h-8c0 15.464 12.536 28 28 28v-8Zm26 0h-26v8h26v-8Zm0 0c-11.046 0-20-8.954-20-20h-8c0 15.464 12.536 28 28 28v-8Zm-20-20V132h-8v160h8Zm0-160c0-11.046 8.954-20 20-20v-8c-15.464 0-28 12.536-28 28h8Zm-6-20h26v-8h-26v8Z"/><g filter="url(#d)"><path fill="#D30000" fill-opacity=".5" fill-rule="evenodd" d="M91.333 108c-13.255 0-24 10.745-24 24v160c0 13.255 10.745 24 24 24h26c-13.255 0-24-10.745-24-24V132c0-13.255 10.745-24 24-24h-26Z" clip-rule="evenodd"/></g><path fill="#1F2024" d="M71.333 132c0-11.046 8.955-20 20-20v-8c-15.464 0-28 12.536-28 28h8Zm0 160V132h-8v160h8Zm20 20c-11.045 0-20-8.954-20-20h-8c0 15.464 12.536 28 28 28v-8Zm26 0h-26v8h26v-8Zm0 0c-11.045 0-20-8.954-20-20h-8c0 15.464 12.536 28 28 28v-8Zm-20-20V132h-8v160h8Zm0-160c0-11.046 8.955-20 20-20v-8c-15.464 0-28 12.536-28 28h8Zm-6-20h26v-8h-26v8Z"/><g filter="url(#e)"><path fill="#D30000" fill-opacity=".3" fill-rule="evenodd" d="M118 108c-13.255 0-24 10.745-24 24v160c0 13.255 10.745 24 24 24h26c-13.255 0-24-10.745-24-24V132c0-13.255 10.745-24 24-24h-26Z" clip-rule="evenodd"/></g><path fill="#1F2024" d="M98 132c0-11.046 8.954-20 20-20v-8c-15.464 0-28 12.536-28 28h8Zm0 160V132h-8v160h8Zm20 20c-11.046 0-20-8.954-20-20h-8c0 15.464 12.536 28 28 28v-8Zm26 0h-26v8h26v-8Zm0 0c-11.046 0-20-8.954-20-20h-8c0 15.464 12.536 28 28 28v-8Zm-20-20V132h-8v160h8Zm0-160c0-11.046 8.954-20 20-20v-8c-15.464 0-28 12.536-28 28h8Zm-6-20h26v-8h-26v8Z"/><g filter="url(#f)"><path fill="#4795E0" stroke="#1F2024" stroke-width="8" d="M54 194h1v45h-1z"/><g filter="url(#g)"><circle cx="55" cy="179" r="16" fill="#9BCEF1"/></g><circle cx="55" cy="179" r="16" stroke="#1F2024" stroke-width="8"/><g filter="url(#h)"><path fill="#8A7ED9" d="M18 228a8 8 0 0 1 8-8h57a8 8 0 0 1 8 8v25a8 8 0 0 1-8 8H26a8 8 0 0 1-8-8v-25Z"/></g><path stroke="#1F2024" stroke-width="8" d="M18 228a8 8 0 0 1 8-8h57a8 8 0 0 1 8 8v25a8 8 0 0 1-8 8H26a8 8 0 0 1-8-8v-25Z"/><g filter="url(#i)"><path fill="#ADA3EE" d="M66 228a8 8 0 0 1 8-8h8.589a8 8 0 0 1 8 8v25a8 8 0 0 1-8 8H74a8 8 0 0 1-8-8v-25Z"/></g><path stroke="#1F2024" stroke-width="8" d="M66 228a8 8 0 0 1 8-8h8.589a8 8 0 0 1 8 8v25a8 8 0 0 1-8 8H74a8 8 0 0 1-8-8v-25Z"/></g><g filter="url(#j)"><circle cx="163.5" cy="19.167" r="15.167" fill="#fff"/></g><circle cx="163.5" cy="19.167" r="15.167" stroke="#1F2024" stroke-width="8"/><g filter="url(#k)"><path fill="#797A7C" d="M53 92.25c0-39.764 32.236-72 72-72h70.667c26.509 0 48 21.49 48 48V108H53V92.25Z"/></g><path stroke="#1F2024" stroke-width="8" d="M53 92.25c0-39.764 32.236-72 72-72h70.667c26.509 0 48 21.49 48 48V108H53V92.25Z"/><g filter="url(#l)"><path fill="#797A7C" d="M112.583 68.25c0-26.51 21.491-48 48-48H202c39.764 0 72 32.236 72 72V108H112.583V68.25Z"/></g><path stroke="#1F2024" stroke-width="8" d="M112.583 68.25c0-26.51 21.491-48 48-48H202c39.764 0 72 32.236 72 72V108H112.583V68.25Z"/><g filter="url(#m)"><path fill="#797A7C" d="M112.583 68.25c0-26.51 21.491-48 48-48h5.834c26.509 0 48 21.49 48 48V108H112.583V68.25Z"/></g><path stroke="#1F2024" stroke-width="8" d="M112.583 68.25c0-26.51 21.491-48 48-48h5.834c26.509 0 48 21.49 48 48V108H112.583V68.25Z"/><g filter="url(#n)"><path fill="#4A4A4E" d="M258.087 43c82.342 0 17.961 65 17.961 65H112.583s63.161-65 145.504-65Z"/></g><path stroke="#1F2024" stroke-width="8" d="M258.087 43c82.342 0 17.961 65 17.961 65H112.583s63.161-65 145.504-65Z"/><path fill="#D4712B" stroke="#1F2024" stroke-width="8" d="M143 180c0-13.255 10.745-24 24-24h118c13.255 0 24 10.745 24 24v88c0 13.255-10.745 24-24 24H167c-13.255 0-24-10.745-24-24v-88Z"/><path fill="#E36776" fill-opacity=".5" d="M145 279c3.414 0 6.795-.673 9.95-1.979a26.023 26.023 0 0 0 8.435-5.636 26.023 26.023 0 0 0 5.636-8.435 26.016 26.016 0 0 0 0-19.9 26.023 26.023 0 0 0-5.636-8.435 26.023 26.023 0 0 0-8.435-5.636A26.016 26.016 0 0 0 145 227v52ZM307 279c-3.414 0-6.795-.673-9.95-1.979a26.023 26.023 0 0 1-8.435-5.636 26.023 26.023 0 0 1-5.636-8.435 26.016 26.016 0 0 1 0-19.9 26.023 26.023 0 0 1 5.636-8.435 26.023 26.023 0 0 1 8.435-5.636A26.016 26.016 0 0 1 307 227v52Z"/><path fill="#1F2024" d="M252 239a18.01 18.01 0 0 1-5.272 12.728 18.01 18.01 0 0 1-19.616 3.902 18.02 18.02 0 0 1-5.84-3.902A18.01 18.01 0 0 1 216 239h36Z"/><circle cx="188" cy="223" r="13" fill="#1F2024"/><circle cx="192.5" cy="218.5" r="4.5" fill="#fff"/><circle cx="272" cy="223" r="13" fill="#1F2024"/><circle cx="276.5" cy="218.5" r="4.5" fill="#fff"/><mask id="o" width="174" height="144" x="139" y="152" mask-type="alpha" maskUnits="userSpaceOnUse"><path fill="#D7B184" stroke="#1F2024" stroke-width="8" d="M143 180c0-13.255 10.745-24 24-24h118c13.255 0 24 10.745 24 24v88c0 13.255-10.745 24-24 24H167c-13.255 0-24-10.745-24-24v-88Z"/></mask><g fill="#1058C5" stroke="#1F2024" stroke-linecap="round" stroke-linejoin="round" stroke-width="8" mask="url(#o)"><path d="M197 140.5h140.5c-44.339 44.074-93.5 54.5-158 49.5l17.5-49.5Z"/><path d="M119.5 140.5H260c-44.339 44.074-74.982 58.932-140.5 67v-67Z"/><path d="M179 270.5c-24-12.5-41.114-31.157-36.5-69H119V282c14.5 10 44.016 14.479 60-11.5Z"/></g><mask id="p" width="174" height="144" x="139" y="152" mask-type="alpha" maskUnits="userSpaceOnUse"><path fill="#C4C4C4" d="M139 180c0-15.464 12.536-28 28-28h118c15.464 0 28 12.536 28 28v88c0 15.464-12.536 28-28 28H167c-15.464 0-28-12.536-28-28v-88Z"/></mask><g filter="url(#q)" mask="url(#p)"><path stroke="#1F2024" stroke-width="8" d="M143 180c0-13.255 10.745-24 24-24h118c13.255 0 24 10.745 24 24v88c0 13.255-10.745 24-24 24H167c-13.255 0-24-10.745-24-24v-88Z"/></g><defs><filter id="h" width="81" height="49" x="14" y="216" color-interpolation-filters="sRGB" filterUnits="userSpaceOnUse"><feFlood flood-opacity="0" result="BackgroundImageFix"/><feBlend in="SourceGraphic" in2="BackgroundImageFix" result="shape"/><feColorMatrix in="SourceAlpha" result="hardAlpha" values="0 0 0 0 0 0 0 0 0 0 0 0 0 0 0 0 0 0 127 0"/><feOffset dy="-16"/><feComposite in2="hardAlpha" k2="-1" k3="1" operator="arithmetic"/><feColorMatrix values="0 0 0 0 0 0 0 0 0 0 0 0 0 0 0 0 0 0 0.25 0"/><feBlend in2="shape" result="effect1_innerShadow"/><feColorMatrix in="SourceAlpha" result="hardAlpha" values="0 0 0 0 0 0 0 0 0 0 0 0 0 0 0 0 0 0 127 0"/><feOffset dy="16"/><feComposite in2="hardAlpha" k2="-1" k3="1" operator="arithmetic"/><feColorMatrix values="0 0 0 0 1 0 0 0 0 1 0 0 0 0 1 0 0 0 0.25 0"/><feBlend in2="effect1_innerShadow" result="effect2_innerShadow"/></filter><filter id="a" width="332" height="216" x="10" y="104" color-interpolation-filters="sRGB" filterUnits="userSpaceOnUse"><feFlood flood-opacity="0" result="BackgroundImageFix"/><feBlend in="SourceGraphic" in2="BackgroundImageFix" result="shape"/><feColorMatrix in="SourceAlpha" result="hardAlpha" values="0 0 0 0 0 0 0 0 0 0 0 0 0 0 0 0 0 0 127 0"/><feOffset dx="-24" dy="8"/><feComposite in2="hardAlpha" k2="-1" k3="1" operator="arithmetic"/><feColorMatrix values="0 0 0 0 1 0 0 0 0 1 0 0 0 0 1 0 0 0 0.25 0"/><feBlend in2="shape" result="effect1_innerShadow"/></filter><filter id="c" width="54" height="216" x="36.667" y="104" color-interpolation-filters="sRGB" filterUnits="userSpaceOnUse"><feFlood flood-opacity="0" result="BackgroundImageFix"/><feBlend in="SourceGraphic" in2="BackgroundImageFix" result="shape"/><feColorMatrix in="SourceAlpha" result="hardAlpha" values="0 0 0 0 0 0 0 0 0 0 0 0 0 0 0 0 0 0 127 0"/><feOffset dy="-16"/><feComposite in2="hardAlpha" k2="-1" k3="1" operator="arithmetic"/><feColorMatrix values="0 0 0 0 0 0 0 0 0 0 0 0 0 0 0 0 0 0 0.25 0"/><feBlend in2="shape" result="effect1_innerShadow"/><feColorMatrix in="SourceAlpha" result="hardAlpha" values="0 0 0 0 0 0 0 0 0 0 0 0 0 0 0 0 0 0 127 0"/><feOffset dy="16"/><feComposite in2="hardAlpha" k2="-1" k3="1" operator="arithmetic"/><feColorMatrix values="0 0 0 0 1 0 0 0 0 1 0 0 0 0 1 0 0 0 0.25 0"/><feBlend in2="effect1_innerShadow" result="effect2_innerShadow"/></filter><filter id="d" width="54" height="216" x="63.333" y="104" color-interpolation-filters="sRGB" filterUnits="userSpaceOnUse"><feFlood flood-opacity="0" result="BackgroundImageFix"/><feBlend in="SourceGraphic" in2="BackgroundImageFix" result="shape"/><feColorMatrix in="SourceAlpha" result="hardAlpha" values="0 0 0 0 0 0 0 0 0 0 0 0 0 0 0 0 0 0 127 0"/><feOffset dy="-16"/><feComposite in2="hardAlpha" k2="-1" k3="1" operator="arithmetic"/><feColorMatrix values="0 0 0 0 0 0 0 0 0 0 0 0 0 0 0 0 0 0 0.25 0"/><feBlend in2="shape" result="effect1_innerShadow"/><feColorMatrix in="SourceAlpha" result="hardAlpha" values="0 0 0 0 0 0 0 0 0 0 0 0 0 0 0 0 0 0 127 0"/><feOffset dy="16"/><feComposite in2="hardAlpha" k2="-1" k3="1" operator="arithmetic"/><feColorMatrix values="0 0 0 0 1 0 0 0 0 1 0 0 0 0 1 0 0 0 0.25 0"/><feBlend in2="effect1_innerShadow" result="effect2_innerShadow"/></filter><filter id="e" width="54" height="216" x="90" y="104" color-interpolation-filters="sRGB" filterUnits="userSpaceOnUse"><feFlood flood-opacity="0" result="BackgroundImageFix"/><feBlend in="SourceGraphic" in2="BackgroundImageFix" result="shape"/><feColorMatrix in="SourceAlpha" result="hardAlpha" values="0 0 0 0 0 0 0 0 0 0 0 0 0 0 0 0 0 0 127 0"/><feOffset dy="-16"/><feComposite in2="hardAlpha" k2="-1" k3="1" operator="arithmetic"/><feColorMatrix values="0 0 0 0 0 0 0 0 0 0 0 0 0 0 0 0 0 0 0.25 0"/><feBlend in2="shape" result="effect1_innerShadow"/><feColorMatrix in="SourceAlpha" result="hardAlpha" values="0 0 0 0 0 0 0 0 0 0 0 0 0 0 0 0 0 0 127 0"/><feOffset dy="16"/><feComposite in2="hardAlpha" k2="-1" k3="1" operator="arithmetic"/><feColorMatrix values="0 0 0 0 1 0 0 0 0 1 0 0 0 0 1 0 0 0 0.25 0"/><feBlend in2="effect1_innerShadow" result="effect2_innerShadow"/></filter><filter id="f" width="114" height="115" x="-4" y="159" color-interpolation-filters="sRGB" filterUnits="userSpaceOnUse"><feFlood flood-opacity="0" result="BackgroundImageFix"/><feColorMatrix in="SourceAlpha" result="hardAlpha" values="0 0 0 0 0 0 0 0 0 0 0 0 0 0 0 0 0 0 127 0"/><feOffset dx="-4" dy="4"/><feColorMatrix values="0 0 0 0 0 0 0 0 0 0 0 0 0 0 0 0 0 0 0.25 0"/><feBlend in2="BackgroundImageFix" result="effect1_dropShadow"/><feBlend in="SourceGraphic" in2="effect1_dropShadow" result="shape"/></filter><filter id="g" width="40" height="40" x="35" y="159" color-interpolation-filters="sRGB" filterUnits="userSpaceOnUse"><feFlood flood-opacity="0" result="BackgroundImageFix"/><feBlend in="SourceGraphic" in2="BackgroundImageFix" result="shape"/><feColorMatrix in="SourceAlpha" result="hardAlpha" values="0 0 0 0 0 0 0 0 0 0 0 0 0 0 0 0 0 0 127 0"/><feOffset dx="16"/><feComposite in2="hardAlpha" k2="-1" k3="1" operator="arithmetic"/><feColorMatrix values="0 0 0 0 0 0 0 0 0 0 0 0 0 0 0 0 0 0 0.25 0"/><feBlend in2="shape" result="effect1_innerShadow"/><feColorMatrix in="SourceAlpha" result="hardAlpha" values="0 0 0 0 0 0 0 0 0 0 0 0 0 0 0 0 0 0 127 0"/><feOffset dx="-24" dy="8"/><feComposite in2="hardAlpha" k2="-1" k3="1" operator="arithmetic"/><feColorMatrix values="0 0 0 0 1 0 0 0 0 1 0 0 0 0 1 0 0 0 0.25 0"/><feBlend in2="effect1_innerShadow" result="effect2_innerShadow"/></filter><filter id="b" width="54" height="216" x="10" y="104" color-interpolation-filters="sRGB" filterUnits="userSpaceOnUse"><feFlood flood-opacity="0" result="BackgroundImageFix"/><feBlend in="SourceGraphic" in2="BackgroundImageFix" result="shape"/><feColorMatrix in="SourceAlpha" result="hardAlpha" values="0 0 0 0 0 0 0 0 0 0 0 0 0 0 0 0 0 0 127 0"/><feOffset dy="-16"/><feComposite in2="hardAlpha" k2="-1" k3="1" operator="arithmetic"/><feColorMatrix values="0 0 0 0 0 0 0 0 0 0 0 0 0 0 0 0 0 0 0.25 0"/><feBlend in2="shape" result="effect1_innerShadow"/><feColorMatrix in="SourceAlpha" result="hardAlpha" values="0 0 0 0 0 0 0 0 0 0 0 0 0 0 0 0 0 0 127 0"/><feOffset dy="16"/><feComposite in2="hardAlpha" k2="-1" k3="1" operator="arithmetic"/><feColorMatrix values="0 0 0 0 1 0 0 0 0 1 0 0 0 0 1 0 0 0 0.25 0"/><feBlend in2="effect1_innerShadow" result="effect2_innerShadow"/></filter><filter id="i" width="32.589" height="49" x="62" y="216" color-interpolation-filters="sRGB" filterUnits="userSpaceOnUse"><feFlood flood-opacity="0" result="BackgroundImageFix"/><feBlend in="SourceGraphic" in2="BackgroundImageFix" result="shape"/><feColorMatrix in="SourceAlpha" result="hardAlpha" values="0 0 0 0 0 0 0 0 0 0 0 0 0 0 0 0 0 0 127 0"/><feOffset dx="-24" dy="8"/><feComposite in2="hardAlpha" k2="-1" k3="1" operator="arithmetic"/><feColorMatrix values="0 0 0 0 1 0 0 0 0 1 0 0 0 0 1 0 0 0 0.25 0"/><feBlend in2="shape" result="effect1_innerShadow"/></filter><filter id="j" width="38.333" height="38.333" x="144.333" y="0" color-interpolation-filters="sRGB" filterUnits="userSpaceOnUse"><feFlood flood-opacity="0" result="BackgroundImageFix"/><feBlend in="SourceGraphic" in2="BackgroundImageFix" result="shape"/><feColorMatrix in="SourceAlpha" result="hardAlpha" values="0 0 0 0 0 0 0 0 0 0 0 0 0 0 0 0 0 0 127 0"/><feOffset dx="-24" dy="8"/><feComposite in2="hardAlpha" k2="-1" k3="1" operator="arithmetic"/><feColorMatrix values="0 0 0 0 1 0 0 0 0 1 0 0 0 0 1 0 0 0 0.25 0"/><feBlend in2="shape" result="effect1_innerShadow"/></filter><filter id="k" width="198.667" height="95.75" x="49" y="16.25" color-interpolation-filters="sRGB" filterUnits="userSpaceOnUse"><feFlood flood-opacity="0" result="BackgroundImageFix"/><feBlend in="SourceGraphic" in2="BackgroundImageFix" result="shape"/><feColorMatrix in="SourceAlpha" result="hardAlpha" values="0 0 0 0 0 0 0 0 0 0 0 0 0 0 0 0 0 0 127 0"/><feOffset dx="16"/><feComposite in2="hardAlpha" k2="-1" k3="1" operator="arithmetic"/><feColorMatrix values="0 0 0 0 0 0 0 0 0 0 0 0 0 0 0 0 0 0 0.25 0"/><feBlend in2="shape" result="effect1_innerShadow"/></filter><filter id="l" width="169.417" height="95.75" x="108.583" y="16.25" color-interpolation-filters="sRGB" filterUnits="userSpaceOnUse"><feFlood flood-opacity="0" result="BackgroundImageFix"/><feBlend in="SourceGraphic" in2="BackgroundImageFix" result="shape"/><feColorMatrix in="SourceAlpha" result="hardAlpha" values="0 0 0 0 0 0 0 0 0 0 0 0 0 0 0 0 0 0 127 0"/><feOffset dx="-24" dy="8"/><feComposite in2="hardAlpha" k2="-1" k3="1" operator="arithmetic"/><feColorMatrix values="0 0 0 0 1 0 0 0 0 1 0 0 0 0 1 0 0 0 0.25 0"/><feBlend in2="shape" result="effect1_innerShadow"/></filter><filter id="m" width="109.833" height="95.75" x="108.583" y="16.25" color-interpolation-filters="sRGB" filterUnits="userSpaceOnUse"><feFlood flood-opacity="0" result="BackgroundImageFix"/><feBlend in="SourceGraphic" in2="BackgroundImageFix" result="shape"/><feColorMatrix in="SourceAlpha" result="hardAlpha" values="0 0 0 0 0 0 0 0 0 0 0 0 0 0 0 0 0 0 127 0"/><feOffset dx="16"/><feComposite in2="hardAlpha" k2="-1" k3="1" operator="arithmetic"/><feColorMatrix values="0 0 0 0 0 0 0 0 0 0 0 0 0 0 0 0 0 0 0.25 0"/><feBlend in2="shape" result="effect1_innerShadow"/></filter><filter id="n" width="200.878" height="73" x="103.119" y="39" color-interpolation-filters="sRGB" filterUnits="userSpaceOnUse"><feFlood flood-opacity="0" result="BackgroundImageFix"/><feBlend in="SourceGraphic" in2="BackgroundImageFix" result="shape"/><feColorMatrix in="SourceAlpha" result="hardAlpha" values="0 0 0 0 0 0 0 0 0 0 0 0 0 0 0 0 0 0 127 0"/><feOffset dx="-24" dy="8"/><feComposite in2="hardAlpha" k2="-1" k3="1" operator="arithmetic"/><feColorMatrix values="0 0 0 0 1 0 0 0 0 1 0 0 0 0 1 0 0 0 0.25 0"/><feBlend in2="shape" result="effect1_innerShadow"/></filter><filter id="q" width="178" height="148" x="135" y="152" color-interpolation-filters="sRGB" filterUnits="userSpaceOnUse"><feFlood flood-opacity="0" result="BackgroundImageFix"/><feColorMatrix in="SourceAlpha" result="hardAlpha" values="0 0 0 0 0 0 0 0 0 0 0 0 0 0 0 0 0 0 127 0"/><feOffset dx="-4" dy="4"/><feColorMatrix values="0 0 0 0 0 0 0 0 0 0 0 0 0 0 0 0 0 0 0.16 0"/><feBlend in2="BackgroundImageFix" result="effect1_dropShadow"/><feBlend in="SourceGraphic" in2="effect1_dropShadow" result="shape"/></filter></defs></svg>