<svg xmlns="http://www.w3.org/2000/svg" width="438" height="325" fill="none"><g filter="url(#a)"><path fill="#A26548" d="M19 129c0-13.255 10.745-24 24-24h192c13.255 0 24 10.745 24 24v160c0 13.255-10.745 24-24 24H43c-13.255 0-24-10.745-24-24V129Z"/></g><path stroke="#1F2024" stroke-width="8" d="M19 129c0-13.255 10.745-24 24-24h192c13.255 0 24 10.745 24 24v160c0 13.255-10.745 24-24 24H43c-13.255 0-24-10.745-24-24V129Z"/><g filter="url(#b)"><path fill="#EFA686" d="M119 129c0-13.255 10.745-24 24-24h176c13.255 0 24 10.745 24 24v160c0 13.255-10.745 24-24 24H143c-13.255 0-24-10.745-24-24V129Z"/></g><path stroke="#1F2024" stroke-width="8" d="M119 129c0-13.255 10.745-24 24-24h176c13.255 0 24 10.745 24 24v160c0 13.255-10.745 24-24 24H143c-13.255 0-24-10.745-24-24V129Z"/><path fill="#fff" fill-opacity=".5" d="M247 109h38l-56 200h-38l56-200ZM232 109h6l-56 200h-6l56-200Z"/><g filter="url(#c)"><path fill="#1F2024" d="M4 159h136v12H4z"/></g><g filter="url(#d)"><path fill="#1F2024" fill-rule="evenodd" d="M181.908 230.122c-16.849-11.722-53.516-49.514-80.542-85.421-2.014-2.675-.006-6.414 3.334-6.178 40.49 2.861 107.4 13.904 128.449 26.35.364.197.75.437 1.174.7 2.114 1.316 5.177 3.221 11.177 3.322 6.457-.108 10.278-2.281 12.575-3.588.277-.158.532-.303.766-.43 21.041-12.448 87.962-23.492 128.457-26.354 3.34-.236 5.348 3.503 3.334 6.178-27.025 35.907-63.692 73.699-80.542 85.421-2.891 2.011-6.545 2.486-9.709.939-13.21-6.455-34.118-26.672-43.395-44.113h-.001c-2.217-4.21-8.424-5.861-11.423-6.054-2.407.2-7.083 1.93-9.942 4.882-8.941 17.697-30.496 38.685-44.003 45.285-3.164 1.547-6.818 1.072-9.709-.939Z" clip-rule="evenodd"/></g><path fill="#4A4A4E" fill-rule="evenodd" d="M131.88 158.634c4.113-10.759 89.444 7.065 93.498 17.476 3.294 8.46-23.622 42.525-38.037 42.525-11.532 0-59.574-49.242-55.461-60.001Zm227.894 0c-4.113-10.759-89.443 7.065-93.497 17.476-3.295 8.46 23.622 42.525 38.036 42.525 11.532 0 59.574-49.242 55.461-60.001Z" clip-rule="evenodd"/><mask id="e" width="230" height="64" x="131" y="155" mask-type="alpha" maskUnits="userSpaceOnUse"><path fill="#4A4A4E" fill-rule="evenodd" d="M131.88 158.634c4.113-10.759 89.444 7.065 93.498 17.476 3.294 8.46-23.622 42.525-38.037 42.525-11.532 0-59.574-49.242-55.461-60.001Zm227.894 0c-4.113-10.759-89.443 7.065-93.497 17.476-3.295 8.46 23.622 42.525 38.036 42.525 11.532 0 59.574-49.242 55.461-60.001Z" clip-rule="evenodd"/></mask><g mask="url(#e)"><path fill="#fff" d="M372.872 147H395l-37.872 80H335l37.872-80Z"/></g><rect width="112" height="32" x="175" y="231" fill="#1F2024" rx="16"/><path fill="#CAE9FA" d="M175 231h12v32h-12zM195 231h12v32h-12zM215 231h12v32h-12zM235 231h12v32h-12zM255 231h12v32h-12zM275 231h12v32h-12z"/><rect width="112" height="32" x="175" y="231" stroke="#1F2024" stroke-width="6" rx="16"/><g filter="url(#f)"><rect width="39" height="46" x="141" y="107" fill="#fff" rx="16"/><rect width="39" height="46" x="141" y="107" stroke="#1F2024" stroke-width="8" rx="16"/></g><g filter="url(#g)"><rect width="39" height="46" x="192" y="107" fill="#F9E174" rx="16"/><rect width="39" height="46" x="192" y="107" stroke="#1F2024" stroke-width="8" rx="16"/></g><g filter="url(#h)"><rect width="39" height="46" x="243" y="107" fill="#fff" rx="16"/><rect width="39" height="46" x="243" y="107" stroke="#1F2024" stroke-width="8" rx="16"/></g><g filter="url(#i)"><rect width="39" height="46" x="294" y="107" fill="#fff" rx="16"/><rect width="39" height="46" x="294" y="107" stroke="#1F2024" stroke-width="8" rx="16"/></g><g filter="url(#j)"><rect width="39" height="46" x="345" y="107" fill="#fff" rx="16"/><rect width="39" height="46" x="345" y="107" stroke="#1F2024" stroke-width="8" rx="16"/></g><g filter="url(#k)"><rect width="39" height="38" x="141" y="275" fill="#fff" rx="16"/><rect width="39" height="38" x="141" y="275" stroke="#1F2024" stroke-width="8" rx="16"/></g><g filter="url(#l)"><rect width="39" height="38" x="192" y="275" fill="#fff" rx="16"/><rect width="39" height="38" x="192" y="275" stroke="#1F2024" stroke-width="8" rx="16"/></g><g filter="url(#m)"><rect width="39" height="38" x="243" y="275" fill="#fff" rx="16"/><rect width="39" height="38" x="243" y="275" stroke="#1F2024" stroke-width="8" rx="16"/></g><g filter="url(#n)"><rect width="39" height="38" x="294" y="275" fill="#E79834" rx="16"/><rect width="39" height="38" x="294" y="275" stroke="#1F2024" stroke-width="8" rx="16"/></g><g filter="url(#o)"><path fill="#ACE5D7" fill-rule="evenodd" d="M96 56c-35.346 0-64 28.654-64 64v177c0 13.255 10.745 24 24 24h260c13.255 0 24-10.745 24-24H148c-22.091 0-40-17.909-40-40v-96c0-22.091 17.909-40 40-40h192v-1c0-35.346-28.654-64-64-64H96Z" clip-rule="evenodd"/></g><path fill="#1F2024" d="M340 297h4v-4h-4v4Zm0-176v4h4v-4h-4Zm-304-1c0-33.137 26.863-60 60-60v-8c-37.555 0-68 30.445-68 68h8Zm0 177V120h-8v177h8Zm20 20c-11.046 0-20-8.954-20-20h-8c0 15.464 12.536 28 28 28v-8Zm260 0H56v8h260v-8Zm20-20c0 11.046-8.954 20-20 20v8c15.464 0 28-12.536 28-28h-8Zm4-4H148v8h192v-8Zm-192 0c-19.882 0-36-16.118-36-36h-8c0 24.301 19.699 44 44 44v-8Zm-36-36v-96h-8v96h8Zm0-96c0-19.882 16.118-36 36-36v-8c-24.301 0-44 19.699-44 44h8Zm36-36h192v-8H148v8Zm188-5v1h8v-1h-8Zm-60-60c33.137 0 60 26.863 60 60h8c0-37.555-30.445-68-68-68v8ZM96 60h180v-8H96v8Z"/><g filter="url(#p)"><path fill="#75D1C1" fill-rule="evenodd" d="M40 59C40 28.624 64.624 4 95 4c19.569 0 36.751 10.22 46.5 25.614C151.249 14.22 168.431 4 188 4c29.369 0 53.362 23.02 54.92 52h53.853c7.331-9.145 18.595-15 31.227-15 13.7 0 25.791 6.887 33 17.388C368.209 47.888 380.3 41 394 41c22.091 0 40 17.909 40 40v24c0 8.837-7.163 16-16 16H132c-22.091 0-40 17.909-40 40v96c0 22.091 17.909 40 40 40h232c4.418 0 8.131 3.68 6.685 7.855C367.432 314.252 358.504 321 348 321H64c-26.51 0-48-21.49-48-48V96c0-16.403 9.873-30.5 24-36.672V59Z" clip-rule="evenodd"/></g><path fill="#1F2024" d="m141.5 29.614-3.379 2.14 3.379 5.336 3.379-5.336-3.379-2.14ZM242.92 56l-3.995.215.204 3.785h3.791v-4Zm53.853 0v4h1.92l1.201-1.498L296.773 56ZM361 58.388l-3.298 2.264L361 65.455l3.298-4.803L361 58.388Zm9.685 246.467 3.78 1.309-3.78-1.309ZM40 59.328l1.602 3.666L44 61.946v-2.618h-4ZM95 0C62.415 0 36 26.415 36 59h8C44 30.834 66.834 8 95 8V0Zm49.879 27.474C134.428 10.971 115.997 0 95 0v8c18.142 0 34.074 9.47 43.121 23.754l6.758-4.28ZM188 0c-20.997 0-39.428 10.97-49.879 27.474l6.758 4.28C153.926 17.47 169.858 8 188 8V0Zm58.914 55.785C245.243 24.694 219.506 0 188 0v8c27.232 0 49.481 21.345 50.925 48.215l7.989-.43ZM296.773 52H242.92v8h53.853v-8ZM328 37c-13.897 0-26.291 6.447-34.348 16.498l6.242 5.004C306.498 50.264 316.633 45 328 45v-8Zm36.298 19.124C356.374 44.583 343.073 37 328 37v8c12.326 0 23.207 6.191 29.702 15.652l6.596-4.528ZM394 37c-15.073 0-28.374 7.583-36.298 19.124l6.596 4.528C370.793 51.192 381.674 45 394 45v-8Zm44 44c0-24.3-19.699-44-44-44v8c19.882 0 36 16.118 36 36h8Zm0 24V81h-8v24h8Zm-20 20c11.046 0 20-8.954 20-20h-8c0 6.627-5.373 12-12 12v8Zm-47 0h47v-8h-47v8Zm-3 0h3v-8h-3v8Zm-14 0h14v-8h-14v8Zm-66 0h66v-8h-66v8Zm-156 0h156v-8H132v8Zm-36 36c0-19.882 16.118-36 36-36v-8c-24.301 0-44 19.699-44 44h8Zm0 96v-96h-8v96h8Zm36 36c-19.882 0-36-16.118-36-36h-8c0 24.301 19.699 44 44 44v-8Zm232 0H132v8h232v-8Zm10.465 13.164c1.25-3.61.216-7.075-1.952-9.48-2.096-2.325-5.228-3.684-8.513-3.684v8c1.134 0 2.067.481 2.57 1.04.432.478.531.941.335 1.507l7.56 2.617ZM348 325c12.261 0 22.671-7.878 26.465-18.836l-7.56-2.617C364.192 311.383 356.747 317 348 317v8Zm-284 0h284v-8H64v8Zm-52-52c0 28.719 23.281 52 52 52v-8c-24.3 0-44-19.699-44-44h-8Zm0-177v177h8V96h-8Zm26.398-40.337C22.867 62.449 12 77.95 12 96h8c0-14.756 8.879-27.447 21.602-33.006l-3.203-7.331ZM36 59v.328h8V59h-8Z"/><g filter="url(#q)"><circle cx="99.5" cy="48.5" r="20.5" fill="#fff"/><circle cx="99.5" cy="48.5" r="20.5" stroke="#1F2024" stroke-width="8"/></g><circle cx="104" cy="48" r="8" fill="#1F2024"/><g filter="url(#r)"><circle cx="190.5" cy="48.5" r="20.5" fill="#fff"/><circle cx="190.5" cy="48.5" r="20.5" stroke="#1F2024" stroke-width="8"/></g><circle cx="195" cy="48" r="8" fill="#1F2024"/><g filter="url(#s)"><circle cx="394" cy="81" r="12" fill="#4A4A4E"/><circle cx="394" cy="81" r="12" stroke="#1F2024" stroke-width="8"/></g><g filter="url(#t)"><circle cx="328" cy="81" r="12" fill="#4A4A4E"/><circle cx="328" cy="81" r="12" stroke="#1F2024" stroke-width="8"/></g><path stroke="#1F2024" stroke-linecap="round" stroke-width="8" d="M48 129a8 8 0 0 1-16 0M76 161a8 8 0 0 1-16 0M48 193a8 8 0 0 1-16 0M48 257a8 8 0 0 1-16 0M76 225a8 8 0 0 1-16 0M76 289a8 8 0 0 1-16 0"/><defs><filter id="k" width="51" height="50" x="133" y="271" color-interpolation-filters="sRGB" filterUnits="userSpaceOnUse"><feFlood flood-opacity="0" result="BackgroundImageFix"/><feColorMatrix in="SourceAlpha" result="hardAlpha" values="0 0 0 0 0 0 0 0 0 0 0 0 0 0 0 0 0 0 127 0"/><feOffset dx="-4" dy="4"/><feColorMatrix values="0 0 0 0 0 0 0 0 0 0 0 0 0 0 0 0 0 0 0.25 0"/><feBlend in2="BackgroundImageFix" result="effect1_dropShadow"/><feBlend in="SourceGraphic" in2="effect1_dropShadow" result="shape"/><feColorMatrix in="SourceAlpha" result="hardAlpha" values="0 0 0 0 0 0 0 0 0 0 0 0 0 0 0 0 0 0 127 0"/><feOffset dx="16"/><feComposite in2="hardAlpha" k2="-1" k3="1" operator="arithmetic"/><feColorMatrix values="0 0 0 0 0 0 0 0 0 0 0 0 0 0 0 0 0 0 0.25 0"/><feBlend in2="shape" result="effect2_innerShadow"/><feColorMatrix in="SourceAlpha" result="hardAlpha" values="0 0 0 0 0 0 0 0 0 0 0 0 0 0 0 0 0 0 127 0"/><feOffset dx="-16" dy="8"/><feComposite in2="hardAlpha" k2="-1" k3="1" operator="arithmetic"/><feColorMatrix values="0 0 0 0 1 0 0 0 0 1 0 0 0 0 1 0 0 0 0.25 0"/><feBlend in2="effect2_innerShadow" result="effect3_innerShadow"/></filter><filter id="a" width="248" height="216" x="15" y="101" color-interpolation-filters="sRGB" filterUnits="userSpaceOnUse"><feFlood flood-opacity="0" result="BackgroundImageFix"/><feBlend in="SourceGraphic" in2="BackgroundImageFix" result="shape"/><feColorMatrix in="SourceAlpha" result="hardAlpha" values="0 0 0 0 0 0 0 0 0 0 0 0 0 0 0 0 0 0 127 0"/><feOffset dy="-16"/><feComposite in2="hardAlpha" k2="-1" k3="1" operator="arithmetic"/><feColorMatrix values="0 0 0 0 0 0 0 0 0 0 0 0 0 0 0 0 0 0 0.25 0"/><feBlend in2="shape" result="effect1_innerShadow"/><feColorMatrix in="SourceAlpha" result="hardAlpha" values="0 0 0 0 0 0 0 0 0 0 0 0 0 0 0 0 0 0 127 0"/><feOffset dy="16"/><feComposite in2="hardAlpha" k2="-1" k3="1" operator="arithmetic"/><feColorMatrix values="0 0 0 0 1 0 0 0 0 1 0 0 0 0 1 0 0 0 0.25 0"/><feBlend in2="effect1_innerShadow" result="effect2_innerShadow"/></filter><filter id="c" width="140" height="16" x="0" y="159" color-interpolation-filters="sRGB" filterUnits="userSpaceOnUse"><feFlood flood-opacity="0" result="BackgroundImageFix"/><feColorMatrix in="SourceAlpha" result="hardAlpha" values="0 0 0 0 0 0 0 0 0 0 0 0 0 0 0 0 0 0 127 0"/><feOffset dx="-4" dy="4"/><feColorMatrix values="0 0 0 0 0 0 0 0 0 0 0 0 0 0 0 0 0 0 0.25 0"/><feBlend in2="BackgroundImageFix" result="effect1_dropShadow"/><feBlend in="SourceGraphic" in2="effect1_dropShadow" result="shape"/></filter><filter id="d" width="294.876" height="97.466" x="96.561" y="138.512" color-interpolation-filters="sRGB" filterUnits="userSpaceOnUse"><feFlood flood-opacity="0" result="BackgroundImageFix"/><feColorMatrix in="SourceAlpha" result="hardAlpha" values="0 0 0 0 0 0 0 0 0 0 0 0 0 0 0 0 0 0 127 0"/><feOffset dx="-4" dy="4"/><feColorMatrix values="0 0 0 0 0 0 0 0 0 0 0 0 0 0 0 0 0 0 0.25 0"/><feBlend in2="BackgroundImageFix" result="effect1_dropShadow"/><feBlend in="SourceGraphic" in2="effect1_dropShadow" result="shape"/></filter><filter id="f" width="51" height="58" x="133" y="103" color-interpolation-filters="sRGB" filterUnits="userSpaceOnUse"><feFlood flood-opacity="0" result="BackgroundImageFix"/><feColorMatrix in="SourceAlpha" result="hardAlpha" values="0 0 0 0 0 0 0 0 0 0 0 0 0 0 0 0 0 0 127 0"/><feOffset dx="-4" dy="4"/><feColorMatrix values="0 0 0 0 0 0 0 0 0 0 0 0 0 0 0 0 0 0 0.25 0"/><feBlend in2="BackgroundImageFix" result="effect1_dropShadow"/><feBlend in="SourceGraphic" in2="effect1_dropShadow" result="shape"/><feColorMatrix in="SourceAlpha" result="hardAlpha" values="0 0 0 0 0 0 0 0 0 0 0 0 0 0 0 0 0 0 127 0"/><feOffset dx="16"/><feComposite in2="hardAlpha" k2="-1" k3="1" operator="arithmetic"/><feColorMatrix values="0 0 0 0 0 0 0 0 0 0 0 0 0 0 0 0 0 0 0.25 0"/><feBlend in2="shape" result="effect2_innerShadow"/><feColorMatrix in="SourceAlpha" result="hardAlpha" values="0 0 0 0 0 0 0 0 0 0 0 0 0 0 0 0 0 0 127 0"/><feOffset dx="-16" dy="8"/><feComposite in2="hardAlpha" k2="-1" k3="1" operator="arithmetic"/><feColorMatrix values="0 0 0 0 1 0 0 0 0 1 0 0 0 0 1 0 0 0 0.25 0"/><feBlend in2="effect2_innerShadow" result="effect3_innerShadow"/></filter><filter id="g" width="51" height="58" x="184" y="103" color-interpolation-filters="sRGB" filterUnits="userSpaceOnUse"><feFlood flood-opacity="0" result="BackgroundImageFix"/><feColorMatrix in="SourceAlpha" result="hardAlpha" values="0 0 0 0 0 0 0 0 0 0 0 0 0 0 0 0 0 0 127 0"/><feOffset dx="-4" dy="4"/><feColorMatrix values="0 0 0 0 0 0 0 0 0 0 0 0 0 0 0 0 0 0 0.25 0"/><feBlend in2="BackgroundImageFix" result="effect1_dropShadow"/><feBlend in="SourceGraphic" in2="effect1_dropShadow" result="shape"/><feColorMatrix in="SourceAlpha" result="hardAlpha" values="0 0 0 0 0 0 0 0 0 0 0 0 0 0 0 0 0 0 127 0"/><feOffset dx="16"/><feComposite in2="hardAlpha" k2="-1" k3="1" operator="arithmetic"/><feColorMatrix values="0 0 0 0 0 0 0 0 0 0 0 0 0 0 0 0 0 0 0.25 0"/><feBlend in2="shape" result="effect2_innerShadow"/><feColorMatrix in="SourceAlpha" result="hardAlpha" values="0 0 0 0 0 0 0 0 0 0 0 0 0 0 0 0 0 0 127 0"/><feOffset dx="-16" dy="8"/><feComposite in2="hardAlpha" k2="-1" k3="1" operator="arithmetic"/><feColorMatrix values="0 0 0 0 1 0 0 0 0 1 0 0 0 0 1 0 0 0 0.25 0"/><feBlend in2="effect2_innerShadow" result="effect3_innerShadow"/></filter><filter id="h" width="51" height="58" x="235" y="103" color-interpolation-filters="sRGB" filterUnits="userSpaceOnUse"><feFlood flood-opacity="0" result="BackgroundImageFix"/><feColorMatrix in="SourceAlpha" result="hardAlpha" values="0 0 0 0 0 0 0 0 0 0 0 0 0 0 0 0 0 0 127 0"/><feOffset dx="-4" dy="4"/><feColorMatrix values="0 0 0 0 0 0 0 0 0 0 0 0 0 0 0 0 0 0 0.25 0"/><feBlend in2="BackgroundImageFix" result="effect1_dropShadow"/><feBlend in="SourceGraphic" in2="effect1_dropShadow" result="shape"/><feColorMatrix in="SourceAlpha" result="hardAlpha" values="0 0 0 0 0 0 0 0 0 0 0 0 0 0 0 0 0 0 127 0"/><feOffset dx="16"/><feComposite in2="hardAlpha" k2="-1" k3="1" operator="arithmetic"/><feColorMatrix values="0 0 0 0 0 0 0 0 0 0 0 0 0 0 0 0 0 0 0.25 0"/><feBlend in2="shape" result="effect2_innerShadow"/><feColorMatrix in="SourceAlpha" result="hardAlpha" values="0 0 0 0 0 0 0 0 0 0 0 0 0 0 0 0 0 0 127 0"/><feOffset dx="-16" dy="8"/><feComposite in2="hardAlpha" k2="-1" k3="1" operator="arithmetic"/><feColorMatrix values="0 0 0 0 1 0 0 0 0 1 0 0 0 0 1 0 0 0 0.25 0"/><feBlend in2="effect2_innerShadow" result="effect3_innerShadow"/></filter><filter id="i" width="51" height="58" x="286" y="103" color-interpolation-filters="sRGB" filterUnits="userSpaceOnUse"><feFlood flood-opacity="0" result="BackgroundImageFix"/><feColorMatrix in="SourceAlpha" result="hardAlpha" values="0 0 0 0 0 0 0 0 0 0 0 0 0 0 0 0 0 0 127 0"/><feOffset dx="-4" dy="4"/><feColorMatrix values="0 0 0 0 0 0 0 0 0 0 0 0 0 0 0 0 0 0 0.25 0"/><feBlend in2="BackgroundImageFix" result="effect1_dropShadow"/><feBlend in="SourceGraphic" in2="effect1_dropShadow" result="shape"/><feColorMatrix in="SourceAlpha" result="hardAlpha" values="0 0 0 0 0 0 0 0 0 0 0 0 0 0 0 0 0 0 127 0"/><feOffset dx="16"/><feComposite in2="hardAlpha" k2="-1" k3="1" operator="arithmetic"/><feColorMatrix values="0 0 0 0 0 0 0 0 0 0 0 0 0 0 0 0 0 0 0.25 0"/><feBlend in2="shape" result="effect2_innerShadow"/><feColorMatrix in="SourceAlpha" result="hardAlpha" values="0 0 0 0 0 0 0 0 0 0 0 0 0 0 0 0 0 0 127 0"/><feOffset dx="-16" dy="8"/><feComposite in2="hardAlpha" k2="-1" k3="1" operator="arithmetic"/><feColorMatrix values="0 0 0 0 1 0 0 0 0 1 0 0 0 0 1 0 0 0 0.25 0"/><feBlend in2="effect2_innerShadow" result="effect3_innerShadow"/></filter><filter id="j" width="51" height="58" x="337" y="103" color-interpolation-filters="sRGB" filterUnits="userSpaceOnUse"><feFlood flood-opacity="0" result="BackgroundImageFix"/><feColorMatrix in="SourceAlpha" result="hardAlpha" values="0 0 0 0 0 0 0 0 0 0 0 0 0 0 0 0 0 0 127 0"/><feOffset dx="-4" dy="4"/><feColorMatrix values="0 0 0 0 0 0 0 0 0 0 0 0 0 0 0 0 0 0 0.25 0"/><feBlend in2="BackgroundImageFix" result="effect1_dropShadow"/><feBlend in="SourceGraphic" in2="effect1_dropShadow" result="shape"/><feColorMatrix in="SourceAlpha" result="hardAlpha" values="0 0 0 0 0 0 0 0 0 0 0 0 0 0 0 0 0 0 127 0"/><feOffset dx="16"/><feComposite in2="hardAlpha" k2="-1" k3="1" operator="arithmetic"/><feColorMatrix values="0 0 0 0 0 0 0 0 0 0 0 0 0 0 0 0 0 0 0.25 0"/><feBlend in2="shape" result="effect2_innerShadow"/><feColorMatrix in="SourceAlpha" result="hardAlpha" values="0 0 0 0 0 0 0 0 0 0 0 0 0 0 0 0 0 0 127 0"/><feOffset dx="-16" dy="8"/><feComposite in2="hardAlpha" k2="-1" k3="1" operator="arithmetic"/><feColorMatrix values="0 0 0 0 1 0 0 0 0 1 0 0 0 0 1 0 0 0 0.25 0"/><feBlend in2="effect2_innerShadow" result="effect3_innerShadow"/></filter><filter id="b" width="232" height="216" x="115" y="101" color-interpolation-filters="sRGB" filterUnits="userSpaceOnUse"><feFlood flood-opacity="0" result="BackgroundImageFix"/><feBlend in="SourceGraphic" in2="BackgroundImageFix" result="shape"/><feColorMatrix in="SourceAlpha" result="hardAlpha" values="0 0 0 0 0 0 0 0 0 0 0 0 0 0 0 0 0 0 127 0"/><feOffset dx="-24" dy="8"/><feComposite in2="hardAlpha" k2="-1" k3="1" operator="arithmetic"/><feColorMatrix values="0 0 0 0 1 0 0 0 0 1 0 0 0 0 1 0 0 0 0.25 0"/><feBlend in2="shape" result="effect1_innerShadow"/></filter><filter id="l" width="51" height="50" x="184" y="271" color-interpolation-filters="sRGB" filterUnits="userSpaceOnUse"><feFlood flood-opacity="0" result="BackgroundImageFix"/><feColorMatrix in="SourceAlpha" result="hardAlpha" values="0 0 0 0 0 0 0 0 0 0 0 0 0 0 0 0 0 0 127 0"/><feOffset dx="-4" dy="4"/><feColorMatrix values="0 0 0 0 0 0 0 0 0 0 0 0 0 0 0 0 0 0 0.25 0"/><feBlend in2="BackgroundImageFix" result="effect1_dropShadow"/><feBlend in="SourceGraphic" in2="effect1_dropShadow" result="shape"/><feColorMatrix in="SourceAlpha" result="hardAlpha" values="0 0 0 0 0 0 0 0 0 0 0 0 0 0 0 0 0 0 127 0"/><feOffset dx="16"/><feComposite in2="hardAlpha" k2="-1" k3="1" operator="arithmetic"/><feColorMatrix values="0 0 0 0 0 0 0 0 0 0 0 0 0 0 0 0 0 0 0.25 0"/><feBlend in2="shape" result="effect2_innerShadow"/><feColorMatrix in="SourceAlpha" result="hardAlpha" values="0 0 0 0 0 0 0 0 0 0 0 0 0 0 0 0 0 0 127 0"/><feOffset dx="-16" dy="8"/><feComposite in2="hardAlpha" k2="-1" k3="1" operator="arithmetic"/><feColorMatrix values="0 0 0 0 1 0 0 0 0 1 0 0 0 0 1 0 0 0 0.25 0"/><feBlend in2="effect2_innerShadow" result="effect3_innerShadow"/></filter><filter id="m" width="51" height="50" x="235" y="271" color-interpolation-filters="sRGB" filterUnits="userSpaceOnUse"><feFlood flood-opacity="0" result="BackgroundImageFix"/><feColorMatrix in="SourceAlpha" result="hardAlpha" values="0 0 0 0 0 0 0 0 0 0 0 0 0 0 0 0 0 0 127 0"/><feOffset dx="-4" dy="4"/><feColorMatrix values="0 0 0 0 0 0 0 0 0 0 0 0 0 0 0 0 0 0 0.25 0"/><feBlend in2="BackgroundImageFix" result="effect1_dropShadow"/><feBlend in="SourceGraphic" in2="effect1_dropShadow" result="shape"/><feColorMatrix in="SourceAlpha" result="hardAlpha" values="0 0 0 0 0 0 0 0 0 0 0 0 0 0 0 0 0 0 127 0"/><feOffset dx="16"/><feComposite in2="hardAlpha" k2="-1" k3="1" operator="arithmetic"/><feColorMatrix values="0 0 0 0 0 0 0 0 0 0 0 0 0 0 0 0 0 0 0.25 0"/><feBlend in2="shape" result="effect2_innerShadow"/><feColorMatrix in="SourceAlpha" result="hardAlpha" values="0 0 0 0 0 0 0 0 0 0 0 0 0 0 0 0 0 0 127 0"/><feOffset dx="-16" dy="8"/><feComposite in2="hardAlpha" k2="-1" k3="1" operator="arithmetic"/><feColorMatrix values="0 0 0 0 1 0 0 0 0 1 0 0 0 0 1 0 0 0 0.25 0"/><feBlend in2="effect2_innerShadow" result="effect3_innerShadow"/></filter><filter id="n" width="51" height="50" x="286" y="271" color-interpolation-filters="sRGB" filterUnits="userSpaceOnUse"><feFlood flood-opacity="0" result="BackgroundImageFix"/><feColorMatrix in="SourceAlpha" result="hardAlpha" values="0 0 0 0 0 0 0 0 0 0 0 0 0 0 0 0 0 0 127 0"/><feOffset dx="-4" dy="4"/><feColorMatrix values="0 0 0 0 0 0 0 0 0 0 0 0 0 0 0 0 0 0 0.25 0"/><feBlend in2="BackgroundImageFix" result="effect1_dropShadow"/><feBlend in="SourceGraphic" in2="effect1_dropShadow" result="shape"/><feColorMatrix in="SourceAlpha" result="hardAlpha" values="0 0 0 0 0 0 0 0 0 0 0 0 0 0 0 0 0 0 127 0"/><feOffset dx="16"/><feComposite in2="hardAlpha" k2="-1" k3="1" operator="arithmetic"/><feColorMatrix values="0 0 0 0 0 0 0 0 0 0 0 0 0 0 0 0 0 0 0.25 0"/><feBlend in2="shape" result="effect2_innerShadow"/><feColorMatrix in="SourceAlpha" result="hardAlpha" values="0 0 0 0 0 0 0 0 0 0 0 0 0 0 0 0 0 0 127 0"/><feOffset dx="-16" dy="8"/><feComposite in2="hardAlpha" k2="-1" k3="1" operator="arithmetic"/><feColorMatrix values="0 0 0 0 1 0 0 0 0 1 0 0 0 0 1 0 0 0 0.25 0"/><feBlend in2="effect2_innerShadow" result="effect3_innerShadow"/></filter><filter id="o" width="316" height="273" x="28" y="52" color-interpolation-filters="sRGB" filterUnits="userSpaceOnUse"><feFlood flood-opacity="0" result="BackgroundImageFix"/><feBlend in="SourceGraphic" in2="BackgroundImageFix" result="shape"/><feColorMatrix in="SourceAlpha" result="hardAlpha" values="0 0 0 0 0 0 0 0 0 0 0 0 0 0 0 0 0 0 127 0"/><feOffset dx="16"/><feComposite in2="hardAlpha" k2="-1" k3="1" operator="arithmetic"/><feColorMatrix values="0 0 0 0 0 0 0 0 0 0 0 0 0 0 0 0 0 0 0.25 0"/><feBlend in2="shape" result="effect1_innerShadow"/><feColorMatrix in="SourceAlpha" result="hardAlpha" values="0 0 0 0 0 0 0 0 0 0 0 0 0 0 0 0 0 0 127 0"/><feOffset dx="-24" dy="8"/><feComposite in2="hardAlpha" k2="-1" k3="1" operator="arithmetic"/><feColorMatrix values="0 0 0 0 1 0 0 0 0 1 0 0 0 0 1 0 0 0 0.25 0"/><feBlend in2="effect1_innerShadow" result="effect2_innerShadow"/></filter><filter id="p" width="426" height="325" x="12" y="0" color-interpolation-filters="sRGB" filterUnits="userSpaceOnUse"><feFlood flood-opacity="0" result="BackgroundImageFix"/><feBlend in="SourceGraphic" in2="BackgroundImageFix" result="shape"/><feColorMatrix in="SourceAlpha" result="hardAlpha" values="0 0 0 0 0 0 0 0 0 0 0 0 0 0 0 0 0 0 127 0"/><feOffset dx="16"/><feComposite in2="hardAlpha" k2="-1" k3="1" operator="arithmetic"/><feColorMatrix values="0 0 0 0 0 0 0 0 0 0 0 0 0 0 0 0 0 0 0.25 0"/><feBlend in2="shape" result="effect1_innerShadow"/><feColorMatrix in="SourceAlpha" result="hardAlpha" values="0 0 0 0 0 0 0 0 0 0 0 0 0 0 0 0 0 0 127 0"/><feOffset dx="-16" dy="8"/><feComposite in2="hardAlpha" k2="-1" k3="1" operator="arithmetic"/><feColorMatrix values="0 0 0 0 1 0 0 0 0 1 0 0 0 0 1 0 0 0 0.25 0"/><feBlend in2="effect1_innerShadow" result="effect2_innerShadow"/></filter><filter id="q" width="57" height="49" x="71" y="24" color-interpolation-filters="sRGB" filterUnits="userSpaceOnUse"><feFlood flood-opacity="0" result="BackgroundImageFix"/><feColorMatrix in="SourceAlpha" result="hardAlpha" values="0 0 0 0 0 0 0 0 0 0 0 0 0 0 0 0 0 0 127 0"/><feOffset dx="4"/><feColorMatrix values="0 0 0 0 0 0 0 0 0 0 0 0 0 0 0 0 0 0 0.25 0"/><feBlend in2="BackgroundImageFix" result="effect1_dropShadow"/><feColorMatrix in="SourceAlpha" result="hardAlpha" values="0 0 0 0 0 0 0 0 0 0 0 0 0 0 0 0 0 0 127 0"/><feOffset dx="-4"/><feColorMatrix values="0 0 0 0 1 0 0 0 0 1 0 0 0 0 1 0 0 0 0.25 0"/><feBlend in2="effect1_dropShadow" result="effect2_dropShadow"/><feBlend in="SourceGraphic" in2="effect2_dropShadow" result="shape"/><feColorMatrix in="SourceAlpha" result="hardAlpha" values="0 0 0 0 0 0 0 0 0 0 0 0 0 0 0 0 0 0 127 0"/><feOffset dx="16"/><feComposite in2="hardAlpha" k2="-1" k3="1" operator="arithmetic"/><feColorMatrix values="0 0 0 0 0 0 0 0 0 0 0 0 0 0 0 0 0 0 0.25 0"/><feBlend in2="shape" result="effect3_innerShadow"/></filter><filter id="r" width="57" height="49" x="162" y="24" color-interpolation-filters="sRGB" filterUnits="userSpaceOnUse"><feFlood flood-opacity="0" result="BackgroundImageFix"/><feColorMatrix in="SourceAlpha" result="hardAlpha" values="0 0 0 0 0 0 0 0 0 0 0 0 0 0 0 0 0 0 127 0"/><feOffset dx="4"/><feColorMatrix values="0 0 0 0 0 0 0 0 0 0 0 0 0 0 0 0 0 0 0.25 0"/><feBlend in2="BackgroundImageFix" result="effect1_dropShadow"/><feColorMatrix in="SourceAlpha" result="hardAlpha" values="0 0 0 0 0 0 0 0 0 0 0 0 0 0 0 0 0 0 127 0"/><feOffset dx="-4"/><feColorMatrix values="0 0 0 0 1 0 0 0 0 1 0 0 0 0 1 0 0 0 0.25 0"/><feBlend in2="effect1_dropShadow" result="effect2_dropShadow"/><feBlend in="SourceGraphic" in2="effect2_dropShadow" result="shape"/><feColorMatrix in="SourceAlpha" result="hardAlpha" values="0 0 0 0 0 0 0 0 0 0 0 0 0 0 0 0 0 0 127 0"/><feOffset dx="16"/><feComposite in2="hardAlpha" k2="-1" k3="1" operator="arithmetic"/><feColorMatrix values="0 0 0 0 0 0 0 0 0 0 0 0 0 0 0 0 0 0 0.25 0"/><feBlend in2="shape" result="effect3_innerShadow"/></filter><filter id="s" width="36" height="32" x="378" y="65" color-interpolation-filters="sRGB" filterUnits="userSpaceOnUse"><feFlood flood-opacity="0" result="BackgroundImageFix"/><feColorMatrix in="SourceAlpha" result="hardAlpha" values="0 0 0 0 0 0 0 0 0 0 0 0 0 0 0 0 0 0 127 0"/><feOffset dx="4"/><feColorMatrix values="0 0 0 0 0 0 0 0 0 0 0 0 0 0 0 0 0 0 0.25 0"/><feBlend in2="BackgroundImageFix" result="effect1_dropShadow"/><feBlend in="SourceGraphic" in2="effect1_dropShadow" result="shape"/><feColorMatrix in="SourceAlpha" result="hardAlpha" values="0 0 0 0 0 0 0 0 0 0 0 0 0 0 0 0 0 0 127 0"/><feOffset dx="16"/><feComposite in2="hardAlpha" k2="-1" k3="1" operator="arithmetic"/><feColorMatrix values="0 0 0 0 0 0 0 0 0 0 0 0 0 0 0 0 0 0 0.25 0"/><feBlend in2="shape" result="effect2_innerShadow"/></filter><filter id="t" width="36" height="32" x="312" y="65" color-interpolation-filters="sRGB" filterUnits="userSpaceOnUse"><feFlood flood-opacity="0" result="BackgroundImageFix"/><feColorMatrix in="SourceAlpha" result="hardAlpha" values="0 0 0 0 0 0 0 0 0 0 0 0 0 0 0 0 0 0 127 0"/><feOffset dx="4"/><feColorMatrix values="0 0 0 0 0 0 0 0 0 0 0 0 0 0 0 0 0 0 0.25 0"/><feBlend in2="BackgroundImageFix" result="effect1_dropShadow"/><feBlend in="SourceGraphic" in2="effect1_dropShadow" result="shape"/><feColorMatrix in="SourceAlpha" result="hardAlpha" values="0 0 0 0 0 0 0 0 0 0 0 0 0 0 0 0 0 0 127 0"/><feOffset dx="16"/><feComposite in2="hardAlpha" k2="-1" k3="1" operator="arithmetic"/><feColorMatrix values="0 0 0 0 0 0 0 0 0 0 0 0 0 0 0 0 0 0 0.25 0"/><feBlend in2="shape" result="effect2_innerShadow"/></filter></defs></svg>