<svg xmlns="http://www.w3.org/2000/svg" width="345" height="344" fill="none"><g filter="url(#a)"><path fill="#8A7ED9" d="M17 156c0-13.255 10.745-24 24-24h192c13.255 0 24 10.745 24 24v160c0 13.255-10.745 24-24 24H41c-13.255 0-24-10.745-24-24V156Z"/></g><path stroke="#1F2024" stroke-width="8" d="M17 156c0-13.255 10.745-24 24-24h192c13.255 0 24 10.745 24 24v160c0 13.255-10.745 24-24 24H41c-13.255 0-24-10.745-24-24V156Z"/><g filter="url(#b)"><path fill="#ADA3EE" d="M117 156c0-13.255 10.745-24 24-24h176c13.255 0 24 10.745 24 24v160c0 13.255-10.745 24-24 24H141c-13.255 0-24-10.745-24-24V156Z"/></g><path stroke="#1F2024" stroke-width="8" d="M117 156c0-13.255 10.745-24 24-24h176c13.255 0 24 10.745 24 24v160c0 13.255-10.745 24-24 24H141c-13.255 0-24-10.745-24-24V156Z"/><path fill="#fff" fill-opacity=".5" d="M245 136h38l-56 200h-38l56-200ZM230 136h6l-56 200h-6l56-200Z"/><g filter="url(#c)"><g filter="url(#d)"><path fill="#8A7ED9" d="M13 219a8 8 0 0 1 8-8h65a8 8 0 0 1 8 8v40a8 8 0 0 1-8 8H21a8 8 0 0 1-8-8v-40Z"/></g><path stroke="#1F2024" stroke-width="8" d="M13 219a8 8 0 0 1 8-8h65a8 8 0 0 1 8 8v40a8 8 0 0 1-8 8H21a8 8 0 0 1-8-8v-40Z"/><g filter="url(#e)"><path fill="#ADA3EE" d="M70 219a8 8 0 0 1 8-8h8a8 8 0 0 1 8 8v40a8 8 0 0 1-8 8h-8a8 8 0 0 1-8-8v-40Z"/></g><path stroke="#1F2024" stroke-width="8" d="M70 219a8 8 0 0 1 8-8h8a8 8 0 0 1 8 8v40a8 8 0 0 1-8 8h-8a8 8 0 0 1-8-8v-40Z"/><rect width="8" height="20" x="30" y="230" fill="#1F2024" rx="4"/><rect width="8" height="20" x="42" y="230" fill="#1F2024" rx="4"/></g><path stroke="#1F2024" stroke-linecap="round" stroke-linejoin="round" stroke-width="8" d="m332 99-46 7M332 128l-44-10"/><path fill="#E79834" stroke="#1F2024" stroke-linejoin="round" stroke-width="8" d="m286.5 38.5-8.5 65c-23.865-11.668-31.297-20.756-41-38.5l49.5-26.5Z"/><g filter="url(#f)"><path fill="#EDB146" fill-rule="evenodd" d="M263.02 63.41C288.619 81.603 303 106.275 303 132H30c0-13.36 3.878-26.435 11.192-38.466C38.065 75.234 35.318 62.982 30 42c15.174 2.601 31.76 5.809 47.39 16.521C102.081 43.399 133.681 35 166.5 35c36.202 0 70.921 10.22 96.52 28.41Z" clip-rule="evenodd"/></g><path fill="#1F2024" d="M303 132v4a4 4 0 0 0 4-4h-4Zm-39.98-68.59-2.317 3.261 2.317-3.26ZM166.5 132v4-4ZM30 132h-4a3.998 3.998 0 0 0 4 4v-4Zm11.192-38.466 3.418 2.078a4 4 0 0 0 .525-2.752l-3.943.674ZM30 42l.676-3.943a4 4 0 0 0-4.553 4.926L30 42Zm47.39 16.521-2.261 3.3a4 4 0 0 0 4.35.111l-2.089-3.411ZM166.5 35v-4 4ZM307 132c0-27.313-15.271-53.096-41.663-71.85l-4.634 6.521C285.509 84.3 299 107.861 299 132h8Zm-140.5 4H303v-8H166.5v8ZM30 136h136.5v-8H30v8Zm7.774-44.544C30.113 104.06 26 117.846 26 132h8c0-12.565 3.644-24.929 10.61-36.388l-6.836-4.156ZM26.123 42.983c5.301 20.916 8.022 33.06 11.126 51.224l7.886-1.347c-3.15-18.435-5.922-30.794-11.258-51.843l-7.754 1.966ZM79.65 55.222c-16.416-11.253-33.787-14.56-48.975-17.165l-1.352 7.886c15.16 2.598 30.963 5.705 45.805 15.877l4.522-6.598ZM166.5 31c-33.463 0-65.804 8.557-91.2 24.11l4.18 6.822C103.466 47.24 134.325 39 166.5 39v-8Zm98.837 29.15C238.962 41.407 203.401 31 166.5 31v8c35.503 0 69.381 10.032 94.203 27.671l4.634-6.52Z"/><mask id="g" width="281" height="105" x="26" y="31" mask-type="alpha" maskUnits="userSpaceOnUse"><path fill="#EDB146" fill-rule="evenodd" d="M263.02 63.41C288.619 81.603 303 106.275 303 132H30c0-13.36 3.878-26.435 11.192-38.466C38.065 75.234 35.318 62.982 30 42c15.174 2.601 31.76 5.809 47.39 16.521C102.081 43.399 133.681 35 166.5 35c36.202 0 70.921 10.22 96.52 28.41Z" clip-rule="evenodd"/><path fill="#1F2024" d="M303 132v4a4 4 0 0 0 4-4h-4Zm-39.98-68.59-2.317 3.261 2.317-3.26ZM166.5 132v4-4ZM30 132h-4a3.998 3.998 0 0 0 4 4v-4Zm11.192-38.466 3.418 2.078a4 4 0 0 0 .525-2.752l-3.943.674ZM30 42l.676-3.943a4 4 0 0 0-4.553 4.926L30 42Zm47.39 16.521-2.261 3.3a4 4 0 0 0 4.35.111l-2.089-3.411ZM166.5 35v-4 4ZM307 132c0-27.313-15.271-53.096-41.663-71.85l-4.634 6.521C285.509 84.3 299 107.861 299 132h8Zm-140.5 4H303v-8H166.5v8ZM30 136h136.5v-8H30v8Zm7.774-44.544C30.113 104.06 26 117.846 26 132h8c0-12.565 3.644-24.929 10.61-36.388l-6.836-4.156ZM26.123 42.983c5.301 20.916 8.022 33.06 11.126 51.224l7.886-1.347c-3.15-18.435-5.922-30.794-11.258-51.843l-7.754 1.966ZM79.65 55.222c-16.416-11.253-33.787-14.56-48.975-17.165l-1.352 7.886c15.16 2.598 30.963 5.705 45.805 15.877l4.522-6.598ZM166.5 31c-33.463 0-65.804 8.557-91.2 24.11l4.18 6.822C103.466 47.24 134.325 39 166.5 39v-8Zm98.837 29.15C238.962 41.407 203.401 31 166.5 31v8c35.503 0 69.381 10.032 94.203 27.671l4.634-6.52Z"/></mask><g fill="#FE204F" stroke="#1F2024" stroke-linecap="round" stroke-linejoin="round" stroke-width="8" mask="url(#g)"><path d="M139 115 48.987 95C39.658 97.833 21 105.3 21 112.5c0 7.2 10.085 15 15.128 18L139 115ZM254 115l59.5-20c6.167 2.833 18.5 10.3 18.5 17.5 0 7.2-6.667 15-10 18L254 115Z"/></g><path stroke="#1F2024" stroke-linecap="round" stroke-linejoin="round" stroke-width="8" d="m4 98 46 7M4 127l44-10M49.5 61.5c4.5 1.5 10.728 4.02 16 9.5C61 74 57 78.5 55 81"/><path fill="#1F2024" d="M303 132v4a4 4 0 0 0 4-4h-4Zm-39.98-68.59-2.317 3.261 2.317-3.26ZM166.5 132v4-4ZM30 132h-4a3.998 3.998 0 0 0 4 4v-4Zm11.192-38.466 3.418 2.078a4 4 0 0 0 .525-2.752l-3.943.674ZM30 42l.676-3.943a4 4 0 0 0-4.553 4.926L30 42Zm47.39 16.521-2.261 3.3a4 4 0 0 0 4.35.111l-2.089-3.411ZM166.5 35v-4 4ZM307 132c0-27.313-15.271-53.096-41.663-71.85l-4.634 6.521C285.509 84.3 299 107.861 299 132h8Zm-140.5 4H303v-8H166.5v8ZM30 136h136.5v-8H30v8Zm7.774-44.544C30.113 104.06 26 117.846 26 132h8c0-12.565 3.644-24.929 10.61-36.388l-6.836-4.156ZM26.123 42.983c5.301 20.916 8.022 33.06 11.126 51.224l7.886-1.347c-3.15-18.435-5.922-30.794-11.258-51.843l-7.754 1.966ZM79.65 55.222c-16.416-11.253-33.787-14.56-48.975-17.165l-1.352 7.886c15.16 2.598 30.963 5.705 45.805 15.877l4.522-6.598ZM166.5 31c-33.463 0-65.804 8.557-91.2 24.11l4.18 6.822C103.466 47.24 134.325 39 166.5 39v-8Zm98.837 29.15C238.962 41.407 203.401 31 166.5 31v8c35.503 0 69.381 10.032 94.203 27.671l4.634-6.52Z"/><path fill="#FE204F" stroke="#1F2024" stroke-linejoin="round" stroke-width="8" d="M199.5 73c-11.126-22.647-36-37-61-35-9.677.774-22 3.833-28 5.5L104 30h18V11l23 12.5L153 4l16.5 17.5 30-13c8 15 8.5 45.5 0 64.5Z"/><circle cx="151" cy="78" r="11" fill="#1F2024"/><circle cx="154.5" cy="76.5" r="5.5" fill="#fff"/><circle cx="241" cy="78" r="11" fill="#1F2024"/><path stroke="#1F2024" stroke-linecap="round" stroke-linejoin="round" stroke-width="8" d="M213.5 113c0 6-4.8 18-24 18M217 113c0 6 4.8 18 24 18"/><path fill="#1F2024" d="M188 97.39c0-3.687 2.669-6.851 6.321-7.349 14.071-1.916 24.803-1.81 36.482-.085 3.604.532 6.197 3.684 6.197 7.328C237 109.83 226.83 120 214.284 120h-3.673C198.123 120 188 109.877 188 97.39Z"/><path stroke="#fff" stroke-linecap="round" stroke-linejoin="round" stroke-width="8" d="M224 97c1.167.333 3.6 1.8 4 5"/><circle cx="243.5" cy="76.5" r="5.5" fill="#fff"/><path fill="#fff" d="M189.905 45.883a4 4 0 1 0 7.996.234l-7.996-.234Zm7.041-21.539a4 4 0 1 0-7.892 1.312l7.892-1.312Zm.955 21.773c.228-7.762.123-15.286-.955-21.773l-7.892 1.312c.947 5.696 1.074 12.59.851 20.227l7.996.234Z"/><path fill="#6F3B1A" stroke="#1F2024" stroke-width="8" d="M146 204c0-13.255 10.745-24 24-24h118c13.255 0 24 10.745 24 24v88c0 13.255-10.745 24-24 24H170c-13.255 0-24-10.745-24-24v-88Z"/><path fill="#E36776" fill-opacity=".5" d="M148 303c3.414 0 6.795-.673 9.95-1.979a26.023 26.023 0 0 0 8.435-5.636 26.023 26.023 0 0 0 5.636-8.435 26.016 26.016 0 0 0 0-19.9 26.023 26.023 0 0 0-5.636-8.435 26.023 26.023 0 0 0-8.435-5.636A26.016 26.016 0 0 0 148 251v52ZM310 303c-3.414 0-6.795-.673-9.95-1.979a26.023 26.023 0 0 1-8.435-5.636 26.023 26.023 0 0 1-5.636-8.435 26.016 26.016 0 0 1 0-19.9 26.023 26.023 0 0 1 5.636-8.435 26.023 26.023 0 0 1 8.435-5.636A26.016 26.016 0 0 1 310 251v52Z"/><path fill="#1F2024" d="M255 263a18.01 18.01 0 0 1-5.272 12.728 18.01 18.01 0 0 1-19.616 3.902 18.02 18.02 0 0 1-5.84-3.902A18.01 18.01 0 0 1 219 263h36Z"/><circle cx="191" cy="247" r="13" fill="#1F2024"/><circle cx="195.5" cy="242.5" r="4.5" fill="#fff"/><circle cx="275" cy="247" r="13" fill="#1F2024"/><circle cx="279.5" cy="242.5" r="4.5" fill="#fff"/><g filter="url(#h)"><path fill="#1058C5" d="M238.515 188.753 173 221c4.853-12.899 8.708-32.247 4.853-41H283c-8.1 15.907-22.023 23.411-47.667 32.708 2.992-8.37 3.924-13.483 3.182-23.955Z"/></g><path stroke="#1F2024" stroke-linejoin="round" stroke-width="8" d="M238.515 188.753 173 221c4.853-12.899 8.708-32.247 4.853-41H283c-8.1 15.907-22.023 23.411-47.667 32.708 2.992-8.37 3.924-13.483 3.182-23.955Z"/><mask id="i" width="174" height="144" x="142" y="176" mask-type="alpha" maskUnits="userSpaceOnUse"><path fill="#C4C4C4" d="M142 204c0-15.464 12.536-28 28-28h118c15.464 0 28 12.536 28 28v88c0 15.464-12.536 28-28 28H170c-15.464 0-28-12.536-28-28v-88Z"/></mask><g filter="url(#j)" mask="url(#i)"><path stroke="#1F2024" stroke-width="8" d="M146 204c0-13.255 10.745-24 24-24h118c13.255 0 24 10.745 24 24v88c0 13.255-10.745 24-24 24H170c-13.255 0-24-10.745-24-24v-88Z"/></g><defs><filter id="a" width="248" height="216" x="13" y="128" color-interpolation-filters="sRGB" filterUnits="userSpaceOnUse"><feFlood flood-opacity="0" result="BackgroundImageFix"/><feBlend in="SourceGraphic" in2="BackgroundImageFix" result="shape"/><feColorMatrix in="SourceAlpha" result="hardAlpha" values="0 0 0 0 0 0 0 0 0 0 0 0 0 0 0 0 0 0 127 0"/><feOffset dy="-16"/><feComposite in2="hardAlpha" k2="-1" k3="1" operator="arithmetic"/><feColorMatrix values="0 0 0 0 0 0 0 0 0 0 0 0 0 0 0 0 0 0 0.25 0"/><feBlend in2="shape" result="effect1_innerShadow"/><feColorMatrix in="SourceAlpha" result="hardAlpha" values="0 0 0 0 0 0 0 0 0 0 0 0 0 0 0 0 0 0 127 0"/><feOffset dy="16"/><feComposite in2="hardAlpha" k2="-1" k3="1" operator="arithmetic"/><feColorMatrix values="0 0 0 0 1 0 0 0 0 1 0 0 0 0 1 0 0 0 0.25 0"/><feBlend in2="effect1_innerShadow" result="effect2_innerShadow"/></filter><filter id="b" width="232" height="216" x="113" y="128" color-interpolation-filters="sRGB" filterUnits="userSpaceOnUse"><feFlood flood-opacity="0" result="BackgroundImageFix"/><feBlend in="SourceGraphic" in2="BackgroundImageFix" result="shape"/><feColorMatrix in="SourceAlpha" result="hardAlpha" values="0 0 0 0 0 0 0 0 0 0 0 0 0 0 0 0 0 0 127 0"/><feOffset dx="-24" dy="8"/><feComposite in2="hardAlpha" k2="-1" k3="1" operator="arithmetic"/><feColorMatrix values="0 0 0 0 1 0 0 0 0 1 0 0 0 0 1 0 0 0 0.25 0"/><feBlend in2="shape" result="effect1_innerShadow"/></filter><filter id="c" width="114" height="114" x="-1" y="184" color-interpolation-filters="sRGB" filterUnits="userSpaceOnUse"><feFlood flood-opacity="0" result="BackgroundImageFix"/><feColorMatrix in="SourceAlpha" result="hardAlpha" values="0 0 0 0 0 0 0 0 0 0 0 0 0 0 0 0 0 0 127 0"/><feOffset dx="-4" dy="4"/><feColorMatrix values="0 0 0 0 0 0 0 0 0 0 0 0 0 0 0 0 0 0 0.25 0"/><feBlend in2="BackgroundImageFix" result="effect1_dropShadow"/><feBlend in="SourceGraphic" in2="effect1_dropShadow" result="shape"/></filter><filter id="d" width="89" height="64" x="9" y="207" color-interpolation-filters="sRGB" filterUnits="userSpaceOnUse"><feFlood flood-opacity="0" result="BackgroundImageFix"/><feBlend in="SourceGraphic" in2="BackgroundImageFix" result="shape"/><feColorMatrix in="SourceAlpha" result="hardAlpha" values="0 0 0 0 0 0 0 0 0 0 0 0 0 0 0 0 0 0 127 0"/><feOffset dy="-16"/><feComposite in2="hardAlpha" k2="-1" k3="1" operator="arithmetic"/><feColorMatrix values="0 0 0 0 0 0 0 0 0 0 0 0 0 0 0 0 0 0 0.25 0"/><feBlend in2="shape" result="effect1_innerShadow"/><feColorMatrix in="SourceAlpha" result="hardAlpha" values="0 0 0 0 0 0 0 0 0 0 0 0 0 0 0 0 0 0 127 0"/><feOffset dy="16"/><feComposite in2="hardAlpha" k2="-1" k3="1" operator="arithmetic"/><feColorMatrix values="0 0 0 0 1 0 0 0 0 1 0 0 0 0 1 0 0 0 0.25 0"/><feBlend in2="effect1_innerShadow" result="effect2_innerShadow"/></filter><filter id="e" width="32" height="64" x="66" y="207" color-interpolation-filters="sRGB" filterUnits="userSpaceOnUse"><feFlood flood-opacity="0" result="BackgroundImageFix"/><feBlend in="SourceGraphic" in2="BackgroundImageFix" result="shape"/><feColorMatrix in="SourceAlpha" result="hardAlpha" values="0 0 0 0 0 0 0 0 0 0 0 0 0 0 0 0 0 0 127 0"/><feOffset dx="-24" dy="8"/><feComposite in2="hardAlpha" k2="-1" k3="1" operator="arithmetic"/><feColorMatrix values="0 0 0 0 1 0 0 0 0 1 0 0 0 0 1 0 0 0 0.25 0"/><feBlend in2="shape" result="effect1_innerShadow"/></filter><filter id="f" width="281" height="105" x="26" y="31" color-interpolation-filters="sRGB" filterUnits="userSpaceOnUse"><feFlood flood-opacity="0" result="BackgroundImageFix"/><feBlend in="SourceGraphic" in2="BackgroundImageFix" result="shape"/><feColorMatrix in="SourceAlpha" result="hardAlpha" values="0 0 0 0 0 0 0 0 0 0 0 0 0 0 0 0 0 0 127 0"/><feOffset dx="16"/><feComposite in2="hardAlpha" k2="-1" k3="1" operator="arithmetic"/><feColorMatrix values="0 0 0 0 0 0 0 0 0 0 0 0 0 0 0 0 0 0 0.25 0"/><feBlend in2="shape" result="effect1_innerShadow"/><feColorMatrix in="SourceAlpha" result="hardAlpha" values="0 0 0 0 0 0 0 0 0 0 0 0 0 0 0 0 0 0 127 0"/><feOffset dx="-24" dy="8"/><feComposite in2="hardAlpha" k2="-1" k3="1" operator="arithmetic"/><feColorMatrix values="0 0 0 0 1 0 0 0 0 1 0 0 0 0 1 0 0 0 0.25 0"/><feBlend in2="effect1_innerShadow" result="effect2_innerShadow"/></filter><filter id="h" width="118" height="49" x="169" y="176" color-interpolation-filters="sRGB" filterUnits="userSpaceOnUse"><feFlood flood-opacity="0" result="BackgroundImageFix"/><feBlend in="SourceGraphic" in2="BackgroundImageFix" result="shape"/><feColorMatrix in="SourceAlpha" result="hardAlpha" values="0 0 0 0 0 0 0 0 0 0 0 0 0 0 0 0 0 0 127 0"/><feOffset dx="-16" dy="8"/><feComposite in2="hardAlpha" k2="-1" k3="1" operator="arithmetic"/><feColorMatrix values="0 0 0 0 0 0 0 0 0 0 0 0 0 0 0 0 0 0 0.16 0"/><feBlend in2="shape" result="effect1_innerShadow"/></filter><filter id="j" width="178" height="148" x="138" y="176" color-interpolation-filters="sRGB" filterUnits="userSpaceOnUse"><feFlood flood-opacity="0" result="BackgroundImageFix"/><feColorMatrix in="SourceAlpha" result="hardAlpha" values="0 0 0 0 0 0 0 0 0 0 0 0 0 0 0 0 0 0 127 0"/><feOffset dx="-4" dy="4"/><feColorMatrix values="0 0 0 0 0 0 0 0 0 0 0 0 0 0 0 0 0 0 0.16 0"/><feBlend in2="BackgroundImageFix" result="effect1_dropShadow"/><feBlend in="SourceGraphic" in2="effect1_dropShadow" result="shape"/></filter></defs></svg>