<svg xmlns="http://www.w3.org/2000/svg" width="435" height="366" fill="none"><g filter="url(#a)"><path fill="#E2E2E2" d="M46 170c0-13.255 10.745-24 24-24h192c13.255 0 24 10.745 24 24v160c0 13.255-10.745 24-24 24H86c-22.091 0-40-17.909-40-40V170Z"/></g><path stroke="#1F2024" stroke-width="8" d="M46 170c0-13.255 10.745-24 24-24h192c13.255 0 24 10.745 24 24v160c0 13.255-10.745 24-24 24H86c-22.091 0-40-17.909-40-40V170Z"/><g filter="url(#b)"><path fill="#ACACAE" d="M46 312h240v2c0 22.091-17.909 40-40 40H86c-22.091 0-40-17.909-40-40v-2Z"/></g><path stroke="#1F2024" stroke-width="8" d="M46 312h240v2c0 22.091-17.909 40-40 40H86c-22.091 0-40-17.909-40-40v-2Z"/><g filter="url(#c)"><path fill="#fff" d="M146 170c0-13.255 10.745-24 24-24h176c13.255 0 24 10.745 24 24v144c0 22.091-17.909 40-40 40H186c-22.091 0-40-17.909-40-40V170Z"/></g><path stroke="#1F2024" stroke-width="8" d="M146 170c0-13.255 10.745-24 24-24h176c13.255 0 24 10.745 24 24v144c0 22.091-17.909 40-40 40H186c-22.091 0-40-17.909-40-40V170Z"/><g filter="url(#d)"><path fill="#E2E2E2" d="M146 312h224v2c0 22.091-17.909 40-40 40H186c-22.091 0-40-17.909-40-40v-2Z"/></g><path stroke="#1F2024" stroke-width="8" d="M146 312h224v2c0 22.091-17.909 40-40 40H186c-22.091 0-40-17.909-40-40v-2Z"/><g fill-rule="evenodd" clip-rule="evenodd" filter="url(#e)"><path fill="#1F2024" d="M260.68 191c58.375 0 82.321 26.939 82.32 47.792-.001 20.852-32.91 26.208-82.32 26.208-48.799 0-85.68-5.356-85.68-26.208C175 217.939 200.392 191 260.68 191Z"/><path fill="#9BCEF1" d="M219.364 235.849c-10.704-.6-18.425-2.809-17.245-4.935 1.18-2.125 10.813-3.362 21.517-2.763 10.704.6 18.425 2.809 17.245 4.935-1.18 2.125-10.813 3.362-21.517 2.763ZM296.636 235.849c-10.704.599-20.337-.638-21.517-2.763-1.18-2.126 6.541-4.335 17.245-4.935 10.704-.599 20.337.638 21.517 2.763 1.18 2.126-6.541 4.335-17.245 4.935Z"/></g><path fill="#EB0D18" stroke="#1F2024" stroke-width="8" d="M286 280c4.418 0 8.092 3.627 7.122 7.938C289.507 304.001 275.155 316 258 316s-31.507-11.999-35.122-28.062c-.97-4.311 2.704-7.938 7.122-7.938h56Z"/><path fill="#FF3979" stroke="#1F2024" stroke-width="8" d="M258.393 292.061c6.796 7.794 20.017 23.939 0 23.939-15.851 0-29.325-10.003-34.247-23.939-2.484-18.082 27.452-7.794 34.247 0Z"/><g filter="url(#f)"><path fill="#FE204F" d="M128.25 63H98l22.89-53.726c2.763-6.485 11.957-6.485 14.72 0L158.5 63h-30.25Z"/></g><path stroke="#1F2024" stroke-width="8" d="M128.25 63H98l22.89-53.726c2.763-6.485 11.957-6.485 14.72 0L158.5 63h-30.25Z"/><g filter="url(#g)"><path fill="#FE204F" d="m77.595 74.595-21.39 21.39L34.4 41.809c-2.633-6.54 3.868-13.04 10.408-10.408l54.175 21.804-21.39 21.39Z"/></g><path stroke="#1F2024" stroke-width="8" d="m77.595 74.595-21.39 21.39L34.4 41.809c-2.633-6.54 3.868-13.04 10.408-10.408l54.175 21.804-21.39 21.39Z"/><g filter="url(#h)"><path fill="#FE204F" d="M63 117.25v30.25L9.274 124.61c-6.485-2.763-6.485-11.957 0-14.72L63 87v30.25Z"/></g><path stroke="#1F2024" stroke-width="8" d="M63 117.25v30.25L9.274 124.61c-6.485-2.763-6.485-11.957 0-14.72L63 87v30.25Z"/><g filter="url(#i)"><path fill="#FE204F" d="M63 181.25v30.25L9.274 188.61c-6.485-2.763-6.485-11.957 0-14.72L63 151v30.25Z"/></g><path stroke="#1F2024" stroke-width="8" d="M63 181.25v30.25L9.274 188.61c-6.485-2.763-6.485-11.957 0-14.72L63 151v30.25Z"/><g filter="url(#j)"><path fill="#FE204F" d="M63 245.25v30.25L9.274 252.61c-6.485-2.763-6.485-11.957 0-14.72L63 215v30.25Z"/></g><path stroke="#1F2024" stroke-width="8" d="M63 245.25v30.25L9.274 252.61c-6.485-2.763-6.485-11.957 0-14.72L63 215v30.25Z"/><g filter="url(#k)"><path fill="#fff" d="M171.744 167.081c-1.94-9.885 5.627-19.081 15.7-19.081h5.112c10.073 0 17.64 9.196 15.7 19.081l-2.784 14.187a15.766 15.766 0 0 1-30.944 0l-2.784-14.187Z"/><path stroke="#1F2024" stroke-width="8" d="M171.744 167.081c-1.94-9.885 5.627-19.081 15.7-19.081h5.112c10.073 0 17.64 9.196 15.7 19.081l-2.784 14.187a15.766 15.766 0 0 1-30.944 0l-2.784-14.187Z"/></g><g filter="url(#l)"><path fill="#fff" d="M219.744 167.081c-1.94-9.885 5.627-19.081 15.7-19.081h5.112c10.073 0 17.64 9.196 15.7 19.081l-2.784 14.187a15.766 15.766 0 0 1-30.944 0l-2.784-14.187Z"/><path stroke="#1F2024" stroke-width="8" d="M219.744 167.081c-1.94-9.885 5.627-19.081 15.7-19.081h5.112c10.073 0 17.64 9.196 15.7 19.081l-2.784 14.187a15.766 15.766 0 0 1-30.944 0l-2.784-14.187Z"/></g><g filter="url(#m)"><path fill="#fff" d="M267.744 167.081c-1.94-9.885 5.627-19.081 15.7-19.081h5.112c10.073 0 17.64 9.196 15.7 19.081l-2.784 14.187a15.766 15.766 0 0 1-30.944 0l-2.784-14.187Z"/><path stroke="#1F2024" stroke-width="8" d="M267.744 167.081c-1.94-9.885 5.627-19.081 15.7-19.081h5.112c10.073 0 17.64 9.196 15.7 19.081l-2.784 14.187a15.766 15.766 0 0 1-30.944 0l-2.784-14.187Z"/></g><g filter="url(#n)"><path fill="#fff" d="M315.744 167.081c-1.94-9.885 5.627-19.081 15.7-19.081h5.112c10.073 0 17.64 9.196 15.7 19.081l-2.784 14.187a15.766 15.766 0 0 1-30.944 0l-2.784-14.187Z"/><path stroke="#1F2024" stroke-width="8" d="M315.744 167.081c-1.94-9.885 5.627-19.081 15.7-19.081h5.112c10.073 0 17.64 9.196 15.7 19.081l-2.784 14.187a15.766 15.766 0 0 1-30.944 0l-2.784-14.187Z"/></g><g filter="url(#o)"><path fill="#fff" d="M363.744 167.081c-1.94-9.885 5.627-19.081 15.7-19.081h5.112c10.073 0 17.64 9.196 15.7 19.081l-2.784 14.187a15.766 15.766 0 0 1-30.944 0l-2.784-14.187Z"/><path stroke="#1F2024" stroke-width="8" d="M363.744 167.081c-1.94-9.885 5.627-19.081 15.7-19.081h5.112c10.073 0 17.64 9.196 15.7 19.081l-2.784 14.187a15.766 15.766 0 0 1-30.944 0l-2.784-14.187Z"/></g><g filter="url(#p)"><path fill="#fff" d="M171.744 334.919c-1.94 9.885 5.627 19.081 15.7 19.081h5.112c10.073 0 17.64-9.196 15.7-19.081l-2.784-14.187a15.766 15.766 0 0 0-30.944 0l-2.784 14.187Z"/><path stroke="#1F2024" stroke-width="8" d="M171.744 334.919c-1.94 9.885 5.627 19.081 15.7 19.081h5.112c10.073 0 17.64-9.196 15.7-19.081l-2.784-14.187a15.766 15.766 0 0 0-30.944 0l-2.784 14.187Z"/></g><g filter="url(#q)"><path fill="#fff" d="M223.744 334.919c-1.94 9.885 5.627 19.081 15.7 19.081h5.112c10.073 0 17.64-9.196 15.7-19.081l-2.784-14.187a15.766 15.766 0 0 0-30.944 0l-2.784 14.187Z"/><path stroke="#1F2024" stroke-width="8" d="M223.744 334.919c-1.94 9.885 5.627 19.081 15.7 19.081h5.112c10.073 0 17.64-9.196 15.7-19.081l-2.784-14.187a15.766 15.766 0 0 0-30.944 0l-2.784 14.187Z"/></g><g filter="url(#r)"><path fill="#fff" d="M275.744 334.919c-1.94 9.885 5.627 19.081 15.7 19.081h5.112c10.073 0 17.64-9.196 15.7-19.081l-2.784-14.187a15.766 15.766 0 0 0-30.944 0l-2.784 14.187Z"/><path stroke="#1F2024" stroke-width="8" d="M275.744 334.919c-1.94 9.885 5.627 19.081 15.7 19.081h5.112c10.073 0 17.64-9.196 15.7-19.081l-2.784-14.187a15.766 15.766 0 0 0-30.944 0l-2.784 14.187Z"/></g><g filter="url(#s)"><path fill="#fff" d="M327.744 334.919c-1.94 9.885 5.627 19.081 15.7 19.081h5.112c10.073 0 17.64-9.196 15.7-19.081l-2.784-14.187a15.766 15.766 0 0 0-30.944 0l-2.784 14.187Z"/><path stroke="#1F2024" stroke-width="8" d="M327.744 334.919c-1.94 9.885 5.627 19.081 15.7 19.081h5.112c10.073 0 17.64-9.196 15.7-19.081l-2.784-14.187a15.766 15.766 0 0 0-30.944 0l-2.784 14.187Z"/></g><g filter="url(#t)"><path fill="#DE7E25" fill-rule="evenodd" d="M123 113c-35.346 0-64 28.654-64 64v153c0 13.255 10.745 24 24 24h260c10.45 0 19.34-6.678 22.634-16H179c-22.091 0-40-17.909-40-40v-96c0-22.091 17.909-40 40-40h186.232c-6.75-28.11-32.052-49-62.232-49H123Z" clip-rule="evenodd"/></g><path fill="#1F2024" d="m365.634 338 3.772 1.333 1.885-5.333h-5.657v4Zm-.402-176v4h5.075l-1.185-4.934-3.89.934ZM63 177c0-33.137 26.863-60 60-60v-8c-37.555 0-68 30.445-68 68h8Zm0 153V177h-8v153h8Zm20 20c-11.046 0-20-8.954-20-20h-8c0 15.464 12.536 28 28 28v-8Zm260 0H83v8h260v-8Zm18.863-13.333C359.115 344.44 351.702 350 343 350v8c12.198 0 22.564-7.797 26.406-18.667l-7.543-2.666Zm3.771-2.667H179v8h186.634v-8ZM179 334c-19.882 0-36-16.118-36-36h-8c0 24.301 19.699 44 44 44v-8Zm-36-36v-96h-8v96h8Zm0-96c0-19.882 16.118-36 36-36v-8c-24.301 0-44 19.699-44 44h8Zm36-36h186.232v-8H179v8Zm124-49c28.289 0 52.014 19.581 58.343 45.934l7.779-1.868C361.949 131.199 335.072 109 303 109v8Zm-180 0h180v-8H123v8Z"/><g filter="url(#u)"><path fill="#EDB146" fill-rule="evenodd" d="M107 53c-35.346 0-64 28.654-64 64v197c0 26.51 21.49 48 48 48h284c11.898 0 21.774-8.658 23.671-20.017.364-2.179-1.462-3.983-3.671-3.983H163c-22.091 0-40-17.909-40-40v-96c0-22.091 17.909-40 40-40h264a4 4 0 0 0 4-4v-12c0-1.174-.051-2.337-.15-3.486a10.874 10.874 0 0 1 .025-2.049c.083-.811.125-1.633.125-2.465v-4c0-22.091-17.909-40-40-40h-81.091c-8.538 0-16.267 3.462-21.861 9.058-1.749 1.75-4.04 2.942-6.514 2.942h-33.476C242.843 75.895 216.595 53 185 53h-78Z" clip-rule="evenodd"/></g><path fill="#1F2024" d="m398.671 341.983-3.945-.659 3.945.659Zm32.179-199.469 3.985-.344-3.985.344Zm.025-2.049 3.979.406-3.979-.406Zm-142.827-37.407 2.829 2.828-2.829-2.828ZM248.058 106l-3.941.683.575 3.317h3.366v-4ZM47 117c0-33.137 26.863-60 60-60v-8c-37.555 0-68 30.445-68 68h8Zm0 29v-29h-8v29h8Zm-8 0v1h8v-1h-8Zm0 1v128h8V147h-8Zm0 128v39h8v-39h-8Zm0 39c0 28.719 23.281 52 52 52v-8c-24.3 0-44-19.699-44-44h-8Zm52 52h284v-8H91v8Zm284 0c13.885 0 25.402-10.102 27.616-23.358l-7.89-1.318C393.145 350.787 384.911 358 375 358v8Zm27.616-23.358c.847-5.07-3.416-8.642-7.616-8.642v8c.021 0-.023.01-.1-.071a.671.671 0 0 1-.143-.251.777.777 0 0 1-.031-.354l7.89 1.318ZM395 334H163v8h232v-8Zm-232 0c-19.882 0-36-16.118-36-36h-8c0 24.301 19.699 44 44 44v-8Zm-36-36v-96h-8v96h8Zm0-96c0-19.882 16.118-36 36-36v-8c-24.301 0-44 19.699-44 44h8Zm36-36h264v-8H163v8Zm264 0a8 8 0 0 0 8-8h-8v8Zm8-8v-12h-8v12h8Zm0-12c0-1.289-.056-2.567-.165-3.83l-7.97.688c.089 1.035.135 2.083.135 3.142h8Zm-.165-3.83a7.036 7.036 0 0 1 .019-1.299l-7.958-.812a14.888 14.888 0 0 0-.031 2.799l7.97-.688Zm.019-1.299c.097-.945.146-1.903.146-2.871h-8c0 .696-.035 1.383-.104 2.059l7.958.812ZM435 138v-4h-8v4h8Zm0-4c0-24.301-19.699-44-44-44v8c19.882 0 36 16.118 36 36h8Zm-44-44h-81.091v8H391v-8Zm-81.091 0c-9.641 0-18.376 3.914-24.69 10.23l5.658 5.656c4.875-4.877 11.598-7.886 19.032-7.886v-8Zm-24.69 10.23c-1.198 1.199-2.523 1.77-3.685 1.77v8c3.787 0 7.042-1.812 9.343-4.114l-5.658-5.656Zm-3.685 1.77h-33.476v8h33.476v-8ZM185 57c29.617 0 54.229 21.462 59.117 49.683l7.883-1.366C246.458 73.328 218.574 49 185 49v8Zm-78 0h78v-8h-78v8Z"/><path stroke="#1F2024" stroke-linecap="round" stroke-linejoin="round" stroke-width="10" d="M149 107.013c-4-16.017-28-16.017-32 0"/><path stroke="#1F2024" stroke-linecap="round" stroke-linejoin="round" stroke-width="8" d="M116 106.255c-8.386-4.491-11.952-7.959-15.5-16.5M124.5 97.755c-6.121-3.766-9.193-8.168-12-15"/><path stroke="#1F2024" stroke-linecap="round" stroke-linejoin="round" stroke-width="10" d="M177 107.013c4-16.017 28-16.017 32 0"/><path stroke="#1F2024" stroke-linecap="round" stroke-linejoin="round" stroke-width="8" d="M210 106.255c8.386-4.491 11.952-7.959 15.5-16.5M201.5 97.755c6.121-3.766 9.193-8.168 12-15"/><g filter="url(#v)"><circle cx="381" cy="128" r="10" fill="#4A4A4E"/><circle cx="381" cy="128" r="10" stroke="#1F2024" stroke-width="8"/></g><g filter="url(#w)"><circle cx="329" cy="128" r="10" fill="#4A4A4E"/><circle cx="329" cy="128" r="10" stroke="#1F2024" stroke-width="8"/></g><g filter="url(#x)"><g filter="url(#y)"><path fill="#E2E2E2" d="M31 161c0-17.673 14.327-32 32-32h16c17.673 0 32 14.327 32 32 0 17.673-14.327 32-32 32H63c-17.673 0-32-14.327-32-32Z"/></g><path stroke="#1F2024" stroke-width="8" d="M31 161c0-17.673 14.327-32 32-32h16c17.673 0 32 14.327 32 32 0 17.673-14.327 32-32 32H63c-17.673 0-32-14.327-32-32Z"/><g filter="url(#z)"><path fill="#ACACAE" d="M31 161c0-17.673 14.327-32 32-32 17.673 0 32 14.327 32 32 0 17.673-14.327 32-32 32-17.673 0-32-14.327-32-32Z"/></g><path stroke="#1F2024" stroke-width="8" d="M31 161c0-17.673 14.327-32 32-32 17.673 0 32 14.327 32 32 0 17.673-14.327 32-32 32-17.673 0-32-14.327-32-32ZM72 191v40"/><g filter="url(#A)"><path fill="#EB0D18" d="m68 217 36 48-36 48-36-48 36-48Z"/></g><path stroke="#1F2024" stroke-width="8" d="m68 217 36 48-36 48-36-48 36-48Z"/></g><defs><filter id="n" width="49.124" height="58" x="307.438" y="144" color-interpolation-filters="sRGB" filterUnits="userSpaceOnUse"><feFlood flood-opacity="0" result="BackgroundImageFix"/><feColorMatrix in="SourceAlpha" result="hardAlpha" values="0 0 0 0 0 0 0 0 0 0 0 0 0 0 0 0 0 0 127 0"/><feOffset dx="-4" dy="4"/><feColorMatrix values="0 0 0 0 0 0 0 0 0 0 0 0 0 0 0 0 0 0 0.25 0"/><feBlend in2="BackgroundImageFix" result="effect1_dropShadow"/><feBlend in="SourceGraphic" in2="effect1_dropShadow" result="shape"/><feColorMatrix in="SourceAlpha" result="hardAlpha" values="0 0 0 0 0 0 0 0 0 0 0 0 0 0 0 0 0 0 127 0"/><feOffset dx="16"/><feComposite in2="hardAlpha" k2="-1" k3="1" operator="arithmetic"/><feColorMatrix values="0 0 0 0 0 0 0 0 0 0 0 0 0 0 0 0 0 0 0.25 0"/><feBlend in2="shape" result="effect2_innerShadow"/><feColorMatrix in="SourceAlpha" result="hardAlpha" values="0 0 0 0 0 0 0 0 0 0 0 0 0 0 0 0 0 0 127 0"/><feOffset dx="-16" dy="8"/><feComposite in2="hardAlpha" k2="-1" k3="1" operator="arithmetic"/><feColorMatrix values="0 0 0 0 1 0 0 0 0 1 0 0 0 0 1 0 0 0 0.25 0"/><feBlend in2="effect2_innerShadow" result="effect3_innerShadow"/></filter><filter id="a" width="248" height="216" x="42" y="142" color-interpolation-filters="sRGB" filterUnits="userSpaceOnUse"><feFlood flood-opacity="0" result="BackgroundImageFix"/><feBlend in="SourceGraphic" in2="BackgroundImageFix" result="shape"/><feColorMatrix in="SourceAlpha" result="hardAlpha" values="0 0 0 0 0 0 0 0 0 0 0 0 0 0 0 0 0 0 127 0"/><feOffset dy="-16"/><feComposite in2="hardAlpha" k2="-1" k3="1" operator="arithmetic"/><feColorMatrix values="0 0 0 0 0 0 0 0 0 0 0 0 0 0 0 0 0 0 0.25 0"/><feBlend in2="shape" result="effect1_innerShadow"/><feColorMatrix in="SourceAlpha" result="hardAlpha" values="0 0 0 0 0 0 0 0 0 0 0 0 0 0 0 0 0 0 127 0"/><feOffset dy="16"/><feComposite in2="hardAlpha" k2="-1" k3="1" operator="arithmetic"/><feColorMatrix values="0 0 0 0 1 0 0 0 0 1 0 0 0 0 1 0 0 0 0.25 0"/><feBlend in2="effect1_innerShadow" result="effect2_innerShadow"/></filter><filter id="c" width="232" height="216" x="142" y="142" color-interpolation-filters="sRGB" filterUnits="userSpaceOnUse"><feFlood flood-opacity="0" result="BackgroundImageFix"/><feBlend in="SourceGraphic" in2="BackgroundImageFix" result="shape"/><feColorMatrix in="SourceAlpha" result="hardAlpha" values="0 0 0 0 0 0 0 0 0 0 0 0 0 0 0 0 0 0 127 0"/><feOffset dx="-24" dy="8"/><feComposite in2="hardAlpha" k2="-1" k3="1" operator="arithmetic"/><feColorMatrix values="0 0 0 0 1 0 0 0 0 1 0 0 0 0 1 0 0 0 0.25 0"/><feBlend in2="shape" result="effect1_innerShadow"/></filter><filter id="d" width="232" height="50" x="142" y="308" color-interpolation-filters="sRGB" filterUnits="userSpaceOnUse"><feFlood flood-opacity="0" result="BackgroundImageFix"/><feBlend in="SourceGraphic" in2="BackgroundImageFix" result="shape"/><feColorMatrix in="SourceAlpha" result="hardAlpha" values="0 0 0 0 0 0 0 0 0 0 0 0 0 0 0 0 0 0 127 0"/><feOffset dx="-24" dy="8"/><feComposite in2="hardAlpha" k2="-1" k3="1" operator="arithmetic"/><feColorMatrix values="0 0 0 0 1 0 0 0 0 1 0 0 0 0 1 0 0 0 0.25 0"/><feBlend in2="shape" result="effect1_innerShadow"/></filter><filter id="e" width="177" height="74" x="170" y="191" color-interpolation-filters="sRGB" filterUnits="userSpaceOnUse"><feFlood flood-opacity="0" result="BackgroundImageFix"/><feColorMatrix in="SourceAlpha" result="hardAlpha" values="0 0 0 0 0 0 0 0 0 0 0 0 0 0 0 0 0 0 127 0"/><feOffset dx="-4"/><feColorMatrix values="0 0 0 0 1 0 0 0 0 1 0 0 0 0 1 0 0 0 0.25 0"/><feBlend in2="BackgroundImageFix" result="effect1_dropShadow"/><feColorMatrix in="SourceAlpha" result="hardAlpha" values="0 0 0 0 0 0 0 0 0 0 0 0 0 0 0 0 0 0 127 0"/><feOffset dx="4"/><feColorMatrix values="0 0 0 0 0 0 0 0 0 0 0 0 0 0 0 0 0 0 0.25 0"/><feBlend in2="effect1_dropShadow" result="effect2_dropShadow"/><feBlend in="SourceGraphic" in2="effect2_dropShadow" result="shape"/><feColorMatrix in="SourceAlpha" result="hardAlpha" values="0 0 0 0 0 0 0 0 0 0 0 0 0 0 0 0 0 0 127 0"/><feOffset dx="-4"/><feComposite in2="hardAlpha" k2="-1" k3="1" operator="arithmetic"/><feColorMatrix values="0 0 0 0 0 0 0 0 0 0 0 0 0 0 0 0 0 0 0.25 0"/><feBlend in2="shape" result="effect3_innerShadow"/></filter><filter id="f" width="72.604" height="66.59" x="91.948" y=".41" color-interpolation-filters="sRGB" filterUnits="userSpaceOnUse"><feFlood flood-opacity="0" result="BackgroundImageFix"/><feBlend in="SourceGraphic" in2="BackgroundImageFix" result="shape"/><feColorMatrix in="SourceAlpha" result="hardAlpha" values="0 0 0 0 0 0 0 0 0 0 0 0 0 0 0 0 0 0 127 0"/><feOffset dx="16"/><feComposite in2="hardAlpha" k2="-1" k3="1" operator="arithmetic"/><feColorMatrix values="0 0 0 0 0 0 0 0 0 0 0 0 0 0 0 0 0 0 0.25 0"/><feBlend in2="shape" result="effect1_innerShadow"/><feColorMatrix in="SourceAlpha" result="hardAlpha" values="0 0 0 0 0 0 0 0 0 0 0 0 0 0 0 0 0 0 127 0"/><feOffset dx="-24" dy="8"/><feComposite in2="hardAlpha" k2="-1" k3="1" operator="arithmetic"/><feColorMatrix values="0 0 0 0 1 0 0 0 0 1 0 0 0 0 1 0 0 0 0.25 0"/><feBlend in2="effect1_innerShadow" result="effect2_innerShadow"/></filter><filter id="g" width="76.302" height="76.302" x="29.791" y="26.791" color-interpolation-filters="sRGB" filterUnits="userSpaceOnUse"><feFlood flood-opacity="0" result="BackgroundImageFix"/><feBlend in="SourceGraphic" in2="BackgroundImageFix" result="shape"/><feColorMatrix in="SourceAlpha" result="hardAlpha" values="0 0 0 0 0 0 0 0 0 0 0 0 0 0 0 0 0 0 127 0"/><feOffset dx="16"/><feComposite in2="hardAlpha" k2="-1" k3="1" operator="arithmetic"/><feColorMatrix values="0 0 0 0 0 0 0 0 0 0 0 0 0 0 0 0 0 0 0.25 0"/><feBlend in2="shape" result="effect1_innerShadow"/><feColorMatrix in="SourceAlpha" result="hardAlpha" values="0 0 0 0 0 0 0 0 0 0 0 0 0 0 0 0 0 0 127 0"/><feOffset dx="-24" dy="8"/><feComposite in2="hardAlpha" k2="-1" k3="1" operator="arithmetic"/><feColorMatrix values="0 0 0 0 1 0 0 0 0 1 0 0 0 0 1 0 0 0 0.25 0"/><feBlend in2="effect1_innerShadow" result="effect2_innerShadow"/></filter><filter id="h" width="66.59" height="72.604" x=".41" y="80.948" color-interpolation-filters="sRGB" filterUnits="userSpaceOnUse"><feFlood flood-opacity="0" result="BackgroundImageFix"/><feBlend in="SourceGraphic" in2="BackgroundImageFix" result="shape"/><feColorMatrix in="SourceAlpha" result="hardAlpha" values="0 0 0 0 0 0 0 0 0 0 0 0 0 0 0 0 0 0 127 0"/><feOffset dx="16"/><feComposite in2="hardAlpha" k2="-1" k3="1" operator="arithmetic"/><feColorMatrix values="0 0 0 0 0 0 0 0 0 0 0 0 0 0 0 0 0 0 0.25 0"/><feBlend in2="shape" result="effect1_innerShadow"/><feColorMatrix in="SourceAlpha" result="hardAlpha" values="0 0 0 0 0 0 0 0 0 0 0 0 0 0 0 0 0 0 127 0"/><feOffset dx="-24" dy="8"/><feComposite in2="hardAlpha" k2="-1" k3="1" operator="arithmetic"/><feColorMatrix values="0 0 0 0 1 0 0 0 0 1 0 0 0 0 1 0 0 0 0.25 0"/><feBlend in2="effect1_innerShadow" result="effect2_innerShadow"/></filter><filter id="i" width="66.59" height="72.604" x=".41" y="144.948" color-interpolation-filters="sRGB" filterUnits="userSpaceOnUse"><feFlood flood-opacity="0" result="BackgroundImageFix"/><feBlend in="SourceGraphic" in2="BackgroundImageFix" result="shape"/><feColorMatrix in="SourceAlpha" result="hardAlpha" values="0 0 0 0 0 0 0 0 0 0 0 0 0 0 0 0 0 0 127 0"/><feOffset dx="16"/><feComposite in2="hardAlpha" k2="-1" k3="1" operator="arithmetic"/><feColorMatrix values="0 0 0 0 0 0 0 0 0 0 0 0 0 0 0 0 0 0 0.25 0"/><feBlend in2="shape" result="effect1_innerShadow"/><feColorMatrix in="SourceAlpha" result="hardAlpha" values="0 0 0 0 0 0 0 0 0 0 0 0 0 0 0 0 0 0 127 0"/><feOffset dx="-24" dy="8"/><feComposite in2="hardAlpha" k2="-1" k3="1" operator="arithmetic"/><feColorMatrix values="0 0 0 0 1 0 0 0 0 1 0 0 0 0 1 0 0 0 0.25 0"/><feBlend in2="effect1_innerShadow" result="effect2_innerShadow"/></filter><filter id="j" width="66.59" height="72.604" x=".41" y="208.948" color-interpolation-filters="sRGB" filterUnits="userSpaceOnUse"><feFlood flood-opacity="0" result="BackgroundImageFix"/><feBlend in="SourceGraphic" in2="BackgroundImageFix" result="shape"/><feColorMatrix in="SourceAlpha" result="hardAlpha" values="0 0 0 0 0 0 0 0 0 0 0 0 0 0 0 0 0 0 127 0"/><feOffset dx="16"/><feComposite in2="hardAlpha" k2="-1" k3="1" operator="arithmetic"/><feColorMatrix values="0 0 0 0 0 0 0 0 0 0 0 0 0 0 0 0 0 0 0.25 0"/><feBlend in2="shape" result="effect1_innerShadow"/><feColorMatrix in="SourceAlpha" result="hardAlpha" values="0 0 0 0 0 0 0 0 0 0 0 0 0 0 0 0 0 0 127 0"/><feOffset dx="-24" dy="8"/><feComposite in2="hardAlpha" k2="-1" k3="1" operator="arithmetic"/><feColorMatrix values="0 0 0 0 1 0 0 0 0 1 0 0 0 0 1 0 0 0 0.25 0"/><feBlend in2="effect1_innerShadow" result="effect2_innerShadow"/></filter><filter id="k" width="49.124" height="58" x="163.438" y="144" color-interpolation-filters="sRGB" filterUnits="userSpaceOnUse"><feFlood flood-opacity="0" result="BackgroundImageFix"/><feColorMatrix in="SourceAlpha" result="hardAlpha" values="0 0 0 0 0 0 0 0 0 0 0 0 0 0 0 0 0 0 127 0"/><feOffset dx="-4" dy="4"/><feColorMatrix values="0 0 0 0 0 0 0 0 0 0 0 0 0 0 0 0 0 0 0.25 0"/><feBlend in2="BackgroundImageFix" result="effect1_dropShadow"/><feBlend in="SourceGraphic" in2="effect1_dropShadow" result="shape"/><feColorMatrix in="SourceAlpha" result="hardAlpha" values="0 0 0 0 0 0 0 0 0 0 0 0 0 0 0 0 0 0 127 0"/><feOffset dx="16"/><feComposite in2="hardAlpha" k2="-1" k3="1" operator="arithmetic"/><feColorMatrix values="0 0 0 0 0 0 0 0 0 0 0 0 0 0 0 0 0 0 0.25 0"/><feBlend in2="shape" result="effect2_innerShadow"/><feColorMatrix in="SourceAlpha" result="hardAlpha" values="0 0 0 0 0 0 0 0 0 0 0 0 0 0 0 0 0 0 127 0"/><feOffset dx="-16" dy="8"/><feComposite in2="hardAlpha" k2="-1" k3="1" operator="arithmetic"/><feColorMatrix values="0 0 0 0 1 0 0 0 0 1 0 0 0 0 1 0 0 0 0.25 0"/><feBlend in2="effect2_innerShadow" result="effect3_innerShadow"/></filter><filter id="l" width="49.124" height="58" x="211.438" y="144" color-interpolation-filters="sRGB" filterUnits="userSpaceOnUse"><feFlood flood-opacity="0" result="BackgroundImageFix"/><feColorMatrix in="SourceAlpha" result="hardAlpha" values="0 0 0 0 0 0 0 0 0 0 0 0 0 0 0 0 0 0 127 0"/><feOffset dx="-4" dy="4"/><feColorMatrix values="0 0 0 0 0 0 0 0 0 0 0 0 0 0 0 0 0 0 0.25 0"/><feBlend in2="BackgroundImageFix" result="effect1_dropShadow"/><feBlend in="SourceGraphic" in2="effect1_dropShadow" result="shape"/><feColorMatrix in="SourceAlpha" result="hardAlpha" values="0 0 0 0 0 0 0 0 0 0 0 0 0 0 0 0 0 0 127 0"/><feOffset dx="16"/><feComposite in2="hardAlpha" k2="-1" k3="1" operator="arithmetic"/><feColorMatrix values="0 0 0 0 0 0 0 0 0 0 0 0 0 0 0 0 0 0 0.25 0"/><feBlend in2="shape" result="effect2_innerShadow"/><feColorMatrix in="SourceAlpha" result="hardAlpha" values="0 0 0 0 0 0 0 0 0 0 0 0 0 0 0 0 0 0 127 0"/><feOffset dx="-16" dy="8"/><feComposite in2="hardAlpha" k2="-1" k3="1" operator="arithmetic"/><feColorMatrix values="0 0 0 0 1 0 0 0 0 1 0 0 0 0 1 0 0 0 0.25 0"/><feBlend in2="effect2_innerShadow" result="effect3_innerShadow"/></filter><filter id="m" width="49.124" height="58" x="259.438" y="144" color-interpolation-filters="sRGB" filterUnits="userSpaceOnUse"><feFlood flood-opacity="0" result="BackgroundImageFix"/><feColorMatrix in="SourceAlpha" result="hardAlpha" values="0 0 0 0 0 0 0 0 0 0 0 0 0 0 0 0 0 0 127 0"/><feOffset dx="-4" dy="4"/><feColorMatrix values="0 0 0 0 0 0 0 0 0 0 0 0 0 0 0 0 0 0 0.25 0"/><feBlend in2="BackgroundImageFix" result="effect1_dropShadow"/><feBlend in="SourceGraphic" in2="effect1_dropShadow" result="shape"/><feColorMatrix in="SourceAlpha" result="hardAlpha" values="0 0 0 0 0 0 0 0 0 0 0 0 0 0 0 0 0 0 127 0"/><feOffset dx="16"/><feComposite in2="hardAlpha" k2="-1" k3="1" operator="arithmetic"/><feColorMatrix values="0 0 0 0 0 0 0 0 0 0 0 0 0 0 0 0 0 0 0.25 0"/><feBlend in2="shape" result="effect2_innerShadow"/><feColorMatrix in="SourceAlpha" result="hardAlpha" values="0 0 0 0 0 0 0 0 0 0 0 0 0 0 0 0 0 0 127 0"/><feOffset dx="-16" dy="8"/><feComposite in2="hardAlpha" k2="-1" k3="1" operator="arithmetic"/><feColorMatrix values="0 0 0 0 1 0 0 0 0 1 0 0 0 0 1 0 0 0 0.25 0"/><feBlend in2="effect2_innerShadow" result="effect3_innerShadow"/></filter><filter id="b" width="248" height="50" x="42" y="308" color-interpolation-filters="sRGB" filterUnits="userSpaceOnUse"><feFlood flood-opacity="0" result="BackgroundImageFix"/><feBlend in="SourceGraphic" in2="BackgroundImageFix" result="shape"/><feColorMatrix in="SourceAlpha" result="hardAlpha" values="0 0 0 0 0 0 0 0 0 0 0 0 0 0 0 0 0 0 127 0"/><feOffset dy="-8"/><feComposite in2="hardAlpha" k2="-1" k3="1" operator="arithmetic"/><feColorMatrix values="0 0 0 0 0 0 0 0 0 0 0 0 0 0 0 0 0 0 0.25 0"/><feBlend in2="shape" result="effect1_innerShadow"/></filter><filter id="o" width="49.124" height="58" x="355.438" y="144" color-interpolation-filters="sRGB" filterUnits="userSpaceOnUse"><feFlood flood-opacity="0" result="BackgroundImageFix"/><feColorMatrix in="SourceAlpha" result="hardAlpha" values="0 0 0 0 0 0 0 0 0 0 0 0 0 0 0 0 0 0 127 0"/><feOffset dx="-4" dy="4"/><feColorMatrix values="0 0 0 0 0 0 0 0 0 0 0 0 0 0 0 0 0 0 0.25 0"/><feBlend in2="BackgroundImageFix" result="effect1_dropShadow"/><feBlend in="SourceGraphic" in2="effect1_dropShadow" result="shape"/><feColorMatrix in="SourceAlpha" result="hardAlpha" values="0 0 0 0 0 0 0 0 0 0 0 0 0 0 0 0 0 0 127 0"/><feOffset dx="16"/><feComposite in2="hardAlpha" k2="-1" k3="1" operator="arithmetic"/><feColorMatrix values="0 0 0 0 0 0 0 0 0 0 0 0 0 0 0 0 0 0 0.25 0"/><feBlend in2="shape" result="effect2_innerShadow"/><feColorMatrix in="SourceAlpha" result="hardAlpha" values="0 0 0 0 0 0 0 0 0 0 0 0 0 0 0 0 0 0 127 0"/><feOffset dx="-16" dy="8"/><feComposite in2="hardAlpha" k2="-1" k3="1" operator="arithmetic"/><feColorMatrix values="0 0 0 0 1 0 0 0 0 1 0 0 0 0 1 0 0 0 0.25 0"/><feBlend in2="effect2_innerShadow" result="effect3_innerShadow"/></filter><filter id="p" width="49.124" height="58" x="163.438" y="304" color-interpolation-filters="sRGB" filterUnits="userSpaceOnUse"><feFlood flood-opacity="0" result="BackgroundImageFix"/><feColorMatrix in="SourceAlpha" result="hardAlpha" values="0 0 0 0 0 0 0 0 0 0 0 0 0 0 0 0 0 0 127 0"/><feOffset dx="-4" dy="4"/><feColorMatrix values="0 0 0 0 0 0 0 0 0 0 0 0 0 0 0 0 0 0 0.25 0"/><feBlend in2="BackgroundImageFix" result="effect1_dropShadow"/><feBlend in="SourceGraphic" in2="effect1_dropShadow" result="shape"/><feColorMatrix in="SourceAlpha" result="hardAlpha" values="0 0 0 0 0 0 0 0 0 0 0 0 0 0 0 0 0 0 127 0"/><feOffset dx="16"/><feComposite in2="hardAlpha" k2="-1" k3="1" operator="arithmetic"/><feColorMatrix values="0 0 0 0 0 0 0 0 0 0 0 0 0 0 0 0 0 0 0.25 0"/><feBlend in2="shape" result="effect2_innerShadow"/><feColorMatrix in="SourceAlpha" result="hardAlpha" values="0 0 0 0 0 0 0 0 0 0 0 0 0 0 0 0 0 0 127 0"/><feOffset dx="-16" dy="8"/><feComposite in2="hardAlpha" k2="-1" k3="1" operator="arithmetic"/><feColorMatrix values="0 0 0 0 1 0 0 0 0 1 0 0 0 0 1 0 0 0 0.25 0"/><feBlend in2="effect2_innerShadow" result="effect3_innerShadow"/></filter><filter id="q" width="49.124" height="58" x="215.438" y="304" color-interpolation-filters="sRGB" filterUnits="userSpaceOnUse"><feFlood flood-opacity="0" result="BackgroundImageFix"/><feColorMatrix in="SourceAlpha" result="hardAlpha" values="0 0 0 0 0 0 0 0 0 0 0 0 0 0 0 0 0 0 127 0"/><feOffset dx="-4" dy="4"/><feColorMatrix values="0 0 0 0 0 0 0 0 0 0 0 0 0 0 0 0 0 0 0.25 0"/><feBlend in2="BackgroundImageFix" result="effect1_dropShadow"/><feBlend in="SourceGraphic" in2="effect1_dropShadow" result="shape"/><feColorMatrix in="SourceAlpha" result="hardAlpha" values="0 0 0 0 0 0 0 0 0 0 0 0 0 0 0 0 0 0 127 0"/><feOffset dx="16"/><feComposite in2="hardAlpha" k2="-1" k3="1" operator="arithmetic"/><feColorMatrix values="0 0 0 0 0 0 0 0 0 0 0 0 0 0 0 0 0 0 0.25 0"/><feBlend in2="shape" result="effect2_innerShadow"/><feColorMatrix in="SourceAlpha" result="hardAlpha" values="0 0 0 0 0 0 0 0 0 0 0 0 0 0 0 0 0 0 127 0"/><feOffset dx="-16" dy="8"/><feComposite in2="hardAlpha" k2="-1" k3="1" operator="arithmetic"/><feColorMatrix values="0 0 0 0 1 0 0 0 0 1 0 0 0 0 1 0 0 0 0.25 0"/><feBlend in2="effect2_innerShadow" result="effect3_innerShadow"/></filter><filter id="r" width="49.124" height="58" x="267.438" y="304" color-interpolation-filters="sRGB" filterUnits="userSpaceOnUse"><feFlood flood-opacity="0" result="BackgroundImageFix"/><feColorMatrix in="SourceAlpha" result="hardAlpha" values="0 0 0 0 0 0 0 0 0 0 0 0 0 0 0 0 0 0 127 0"/><feOffset dx="-4" dy="4"/><feColorMatrix values="0 0 0 0 0 0 0 0 0 0 0 0 0 0 0 0 0 0 0.25 0"/><feBlend in2="BackgroundImageFix" result="effect1_dropShadow"/><feBlend in="SourceGraphic" in2="effect1_dropShadow" result="shape"/><feColorMatrix in="SourceAlpha" result="hardAlpha" values="0 0 0 0 0 0 0 0 0 0 0 0 0 0 0 0 0 0 127 0"/><feOffset dx="16"/><feComposite in2="hardAlpha" k2="-1" k3="1" operator="arithmetic"/><feColorMatrix values="0 0 0 0 0 0 0 0 0 0 0 0 0 0 0 0 0 0 0.25 0"/><feBlend in2="shape" result="effect2_innerShadow"/><feColorMatrix in="SourceAlpha" result="hardAlpha" values="0 0 0 0 0 0 0 0 0 0 0 0 0 0 0 0 0 0 127 0"/><feOffset dx="-16" dy="8"/><feComposite in2="hardAlpha" k2="-1" k3="1" operator="arithmetic"/><feColorMatrix values="0 0 0 0 1 0 0 0 0 1 0 0 0 0 1 0 0 0 0.25 0"/><feBlend in2="effect2_innerShadow" result="effect3_innerShadow"/></filter><filter id="s" width="49.124" height="58" x="319.438" y="304" color-interpolation-filters="sRGB" filterUnits="userSpaceOnUse"><feFlood flood-opacity="0" result="BackgroundImageFix"/><feColorMatrix in="SourceAlpha" result="hardAlpha" values="0 0 0 0 0 0 0 0 0 0 0 0 0 0 0 0 0 0 127 0"/><feOffset dx="-4" dy="4"/><feColorMatrix values="0 0 0 0 0 0 0 0 0 0 0 0 0 0 0 0 0 0 0.25 0"/><feBlend in2="BackgroundImageFix" result="effect1_dropShadow"/><feBlend in="SourceGraphic" in2="effect1_dropShadow" result="shape"/><feColorMatrix in="SourceAlpha" result="hardAlpha" values="0 0 0 0 0 0 0 0 0 0 0 0 0 0 0 0 0 0 127 0"/><feOffset dx="16"/><feComposite in2="hardAlpha" k2="-1" k3="1" operator="arithmetic"/><feColorMatrix values="0 0 0 0 0 0 0 0 0 0 0 0 0 0 0 0 0 0 0.25 0"/><feBlend in2="shape" result="effect2_innerShadow"/><feColorMatrix in="SourceAlpha" result="hardAlpha" values="0 0 0 0 0 0 0 0 0 0 0 0 0 0 0 0 0 0 127 0"/><feOffset dx="-16" dy="8"/><feComposite in2="hardAlpha" k2="-1" k3="1" operator="arithmetic"/><feColorMatrix values="0 0 0 0 1 0 0 0 0 1 0 0 0 0 1 0 0 0 0.25 0"/><feBlend in2="effect2_innerShadow" result="effect3_innerShadow"/></filter><filter id="t" width="316.291" height="249" x="55" y="109" color-interpolation-filters="sRGB" filterUnits="userSpaceOnUse"><feFlood flood-opacity="0" result="BackgroundImageFix"/><feBlend in="SourceGraphic" in2="BackgroundImageFix" result="shape"/><feColorMatrix in="SourceAlpha" result="hardAlpha" values="0 0 0 0 0 0 0 0 0 0 0 0 0 0 0 0 0 0 127 0"/><feOffset dx="16"/><feComposite in2="hardAlpha" k2="-1" k3="1" operator="arithmetic"/><feColorMatrix values="0 0 0 0 0 0 0 0 0 0 0 0 0 0 0 0 0 0 0.25 0"/><feBlend in2="shape" result="effect1_innerShadow"/><feColorMatrix in="SourceAlpha" result="hardAlpha" values="0 0 0 0 0 0 0 0 0 0 0 0 0 0 0 0 0 0 127 0"/><feOffset dx="-24" dy="8"/><feComposite in2="hardAlpha" k2="-1" k3="1" operator="arithmetic"/><feColorMatrix values="0 0 0 0 1 0 0 0 0 1 0 0 0 0 1 0 0 0 0.25 0"/><feBlend in2="effect1_innerShadow" result="effect2_innerShadow"/></filter><filter id="u" width="396" height="317" x="39" y="49" color-interpolation-filters="sRGB" filterUnits="userSpaceOnUse"><feFlood flood-opacity="0" result="BackgroundImageFix"/><feBlend in="SourceGraphic" in2="BackgroundImageFix" result="shape"/><feColorMatrix in="SourceAlpha" result="hardAlpha" values="0 0 0 0 0 0 0 0 0 0 0 0 0 0 0 0 0 0 127 0"/><feOffset dx="48"/><feComposite in2="hardAlpha" k2="-1" k3="1" operator="arithmetic"/><feColorMatrix values="0 0 0 0 0 0 0 0 0 0 0 0 0 0 0 0 0 0 0.25 0"/><feBlend in2="shape" result="effect1_innerShadow"/><feColorMatrix in="SourceAlpha" result="hardAlpha" values="0 0 0 0 0 0 0 0 0 0 0 0 0 0 0 0 0 0 127 0"/><feOffset dx="-16" dy="8"/><feComposite in2="hardAlpha" k2="-1" k3="1" operator="arithmetic"/><feColorMatrix values="0 0 0 0 1 0 0 0 0 1 0 0 0 0 1 0 0 0 0.25 0"/><feBlend in2="effect1_innerShadow" result="effect2_innerShadow"/></filter><filter id="v" width="32" height="28" x="367" y="114" color-interpolation-filters="sRGB" filterUnits="userSpaceOnUse"><feFlood flood-opacity="0" result="BackgroundImageFix"/><feColorMatrix in="SourceAlpha" result="hardAlpha" values="0 0 0 0 0 0 0 0 0 0 0 0 0 0 0 0 0 0 127 0"/><feOffset dx="4"/><feColorMatrix values="0 0 0 0 0 0 0 0 0 0 0 0 0 0 0 0 0 0 0.25 0"/><feBlend in2="BackgroundImageFix" result="effect1_dropShadow"/><feBlend in="SourceGraphic" in2="effect1_dropShadow" result="shape"/><feColorMatrix in="SourceAlpha" result="hardAlpha" values="0 0 0 0 0 0 0 0 0 0 0 0 0 0 0 0 0 0 127 0"/><feOffset dx="16"/><feComposite in2="hardAlpha" k2="-1" k3="1" operator="arithmetic"/><feColorMatrix values="0 0 0 0 0 0 0 0 0 0 0 0 0 0 0 0 0 0 0.25 0"/><feBlend in2="shape" result="effect2_innerShadow"/></filter><filter id="w" width="32" height="28" x="315" y="114" color-interpolation-filters="sRGB" filterUnits="userSpaceOnUse"><feFlood flood-opacity="0" result="BackgroundImageFix"/><feColorMatrix in="SourceAlpha" result="hardAlpha" values="0 0 0 0 0 0 0 0 0 0 0 0 0 0 0 0 0 0 127 0"/><feOffset dx="4"/><feColorMatrix values="0 0 0 0 0 0 0 0 0 0 0 0 0 0 0 0 0 0 0.25 0"/><feBlend in2="BackgroundImageFix" result="effect1_dropShadow"/><feBlend in="SourceGraphic" in2="effect1_dropShadow" result="shape"/><feColorMatrix in="SourceAlpha" result="hardAlpha" values="0 0 0 0 0 0 0 0 0 0 0 0 0 0 0 0 0 0 127 0"/><feOffset dx="16"/><feComposite in2="hardAlpha" k2="-1" k3="1" operator="arithmetic"/><feColorMatrix values="0 0 0 0 0 0 0 0 0 0 0 0 0 0 0 0 0 0 0.25 0"/><feBlend in2="shape" result="effect2_innerShadow"/></filter><filter id="x" width="114" height="202.667" x="12" y="121" color-interpolation-filters="sRGB" filterUnits="userSpaceOnUse"><feFlood flood-opacity="0" result="BackgroundImageFix"/><feColorMatrix in="SourceAlpha" result="hardAlpha" values="0 0 0 0 0 0 0 0 0 0 0 0 0 0 0 0 0 0 127 0"/><feOffset dx="-4" dy="4"/><feColorMatrix values="0 0 0 0 0 0 0 0 0 0 0 0 0 0 0 0 0 0 0.25 0"/><feBlend in2="BackgroundImageFix" result="effect1_dropShadow"/><feBlend in="SourceGraphic" in2="effect1_dropShadow" result="shape"/></filter><filter id="y" width="88" height="72" x="27" y="125" color-interpolation-filters="sRGB" filterUnits="userSpaceOnUse"><feFlood flood-opacity="0" result="BackgroundImageFix"/><feBlend in="SourceGraphic" in2="BackgroundImageFix" result="shape"/><feColorMatrix in="SourceAlpha" result="hardAlpha" values="0 0 0 0 0 0 0 0 0 0 0 0 0 0 0 0 0 0 127 0"/><feOffset dx="-24" dy="8"/><feComposite in2="hardAlpha" k2="-1" k3="1" operator="arithmetic"/><feColorMatrix values="0 0 0 0 1 0 0 0 0 1 0 0 0 0 1 0 0 0 0.25 0"/><feBlend in2="shape" result="effect1_innerShadow"/></filter><filter id="z" width="72" height="72" x="27" y="125" color-interpolation-filters="sRGB" filterUnits="userSpaceOnUse"><feFlood flood-opacity="0" result="BackgroundImageFix"/><feBlend in="SourceGraphic" in2="BackgroundImageFix" result="shape"/><feColorMatrix in="SourceAlpha" result="hardAlpha" values="0 0 0 0 0 0 0 0 0 0 0 0 0 0 0 0 0 0 127 0"/><feOffset dy="-16"/><feComposite in2="hardAlpha" k2="-1" k3="1" operator="arithmetic"/><feColorMatrix values="0 0 0 0 0 0 0 0 0 0 0 0 0 0 0 0 0 0 0.25 0"/><feBlend in2="shape" result="effect1_innerShadow"/><feColorMatrix in="SourceAlpha" result="hardAlpha" values="0 0 0 0 0 0 0 0 0 0 0 0 0 0 0 0 0 0 127 0"/><feOffset dy="16"/><feComposite in2="hardAlpha" k2="-1" k3="1" operator="arithmetic"/><feColorMatrix values="0 0 0 0 1 0 0 0 0 1 0 0 0 0 1 0 0 0 0.25 0"/><feBlend in2="effect1_innerShadow" result="effect2_innerShadow"/></filter><filter id="A" width="82" height="109.333" x="27" y="210.333" color-interpolation-filters="sRGB" filterUnits="userSpaceOnUse"><feFlood flood-opacity="0" result="BackgroundImageFix"/><feBlend in="SourceGraphic" in2="BackgroundImageFix" result="shape"/><feColorMatrix in="SourceAlpha" result="hardAlpha" values="0 0 0 0 0 0 0 0 0 0 0 0 0 0 0 0 0 0 127 0"/><feOffset dy="-16"/><feComposite in2="hardAlpha" k2="-1" k3="1" operator="arithmetic"/><feColorMatrix values="0 0 0 0 0 0 0 0 0 0 0 0 0 0 0 0 0 0 0.25 0"/><feBlend in2="shape" result="effect1_innerShadow"/><feColorMatrix in="SourceAlpha" result="hardAlpha" values="0 0 0 0 0 0 0 0 0 0 0 0 0 0 0 0 0 0 127 0"/><feOffset dy="16"/><feComposite in2="hardAlpha" k2="-1" k3="1" operator="arithmetic"/><feColorMatrix values="0 0 0 0 1 0 0 0 0 1 0 0 0 0 1 0 0 0 0.25 0"/><feBlend in2="effect1_innerShadow" result="effect2_innerShadow"/></filter></defs></svg>