<svg xmlns="http://www.w3.org/2000/svg" width="358" height="384" fill="none"><g filter="url(#a)"><path fill="#FF5252" d="M4 192c0-13.255 10.745-24 24-24h276c13.255 0 24 10.745 24 24v160c0 13.255-10.745 24-24 24H28c-13.255 0-24-10.745-24-24V192Z"/></g><path stroke="#1F2024" stroke-width="8" d="M4 192c0-13.255 10.745-24 24-24h276c13.255 0 24 10.745 24 24v160c0 13.255-10.745 24-24 24H28c-13.255 0-24-10.745-24-24V192Z"/><g filter="url(#b)"><path fill="#0022D3" fill-opacity=".8" fill-rule="evenodd" d="M28 168c-13.255 0-24 10.745-24 24v160c0 13.255 10.745 24 24 24h26c-13.255 0-24-10.745-24-24V192c0-13.255 10.745-24 24-24H28Z" clip-rule="evenodd"/></g><path fill="#1F2024" d="M8 192c0-11.046 8.954-20 20-20v-8c-15.464 0-28 12.536-28 28h8Zm0 160V192H0v160h8Zm20 20c-11.046 0-20-8.954-20-20H0c0 15.464 12.536 28 28 28v-8Zm26 0H28v8h26v-8Zm0 0c-11.046 0-20-8.954-20-20h-8c0 15.464 12.536 28 28 28v-8Zm-20-20V192h-8v160h8Zm0-160c0-11.046 8.954-20 20-20v-8c-15.464 0-28 12.536-28 28h8Zm-6-20h26v-8H28v8Z"/><g filter="url(#c)"><path fill="#0022D3" fill-opacity=".7" fill-rule="evenodd" d="M54.667 168c-13.255 0-24 10.745-24 24v160c0 13.255 10.745 24 24 24h26c-13.255 0-24-10.745-24-24V192c0-13.255 10.745-24 24-24h-26Z" clip-rule="evenodd"/></g><path fill="#1F2024" d="M34.667 192c0-11.046 8.954-20 20-20v-8c-15.464 0-28 12.536-28 28h8Zm0 160V192h-8v160h8Zm20 20c-11.046 0-20-8.954-20-20h-8c0 15.464 12.536 28 28 28v-8Zm26 0h-26v8h26v-8Zm0 0c-11.046 0-20-8.954-20-20h-8c0 15.464 12.536 28 28 28v-8Zm-20-20V192h-8v160h8Zm0-160c0-11.046 8.954-20 20-20v-8c-15.464 0-28 12.536-28 28h8Zm-6-20h26v-8h-26v8Z"/><g filter="url(#d)"><path fill="#0022D3" fill-opacity=".5" fill-rule="evenodd" d="M81.333 168c-13.255 0-24 10.745-24 24v160c0 13.255 10.745 24 24 24h26c-13.255 0-24-10.745-24-24V192c0-13.255 10.745-24 24-24h-26Z" clip-rule="evenodd"/></g><path fill="#1F2024" d="M61.333 192c0-11.046 8.955-20 20-20v-8c-15.464 0-28 12.536-28 28h8Zm0 160V192h-8v160h8Zm20 20c-11.045 0-20-8.954-20-20h-8c0 15.464 12.536 28 28 28v-8Zm26 0h-26v8h26v-8Zm0 0c-11.045 0-20-8.954-20-20h-8c0 15.464 12.536 28 28 28v-8Zm-20-20V192h-8v160h8Zm0-160c0-11.046 8.955-20 20-20v-8c-15.464 0-28 12.536-28 28h8Zm-6-20h26v-8h-26v8Z"/><g filter="url(#e)"><path fill="#0022D3" fill-opacity=".3" fill-rule="evenodd" d="M108 168c-13.255 0-24 10.745-24 24v160c0 13.255 10.745 24 24 24h26c-13.255 0-24-10.745-24-24V192c0-13.255 10.745-24 24-24h-26Z" clip-rule="evenodd"/></g><path fill="#1F2024" d="M88 192c0-11.046 8.954-20 20-20v-8c-15.464 0-28 12.536-28 28h8Zm0 160V192h-8v160h8Zm20 20c-11.046 0-20-8.954-20-20h-8c0 15.464 12.536 28 28 28v-8Zm26 0h-26v8h26v-8Zm0 0c-11.046 0-20-8.954-20-20h-8c0 15.464 12.536 28 28 28v-8Zm-20-20V192h-8v160h8Zm0-160c0-11.046 8.954-20 20-20v-8c-15.464 0-28 12.536-28 28h8Zm-6-20h26v-8h-26v8Z"/><g filter="url(#f)"><path fill="#FE204F" d="M184.919 219.276c-9.497 0-14.762 6.787-14.762 6.787s-5.265-6.787-14.762-6.787c-9.966 0-18.042 7.994-18.042 17.86 0 13.544 16.113 26.669 20.604 30.815 5.174 4.774 12.2 10.911 12.2 10.911s7.027-6.137 12.2-10.911c4.491-4.146 20.605-17.271 20.605-30.815 0-9.866-8.076-17.86-18.043-17.86Z"/><path stroke="#1F2024" stroke-width="8" d="M184.919 219.276c-9.497 0-14.762 6.787-14.762 6.787s-5.265-6.787-14.762-6.787c-9.966 0-18.042 7.994-18.042 17.86 0 13.544 16.113 26.669 20.604 30.815 5.174 4.774 12.2 10.911 12.2 10.911s7.027-6.137 12.2-10.911c4.491-4.146 20.605-17.271 20.605-30.815 0-9.866-8.076-17.86-18.043-17.86Z"/></g><g filter="url(#g)"><path fill="#FE204F" d="M285.419 219.276c-9.497 0-14.762 6.787-14.762 6.787s-5.265-6.787-14.762-6.787c-9.966 0-18.042 7.994-18.042 17.86 0 13.544 16.113 26.669 20.604 30.815 5.174 4.774 12.2 10.911 12.2 10.911s7.027-6.137 12.2-10.911c4.491-4.146 20.605-17.271 20.605-30.815 0-9.866-8.076-17.86-18.043-17.86Z"/><path stroke="#1F2024" stroke-width="8" d="M285.419 219.276c-9.497 0-14.762 6.787-14.762 6.787s-5.265-6.787-14.762-6.787c-9.966 0-18.042 7.994-18.042 17.86 0 13.544 16.113 26.669 20.604 30.815 5.174 4.774 12.2 10.911 12.2 10.911s7.027-6.137 12.2-10.911c4.491-4.146 20.605-17.271 20.605-30.815 0-9.866-8.076-17.86-18.043-17.86Z"/></g><path fill="#EB0D18" stroke="#1F2024" stroke-width="8" d="M244 302c4.418 0 8.092 3.627 7.122 7.938C247.507 326.001 233.155 338 216 338s-31.507-11.999-35.122-28.062c-.97-4.311 2.704-7.938 7.122-7.938h56Z"/><path fill="#FF3979" stroke="#1F2024" stroke-width="8" d="M216.393 314.061c6.796 7.794 20.017 23.939 0 23.939-15.851 0-29.325-10.003-34.247-23.939-2.484-18.082 27.452-7.794 34.247 0Z"/><g filter="url(#h)"><path fill="#E79834" d="m149.725 4.832 8.319 61.125L57.782 167H35.016c10.07-11.227 6.856-25.008-21.016-38.671 31.523-9.564 27.583-32.85 3.065-49.898 43.707-.463 55.463-9.819 49.474-45.74 51.801 20.828 69.093 13.238 83.186-27.86Z"/></g><path stroke="#1F2024" stroke-linejoin="round" stroke-width="8" d="m149.725 4.832 8.319 61.125L57.782 167H35.016c10.07-11.227 6.856-25.008-21.016-38.671 31.523-9.564 27.583-32.85 3.065-49.898 43.707-.463 55.463-9.819 49.474-45.74 51.801 20.828 69.093 13.238 83.186-27.86Z"/><g filter="url(#i)"><path fill="#F9E174" d="M90.62 93.816 66.1 32.276l47.723 43.66-23.205 17.88Z"/></g><path stroke="#1F2024" stroke-linejoin="round" stroke-width="8" d="M90.62 93.816 66.1 32.276l47.723 43.66-23.205 17.88Z"/><g filter="url(#j)"><path fill="#F9E174" d="m14 128.329 51.663-5.822-7.443 20.375L14 128.329Z"/></g><path stroke="#1F2024" stroke-linejoin="round" stroke-width="8" d="m14 128.329 51.663-5.822-7.443 20.375L14 128.329Z"/><g filter="url(#k)"><path fill="#F9E174" d="M141.406 66.788 150.163 4c8.131 30.399 15.082 44.026 32.837 60.71l-41.594 2.078Z"/></g><path stroke="#1F2024" stroke-linejoin="round" stroke-width="8" d="M141.406 66.788 150.163 4c8.131 30.399 15.082 44.026 32.837 60.71l-41.594 2.078Z"/><g filter="url(#l)"><path fill="#F9E174" d="M83.614 95.48 17.94 78.847l50.788 37.839L83.614 95.48Z"/></g><path stroke="#1F2024" stroke-linejoin="round" stroke-width="8" d="M83.614 95.48 17.94 78.847l50.788 37.839L83.614 95.48Z"/><g filter="url(#m)"><path fill="#F2C95C" fill-rule="evenodd" d="M243.648 118.959c-4.756-10.459-11.074-20.103-18.791-28.446C206.197 70.335 180.889 59 154.5 59c-26.389 0-51.697 11.335-70.357 31.513C65.483 110.69 55 138.465 55 167h272v-.018c15.001-.526 27-12.853 27-27.982 0-15.464-12.536-28-28-28a27.87 27.87 0 0 0-16.464 5.35c-8.919 1.524-16.191 4-22.692 6.213-14.927 5.082-25.789 8.781-43.196-3.604Z" clip-rule="evenodd"/></g><path fill="#1F2024" d="m224.857 90.513-2.937 2.715 2.937-2.715Zm18.791 28.446-3.641 1.656a4.01 4.01 0 0 0 1.322 1.603l2.319-3.259ZM154.5 59v-4 4ZM84.143 90.513l-2.937-2.716 2.937 2.716ZM55 167h-4a3.998 3.998 0 0 0 4 4v-4Zm272 0v4a4 4 0 0 0 4-4h-4Zm0-.018-.14-3.997a4 4 0 0 0-3.86 3.997h4Zm-17.464-50.632.673 3.943a3.997 3.997 0 0 0 1.681-.71l-2.354-3.233Zm-22.692 6.213 1.289 3.787-1.289-3.787ZM221.92 93.228c7.413 8.016 13.499 17.298 18.087 27.387l7.282-3.312c-4.925-10.829-11.475-20.834-19.495-29.506l-5.874 5.431ZM154.5 63c25.223 0 49.482 10.832 67.42 30.228l5.874-5.431C208.412 66.839 182.055 55 154.5 55v8ZM87.08 93.228C105.018 73.832 129.277 63 154.5 63v-8c-27.555 0-53.912 11.84-73.294 32.797l5.874 5.431ZM59 167c0-27.586 10.142-54.375 28.08-73.772l-5.874-5.431C61.824 108.755 51 137.516 51 167h8Zm136-4H55v8h140v-8Zm59 0h-59v8h59v-8Zm72 0h-72v8h72v-8Zm1 0h-1v8h1v-8Zm-4 3.982V167h8v-.018h-8ZM350 139c0 12.967-10.285 23.534-23.14 23.985l.28 7.995C344.287 170.378 358 156.291 358 139h-8Zm-24-24c13.255 0 24 10.745 24 24h8c0-17.673-14.327-32-32-32v8Zm-14.11 4.583A23.878 23.878 0 0 1 326 115v-8a31.873 31.873 0 0 0-18.819 6.116l4.709 6.467Zm-23.757 6.767c6.506-2.216 13.506-4.593 22.076-6.057l-1.347-7.886c-9.268 1.583-16.811 4.158-23.307 6.37l2.578 7.573Zm-46.804-4.132c9.223 6.562 17.086 9.107 24.854 9.093 7.536-.013 14.626-2.468 21.95-4.961l-2.578-7.573c-7.603 2.588-13.407 4.524-19.386 4.534-5.747.01-12.018-1.788-20.202-7.612l-4.638 6.519Z"/><path fill="#000" fill-opacity=".16" fill-rule="evenodd" d="M296.567 163h22.41C308.589 159.965 301 150.369 301 139a24.926 24.926 0 0 1 7.651-18h-8.026c-5.952 6.047-9.625 14.345-9.625 23.5a33.343 33.343 0 0 0 5.567 18.5Z" clip-rule="evenodd"/><path stroke="#fff" stroke-linecap="round" stroke-width="8" d="M208.594 93.176a76.243 76.243 0 0 0-7.094-6.202M154.5 71a77.12 77.12 0 0 1 37 9.445"/><path fill="#000" fill-opacity=".16" fill-rule="evenodd" d="M221.838 145.624C208.782 151.571 193.429 155 177 155c-47.496 0-86-28.654-86-64 0-.361.004-.722.012-1.081a99.578 99.578 0 0 0-6.87 6.264C65.484 114.865 55 140.583 55 167.004h199l-.001-.542c-12.877-4.355-23.983-11.626-32.161-20.838Z" clip-rule="evenodd"/><path stroke="#1F2024" stroke-linecap="round" stroke-linejoin="round" stroke-width="8" d="M298 139c0-15.464 12.536-28 28-28"/><circle cx="326" cy="139" r="12" fill="#E79834" stroke="#1F2024" stroke-linejoin="round" stroke-width="8"/><path stroke="#1F2024" stroke-linecap="round" stroke-linejoin="round" stroke-width="10" d="M162 122.013c-4-16.017-28-16.017-32 0"/><path stroke="#1F2024" stroke-linecap="round" stroke-linejoin="round" stroke-width="8" d="M129 121.255c-8.386-4.491-11.952-7.959-15.5-16.5M137.5 112.755c-6.121-3.766-9.193-8.168-12-15"/><path stroke="#1F2024" stroke-linecap="round" stroke-linejoin="round" stroke-width="10" d="M212 122.013c4-16.017 28-16.017 32 0"/><path stroke="#1F2024" stroke-linecap="round" stroke-linejoin="round" stroke-width="8" d="M245 121.255c8.386-4.491 11.952-7.959 15.5-16.5M236.5 112.755c6.121-3.766 9.193-8.168 12-15"/><path fill="#000" fill-opacity=".16" d="M243 167h55s28.5 37-3.5 37-51.5-37-51.5-37Z"/><circle cx="91" cy="141" r="16" fill="#E36776" fill-opacity=".5"/><defs><filter id="g" width="77.609" height="68.897" x="229.853" y="215.276" color-interpolation-filters="sRGB" filterUnits="userSpaceOnUse"><feFlood flood-opacity="0" result="BackgroundImageFix"/><feColorMatrix in="SourceAlpha" result="hardAlpha" values="0 0 0 0 0 0 0 0 0 0 0 0 0 0 0 0 0 0 127 0"/><feOffset dx="-4"/><feColorMatrix values="0 0 0 0 0.133333 0 0 0 0 0.133333 0 0 0 0 0.133333 0 0 0 1 0"/><feBlend in2="BackgroundImageFix" result="effect1_dropShadow"/><feBlend in="SourceGraphic" in2="effect1_dropShadow" result="shape"/></filter><filter id="a" width="332" height="216" x="0" y="164" color-interpolation-filters="sRGB" filterUnits="userSpaceOnUse"><feFlood flood-opacity="0" result="BackgroundImageFix"/><feBlend in="SourceGraphic" in2="BackgroundImageFix" result="shape"/><feColorMatrix in="SourceAlpha" result="hardAlpha" values="0 0 0 0 0 0 0 0 0 0 0 0 0 0 0 0 0 0 127 0"/><feOffset dx="-24" dy="8"/><feComposite in2="hardAlpha" k2="-1" k3="1" operator="arithmetic"/><feColorMatrix values="0 0 0 0 1 0 0 0 0 1 0 0 0 0 1 0 0 0 0.25 0"/><feBlend in2="shape" result="effect1_innerShadow"/></filter><filter id="c" width="54" height="216" x="26.667" y="164" color-interpolation-filters="sRGB" filterUnits="userSpaceOnUse"><feFlood flood-opacity="0" result="BackgroundImageFix"/><feBlend in="SourceGraphic" in2="BackgroundImageFix" result="shape"/><feColorMatrix in="SourceAlpha" result="hardAlpha" values="0 0 0 0 0 0 0 0 0 0 0 0 0 0 0 0 0 0 127 0"/><feOffset dy="-16"/><feComposite in2="hardAlpha" k2="-1" k3="1" operator="arithmetic"/><feColorMatrix values="0 0 0 0 0 0 0 0 0 0 0 0 0 0 0 0 0 0 0.25 0"/><feBlend in2="shape" result="effect1_innerShadow"/><feColorMatrix in="SourceAlpha" result="hardAlpha" values="0 0 0 0 0 0 0 0 0 0 0 0 0 0 0 0 0 0 127 0"/><feOffset dy="16"/><feComposite in2="hardAlpha" k2="-1" k3="1" operator="arithmetic"/><feColorMatrix values="0 0 0 0 1 0 0 0 0 1 0 0 0 0 1 0 0 0 0.25 0"/><feBlend in2="effect1_innerShadow" result="effect2_innerShadow"/></filter><filter id="d" width="54" height="216" x="53.333" y="164" color-interpolation-filters="sRGB" filterUnits="userSpaceOnUse"><feFlood flood-opacity="0" result="BackgroundImageFix"/><feBlend in="SourceGraphic" in2="BackgroundImageFix" result="shape"/><feColorMatrix in="SourceAlpha" result="hardAlpha" values="0 0 0 0 0 0 0 0 0 0 0 0 0 0 0 0 0 0 127 0"/><feOffset dy="-16"/><feComposite in2="hardAlpha" k2="-1" k3="1" operator="arithmetic"/><feColorMatrix values="0 0 0 0 0 0 0 0 0 0 0 0 0 0 0 0 0 0 0.25 0"/><feBlend in2="shape" result="effect1_innerShadow"/><feColorMatrix in="SourceAlpha" result="hardAlpha" values="0 0 0 0 0 0 0 0 0 0 0 0 0 0 0 0 0 0 127 0"/><feOffset dy="16"/><feComposite in2="hardAlpha" k2="-1" k3="1" operator="arithmetic"/><feColorMatrix values="0 0 0 0 1 0 0 0 0 1 0 0 0 0 1 0 0 0 0.25 0"/><feBlend in2="effect1_innerShadow" result="effect2_innerShadow"/></filter><filter id="e" width="54" height="216" x="80" y="164" color-interpolation-filters="sRGB" filterUnits="userSpaceOnUse"><feFlood flood-opacity="0" result="BackgroundImageFix"/><feBlend in="SourceGraphic" in2="BackgroundImageFix" result="shape"/><feColorMatrix in="SourceAlpha" result="hardAlpha" values="0 0 0 0 0 0 0 0 0 0 0 0 0 0 0 0 0 0 127 0"/><feOffset dy="-16"/><feComposite in2="hardAlpha" k2="-1" k3="1" operator="arithmetic"/><feColorMatrix values="0 0 0 0 0 0 0 0 0 0 0 0 0 0 0 0 0 0 0.25 0"/><feBlend in2="shape" result="effect1_innerShadow"/><feColorMatrix in="SourceAlpha" result="hardAlpha" values="0 0 0 0 0 0 0 0 0 0 0 0 0 0 0 0 0 0 127 0"/><feOffset dy="16"/><feComposite in2="hardAlpha" k2="-1" k3="1" operator="arithmetic"/><feColorMatrix values="0 0 0 0 1 0 0 0 0 1 0 0 0 0 1 0 0 0 0.25 0"/><feBlend in2="effect1_innerShadow" result="effect2_innerShadow"/></filter><filter id="f" width="77.609" height="68.897" x="129.353" y="215.276" color-interpolation-filters="sRGB" filterUnits="userSpaceOnUse"><feFlood flood-opacity="0" result="BackgroundImageFix"/><feColorMatrix in="SourceAlpha" result="hardAlpha" values="0 0 0 0 0 0 0 0 0 0 0 0 0 0 0 0 0 0 127 0"/><feOffset dx="-4"/><feColorMatrix values="0 0 0 0 0.133333 0 0 0 0 0.133333 0 0 0 0 0.133333 0 0 0 1 0"/><feBlend in2="BackgroundImageFix" result="effect1_dropShadow"/><feBlend in="SourceGraphic" in2="effect1_dropShadow" result="shape"/></filter><filter id="b" width="54" height="216" x="0" y="164" color-interpolation-filters="sRGB" filterUnits="userSpaceOnUse"><feFlood flood-opacity="0" result="BackgroundImageFix"/><feBlend in="SourceGraphic" in2="BackgroundImageFix" result="shape"/><feColorMatrix in="SourceAlpha" result="hardAlpha" values="0 0 0 0 0 0 0 0 0 0 0 0 0 0 0 0 0 0 127 0"/><feOffset dy="-16"/><feComposite in2="hardAlpha" k2="-1" k3="1" operator="arithmetic"/><feColorMatrix values="0 0 0 0 0 0 0 0 0 0 0 0 0 0 0 0 0 0 0.25 0"/><feBlend in2="shape" result="effect1_innerShadow"/><feColorMatrix in="SourceAlpha" result="hardAlpha" values="0 0 0 0 0 0 0 0 0 0 0 0 0 0 0 0 0 0 127 0"/><feOffset dy="16"/><feComposite in2="hardAlpha" k2="-1" k3="1" operator="arithmetic"/><feColorMatrix values="0 0 0 0 1 0 0 0 0 1 0 0 0 0 1 0 0 0 0.25 0"/><feBlend in2="effect1_innerShadow" result="effect2_innerShadow"/></filter><filter id="h" width="152.044" height="170.169" x="10" y=".831" color-interpolation-filters="sRGB" filterUnits="userSpaceOnUse"><feFlood flood-opacity="0" result="BackgroundImageFix"/><feBlend in="SourceGraphic" in2="BackgroundImageFix" result="shape"/><feColorMatrix in="SourceAlpha" result="hardAlpha" values="0 0 0 0 0 0 0 0 0 0 0 0 0 0 0 0 0 0 127 0"/><feOffset dx="16"/><feComposite in2="hardAlpha" k2="-1" k3="1" operator="arithmetic"/><feColorMatrix values="0 0 0 0 0 0 0 0 0 0 0 0 0 0 0 0 0 0 0.25 0"/><feBlend in2="shape" result="effect1_innerShadow"/><feColorMatrix in="SourceAlpha" result="hardAlpha" values="0 0 0 0 0 0 0 0 0 0 0 0 0 0 0 0 0 0 127 0"/><feOffset dx="-16" dy="8"/><feComposite in2="hardAlpha" k2="-1" k3="1" operator="arithmetic"/><feColorMatrix values="0 0 0 0 1 0 0 0 0 1 0 0 0 0 1 0 0 0 0.25 0"/><feBlend in2="effect1_innerShadow" result="effect2_innerShadow"/></filter><filter id="i" width="55.723" height="69.541" x="62.101" y="28.275" color-interpolation-filters="sRGB" filterUnits="userSpaceOnUse"><feFlood flood-opacity="0" result="BackgroundImageFix"/><feBlend in="SourceGraphic" in2="BackgroundImageFix" result="shape"/><feColorMatrix in="SourceAlpha" result="hardAlpha" values="0 0 0 0 0 0 0 0 0 0 0 0 0 0 0 0 0 0 127 0"/><feOffset dx="16"/><feComposite in2="hardAlpha" k2="-1" k3="1" operator="arithmetic"/><feColorMatrix values="0 0 0 0 0 0 0 0 0 0 0 0 0 0 0 0 0 0 0.25 0"/><feBlend in2="shape" result="effect1_innerShadow"/></filter><filter id="j" width="59.663" height="28.376" x="10" y="118.507" color-interpolation-filters="sRGB" filterUnits="userSpaceOnUse"><feFlood flood-opacity="0" result="BackgroundImageFix"/><feBlend in="SourceGraphic" in2="BackgroundImageFix" result="shape"/><feColorMatrix in="SourceAlpha" result="hardAlpha" values="0 0 0 0 0 0 0 0 0 0 0 0 0 0 0 0 0 0 127 0"/><feOffset dx="16"/><feComposite in2="hardAlpha" k2="-1" k3="1" operator="arithmetic"/><feColorMatrix values="0 0 0 0 0 0 0 0 0 0 0 0 0 0 0 0 0 0 0.25 0"/><feBlend in2="shape" result="effect1_innerShadow"/></filter><filter id="k" width="49.593" height="70.788" x="137.406" y="0" color-interpolation-filters="sRGB" filterUnits="userSpaceOnUse"><feFlood flood-opacity="0" result="BackgroundImageFix"/><feBlend in="SourceGraphic" in2="BackgroundImageFix" result="shape"/><feColorMatrix in="SourceAlpha" result="hardAlpha" values="0 0 0 0 0 0 0 0 0 0 0 0 0 0 0 0 0 0 127 0"/><feOffset dx="16"/><feComposite in2="hardAlpha" k2="-1" k3="1" operator="arithmetic"/><feColorMatrix values="0 0 0 0 0 0 0 0 0 0 0 0 0 0 0 0 0 0 0.25 0"/><feBlend in2="shape" result="effect1_innerShadow"/></filter><filter id="l" width="73.674" height="45.84" x="13.94" y="74.847" color-interpolation-filters="sRGB" filterUnits="userSpaceOnUse"><feFlood flood-opacity="0" result="BackgroundImageFix"/><feBlend in="SourceGraphic" in2="BackgroundImageFix" result="shape"/><feColorMatrix in="SourceAlpha" result="hardAlpha" values="0 0 0 0 0 0 0 0 0 0 0 0 0 0 0 0 0 0 127 0"/><feOffset dx="16"/><feComposite in2="hardAlpha" k2="-1" k3="1" operator="arithmetic"/><feColorMatrix values="0 0 0 0 0 0 0 0 0 0 0 0 0 0 0 0 0 0 0.25 0"/><feBlend in2="shape" result="effect1_innerShadow"/></filter><filter id="m" width="307" height="116" x="51" y="55" color-interpolation-filters="sRGB" filterUnits="userSpaceOnUse"><feFlood flood-opacity="0" result="BackgroundImageFix"/><feBlend in="SourceGraphic" in2="BackgroundImageFix" result="shape"/><feColorMatrix in="SourceAlpha" result="hardAlpha" values="0 0 0 0 0 0 0 0 0 0 0 0 0 0 0 0 0 0 127 0"/><feOffset dx="16"/><feComposite in2="hardAlpha" k2="-1" k3="1" operator="arithmetic"/><feColorMatrix values="0 0 0 0 0 0 0 0 0 0 0 0 0 0 0 0 0 0 0.25 0"/><feBlend in2="shape" result="effect1_innerShadow"/><feColorMatrix in="SourceAlpha" result="hardAlpha" values="0 0 0 0 0 0 0 0 0 0 0 0 0 0 0 0 0 0 127 0"/><feOffset dx="-16" dy="8"/><feComposite in2="hardAlpha" k2="-1" k3="1" operator="arithmetic"/><feColorMatrix values="0 0 0 0 1 0 0 0 0 1 0 0 0 0 1 0 0 0 0.25 0"/><feBlend in2="effect1_innerShadow" result="effect2_innerShadow"/></filter></defs></svg>