<svg xmlns="http://www.w3.org/2000/svg" width="353" height="418" fill="none"><g filter="url(#a)"><path fill="#E4B45D" d="M19 191c0-13.255 10.745-24 24-24h192c13.255 0 24 10.745 24 24v160c0 13.255-10.745 24-24 24H43c-13.255 0-24-10.745-24-24V191Z"/></g><path stroke="#1F2024" stroke-width="8" d="M19 191c0-13.255 10.745-24 24-24h192c13.255 0 24 10.745 24 24v160c0 13.255-10.745 24-24 24H43c-13.255 0-24-10.745-24-24V191Z"/><g filter="url(#b)"><path fill="#F0D07A" d="M119 191c0-13.255 10.745-24 24-24h176c13.255 0 24 10.745 24 24v160c0 13.255-10.745 24-24 24H143c-13.255 0-24-10.745-24-24V191Z"/></g><path stroke="#1F2024" stroke-width="8" d="M119 191c0-13.255 10.745-24 24-24h176c13.255 0 24 10.745 24 24v160c0 13.255-10.745 24-24 24H143c-13.255 0-24-10.745-24-24V191Z"/><path fill="#fff" fill-opacity=".5" d="M247 171h38l-56 200h-38l56-200ZM232 171h6l-56 200h-6l56-200Z"/><g filter="url(#c)"><path fill="#F42E3A" d="M147 217h28v64h-28z"/><path fill="#F93B84" d="M175 217h28v64h-28z"/><path fill="#86BC5A" d="M203 217h28v64h-28z"/><path fill="#45BBE8" d="M231 217h28v64h-28z"/><path fill="#FCF155" d="M259 217h28v64h-28z"/><path fill="#fff" d="M287 217h28v64h-28z"/><path fill="#1F2024" d="M163 221h136v-8H163v8Zm148 12v32h8v-32h-8Zm-12 44H163v8h136v-8Zm-148-12v-32h-8v32h8Zm12 12c-6.627 0-12-5.373-12-12h-8c0 11.046 8.954 20 20 20v-8Zm148-12c0 6.627-5.373 12-12 12v8c11.046 0 20-8.954 20-20h-8Zm-12-44c6.627 0 12 5.373 12 12h8c0-11.046-8.954-20-20-20v8Zm-136-8c-11.046 0-20 8.954-20 20h8c0-6.627 5.373-12 12-12v-8Z"/></g><path stroke="#1F2024" stroke-width="8" d="M59 286v40"/><g filter="url(#d)"><path fill="#EB0D18" d="m58 315 36 48-36 48-36-48 36-48Z"/></g><path stroke="#1F2024" stroke-width="8" d="m58 315 36 48-36 48-36-48 36-48Z"/><g filter="url(#e)"><path fill="#E4B45D" d="M20 246a8 8 0 0 1 8-8h65a8 8 0 0 1 8 8v40a8 8 0 0 1-8 8H28a8 8 0 0 1-8-8v-40Z"/></g><path stroke="#1F2024" stroke-width="8" d="M20 246a8 8 0 0 1 8-8h65a8 8 0 0 1 8 8v40a8 8 0 0 1-8 8H28a8 8 0 0 1-8-8v-40Z"/><g filter="url(#f)"><path fill="#F0D07A" d="M77 246a8 8 0 0 1 8-8h8a8 8 0 0 1 8 8v40a8 8 0 0 1-8 8h-8a8 8 0 0 1-8-8v-40Z"/></g><path stroke="#1F2024" stroke-width="8" d="M77 246a8 8 0 0 1 8-8h8a8 8 0 0 1 8 8v40a8 8 0 0 1-8 8h-8a8 8 0 0 1-8-8v-40Z"/><rect width="8" height="20" x="37" y="257" fill="#1F2024" rx="4"/><rect width="8" height="20" x="49" y="257" fill="#1F2024" rx="4"/><path stroke="#1F2024" stroke-linecap="round" stroke-width="12" d="M243 303a12 12 0 1 1-24 0"/><g filter="url(#g)"><path fill="#F2C95C" fill-rule="evenodd" d="M176.5 144c55.505 0 100.5-15.222 100.5-34s-44.995-34-100.5-34S76 91.222 76 110s44.995 34 100.5 34Zm0-16c37.832 0 68.5-6.268 68.5-14s-30.668-14-68.5-14-68.5 6.268-68.5 14 30.668 14 68.5 14Z" clip-rule="evenodd"/><path fill="#1F2024" d="M273 110c0 2.969-1.773 6.413-6.396 10.111-4.585 3.667-11.465 7.145-20.322 10.142C228.609 136.232 203.937 140 176.5 140v8c28.068 0 53.646-3.843 72.346-10.169 9.33-3.157 17.168-7.005 22.755-11.473C277.149 121.921 281 116.42 281 110h-8Zm-96.5-30c27.437 0 52.109 3.768 69.782 9.747 8.857 2.997 15.737 6.475 20.322 10.142C271.227 103.587 273 107.031 273 110h8c0-6.42-3.851-11.92-9.399-16.358-5.587-4.468-13.425-8.316-22.755-11.473C230.146 75.843 204.568 72 176.5 72v8ZM80 110c0-2.969 1.773-6.413 6.396-10.11 4.585-3.668 11.465-7.146 20.322-10.143C124.391 83.768 149.063 80 176.5 80v-8c-28.068 0-53.646 3.843-72.346 10.17-9.33 3.156-17.168 7.004-22.755 11.472C75.851 98.079 72 103.58 72 110h8Zm96.5 30c-27.437 0-52.109-3.768-69.782-9.747-8.857-2.997-15.737-6.475-20.322-10.142C81.773 116.413 80 112.969 80 110h-8c0 6.42 3.851 11.921 9.4 16.358 5.586 4.468 13.424 8.316 22.754 11.473C122.854 144.157 148.432 148 176.5 148v-8Zm64.5-26c0-.456.244-.47-.218-.009-.473.472-1.38 1.12-2.905 1.857-3.033 1.465-7.677 2.893-13.741 4.133C212.074 122.446 195.23 124 176.5 124v8c19.101 0 36.507-1.58 49.238-4.182 6.332-1.294 11.719-2.882 15.619-4.767 1.942-.938 3.726-2.049 5.078-3.399 1.363-1.361 2.565-3.263 2.565-5.652h-8Zm-64.5-10c18.73 0 35.574 1.554 47.636 4.019 6.064 1.24 10.708 2.668 13.741 4.133 1.525.737 2.432 1.385 2.905 1.857.462.461.218.447.218-.009h8c0-2.389-1.202-4.291-2.565-5.652-1.352-1.35-3.136-2.461-5.078-3.399-3.9-1.885-9.287-3.473-15.619-4.767C213.007 97.58 195.601 96 176.5 96v8ZM112 114c0 .456-.244.47.218.009.473-.472 1.38-1.12 2.905-1.857 3.033-1.465 7.677-2.893 13.741-4.133C140.926 105.554 157.77 104 176.5 104v-8c-19.101 0-36.507 1.58-49.238 4.182-6.332 1.294-11.719 2.882-15.619 4.767-1.942.938-3.726 2.049-5.078 3.399-1.363 1.361-2.565 3.263-2.565 5.652h8Zm64.5 10c-18.73 0-35.574-1.554-47.636-4.019-6.064-1.24-10.708-2.668-13.741-4.133-1.525-.737-2.432-1.385-2.905-1.857-.462-.461-.218-.447-.218.009h-8c0 2.389 1.202 4.291 2.565 5.652 1.352 1.35 3.136 2.461 5.078 3.399 3.9 1.885 9.287 3.473 15.619 4.767C139.993 130.42 157.399 132 176.5 132v-8Z"/></g><defs><filter id="a" width="248" height="216" x="15" y="163" color-interpolation-filters="sRGB" filterUnits="userSpaceOnUse"><feFlood flood-opacity="0" result="BackgroundImageFix"/><feBlend in="SourceGraphic" in2="BackgroundImageFix" result="shape"/><feColorMatrix in="SourceAlpha" result="hardAlpha" values="0 0 0 0 0 0 0 0 0 0 0 0 0 0 0 0 0 0 127 0"/><feOffset dy="-16"/><feComposite in2="hardAlpha" k2="-1" k3="1" operator="arithmetic"/><feColorMatrix values="0 0 0 0 0 0 0 0 0 0 0 0 0 0 0 0 0 0 0.25 0"/><feBlend in2="shape" result="effect1_innerShadow"/><feColorMatrix in="SourceAlpha" result="hardAlpha" values="0 0 0 0 0 0 0 0 0 0 0 0 0 0 0 0 0 0 127 0"/><feOffset dy="16"/><feComposite in2="hardAlpha" k2="-1" k3="1" operator="arithmetic"/><feColorMatrix values="0 0 0 0 1 0 0 0 0 1 0 0 0 0 1 0 0 0 0.25 0"/><feBlend in2="effect1_innerShadow" result="effect2_innerShadow"/></filter><filter id="b" width="232" height="216" x="115" y="163" color-interpolation-filters="sRGB" filterUnits="userSpaceOnUse"><feFlood flood-opacity="0" result="BackgroundImageFix"/><feBlend in="SourceGraphic" in2="BackgroundImageFix" result="shape"/><feColorMatrix in="SourceAlpha" result="hardAlpha" values="0 0 0 0 0 0 0 0 0 0 0 0 0 0 0 0 0 0 127 0"/><feOffset dx="-24" dy="8"/><feComposite in2="hardAlpha" k2="-1" k3="1" operator="arithmetic"/><feColorMatrix values="0 0 0 0 1 0 0 0 0 1 0 0 0 0 1 0 0 0 0.25 0"/><feBlend in2="shape" result="effect1_innerShadow"/></filter><filter id="c" width="184" height="72" x="139" y="213" color-interpolation-filters="sRGB" filterUnits="userSpaceOnUse"><feFlood flood-opacity="0" result="BackgroundImageFix"/><feColorMatrix in="SourceAlpha" result="hardAlpha" values="0 0 0 0 0 0 0 0 0 0 0 0 0 0 0 0 0 0 127 0"/><feOffset dx="-4"/><feColorMatrix values="0 0 0 0 1 0 0 0 0 1 0 0 0 0 1 0 0 0 0.25 0"/><feBlend in2="BackgroundImageFix" result="effect1_dropShadow"/><feColorMatrix in="SourceAlpha" result="hardAlpha" values="0 0 0 0 0 0 0 0 0 0 0 0 0 0 0 0 0 0 127 0"/><feOffset dx="4"/><feColorMatrix values="0 0 0 0 0 0 0 0 0 0 0 0 0 0 0 0 0 0 0.25 0"/><feBlend in2="effect1_dropShadow" result="effect2_dropShadow"/><feBlend in="SourceGraphic" in2="effect2_dropShadow" result="shape"/><feColorMatrix in="SourceAlpha" result="hardAlpha" values="0 0 0 0 0 0 0 0 0 0 0 0 0 0 0 0 0 0 127 0"/><feOffset dx="-4"/><feComposite in2="hardAlpha" k2="-1" k3="1" operator="arithmetic"/><feColorMatrix values="0 0 0 0 0 0 0 0 0 0 0 0 0 0 0 0 0 0 0.25 0"/><feBlend in2="shape" result="effect3_innerShadow"/></filter><filter id="d" width="82" height="109.333" x="17" y="308.333" color-interpolation-filters="sRGB" filterUnits="userSpaceOnUse"><feFlood flood-opacity="0" result="BackgroundImageFix"/><feBlend in="SourceGraphic" in2="BackgroundImageFix" result="shape"/><feColorMatrix in="SourceAlpha" result="hardAlpha" values="0 0 0 0 0 0 0 0 0 0 0 0 0 0 0 0 0 0 127 0"/><feOffset dy="-16"/><feComposite in2="hardAlpha" k2="-1" k3="1" operator="arithmetic"/><feColorMatrix values="0 0 0 0 0 0 0 0 0 0 0 0 0 0 0 0 0 0 0.25 0"/><feBlend in2="shape" result="effect1_innerShadow"/><feColorMatrix in="SourceAlpha" result="hardAlpha" values="0 0 0 0 0 0 0 0 0 0 0 0 0 0 0 0 0 0 127 0"/><feOffset dy="16"/><feComposite in2="hardAlpha" k2="-1" k3="1" operator="arithmetic"/><feColorMatrix values="0 0 0 0 1 0 0 0 0 1 0 0 0 0 1 0 0 0 0.25 0"/><feBlend in2="effect1_innerShadow" result="effect2_innerShadow"/></filter><filter id="e" width="89" height="64" x="16" y="234" color-interpolation-filters="sRGB" filterUnits="userSpaceOnUse"><feFlood flood-opacity="0" result="BackgroundImageFix"/><feBlend in="SourceGraphic" in2="BackgroundImageFix" result="shape"/><feColorMatrix in="SourceAlpha" result="hardAlpha" values="0 0 0 0 0 0 0 0 0 0 0 0 0 0 0 0 0 0 127 0"/><feOffset dy="-16"/><feComposite in2="hardAlpha" k2="-1" k3="1" operator="arithmetic"/><feColorMatrix values="0 0 0 0 0 0 0 0 0 0 0 0 0 0 0 0 0 0 0.25 0"/><feBlend in2="shape" result="effect1_innerShadow"/><feColorMatrix in="SourceAlpha" result="hardAlpha" values="0 0 0 0 0 0 0 0 0 0 0 0 0 0 0 0 0 0 127 0"/><feOffset dy="16"/><feComposite in2="hardAlpha" k2="-1" k3="1" operator="arithmetic"/><feColorMatrix values="0 0 0 0 1 0 0 0 0 1 0 0 0 0 1 0 0 0 0.25 0"/><feBlend in2="effect1_innerShadow" result="effect2_innerShadow"/></filter><filter id="f" width="32" height="64" x="73" y="234" color-interpolation-filters="sRGB" filterUnits="userSpaceOnUse"><feFlood flood-opacity="0" result="BackgroundImageFix"/><feBlend in="SourceGraphic" in2="BackgroundImageFix" result="shape"/><feColorMatrix in="SourceAlpha" result="hardAlpha" values="0 0 0 0 0 0 0 0 0 0 0 0 0 0 0 0 0 0 127 0"/><feOffset dx="-24" dy="8"/><feComposite in2="hardAlpha" k2="-1" k3="1" operator="arithmetic"/><feColorMatrix values="0 0 0 0 1 0 0 0 0 1 0 0 0 0 1 0 0 0 0.25 0"/><feBlend in2="shape" result="effect1_innerShadow"/></filter><filter id="g" width="353" height="220" x="0" y="0" color-interpolation-filters="sRGB" filterUnits="userSpaceOnUse"><feFlood flood-opacity="0" result="BackgroundImageFix"/><feColorMatrix in="SourceAlpha" result="hardAlpha" values="0 0 0 0 0 0 0 0 0 0 0 0 0 0 0 0 0 0 127 0"/><feOffset/><feGaussianBlur stdDeviation="8"/><feColorMatrix values="0 0 0 0 1 0 0 0 0 1 0 0 0 0 1 0 0 0 0.45 0"/><feBlend in2="BackgroundImageFix" result="effect1_dropShadow"/><feColorMatrix in="SourceAlpha" result="hardAlpha" values="0 0 0 0 0 0 0 0 0 0 0 0 0 0 0 0 0 0 127 0"/><feOffset/><feGaussianBlur stdDeviation="36"/><feColorMatrix values="0 0 0 0 1 0 0 0 0 1 0 0 0 0 1 0 0 0 0.55 0"/><feBlend in2="effect1_dropShadow" result="effect2_dropShadow"/><feBlend in="SourceGraphic" in2="effect2_dropShadow" result="shape"/><feColorMatrix in="SourceAlpha" result="hardAlpha" values="0 0 0 0 0 0 0 0 0 0 0 0 0 0 0 0 0 0 127 0"/><feOffset dy="16"/><feComposite in2="hardAlpha" k2="-1" k3="1" operator="arithmetic"/><feColorMatrix values="0 0 0 0 1 0 0 0 0 1 0 0 0 0 1 0 0 0 0.25 0"/><feBlend in2="shape" result="effect3_innerShadow"/></filter></defs></svg>