<svg xmlns="http://www.w3.org/2000/svg" width="94" height="93" fill="none"><g filter="url(#a)"><path fill="#EDB146" d="M76.926 33.517c-.57-1.213-1.885-1.998-3.342-1.998h-16.98l15.27-23.563a3.023 3.023 0 0 0 .019-3.3C71.242 3.632 70.04 3 68.736 3H39.654c-1.326 0-2.547.654-3.185 1.705L9.81 48.579a3.023 3.023 0 0 0 .056 3.26c.655 1.003 1.845 1.617 3.13 1.617h16.42L14.48 86.205c-.667 1.463-.09 3.148 1.374 4.012.61.358 1.3.533 1.988.533.962 0 1.919-.347 2.624-1.013l55.743-52.65c1.008-.953 1.292-2.357.717-3.57Z"/></g><path stroke="#1F2024" stroke-width="4.49" d="M76.926 33.517c-.57-1.213-1.885-1.998-3.342-1.998h-16.98l15.27-23.563a3.023 3.023 0 0 0 .019-3.3C71.242 3.632 70.04 3 68.736 3H39.654c-1.326 0-2.547.654-3.185 1.705L9.81 48.579a3.023 3.023 0 0 0 .056 3.26c.655 1.003 1.845 1.617 3.13 1.617h16.42L14.48 86.205c-.667 1.463-.09 3.148 1.374 4.012.61.358 1.3.533 1.988.533.962 0 1.919-.347 2.624-1.013l55.743-52.65c1.008-.953 1.292-2.357.717-3.57Z"/><defs><filter id="a" width="72.351" height="92.24" x="7.115" y=".755" color-interpolation-filters="sRGB" filterUnits="userSpaceOnUse"><feFlood flood-opacity="0" result="BackgroundImageFix"/><feBlend in="SourceGraphic" in2="BackgroundImageFix" result="shape"/><feColorMatrix in="SourceAlpha" result="hardAlpha" values="0 0 0 0 0 0 0 0 0 0 0 0 0 0 0 0 0 0 127 0"/><feOffset dy="-14.976"/><feComposite in2="hardAlpha" k2="-1" k3="1" operator="arithmetic"/><feColorMatrix values="0 0 0 0 0 0 0 0 0 0 0 0 0 0 0 0 0 0 0.25 0"/><feBlend in2="shape" result="effect1_innerShadow"/><feColorMatrix in="SourceAlpha" result="hardAlpha" values="0 0 0 0 0 0 0 0 0 0 0 0 0 0 0 0 0 0 127 0"/><feOffset dy="14.976"/><feComposite in2="hardAlpha" k2="-1" k3="1" operator="arithmetic"/><feColorMatrix values="0 0 0 0 1 0 0 0 0 1 0 0 0 0 1 0 0 0 0.25 0"/><feBlend in2="effect1_innerShadow" result="effect2_innerShadow"/></filter></defs></svg>