<svg xmlns="http://www.w3.org/2000/svg" width="377" height="108" fill="none"><g filter="url(#a)"><path fill="#1F2024" d="M4 14h152v20L4 26V14Z"/></g><g filter="url(#b)"><mask id="d" fill="#fff"><path fill-rule="evenodd" d="M142.312 7.128A8 8 0 0 1 150.264 0h212.3a8 8 0 0 1 7.953 7.128l6.032 55.044c1.284 11.722-6.137 22.64-17.509 25.76l-55.436 15.205c-13.01 3.569-26.405-4.284-29.645-17.38l-1.116-4.51a16.924 16.924 0 0 0-32.857 0l-1.116 4.51c-3.24 13.096-16.635 20.949-29.646 17.38l-55.435-15.205c-11.372-3.12-18.794-14.038-17.509-25.76l6.032-55.044Z" clip-rule="evenodd"/></mask><path fill="url(#c)" fill-rule="evenodd" d="M142.312 7.128A8 8 0 0 1 150.264 0h212.3a8 8 0 0 1 7.953 7.128l6.032 55.044c1.284 11.722-6.137 22.64-17.509 25.76l-55.436 15.205c-13.01 3.569-26.405-4.284-29.645-17.38l-1.116-4.51a16.924 16.924 0 0 0-32.857 0l-1.116 4.51c-3.24 13.096-16.635 20.949-29.646 17.38l-55.435-15.205c-11.372-3.12-18.794-14.038-17.509-25.76l6.032-55.044Z" clip-rule="evenodd"/><path fill="#1F2024" d="m142.312 7.128-7.952-.871 7.952.871Zm228.205 0 7.952-.871-7.952.871Zm6.032 55.044-7.953.872 7.953-.872Zm-17.509 25.76 2.116 7.715-2.116-7.715Zm-55.436 15.205 2.117 7.715-2.117-7.715Zm-29.645-17.38 7.765-1.922-7.765 1.921Zm-35.089 0 7.766 1.92-7.766-1.92Zm-29.646 17.38-2.116 7.715 2.116-7.715Zm-55.435-15.205-2.116 7.715 2.116-7.715Zm-17.509-25.76-7.953-.871 7.953.871Zm103.706 19.076-7.766-1.922 7.766 1.922Zm32.857 0 7.766-1.922-7.766 1.922ZM150.264-8c-8.161 0-15.015 6.144-15.904 14.257L150.264 8V-8Zm44.827 0h-44.827V8h44.827V-8Zm0 16h34.335V-8h-34.335V8Zm34.335 0h53.976V-8h-53.976V8Zm53.976 0h45.64V-8h-45.64V8Zm45.64 0h33.522V-8h-33.522V8Zm33.522 0 15.905-1.743C377.58-1.856 370.726-8 362.564-8V8Zm0 0 6.032 55.044 15.905-1.743-6.032-55.044L362.564 8Zm6.032 55.044a16 16 0 0 1-11.672 17.173l4.232 15.43c15.163-4.159 25.058-18.717 23.345-34.346l-15.905 1.743Zm-11.672 17.173-55.436 15.205 4.233 15.43 55.435-15.205-4.232-15.43Zm-55.436 15.205c-8.673 2.38-17.603-2.856-19.764-11.587l-15.531 3.843c4.32 17.462 22.18 27.932 39.528 23.174l-4.233-15.43Zm-19.764-11.587-1.115-4.509-15.532 3.843 1.116 4.509 15.531-3.843Zm-35.088 3.843 1.115-4.509-15.531-3.843-1.116 4.509 15.532 3.843Zm-39.528 23.174c17.348 4.758 35.207-5.712 39.528-23.174l-15.532-3.843c-2.16 8.73-11.09 13.966-19.764 11.587l-4.232 15.43Zm-55.435-15.205 55.435 15.205 4.232-15.43-55.435-15.205-4.232 15.43Zm-23.346-34.346c-1.712 15.63 8.183 30.187 23.346 34.346l4.232-15.43a16 16 0 0 1-11.673-17.173L128.327 61.3Zm6.033-55.044-6.033 55.044 15.905 1.743L150.264 8 134.36 6.257Zm122.054 54.131a24.924 24.924 0 0 0-24.194 18.938l15.531 3.843a8.925 8.925 0 0 1 8.663-6.78v-16Zm24.195 18.938a24.925 24.925 0 0 0-24.195-18.938v16a8.924 8.924 0 0 1 8.663 6.781l15.532-3.843Z" mask="url(#d)"/></g><defs><filter id="a" width="156" height="24" x="0" y="14" color-interpolation-filters="sRGB" filterUnits="userSpaceOnUse"><feFlood flood-opacity="0" result="BackgroundImageFix"/><feColorMatrix in="SourceAlpha" result="hardAlpha" values="0 0 0 0 0 0 0 0 0 0 0 0 0 0 0 0 0 0 127 0"/><feOffset dx="-4" dy="4"/><feColorMatrix values="0 0 0 0 0 0 0 0 0 0 0 0 0 0 0 0 0 0 0.25 0"/><feBlend in2="BackgroundImageFix" result="effect1_dropShadow"/><feBlend in="SourceGraphic" in2="effect1_dropShadow" result="shape"/></filter><filter id="b" width="244.557" height="107.999" x="132.136" y="0" color-interpolation-filters="sRGB" filterUnits="userSpaceOnUse"><feFlood flood-opacity="0" result="BackgroundImageFix"/><feColorMatrix in="SourceAlpha" result="hardAlpha" values="0 0 0 0 0 0 0 0 0 0 0 0 0 0 0 0 0 0 127 0"/><feOffset dx="-4" dy="4"/><feColorMatrix values="0 0 0 0 0 0 0 0 0 0 0 0 0 0 0 0 0 0 0.25 0"/><feBlend in2="BackgroundImageFix" result="effect1_dropShadow"/><feBlend in="SourceGraphic" in2="effect1_dropShadow" result="shape"/></filter><linearGradient id="c" x1="144.27" x2="376.112" y1="6.902" y2="81.343" gradientUnits="userSpaceOnUse"><stop stop-color="#EBBFFF"/><stop offset=".239" stop-color="#FF002E"/><stop offset=".516" stop-color="#4EE5EF"/><stop offset=".75" stop-color="#2400FF"/><stop offset=".974" stop-color="#CFC7FF"/></linearGradient></defs></svg>